<?xml version="1.0" encoding="UTF-8"?>
<svg width="32px" height="32px" viewBox="0 0 32 32" version="1.1" xmlns="http://www.w3.org/2000/svg" xmlns:xlink="http://www.w3.org/1999/xlink">
    <!-- Generator: Sketch 47.1 (45422) - http://www.bohemiancoding.com/sketch -->
    <title>favicon-32</title>
    <desc>Created with Sketch.</desc>
    <defs>
        <polygon id="path-1" points="0 28 28 28 28 0 0 0"></polygon>
        <path d="M25.6667494,19.7114126 L24.8240157,18.5816224 C24.7904652,18.5365874 24.6199332,18.3116084 24.3332648,17.9754126 L24.3332648,2.30128671 L25.6667494,2.30128671 L25.6667494,19.7114126 Z M25.6667494,25.6987133 L20.0165626,25.6987133 C22.8622032,23.9024056 24.7039088,21.4701259 24.8240157,21.3087832 L25.6667494,20.178993 L25.6667494,25.6987133 Z M5.05560794,19.9452028 C5.05560794,19.9452028 9.06023071,14.5752727 14.0000993,14.5752727 C18.9397693,14.5752727 22.9443921,19.9452028 22.9443921,19.9452028 C22.9443921,19.9452028 18.9397693,25.3151329 14.0000993,25.3151329 C9.06023071,25.3151329 5.05560794,19.9452028 5.05560794,19.9452028 L5.05560794,19.9452028 Z M2.33344914,25.6987133 L2.33344914,20.178993 L3.17598429,21.3087832 C3.29628973,21.4701259 5.13799533,23.9024056 7.98343744,25.6987133 L2.33344914,25.6987133 Z M2.33344914,2.30128671 L3.6667352,2.30128671 L3.6667352,17.9754126 C3.38006679,18.3116084 3.20953482,18.5365874 3.17598429,18.5816224 L2.33344914,19.7114126 L2.33344914,2.30128671 Z M6.00018434,2.30128671 L7.33307336,2.30128671 L7.33307336,14.6261818 C6.85403535,14.9615944 6.40755525,15.3091469 6.00018434,15.6541538 L6.00018434,2.30128671 Z M9.6665225,2.30128671 L11.0000071,2.30128671 L11.0000071,12.7613427 C10.54102,12.9081958 10.095731,13.0818741 9.6665225,13.2780699 L9.6665225,2.30128671 Z M13.3332577,2.30128671 L14.6667423,2.30128671 L14.6667423,12.3008112 C14.4463808,12.2847552 14.2244312,12.273986 14.0000993,12.273986 C13.7755688,12.273986 13.5536192,12.2847552 13.3332577,12.3008112 L13.3332577,2.30128671 Z M16.9999929,12.6575664 L16.9999929,2.30128671 L18.3334775,2.30128671 L18.3334775,13.2780699 C17.7994484,13.0339021 17.242192,12.8222378 16.6628994,12.6575664 L16.9999929,12.6575664 Z M20.6669266,2.30128671 L21.9998157,2.30128671 L21.9998157,15.6541538 C21.5924448,15.3091469 21.1459646,14.9615944 20.6669266,14.6261818 L20.6669266,2.30128671 Z M14.6086731,0 L13.3913269,0 L12.6955968,0 L11.478147,0 L5.04339527,0 L3.82594542,0 L3.13052614,0 L1.91307629,0 L0,0 L0,28 L13.3913269,28 L14.6086731,28 L28,28 L28,0 L14.6086731,0 Z" id="path-3"></path>
    </defs>
    <g id="Symbols" stroke="none" stroke-width="1" fill="none" fill-rule="evenodd">
        <g id="favicon-32">
            <g id="z" transform="translate(2.000000, 2.000000)">
                <path d="M14,15.6153846 C16.3789465,15.6153846 18.3076923,17.5439305 18.3076923,19.9230769 C18.3076923,22.3022233 16.3789465,24.2307692 14,24.2307692 C11.6210535,24.2307692 9.69230769,22.3022233 9.69230769,19.9230769 C9.69230769,17.5439305 11.6210535,15.6153846 14,15.6153846 Z" id="Fill-1" fill="#333333"></path>
                <mask id="mask-2" fill="white">
                    <use xlink:href="#path-1"></use>
                </mask>
                <g id="Clip-4"></g>
                <mask id="mask-4" fill="white">
                    <use xlink:href="#path-3"></use>
                </mask>
                <use id="Fill-3" fill="#333333" xlink:href="#path-3"></use>
            </g>
        </g>
    </g>
</svg>