<?xml version="1.0" encoding="UTF-8"?>
<svg width="120px" height="98px" viewBox="0 0 120 98" version="1.1" xmlns="http://www.w3.org/2000/svg" xmlns:xlink="http://www.w3.org/1999/xlink">
    <!-- Generator: Sketch 49.2 (51160) - http://www.bohemiancoding.com/sketch -->
    <title>Page 1</title>
    <desc>Created with Sketch.</desc>
    <defs>
        <polygon id="path-1" points="0.6179 0.4106 13.5369 0.4106 13.5369 5 0.6179 5"></polygon>
    </defs>
    <g id="Bootstrap-4-Grid-System" stroke="none" stroke-width="1" fill="none" fill-rule="evenodd">
        <g id="Home" transform="translate(-736.000000, -1797.000000)">
            <g id="Page-1" transform="translate(736.000000, 1797.000000)">
                <path d="M105.0198,72.4769 C99.2908,74.0909 93.6088,75.9249 87.6118,76.2889 C93.7038,76.3639 99.3398,74.3169 105.0198,72.4769 M87.6048,69.5119 C87.6338,69.6279 87.6618,69.7449 87.6908,69.8609 C94.6008,67.7709 101.5108,65.6819 108.4208,63.5919 C108.3858,63.4769 108.3508,63.3619 108.3158,63.2469 C101.4128,65.3349 94.5088,67.4229 87.6048,69.5119 M91.6448,64.7249 C98.1738,61.9099 104.9288,60.3969 112.1148,61.2819 C104.8088,59.6929 98.1378,61.7339 91.6448,64.7249 M91.7278,73.6289 C89.0548,73.7759 86.3818,73.9229 83.7088,74.0699 C83.6688,73.9009 83.6288,73.7319 83.5878,73.5629 C83.9978,73.3749 84.3908,73.0839 84.8188,73.0169 C88.4558,72.4519 92.1018,71.9499 95.7378,71.3829 C102.6388,70.3079 109.2348,68.4459 114.7428,63.8429 C114.8538,63.7499 115.0478,63.7559 115.0458,63.4649 C106.2438,70.7659 95.3858,70.8229 85.0058,72.5029 C84.9438,72.3639 84.8818,72.2239 84.8188,72.0839 C85.2878,71.8649 85.7348,71.5549 86.2278,71.4399 C91.3258,70.2479 96.4428,69.1349 101.5288,67.8939 C103.6208,67.3829 105.6498,66.6149 107.9448,65.8879 C100.5488,67.6589 93.4108,69.3679 86.2728,71.0759 C86.1738,70.9309 86.0748,70.7859 85.9768,70.6409 C86.7438,69.8419 87.3668,68.7429 88.3018,68.2909 C94.6988,65.2069 101.3458,62.9239 108.5218,62.5229 C109.5178,62.4669 110.5028,62.2339 111.4858,62.0409 C103.4498,61.8419 96.0598,64.3169 88.4298,67.6789 C89.8978,65.8799 91.1138,64.3909 92.7918,62.3359 C95.5318,61.4199 98.8388,59.7089 102.2908,59.3329 C105.7278,58.9589 109.3118,59.9269 112.8708,60.0839 C109.4948,59.5999 106.0658,58.5069 102.7588,58.7989 C99.3888,59.0959 96.1388,60.7539 92.4698,61.9339 C93.0178,61.2979 93.3138,60.6619 93.7998,60.4399 C96.2648,59.3139 98.7308,58.1519 101.2968,57.3059 C102.4738,56.9179 103.8808,57.1949 105.1808,57.2369 C105.7028,57.2529 106.2198,57.4489 106.7628,57.4369 C105.3908,56.5959 103.8808,56.2639 102.3308,56.6219 C100.8268,56.9679 99.3428,57.4629 97.9078,58.0369 C96.4428,58.6219 95.0478,59.3809 93.5408,60.1039 C93.3748,59.0269 93.6698,58.3379 94.5198,57.7739 C98.8858,54.8749 103.5158,53.4199 108.7268,55.0849 C109.8588,55.4479 110.9438,55.9579 112.0828,56.3139 C110.2408,55.1309 108.2978,54.3329 106.0538,54.0919 C103.8248,53.8529 101.7068,54.0609 99.6608,54.8569 C97.6158,55.6519 95.6298,56.5999 93.5008,57.5319 C93.4708,57.3069 93.4258,56.9649 93.3688,56.5339 C95.5628,55.5039 97.6168,54.2849 99.8308,53.5509 C105.6028,51.6399 111.0228,52.0139 115.6718,56.5219 C116.6438,57.4629 117.9258,58.0809 119.0538,58.8649 C119.3278,59.0549 119.5578,59.3089 119.8838,59.6039 C118.8268,61.2559 117.8368,62.8529 116.8008,64.4169 C113.9748,68.6849 110.1438,71.6509 105.3978,73.6029 C102.6508,74.7329 100.0838,76.3009 97.4398,77.6819 C94.2668,79.3399 90.9028,79.8349 87.4038,79.1839 C85.0048,78.7379 82.6348,78.1339 80.2558,77.5799 C79.8678,77.4889 79.5038,77.2899 79.1288,77.1419 C79.1368,77.0169 79.1448,76.8909 79.1518,76.7649 C79.6188,76.7019 80.0858,76.6389 80.5138,76.5809 C80.7208,75.3779 81.5788,75.6449 82.4348,75.7949 C83.2628,75.9419 84.1068,76.0019 84.9798,75.8459 C84.0298,75.7069 83.0808,75.5689 82.1298,75.4299 C82.1018,75.2919 82.0728,75.1539 82.0438,75.0149 C82.5648,74.8139 83.0738,74.4799 83.6078,74.4329 C86.3028,74.1979 89.0028,74.0379 91.7018,73.8499 C91.7108,73.7769 91.7198,73.7029 91.7278,73.6289" id="Fill-1" fill="#CCB581"></path>
                <path d="M54.2473,92.8353 C53.6643,92.4393 53.0583,92.0713 52.5043,91.6363 C52.1543,91.3603 51.8833,90.9843 51.5233,90.5963 C46.8833,95.4213 42.4763,93.4403 37.9833,90.1263 C35.8883,86.3543 37.5673,76.9543 40.8893,75.9573 C38.7113,79.9223 37.2753,83.8843 38.7993,87.9903 C38.9293,85.9203 38.9263,83.5703 39.2623,81.2713 C39.6113,78.8793 40.6673,76.7513 42.7043,75.1863 C39.7443,80.1603 39.5993,85.2443 41.9273,90.4433 C41.5743,88.9063 41.1433,87.3823 40.8823,85.8293 C40.1843,81.6783 41.5003,78.0123 43.8283,74.6573 C44.1393,74.2093 44.8413,74.0323 45.4823,73.7833 C42.4713,78.9093 40.7793,84.1123 44.0733,89.7273 C42.0513,85.5663 42.3403,81.3703 44.2283,77.3123 C45.1673,75.2933 46.1553,73.1723 48.3043,71.8963 C45.5643,77.6923 43.8213,83.5613 46.6633,89.8313 C45.6243,86.2603 45.2473,82.6753 46.2693,79.0353 C47.2523,75.5313 48.2983,72.0693 51.1563,69.4823 C48.4433,74.7723 46.4193,80.2273 47.4223,86.2833 C47.7263,88.1143 48.4963,89.8683 49.3233,91.6293 C45.9483,83.6793 47.8033,76.4193 52.0133,69.4573 C52.1353,69.2553 52.5823,69.2503 53.2803,69.0213 C52.5043,71.4173 51.8033,73.4433 51.1913,75.4973 C49.9383,79.6993 48.6113,83.8993 49.3543,88.3893 C49.4923,89.2253 49.6413,90.0583 49.9973,90.9153 C48.3893,83.2803 51.3053,76.4983 53.7443,69.4243 C54.2013,69.7513 54.5213,69.9813 54.8813,70.2383 C53.3503,76.9723 51.8353,83.6353 50.3203,90.2983 C50.4373,90.3243 50.5543,90.3513 50.6713,90.3773 C52.2263,83.8543 53.7803,77.3303 55.3893,70.5753 C56.1273,70.9913 56.5693,71.2413 57.2333,71.6153 C55.6083,77.9333 53.9963,84.2023 52.3843,90.4723 C52.5163,90.5073 52.6473,90.5433 52.7793,90.5783 C54.3843,84.4363 55.9883,78.2933 57.6223,72.0383 C57.9793,72.2493 58.2963,72.4363 58.7003,72.6743 C58.7053,79.4473 56.2103,85.4163 53.0063,91.2323 C55.6083,89.2313 57.8793,86.9283 59.0663,83.8863 C60.2253,80.9163 60.9883,77.7923 61.9593,74.6233 C62.5673,74.9403 63.3003,75.3233 64.2183,75.8033 C62.7613,79.4323 61.5743,83.1543 59.7843,86.5603 C58.6873,88.6463 56.6663,90.2463 55.0533,92.0583 C54.8013,92.3403 54.5103,92.5873 54.2373,92.8513 L54.2473,92.8353 Z" id="Fill-3" fill="#CCB581"></path>
                <path d="M5.7732,29.4671 C5.3582,28.9231 4.9432,28.3791 4.5282,27.8361 C4.4282,27.8991 4.3282,27.9611 4.2282,28.0241 C4.7292,28.9251 5.2812,29.8011 5.7222,30.7311 C7.7432,34.9991 9.9012,39.2121 11.6852,43.5781 C13.3432,47.6381 16.3912,50.2931 19.7022,52.8551 C23.0772,55.4671 27.0702,56.5881 31.0112,57.8651 C32.3372,58.2951 33.6892,58.6461 35.0142,59.0801 C35.3882,59.2021 35.7082,59.4911 36.0082,59.7841 C29.4032,58.4751 23.0092,56.7701 17.4282,52.7001 C14.4012,50.4931 12.4652,47.6511 10.9632,44.3671 C8.5142,39.0171 6.0642,33.6661 3.5272,28.3321 C3.8762,29.3621 4.1492,30.4241 4.5872,31.4141 C6.7962,36.4141 9.0472,41.3961 11.2862,46.3831 C12.8162,49.7921 15.6862,51.9061 18.5862,54.0191 C22.8372,57.1141 27.7022,58.5581 32.7732,59.5281 C34.8162,59.9181 36.9292,60.2431 38.4682,62.3081 C37.3612,61.9661 36.4572,61.6461 35.5322,61.4091 C31.8152,60.4621 27.9392,59.9281 24.4052,58.5271 C17.8912,55.9431 12.3492,51.9611 9.2952,45.3101 C7.3082,40.9841 5.3372,36.6461 3.4862,32.2601 C2.5712,30.0911 1.9692,27.7911 1.1692,25.5711 C0.8892,24.7951 0.4402,24.0791 0.0002,23.1981 C0.5652,23.0141 0.9112,22.9011 1.2932,22.7761 C4.7942,25.8801 9.2122,26.1491 13.4792,26.8961 C15.0782,27.1751 16.6692,27.5081 18.2522,27.8711 C19.1822,28.0841 19.7562,28.6401 19.5542,29.8341 C17.0962,29.0431 14.6662,28.2621 12.2352,27.4801 C12.2102,27.5611 12.1852,27.6431 12.1592,27.7241 C14.6892,28.6511 17.2182,29.5761 19.7982,30.5221 C19.9152,31.1411 20.0202,31.6951 20.1662,32.4641 C17.2872,30.9761 14.5932,29.5831 11.8992,28.1921 C11.8702,28.2591 11.8412,28.3271 11.8122,28.3961 C14.2812,29.8201 16.7302,31.2811 19.2302,32.6501 C20.3182,33.2441 20.6202,34.1041 20.5452,35.4281 C16.3962,32.7891 12.3452,30.2141 8.2942,27.6381 C8.2052,27.7421 8.1152,27.8471 8.0252,27.9511 C8.7242,28.5981 9.4292,29.2381 10.1192,29.8931 C13.0682,32.6981 16.0092,35.5151 18.9662,38.3131 C19.5282,38.8441 20.2372,39.2401 20.7222,39.8281 C21.2392,40.4551 21.5712,41.2371 21.8202,42.0511 C19.0672,40.9881 17.3392,38.8881 15.5812,36.7741 C13.2102,33.9221 10.7152,31.1761 8.2732,28.3841 L7.9012,28.6681 C7.9842,28.8581 8.0672,29.0461 8.2642,29.4951 C7.7132,29.1021 7.3482,28.8411 6.7192,28.3921 C8.2242,30.1651 9.5992,31.6191 10.7782,33.2171 C12.2952,35.2751 13.7012,37.4191 15.0732,39.5781 C17.3182,43.1081 20.4622,45.5951 23.9692,47.7741 C25.3372,48.6241 26.3812,49.9961 27.7022,51.2541 C25.5662,51.0441 21.7532,48.9121 19.8812,47.1961 C15.7732,43.4261 13.2612,38.5311 10.3272,33.9291 C9.3662,32.4211 8.2852,30.9891 7.0162,29.6981 C8.0162,31.1951 9.0322,32.6801 10.0112,34.1891 C12.2242,37.6011 14.3102,41.1021 16.6532,44.4211 C18.7242,47.3531 21.5532,49.4211 24.8912,50.8561 C26.9412,51.7371 28.8432,52.9621 30.8152,54.0291 C31.4602,54.3771 32.1442,54.6641 32.7512,55.0691 C33.1772,55.3531 33.5022,55.7871 33.7552,56.2881 C28.5872,54.6851 23.6552,52.7711 19.4082,49.3411 C15.2472,45.9811 13.4452,41.1201 10.8722,36.7271 C9.4942,34.3741 7.8122,32.2001 6.2662,29.9461 C6.1022,29.7861 5.9382,29.6261 5.7732,29.4671" id="Fill-5" fill="#CCB581"></path>
                <path d="M6.1604,55.3548 C6.1544,55.4578 6.1474,55.5598 6.1414,55.6618 C8.5464,56.2518 10.9434,56.8798 13.3594,57.4218 C15.8014,57.9688 18.2624,58.4298 20.7144,58.9288 C20.7394,58.8058 20.7634,58.6828 20.7874,58.5598 C15.9114,57.4918 11.0364,56.4228 6.1604,55.3548 M6.6504,61.5018 C7.7484,62.6378 8.8154,63.8048 9.9504,64.9028 C13.4694,68.3098 17.4474,71.0838 22.0404,72.7858 C29.0114,75.3688 35.7984,74.7618 42.3604,71.2148 C44.1854,70.2288 46.1794,69.5518 48.1984,68.8958 C47.5904,69.2918 46.9974,69.7108 46.3744,70.0798 C42.2344,72.5278 38.0844,74.9068 33.2814,75.9268 C28.1824,77.0108 23.5364,75.9888 19.0694,73.5008 C14.8894,71.1718 11.1834,68.2908 8.1184,64.6038 C7.9514,64.4038 7.7304,64.2478 7.2984,63.8548 C7.4324,64.2998 7.4374,64.4788 7.5274,64.5878 C11.6644,69.6318 16.6984,73.4748 22.8394,75.7448 C27.5664,77.4918 32.3844,77.1948 36.9374,75.3328 C40.5004,73.8758 43.7974,71.7678 47.2194,69.9638 C48.0994,69.5008 48.9084,68.7148 50.3854,69.2168 C48.4534,70.5968 46.7994,71.9228 45.0044,73.0208 C43.1464,74.1558 41.2524,75.4018 39.2004,76.0138 C33.4744,77.7198 27.6074,79.8068 21.7064,77.0048 C18.5514,75.5068 15.4914,73.5948 12.8084,71.3648 C8.9744,68.1758 5.5234,64.5278 1.9164,61.0688 C0.7434,59.9438 0.1414,58.6978 0.3784,56.9328 C0.8544,53.3968 3.0614,51.3988 6.6424,52.0158 C9.0544,52.4308 11.4164,53.2708 13.7194,54.1368 C15.6534,54.8638 17.4714,55.9038 19.3404,56.8048 L19.1894,57.2008 C18.4204,56.9588 17.6334,56.7668 16.8874,56.4678 C13.3674,55.0618 9.7864,53.9588 5.9324,54.1568 C5.2844,54.1898 4.6394,54.2878 3.9814,54.4818 C11.1254,53.7358 17.1394,57.4538 23.6184,59.3308 C17.4124,59.6798 11.5374,57.9388 5.5364,56.8298 C7.5734,57.3678 9.5944,57.9778 11.6504,58.4238 C13.7264,58.8748 15.8374,59.1638 18.0134,59.5368 C16.6384,60.3488 15.3994,60.0958 11.2184,59.2158 C9.0134,58.7508 6.8954,57.8708 4.5284,57.1098 C7.3134,59.0058 10.3634,59.4978 13.7164,60.1838 C10.1264,61.2158 7.5204,59.4298 4.6764,58.4738 C5.7424,59.0708 6.8084,59.6668 7.8744,60.2618 C7.8274,60.3848 7.7794,60.5068 7.7314,60.6298 C5.9264,60.0838 4.1214,59.5378 2.3174,58.9908 C2.2834,59.0218 2.2484,59.0538 2.2144,59.0848 C3.6584,59.8628 5.1004,60.6398 6.5434,61.4168 C6.5804,61.4438 6.6164,61.4718 6.6504,61.5018" id="Fill-7" fill="#CCB581"></path>
                <path d="M23.7756,20.431 C25.7806,23.058 27.9816,25.563 29.7376,28.348 C31.5016,31.144 32.8206,34.219 34.3456,37.193 C33.8516,37.593 33.5976,37.799 33.2096,38.113 C30.4346,32.233 28.0396,26.277 23.6466,21.466 C24.1846,22.35 24.7096,23.243 25.2646,24.115 C25.8266,24.997 26.5166,25.812 26.9806,26.741 C28.8286,30.447 30.6206,34.181 32.3966,37.923 C32.5456,38.236 32.4166,38.68 32.1346,39.057 C29.3656,33.367 26.5956,27.675 23.8266,21.985 C23.6966,22.047 23.5666,22.109 23.4366,22.171 C26.2436,28.035 29.0516,33.897 31.8156,39.668 C31.5446,40.288 31.3666,40.698 31.1876,41.106 C31.0606,41.127 30.9326,41.148 30.8046,41.168 C28.2676,34.954 25.7296,28.742 23.1926,22.528 C23.0816,22.567 22.9696,22.605 22.8586,22.643 C23.3156,24.125 23.8396,25.591 24.2146,27.093 C25.0316,30.365 25.8016,33.648 26.5336,36.939 C27.1526,39.716 28.4376,42.15 30.0306,44.48 C30.5196,45.195 30.6086,46.183 30.8806,47.046 C30.6786,47.143 30.4756,47.24 30.2726,47.336 C29.2316,45.788 28.0016,44.333 27.1866,42.674 C25.4376,39.112 25.0696,35.169 24.3896,31.312 C23.8076,28.01 23.0046,24.748 22.2986,21.468 C22.1596,21.498 22.0216,21.53 21.8836,21.56 C22.3526,23.702 22.8696,25.833 23.2806,27.987 C23.9936,31.715 24.5876,35.467 25.3306,39.19 C26.0176,42.64 27.9546,45.428 30.2216,48.038 C30.8426,48.754 31.1856,49.711 31.4936,50.655 C29.0356,49.044 26.9436,47.096 25.8246,44.415 C23.7166,39.364 22.8226,34.013 22.2406,28.594 C21.9366,25.762 21.4396,22.952 20.7166,20.176 C20.9596,21.914 21.1626,23.659 21.4506,25.389 C22.3276,30.658 23.1016,35.949 24.1756,41.177 C25.1036,45.69 27.8776,49.046 31.7396,51.546 C31.9656,52.2 32.1906,52.844 32.4736,53.662 C29.9776,52.582 28.3536,50.729 26.6306,48.977 C23.1756,45.461 22.3166,40.975 21.6706,36.346 C21.0276,31.743 20.1116,27.176 19.4666,22.573 C18.9776,19.084 18.7236,15.563 18.3766,12.055 C18.3596,11.884 18.4526,11.702 18.5906,11.114 C19.2126,11.943 19.8916,12.466 20.0406,13.113 C20.8546,16.63 23.2126,18.958 25.8416,21.155 C29.4916,24.203 32.5906,27.732 34.9086,31.918 C35.6356,33.232 36.4686,34.486 37.3166,35.869 C36.9006,36.1 36.6206,36.254 36.3656,36.396 C35.0756,34.007 33.8356,31.711 32.5956,29.416 C32.4856,29.474 32.3756,29.532 32.2656,29.589 C32.9196,30.872 33.5876,32.149 34.2226,33.442 C34.6156,34.241 34.9906,35.052 35.3076,35.883 C35.4166,36.168 35.3246,36.53 35.0206,36.949 C32.2136,30.731 28.7716,25.053 23.7756,20.431" id="Fill-9" fill="#CCB581"></path>
                <path d="M99.5388,42.7942 L99.8318,43.0232 C102.8368,39.2522 105.8428,35.4822 108.8488,31.7122 C108.7548,31.6392 108.6608,31.5652 108.5668,31.4922 C105.5578,35.2602 102.5478,39.0272 99.5388,42.7942 M97.8498,41.9982 C97.9298,42.0932 98.0098,42.1882 98.0908,42.2822 C101.3598,38.7532 104.6288,35.2232 107.8978,31.6932 C107.7978,31.6012 107.6988,31.5082 107.5998,31.4152 C104.3498,34.9422 101.0998,38.4712 97.8498,41.9982 M93.6438,53.6462 C94.4448,50.5912 94.3908,47.1672 97.4468,45.0322 C96.8798,45.4482 96.3128,45.8642 95.4278,46.5132 C96.2118,44.2832 96.6748,42.2982 97.5908,40.5512 C98.4778,38.8582 99.8308,37.4112 101.1488,35.9192 C100.4428,36.4632 99.7368,37.0072 98.7868,37.7382 C100.7878,32.1022 105.9028,29.9562 109.6638,26.4692 C106.7318,28.5742 103.7998,30.6812 100.8668,32.7862 C100.7918,32.7552 100.7168,32.7242 100.6418,32.6922 C101.5818,31.3602 102.5218,30.0292 103.4038,28.7802 C103.2428,28.9002 102.9828,29.0942 102.6558,29.3382 C103.3388,25.7312 106.1228,25.0482 108.9798,24.3692 C107.6768,24.6002 106.3738,24.8292 104.8978,25.0902 C105.1678,24.5362 105.3498,24.1642 105.5568,23.7402 C108.1678,23.0892 110.7868,22.4352 113.5558,21.7442 C113.1988,22.9742 112.7348,24.0842 112.5668,25.2372 C111.9528,29.4662 110.2268,33.3312 108.7008,37.2502 C106.9708,41.6952 103.7538,45.0812 100.2938,48.2362 C98.2118,50.1352 96.0818,51.9822 93.9738,53.8522 C93.8638,53.7832 93.7538,53.7152 93.6438,53.6462" id="Fill-11" fill="#CCB581"></path>
                <path d="M77.1375,22.721 C76.9765,23.584 76.8305,24.372 76.6765,25.2 C76.3485,25.011 76.0965,24.866 76.0745,24.853 C75.9755,26.141 75.8765,27.446 75.7765,28.749 C75.8515,28.782 75.9275,28.814 76.0025,28.847 C76.9655,25.76 77.9285,22.674 78.8905,19.588 C77.4795,20.275 78.3825,22.029 77.1375,22.721 Z M79.4475,10.03 C79.8665,13.773 80.8085,17.131 79.7525,20.564 C79.2125,22.319 78.8765,24.137 78.4575,25.929 C78.1925,27.066 77.9455,28.206 77.6905,29.345 C79.9005,23.184 82.1865,16.993 79.4475,10.03 Z M77.3115,38.801 C76.8455,39.751 76.3785,40.701 76.0815,41.306 C75.2645,37.51 74.3645,33.329 73.2995,28.38 C75.8885,22.584 78.1755,15.833 77.2745,8.302 C77.3715,8.485 77.4675,8.667 77.5635,8.85 C77.6315,8.807 77.6995,8.763 77.7675,8.719 C77.3955,7.891 77.0235,7.063 76.6525,6.234 C76.6225,6.207 76.5945,6.181 76.5665,6.154 C76.5085,5.875 76.4505,5.598 76.3535,5.137 C75.8645,5.777 75.5035,6.248 75.1425,6.721 C74.7865,6.928 74.4295,7.136 74.0725,7.345 C69.5295,9.384 65.1795,11.636 63.4485,16.831 C63.3385,17.161 63.0955,17.448 62.7615,17.685 C62.9345,15.642 63.3665,13.726 64.6155,12.03 C66.5455,9.409 69.3975,8.149 72.1795,6.812 C73.9145,5.979 75.6305,5.213 76.4735,3.114 C77.4585,4.996 78.3265,6.686 79.2265,8.358 C79.5015,8.868 79.8165,9.375 80.2005,9.805 C81.6585,11.436 81.2175,13.478 81.3295,15.343 C81.5855,19.596 81.7905,23.876 80.5255,28.041 C79.5805,31.151 78.5925,34.247 77.6365,37.354 C77.4895,37.831 77.4115,38.329 77.3015,38.818 L77.3115,38.801 Z" id="Fill-13" fill="#CCB581"></path>
                <path d="M43.7615,34.847 C46.7145,38.384 51.1495,39.201 55.0615,40.961 C57.3405,41.987 58.9885,43.548 60.3535,45.648 C63.5415,50.55 63.3895,55.668 61.6985,60.935 C60.9135,63.378 57.0405,67.34 54.7425,68.07 C55.1375,67.348 55.4525,66.773 55.7675,66.198 C55.6995,66.148 55.6315,66.097 55.5625,66.047 C55.0515,66.822 54.5405,67.597 54.0305,68.371 C53.9465,68.322 53.8635,68.273 53.7795,68.223 C54.5095,66.374 55.0865,64.447 55.9975,62.693 C58.5335,57.812 56.0815,48.504 51.2195,44.605 C49.2135,42.996 47.3515,41.208 45.4235,39.501 C45.5095,39.396 45.5955,39.291 45.6815,39.186 C48.7015,41.365 51.7585,43.494 54.7285,45.74 C56.5255,47.097 57.1075,49.242 57.7235,51.27 C58.8235,54.894 59.1635,58.553 57.5325,62.178 L58.0645,62.26 C58.3785,60.665 58.8875,59.08 58.9665,57.474 C59.1355,54.013 58.4135,50.663 56.8095,47.589 C55.2265,44.555 52.2515,43.037 49.4785,41.335 C47.7355,40.265 45.8785,39.325 44.8875,37.38 C47.6565,38.844 50.4305,40.298 53.1935,41.774 C55.9015,43.221 58.0495,45.183 59.1815,48.142 C61.4105,53.971 61.3965,59.567 57.5805,64.799 C57.1135,65.44 56.5415,66.005 55.8205,66.832 C57.7405,65.698 59.5825,62.898 60.3035,60.516 C61.2555,57.37 61.5305,54.225 60.7125,51.011 C59.7235,47.118 58.0165,43.741 54.2435,41.818 C51.7925,40.568 49.3025,39.392 46.8835,38.084 C45.5285,37.352 44.2265,36.471 43.7715,34.832 L43.7615,34.847 Z" id="Fill-15" fill="#CCB581"></path>
                <path d="M86.0256,68.0345 C83.0846,69.7975 80.0876,71.4325 76.5896,71.7725 C74.9706,71.9305 73.3426,72.0855 71.7186,72.0775 C68.6476,72.0615 65.6526,72.2465 63.1006,74.2905 C62.6476,74.0675 62.2796,73.8875 61.5966,73.5515 C64.0546,72.0645 66.1976,70.5445 68.9466,70.4735 C71.2696,70.4145 73.5996,70.5735 75.9206,70.4915 C80.5716,70.3275 84.4316,68.2095 87.9046,65.2635 C87.1856,65.7335 86.4616,66.1985 85.7466,66.6775 C82.8176,68.6385 79.5826,69.7935 76.0906,70.1015 C74.3636,70.2545 72.6056,70.1115 70.8636,70.0395 C67.2776,69.8895 64.2036,71.2435 61.2646,73.2845 C60.8916,73.0495 60.5176,72.8135 59.9776,72.4735 C61.8136,70.8085 63.6866,69.3455 65.9736,69.1105 C69.2696,68.7735 72.6126,68.8785 75.9356,68.8455 C80.7126,68.7985 86.3416,66.4945 89.3996,63.0135 C88.4956,63.6085 87.5986,64.2135 86.6846,64.7925 C86.2946,65.0395 85.8836,65.2645 85.4596,65.4445 C80.9616,67.3475 76.2716,67.3755 71.6196,66.4425 C66.1136,65.3385 61.6036,66.8705 57.7666,70.8445 C57.6066,70.8275 57.4476,70.8435 57.3176,70.7905 C57.1836,70.7365 57.0766,70.6165 56.9196,70.4955 C56.9936,70.3345 57.0326,70.1825 57.1206,70.0705 C60.2826,66.0585 64.5366,64.6275 69.4706,64.9905 C72.6376,65.2235 75.7926,65.6295 78.9496,65.9795 C81.4516,66.2585 83.7556,65.5285 86.0206,64.5715 C84.8396,64.8365 83.6626,65.3055 82.4786,65.3245 C80.0526,65.3625 77.6236,65.1665 75.1966,65.0515 C72.1836,64.9075 69.1656,64.5655 66.1576,64.6415 C62.3156,64.7405 59.3806,66.8155 56.9326,69.6425 C56.7836,69.8155 56.6436,69.9965 56.4426,70.2445 C56.1346,70.0645 55.8556,69.9005 55.4576,69.6675 C59.4166,65.8465 63.3366,62.4705 69.3456,63.3765 C72.8616,63.9075 76.4356,64.3085 79.9836,64.3035 C82.6486,64.2995 85.3616,63.7455 87.9556,63.0615 C89.2906,62.7105 90.4126,61.5455 91.6226,60.7355 C91.8956,60.5535 92.1346,60.3215 92.4916,60.2055 C91.7186,62.9445 90.1296,65.0765 87.8256,66.6985 L86.0256,68.0345 Z" id="Fill-17" fill="#CCB581"></path>
                <path d="M44.8865,5.2308 C44.6355,5.0438 44.3835,4.8578 44.1325,4.6718 C44.0305,4.7408 43.9275,4.8088 43.8245,4.8768 C43.9995,5.3468 44.0765,5.8878 44.3625,6.2758 C46.7945,9.5768 49.2975,12.8258 51.7115,16.1388 C53.3165,18.3408 53.6455,20.9178 53.4635,23.6148 C53.0495,22.3278 52.6665,21.0288 52.2155,19.7538 C51.2015,16.8968 49.5155,14.4978 47.4455,12.2748 C46.1515,10.8848 45.2615,9.1198 44.1695,7.4928 C44.0465,7.8148 43.8005,8.3458 43.6405,8.9018 C42.7635,11.9398 40.6825,14.2448 38.8015,16.6308 C36.3905,19.6898 34.5545,22.9268 34.3595,26.9068 C34.3225,27.6578 34.3545,28.4128 34.0445,29.1868 C33.9985,28.7278 33.8985,28.2668 33.9155,27.8108 C34.0905,23.2278 35.6225,19.1508 38.2235,15.3648 C39.9445,12.8608 41.3425,10.1278 42.7835,7.4438 C43.1645,6.7358 43.1705,5.8258 43.3475,5.0078 C43.2395,4.9828 43.1295,4.9578 43.0205,4.9308 C42.8875,5.5108 42.8815,6.1608 42.6025,6.6588 C40.7565,9.9618 39.0255,13.3508 36.9165,16.4828 C34.8145,19.6038 34.0685,23.0528 33.5325,26.6318 C33.4835,26.9628 33.4555,27.2968 33.4175,27.6288 C33.2945,27.6628 33.1715,27.6948 33.0475,27.7268 C32.8715,27.1698 32.5465,26.6138 32.5435,26.0558 C32.5135,20.4558 34.7815,15.7698 38.3985,11.6388 C38.7005,11.2948 38.9645,10.9178 39.3615,10.4088 C38.1195,11.1018 35.1845,14.7448 34.1175,17.4638 C33.0725,20.1268 32.4705,22.9638 31.6185,25.9188 C31.4625,25.4128 31.2475,24.9618 31.1915,24.4928 C30.8245,21.4288 32.2965,18.8508 33.4355,16.1868 C34.6555,13.3348 36.9855,11.3458 38.8925,9.0158 C40.2405,7.3698 41.1995,5.3908 42.2195,3.4998 C42.5065,2.9678 42.3905,2.2218 42.4695,1.5758 C42.5245,1.1158 42.5955,0.6578 42.6875,0.0008 C43.0475,0.2858 43.2645,0.3688 43.3165,0.5118 C44.7065,4.3328 47.4625,6.8788 50.9605,8.7338 C54.7715,10.7538 57.5855,13.6438 58.9215,18.0518 C58.6845,18.2768 58.3305,18.6138 57.8325,19.0858 C57.2945,17.9098 56.8845,16.8418 56.3385,15.8488 C54.2145,11.9838 50.7725,9.4698 47.2305,7.0628 C46.5285,6.5848 45.8695,6.0428 45.1915,5.5318 C45.0895,5.4308 44.9885,5.3308 44.8865,5.2308" id="Fill-19" fill="#CCB581"></path>
                <path d="M54.2371,92.8509 C58.2331,90.8009 60.3261,87.2769 61.7551,83.2139 C62.4871,81.1309 63.2991,79.0759 64.0841,77.0109 C64.1911,76.7319 64.3541,76.4729 64.5541,76.0799 C65.0431,76.3219 65.4631,76.5299 65.8951,76.7449 C64.2151,83.0459 61.9521,88.8729 56.7551,93.0379 C62.3921,89.2339 64.3961,83.1729 66.3321,77.0719 C66.7181,77.1539 66.9441,77.1779 67.1521,77.2519 C67.3281,77.3149 67.4831,77.4349 67.7021,77.5609 C67.1341,82.1219 65.5641,86.2629 62.7481,89.9239 C62.8831,89.9949 63.0181,90.0649 63.1531,90.1349 C64.2311,88.2039 65.4941,86.3499 66.3351,84.3209 C67.1971,82.2369 67.6461,79.9819 68.3081,77.6919 C68.7921,77.8329 69.2901,77.9789 69.9811,78.1799 C69.5151,80.3299 69.0691,82.3949 68.6231,84.4589 C68.6901,84.4779 68.7571,84.4969 68.8241,84.5169 C69.3431,82.4739 69.8631,80.4319 70.3981,78.3289 L71.3521,78.3289 C71.4041,78.4489 71.4721,78.5279 71.4591,78.5869 C70.5941,82.3889 70.0571,86.2949 67.5351,89.5199 C64.5921,93.2819 60.7571,94.6379 56.1331,93.8639 C55.4661,93.7509 54.8741,93.1889 54.2471,92.8349 L54.2371,92.8509 Z" id="Fill-21" fill="#CCB581"></path>
                <path d="M99.0095,25.2737 C96.3655,26.6277 93.6795,27.9077 91.0865,29.3517 C84.4965,33.0217 81.2315,39.2377 78.2835,45.8197 C75.8655,51.2197 72.9575,56.4017 70.2195,61.6557 C69.6955,62.6617 69.5945,62.6097 68.8645,62.2887 C70.8785,58.1627 72.9225,54.0467 74.8965,49.8977 C75.8615,47.8707 76.6805,45.7737 77.5885,43.7187 C81.6315,34.5667 88.6755,28.6227 97.7175,24.7467 C100.0585,23.7437 102.2545,22.4047 104.5165,21.2167 C105.0135,20.9567 105.5055,20.6847 105.9995,20.4187 C106.1155,20.5217 106.2315,20.6267 106.3475,20.7297 C105.8145,21.4947 105.2815,22.2577 104.7495,23.0207 C104.4695,23.3597 104.1895,23.6997 103.9085,24.0397 C103.1915,24.9647 102.4215,25.8567 101.7635,26.8237 C99.1385,30.6857 96.9895,34.7767 95.4895,39.2287 C93.8825,44.0027 92.1255,48.7287 90.3145,53.4297 C88.9225,57.0437 86.7875,60.2307 84.2205,63.1547 C83.9045,63.2097 83.6025,63.2637 83.3005,63.3117 C83.0445,63.3527 82.7865,63.3867 82.3615,63.4477 C83.2065,62.0737 83.9015,60.7947 84.7345,59.6137 C88.0765,54.8777 90.4385,49.6837 92.2035,44.1827 C94.3745,37.4167 97.5495,31.1427 101.7195,25.3837 C102.3615,24.4977 103.1025,23.6827 103.5895,22.6137 C102.4405,23.3527 101.2915,24.0917 100.1425,24.8307 C99.7645,24.9777 99.3865,25.1257 99.0095,25.2737" id="Fill-23" fill="#CCB581"></path>
                <path d="M72.2434,78.4866 C72.4124,78.4626 72.5824,78.4376 72.7544,78.4126 C72.9094,78.3896 73.0654,78.3676 73.2224,78.3446 C73.3514,78.3266 73.4824,78.3066 73.6134,78.2886 C74.5274,78.1556 75.4734,78.0176 76.4204,77.8806 C76.4074,77.9326 76.3944,77.9856 76.3814,78.0376 C76.6614,77.8886 76.9424,77.7416 77.2174,77.5956 C77.4284,77.4846 77.6364,77.3756 77.8384,77.2686 C78.7104,77.8806 79.4374,78.3886 80.2164,78.9336 C80.2554,78.7096 80.2894,78.5156 80.3384,78.2376 C80.9544,78.4986 81.5174,78.7376 82.1974,79.0266 C83.8014,78.5026 84.9364,79.3266 85.8924,80.6516 C86.9194,82.0746 88.0014,83.4576 89.1714,85.0066 C89.1184,85.1016 88.9384,85.4266 88.6924,85.8716 C84.8514,84.2756 81.1214,85.7066 77.3554,86.2126 C75.5144,86.4596 73.7164,86.4526 72.0414,85.5246 C71.5834,85.2716 71.1794,84.9226 70.6994,84.5806 C70.8874,84.0066 71.0364,83.5506 71.2054,83.0346 C72.0294,83.2756 72.7384,83.4836 73.4474,83.6916 L73.4884,83.5486 C72.8074,83.2206 72.1264,82.8936 71.3414,82.5156 C71.3934,82.2796 76.7654,83.3996 76.7654,83.3996 L71.7654,81.3996 C72.6514,80.8336 79.5604,81.2526 82.7654,82.3996 C82.7654,81.3996 74.9964,79.8126 71.8804,80.1056 C71.7654,80.3996 71.9754,79.6806 72.0254,79.4616 C72.0614,79.2986 73.7654,78.3996 76.7654,79.3996 C75.7654,78.3996 72.2064,78.6496 72.2434,78.4866" id="Fill-25" fill="#CCB581"></path>
                <path d="M39.9875,68.0325 C37.5795,68.4995 35.3275,69.1095 33.0365,69.3445 C27.5275,69.9135 22.3245,69.1055 17.7475,65.6115 C15.7005,64.0495 13.4535,62.7465 11.1525,61.2305 C11.9775,61.3405 12.8495,61.2525 13.5185,61.5795 C16.0545,62.8225 18.5715,64.1195 21.0085,65.5465 C24.2995,67.4745 27.8735,67.9385 31.5465,67.6705 C33.9255,67.4965 36.2755,66.9245 38.6395,66.5405 C40.0165,66.3175 41.3925,66.0915 42.7755,65.9205 C43.1085,65.8785 43.4665,66.0525 43.8135,66.1265 C43.8305,66.2445 43.8475,66.3625 43.8645,66.4805 C42.9015,66.8315 41.9385,67.1805 40.9765,67.5305 C40.9925,67.5965 41.0085,67.6635 41.0255,67.7295 C42.5435,67.4585 44.0625,67.1865 45.5805,66.9145 C45.6255,67.1005 45.6705,67.2875 45.7165,67.4735 C44.6055,67.9415 43.5215,68.4865 42.3815,68.8635 C39.2305,69.9055 36.1125,71.1635 32.8775,71.8075 C28.2105,72.7375 23.8675,71.1605 19.8905,68.8555 C16.1375,66.6815 12.5845,64.1655 8.9455,61.7965 C8.7985,61.6995 8.6735,61.5685 8.5985,61.3375 C10.6875,61.4945 12.4535,62.4725 14.1205,63.5975 C16.0435,64.8955 17.7805,66.4895 19.7725,67.6585 C22.7795,69.4235 26.2025,69.8525 29.6265,70.0235 C33.1835,70.2015 36.6355,69.6985 39.9875,68.0325" id="Fill-27" fill="#CCB581"></path>
                <path d="M47.613,14.4935 C50.622,19.9605 49.789,25.9035 49.877,31.7255 C50.58,25.2065 50.558,17.3245 47.613,14.4935 Z M46.567,22.5145 C46.637,22.0775 46.846,21.6085 46.757,21.2065 C46.072,18.1175 45.314,15.0445 44.625,11.9565 C44.53,11.5295 44.691,11.0465 44.951,10.5845 C45.935,13.7685 47.23,16.8965 47.813,20.1535 C48.39,23.3715 48.247,26.7175 48.464,30.0015 C49.001,23.8245 48.784,17.7575 45.69,12.1035 C49.948,15.5065 52.16,19.9155 52.549,25.2565 C52.565,25.4795 52.536,25.7355 52.44,25.9335 C50.726,29.4765 50.182,33.2375 50.303,37.1295 C50.31,37.3195 50.269,37.5145 50.228,37.7015 C50.215,37.7625 50.129,37.8065 49.901,38.0305 L49.901,34.4835 C49.842,34.4835 49.783,34.4825 49.724,34.4825 C49.605,35.4825 49.486,36.4815 49.367,37.4815 L48.804,37.6285 C48.492,36.9865 48.18,36.3455 47.865,35.6975 C47.798,35.9815 47.716,36.3325 47.59,36.8625 C47.117,36.5665 46.723,36.3195 46.39,36.1105 C46.631,33.4825 46.925,30.9855 47.068,28.4785 C47.164,26.7845 47.069,25.0765 47.005,23.3765 C46.993,23.0785 46.713,22.7905 46.557,22.4985 L46.567,22.5145 Z" id="Fill-29" fill="#CCB581"></path>
                <path d="M65.2229,21.4417 C67.4499,24.0467 70.0469,26.4287 71.7879,29.3257 C73.2599,31.7737 74.0859,34.7607 74.5639,37.6167 C75.0819,40.7117 75.1769,43.9607 74.8619,47.0827 C74.6579,49.1077 73.4729,51.0637 72.5799,52.9817 C71.3079,55.7147 69.8999,58.3857 68.3059,60.9917 C68.5049,60.2067 68.7019,59.4217 68.8999,58.6377 C68.8289,58.6157 68.7579,58.5927 68.6859,58.5717 C68.2739,59.7847 67.8629,60.9977 67.4319,62.2627 C66.8999,62.3227 66.4129,62.3777 65.4979,62.4797 C72.9849,50.8087 74.1909,38.9077 68.2199,26.5097 C70.6389,29.2877 72.0089,32.5997 72.9149,36.0867 C73.8329,39.6167 74.0109,43.3017 73.0929,46.7987 C72.1779,50.2847 70.6029,53.5967 69.4249,56.7047 C72.3909,52.9157 74.4619,45.6267 73.8929,40.6267 C73.6969,38.8957 73.8339,37.0767 73.3419,35.4407 C72.0449,31.1347 70.4859,26.9237 66.6869,24.0207 C65.9249,23.4387 65.4159,22.5247 64.7899,21.7637 C64.9339,21.6567 65.0779,21.5487 65.2229,21.4417" id="Fill-31" fill="#CCB581"></path>
                <path d="M84.9802,69.9983 C81.1452,73.2753 76.6472,74.2523 71.7362,73.8033 C76.7242,74.5213 81.3172,73.8713 84.9802,69.9983 M86.0252,68.0343 L87.8262,66.6983 C87.8052,66.9743 87.8892,67.3313 87.7472,67.5133 C86.6882,68.8773 85.5292,70.1673 84.5142,71.5623 C83.9352,72.3573 83.5642,73.3063 83.1012,74.1853 C82.8472,73.9363 82.5942,73.6863 82.3402,73.4353 C81.4862,76.7043 70.6022,78.9933 67.3592,76.3463 C68.9202,76.0833 70.2922,75.8523 71.6622,75.6213 C71.6552,75.5413 71.6482,75.4623 71.6412,75.3833 C69.6412,75.6253 67.6402,75.8673 65.6392,76.1093 L65.5312,75.4773 C66.7802,75.0753 68.0292,74.6753 69.2822,74.2713 C67.4272,74.1183 65.6282,75.5643 63.4952,74.6463 C65.6822,72.8183 68.0792,72.4053 70.5722,72.3813 C74.0642,72.3483 77.6032,72.4763 80.8742,71.0603 C82.6882,70.2763 84.3142,69.0573 86.0252,68.0343" id="Fill-33" fill="#CCB581"></path>
                <path d="M96.5535,28.8821 C96.7975,28.7771 97.0405,28.6701 97.2845,28.5651 C97.3375,28.6241 97.3895,28.6851 97.4425,28.7451 C96.5095,29.6141 95.5825,30.4891 94.6435,31.3511 C90.5735,35.0871 88.3685,39.9351 86.5635,45.0021 C84.3695,51.1611 80.9285,56.6241 77.2295,61.9461 C76.9015,62.4191 76.4675,62.8181 76.0115,63.3301 C75.6325,63.2871 75.1875,63.2371 74.5855,63.1701 C75.1875,62.2831 75.6725,61.5061 76.2205,60.7751 C78.7925,57.3381 80.0135,53.2511 81.7145,49.3971 C83.7805,44.7171 85.7905,40.0091 88.9115,35.8911 C89.0715,35.6811 89.1495,35.4091 89.2655,35.1671 C91.6945,33.0731 94.1235,30.9781 96.5535,28.8821" id="Fill-35" fill="#CCB581"></path>
                <path d="M96.5535,28.8821 C94.1235,30.9781 91.6945,33.0731 89.2655,35.1671 C87.8125,37.2941 86.0895,39.2881 84.9635,41.5761 C82.6905,46.1941 80.8465,51.0211 78.6165,55.6601 C77.5345,57.9121 76.0245,59.9671 74.6115,62.0451 C74.2495,62.5751 73.5165,62.8541 72.9535,63.2471 C72.8135,63.1061 72.6725,62.9631 72.5315,62.8201 C72.9555,61.9861 73.3965,61.1591 73.8005,60.3161 C76.6435,54.3791 79.5295,48.4621 82.3025,42.4931 C85.0825,36.5091 89.5555,32.1581 95.0855,28.7491 C96.3655,27.9601 97.5555,27.0281 98.7875,26.1601 C99.2465,25.7771 99.7055,25.3931 100.1655,25.0081 C100.3015,25.0631 100.4365,25.1161 100.7085,25.2261 C99.2695,26.4921 97.9115,27.6871 96.5535,28.8821" id="Fill-37" fill="#CCB581"></path>
                <path d="M83.1975,17.9593 C83.4225,22.4633 82.6785,26.8453 81.4175,31.1633 C83.2905,26.9323 83.8735,22.5283 83.1975,17.9593 M77.3015,38.8173 C78.7045,34.5933 80.2625,30.4113 81.4685,26.1313 C82.6935,21.7803 82.2745,17.3223 81.6645,12.8783 C84.6005,18.6763 86.0725,24.7673 85.5155,31.3993 C85.0045,31.8643 84.4495,32.3703 83.8945,32.8753 C83.8265,32.8273 83.7575,32.7803 83.6885,32.7323 C84.2185,31.1173 84.7475,29.5023 85.2775,27.8873 C85.1755,27.8563 85.0735,27.8263 84.9715,27.7953 C84.3595,29.6583 83.9485,31.6223 83.0785,33.3563 C82.2135,35.0843 80.8875,36.5813 79.6115,38.1313 C80.0095,36.5633 80.4085,34.9963 80.8065,33.4303 L80.6785,33.4003 L76.3815,44.9383 C76.2105,44.9003 76.0405,44.8633 75.8695,44.8273 C75.9605,44.1533 75.9885,43.4653 76.1565,42.8123 C76.5025,41.4643 76.9225,40.1363 77.3115,38.8003 C77.3115,38.8013 77.3015,38.8173 77.3015,38.8173" id="Fill-39" fill="#CCB581"></path>
                <path d="M45.5305,42.6731 C49.6505,47.5861 52.5045,52.9921 52.1825,59.6521 C52.0645,62.1161 52.1635,64.5911 52.3315,67.0541 C52.7385,58.9071 53.5945,50.6311 47.0915,43.9971 C50.9055,45.6651 54.7735,53.7111 54.4715,58.8881 C54.2545,62.6191 52.9555,67.7071 52.0065,68.0211 C51.5165,65.1091 50.9595,62.2291 50.5585,59.3261 C49.7765,53.6561 48.8015,48.0591 45.6935,43.0911 C45.6155,42.9671 45.5835,42.8131 45.5305,42.6731" id="Fill-41" fill="#CCB581"></path>
                <path d="M100.4963,26.5335 C99.3813,28.2345 98.0413,29.8325 97.1973,31.6585 C95.1053,36.1865 93.0083,40.7365 91.3393,45.4295 C89.0133,51.9715 85.7073,57.9075 81.5763,63.4425 L79.6413,63.4425 C80.2523,62.6145 80.7973,61.8525 81.3683,61.1105 C85.3483,55.9355 87.8243,50.0465 89.8263,43.8815 C91.2283,39.5645 93.0703,35.3935 95.8533,31.7455 C97.2563,29.9055 98.8293,28.1965 100.3263,26.4285 C100.3823,26.4635 100.4393,26.4985 100.4963,26.5335" id="Fill-43" fill="#CCB581"></path>
                <path d="M78.5774,63.4036 L77.0304,63.4036 C78.0974,61.7156 79.0674,60.1186 80.0994,58.5616 C83.8274,52.9356 86.5374,46.8226 88.8764,40.5196 C90.0354,37.3966 92.9524,33.3806 95.2104,31.6736 C94.2674,33.2886 93.2544,34.6616 92.6134,36.1896 C90.7254,40.6876 88.9114,45.2196 87.2074,49.7906 C85.4904,54.3996 81.9164,60.2146 78.5774,63.4036" id="Fill-45" fill="#CCB581"></path>
                <path d="M100.1653,25.0081 C99.7063,25.3931 99.2463,25.7771 98.7873,26.1601 C97.0283,27.2021 95.2433,28.2021 93.5153,29.2931 C87.1793,33.2931 83.1293,39.0441 80.2733,45.9041 C77.8663,51.6861 74.9383,57.2501 72.2553,62.8791 C71.4483,62.8111 70.9653,62.7691 70.3523,62.7161 C71.7733,60.1101 73.2193,57.6891 74.4463,55.1611 C76.8823,50.1411 79.0753,44.9981 81.5963,40.0221 C84.4293,34.4321 89.0153,30.5691 94.5463,27.7531 C96.0613,26.9821 97.5223,26.1031 99.0093,25.2741 C99.3873,25.1251 99.7653,24.9781 100.1423,24.8301 C100.1523,24.8891 100.1603,24.9481 100.1653,25.0081" id="Fill-47" fill="#CCB581"></path>
                <path d="M6.6506,61.5022 C6.6166,61.4722 6.5806,61.4432 6.5436,61.4162 C6.9316,61.3972 7.4246,61.2122 7.6896,61.3832 C9.4466,62.5132 11.1166,63.7772 12.8856,64.8882 C16.1206,66.9182 19.2676,69.1572 22.6986,70.7922 C28.5786,73.5942 34.5156,72.8832 40.3246,70.1972 C42.1846,69.3372 44.1296,68.6572 46.0586,67.9632 C46.4836,67.8102 47.0096,67.9402 47.4896,67.9402 C47.5056,68.0692 47.5226,68.1992 47.5396,68.3282 C46.8766,68.6972 46.2486,69.1582 45.5456,69.4182 C41.6276,70.8652 37.7866,72.7262 33.7366,73.5602 C28.9416,74.5482 24.2326,73.2532 19.7846,71.1362 C15.2396,68.9732 11.4416,65.8462 7.8816,62.3682 C7.5266,62.0232 7.0636,61.7882 6.6506,61.5022" id="Fill-49" fill="#CCB581"></path>
                <path d="M66.1589,24.6565 C71.2589,32.8575 72.9199,41.6165 70.4649,50.9635 C68.8899,56.9595 65.7409,62.3795 63.7429,62.7215 C72.4769,50.4075 69.8419,37.6085 66.1589,24.6565" id="Fill-51" fill="#CCB581"></path>
                <path d="M64.7195,56.972 C65.1545,56.166 65.8295,55.404 65.9805,54.548 C66.5085,51.546 67.0525,48.525 67.2295,45.489 C67.5575,39.87 67.2575,34.26 66.0995,28.73 C65.8195,27.393 65.3715,26.09 65.0015,24.772 C65.1595,24.728 65.3165,24.684 65.4745,24.64 C66.2035,27.303 67.1575,29.929 67.6085,32.638 C68.3015,36.788 69.0005,40.993 69.0565,45.182 C69.1425,51.528 67.2225,57.4 63.3265,62.51 C62.8925,63.079 62.1695,63.428 61.5795,63.879 L61.2855,63.618 C62.4355,61.397 63.5855,59.175 64.7355,56.953 L64.7195,56.972 Z" id="Fill-53" fill="#CCB581"></path>
                <path d="M103.9089,24.0394 C104.1899,23.6994 104.4699,23.3594 104.7499,23.0204 C104.7899,23.2484 104.9479,23.5544 104.8559,23.6904 C101.7529,28.2814 99.5939,33.3594 97.6069,38.4724 C95.8579,42.9714 94.7839,47.7294 93.1169,52.2664 C92.1809,54.8134 90.7479,57.2024 89.3379,59.5424 C88.6369,60.7064 87.5099,61.6244 86.5199,62.5974 C86.2409,62.8724 85.7649,62.9494 85.2409,62.8704 C86.4089,61.1074 87.8239,59.4584 88.6969,57.5604 C90.6189,53.3804 92.5159,49.1584 93.9729,44.8024 C96.3119,37.8104 99.0509,31.0644 103.4519,25.0864 C103.6719,24.7874 103.7599,24.3904 103.9089,24.0394" id="Fill-55" fill="#CCB581"></path>
                <path d="M76.6521,6.2337 C76.6431,9.3677 76.9041,12.5317 76.5461,15.6247 C76.2211,18.4297 75.2241,21.1567 74.5121,23.9157 C74.4881,24.0057 74.3441,24.0647 74.2041,24.1817 C73.8791,24.1007 73.5261,24.0117 72.8641,23.8457 C73.4151,24.2587 73.7111,24.4817 74.1211,24.7897 C73.6701,25.9507 73.2021,27.1547 72.6411,28.5987 C72.2551,28.0247 71.9901,27.6317 71.8531,27.4277 C73.1991,21.9387 74.4951,16.6557 75.7901,11.3727 C75.6401,11.3307 75.4911,11.2877 75.3411,11.2457 C74.7981,13.2267 74.2541,15.2077 73.7851,16.9187 C73.4481,20.3717 71.8881,23.2507 71.3311,26.7797 C70.7801,26.2537 70.5231,26.0077 70.2281,25.7257 C70.5281,24.9597 70.7571,24.3737 70.9861,23.7887 C71.1101,18.8137 73.0711,14.4497 75.7731,9.9527 C75.8641,9.1607 75.9741,8.0127 76.1421,6.8747 C76.1801,6.6197 76.4201,6.3937 76.5671,6.1537 C76.5941,6.1807 76.6231,6.2077 76.6521,6.2337" id="Fill-57" fill="#CCB581"></path>
                <path d="M5.7732,29.4671 C5.9382,29.6261 6.1022,29.7861 6.2662,29.9461 C7.5232,32.0281 8.8422,34.0761 10.0202,36.2021 C11.3912,38.6751 12.5482,41.2691 13.9582,43.7181 C16.9222,48.8681 21.4242,52.2191 26.8792,54.3831 C29.1482,55.2831 31.4252,56.1621 33.6802,57.0951 C34.1322,57.2821 34.5022,57.6701 34.9102,57.9651 C34.8422,58.1021 34.7742,58.2381 34.7072,58.3761 C32.6202,57.7451 30.5192,57.1551 28.4492,56.4751 C23.0092,54.6871 17.9852,52.0901 14.5822,47.3691 C12.7992,44.8961 11.8212,41.8481 10.4312,39.0841 C8.9882,36.2181 7.4792,33.3861 6.0222,30.5281 C5.8612,30.2131 5.8522,29.8221 5.7732,29.4671" id="Fill-59" fill="#CCB581"></path>
                <path d="M61.2415,20.4036 C61.2805,20.1886 61.3195,19.9736 61.3585,19.7596 C64.6545,29.7966 66.3945,39.9226 63.8525,50.6656 C62.1925,48.4496 62.0745,46.3026 62.4775,44.0366 C63.5525,37.9876 63.3195,31.9326 62.4085,25.8946 C62.1285,24.0446 61.6295,22.2266 61.2305,20.3936 L61.2415,20.4036 Z" id="Fill-61" fill="#CCB581"></path>
                <path d="M64.7356,56.9534 C64.2676,57.5564 63.8006,58.1584 63.1016,59.0604 C63.6206,55.6874 63.9106,52.5994 64.5986,49.6014 C65.8946,43.9564 65.8336,38.3004 65.0266,32.6414 C64.4686,28.7234 63.6096,24.8474 62.9546,21.3314 C63.4286,22.6404 64.0536,24.3634 64.6776,26.0864 C67.3676,30.7894 67.5416,48.7234 64.7196,56.9724 L64.7356,56.9534 Z" id="Fill-63" fill="#CCB581"></path>
                <path d="M42.6306,37.3206 C44.5426,47.4086 47.5666,57.6656 50.8846,68.0316 C46.5776,64.3486 41.6516,45.2446 42.6306,37.3206" id="Fill-65" fill="#CCB581"></path>
                <path d="M14.0706,61.0003 C14.7446,60.9543 15.4936,60.9033 16.2426,60.8523 C20.3496,63.0813 24.4586,65.3523 29.2816,65.3713 C31.5896,65.3803 33.8966,64.9923 36.2066,64.8213 C37.5956,64.7183 38.9896,64.6393 40.3806,64.6443 C40.8726,64.6453 41.3646,64.9283 41.8296,65.3873 C39.4606,65.8803 37.1056,66.4593 34.7186,66.8463 C31.4076,67.3843 28.0776,67.3863 24.8146,66.4943 C23.7826,66.2123 22.7876,65.7343 21.8366,65.2313 C19.2486,63.8633 16.6926,62.4353 14.0706,61.0003" id="Fill-67" fill="#CCB581"></path>
                <path d="M43.7605,37.6429 C45.5105,40.8719 48.5265,42.8999 51.1645,45.2489 C53.5405,47.3649 54.7905,50.0179 55.7455,52.9099 C57.4725,58.1339 56.1325,62.8759 53.3045,67.3769 C53.6855,65.5589 54.0165,63.7289 54.4555,61.9239 C55.4755,57.7289 54.6625,53.8289 52.8835,49.9789 C51.5205,47.0279 49.4025,44.8339 46.9105,42.8519 C45.2565,41.5369 44.0005,39.8539 43.7735,37.6199 C43.7735,37.6209 43.7605,37.6429 43.7605,37.6429" id="Fill-69" fill="#CCB581"></path>
                <path d="M49.0876,67.8069 C41.8426,63.1259 35.7446,52.1969 42.1776,37.3999 C42.0896,37.9579 42.0426,38.5279 41.9086,39.0749 C40.6656,44.1499 40.4646,49.2809 41.5086,54.3819 C42.0776,57.1659 43.0036,59.8749 44.9386,62.1509 C46.4416,63.9169 47.6976,65.8919 49.0876,67.8069" id="Fill-71" fill="#CCB581"></path>
                <path d="M48.9504,66.4407 C41.8144,59.0817 40.3594,51.5627 42.0104,41.3367 C42.6054,45.5877 42.7924,50.1087 43.9614,54.3597 C45.1104,58.5397 47.2554,62.4457 48.9504,66.4407" id="Fill-73" fill="#CCB581"></path>
                <path d="M43.3669,39.5911 C47.1319,45.8841 49.3779,52.5171 50.1289,59.6621 C50.3829,62.0801 51.0189,64.4571 51.4799,66.8541 C51.5559,67.2531 51.6249,67.6531 51.6979,68.0541 C51.5549,68.0871 51.4129,68.1201 51.2709,68.1531 C48.6469,58.6711 46.0229,49.1891 43.3669,39.5911" id="Fill-75" fill="#CCB581"></path>
                <path d="M32.2688,47.3528 C32.8188,45.4348 33.0198,43.2658 34.0398,41.5968 C35.0518,39.9398 36.8878,38.7868 38.0108,37.7398 C34.3648,38.6788 31.6648,42.9238 32.2688,47.3528 M41.6338,35.5638 C39.7388,37.2058 37.7488,38.7508 35.9688,40.5098 C32.9948,43.4488 32.9648,47.2158 33.4038,51.0278 C33.5478,52.2828 33.8818,53.5158 34.0548,54.7788 C32.6108,51.9938 31.6538,49.0568 31.5628,45.8998 C31.5278,44.6758 31.6188,43.4148 31.8888,42.2228 C32.6028,39.0668 35.0978,37.7188 37.8588,36.8008 C40.0018,36.0878 41.9718,35.2038 43.3918,32.7618 C43.5608,33.7158 43.6608,34.2818 43.7618,34.8468 L43.7708,34.8318 L43.7758,36.0128 C43.7708,36.5558 43.7658,37.0998 43.7608,37.6428 C43.7608,37.6428 43.7728,37.6208 43.7728,37.6198 C43.6628,37.9968 43.5508,38.3738 43.3648,39.0048 C43.2158,37.3248 43.0878,35.8908 42.9368,34.1888 C42.4848,34.6738 42.2088,34.9708 41.9338,35.2678 C41.8328,35.3668 41.7338,35.4648 41.6338,35.5638" id="Fill-77" fill="#CCB581"></path>
                <path d="M83.3948,66.8538 C81.0218,67.7498 78.4688,68.4378 75.7658,68.4158 C73.3658,68.3948 70.9648,68.2408 68.5668,68.2888 C65.0508,68.3588 62.0298,69.7308 59.4318,72.2078 C58.9608,71.8848 58.5328,71.5908 57.9798,71.2128 C60.9488,68.2988 64.1538,66.3088 68.3488,66.6128 C71.0888,66.8118 73.8148,67.3018 76.5548,67.3648 C78.8448,67.4168 81.1448,67.0388 83.3948,66.8538" id="Fill-79" fill="#CCB581"></path>
                <path d="M40.6482,39.4319 C38.6272,44.2249 38.5882,49.1149 39.4012,54.1629 C40.2402,59.3699 43.1232,63.2109 46.9732,66.6599 C44.3772,66.2219 40.3442,61.2139 38.6902,56.8399 C36.0992,49.9899 38.0372,42.6319 40.6482,39.4319" id="Fill-81" fill="#CCB581"></path>
                <path d="M61.2786,22.8187 C62.4916,30.3787 63.4646,37.9627 61.2606,45.6547 C61.0466,44.9277 60.6486,44.2017 60.6476,43.4737 C60.6446,39.3327 60.6916,35.1897 60.8106,31.0487 C60.8896,28.3027 61.1176,25.5617 61.2786,22.8187" id="Fill-83" fill="#CCB581"></path>
                <path d="M17.4792,60.4339 C18.6382,60.6599 19.5122,60.6929 20.2762,60.9999 C24.1752,62.5669 28.1512,63.4729 32.4022,63.0589 C34.1642,62.8869 35.9632,63.0559 37.7422,63.1399 C38.1972,63.1619 38.6392,63.4509 39.1582,63.6439 C31.5502,65.7409 24.3862,65.4149 17.4792,60.4339" id="Fill-85" fill="#CCB581"></path>
                <path d="M38.1384,35.5228 C37.7924,34.9278 37.4654,34.3228 37.0984,33.7418 C34.3364,29.3638 34.5654,23.8778 37.6394,19.7008 C39.7654,16.8108 41.8344,13.8778 44.1294,11.0128 C43.8814,11.6578 43.7194,12.3528 43.3714,12.9388 C41.5934,15.9338 39.7154,18.8698 37.9734,21.8838 C36.0004,25.2988 36.2394,28.8588 37.5194,32.4468 C37.8724,33.4368 38.1524,34.4538 38.4664,35.4588 L38.1384,35.5228 Z" id="Fill-87" fill="#CCB581"></path>
                <path d="M41.6335,35.5638 C41.7335,35.4648 41.8335,35.3668 41.9335,35.2678 C41.6755,35.8478 41.5665,36.5918 41.1355,36.9838 C38.8115,39.0958 36.5775,41.3238 35.7495,44.4238 C34.5385,48.9618 34.4835,53.4708 37.0805,57.6788 C37.7685,58.7928 38.3625,59.9638 38.9045,61.1768 C37.0015,59.7118 35.5245,57.9348 34.8235,55.5768 C33.9105,52.5038 33.4035,49.4178 33.8915,46.1808 C34.2775,43.6178 35.4965,41.6108 37.3455,39.9028 C38.5415,38.7968 39.7555,37.7108 40.9315,36.5858 C41.2235,36.3058 41.4025,35.9078 41.6335,35.5638" id="Fill-89" fill="#CCB581"></path>
                <g id="Group-93" transform="translate(48.000000, 92.213900)">
                    <mask id="mask-2" fill="white">
                        <use xlink:href="#path-1"></use>
                    </mask>
                    <g id="Clip-92"></g>
                    <path d="M13.5369,2.0676 C11.5209,4.4136 6.5529,5.3056 5.5049,4.1136 C5.4559,4.4156 5.4179,4.6506 5.3609,5.0006 C4.9989,4.9836 4.6369,4.9656 4.2289,4.9476 C4.1409,4.4216 4.0659,3.9796 3.9639,3.3686 C3.7339,4.0136 3.5589,4.5046 3.3849,4.9946 L3.0469,4.9266 C2.9919,4.5806 2.9359,4.2336 2.8749,3.8486 C2.7049,4.1666 2.5509,4.4546 2.3649,4.8006 C1.8619,4.7646 1.3809,4.7306 0.6179,4.6756 C1.4359,3.4636 2.1129,2.4626 2.9059,1.2866 C3.3019,1.7196 3.6049,2.0516 3.8569,2.3276 C3.8699,2.2696 3.9169,2.0536 3.9859,1.7426 C4.2999,2.0006 4.5639,2.2166 4.8289,2.4346 C4.8909,2.3926 4.9519,2.3506 5.0129,2.3086 C4.6619,1.6756 4.3109,1.0436 3.9599,0.4106 C6.8429,2.5106 10.0479,2.6676 13.5369,2.0676" id="Fill-91" fill="#CCB581" mask="url(#mask-2)"></path>
                </g>
                <path d="M59.6594,43.3099 C59.2994,42.6279 58.6584,41.9609 58.6224,41.2629 C58.3584,36.0629 58.5464,30.8899 60.1094,25.8609 C60.2234,25.4949 60.3924,25.1459 60.3604,24.8099 L60.3604,43.1679 C60.1274,43.2159 59.8934,43.2629 59.6594,43.3099" id="Fill-94" fill="#CCB581"></path>
                <path d="M42.1643,64.3157 C40.9883,62.6797 39.7673,61.0737 38.6443,59.4017 C36.0123,55.4827 34.9103,51.2057 35.7643,46.4937 C36.3153,43.4567 37.8893,41.0067 40.0733,38.8787 C37.5203,42.8427 36.7153,47.2197 37.0323,51.8297 C37.3553,56.5447 39.6313,60.4227 42.5423,64.0027 C42.4163,64.1067 42.2903,64.2117 42.1643,64.3157" id="Fill-96" fill="#CCB581"></path>
                <path d="M59.2361,73.0296 C60.0371,73.4916 60.5591,73.7926 61.1271,74.1206 C60.5571,80.2506 58.6111,85.7136 53.9821,89.9896 C57.0771,84.8386 58.7451,79.2246 59.2361,73.0296" id="Fill-98" fill="#CCB581"></path>
                <path d="M61.2307,20.3938 C60.3777,23.4488 59.2347,26.4588 58.7507,29.5718 C58.2067,33.0678 58.2587,36.6578 58.0447,40.2058 C58.0247,40.5358 57.9597,40.8628 57.9157,41.1898 C57.7877,41.2438 57.6587,41.2958 57.5297,41.3488 C57.2297,40.8878 56.7347,40.4558 56.6607,39.9608 C55.9207,35.0428 56.6377,30.3288 58.7607,25.8208 C59.4347,24.3898 59.9917,22.9038 60.6247,21.4538 C60.7857,21.0838 61.0337,20.7518 61.2417,20.4038 L61.2307,20.3938 Z" id="Fill-100" fill="#CCB581"></path>
                <path d="M24.0012,46.9788 C19.8832,45.0518 17.2072,42.0518 14.9742,38.4868 C13.1162,35.5188 10.9372,32.7518 8.9452,29.8198 C10.4812,31.5128 12.1602,33.0998 13.5232,34.9228 C15.8412,38.0238 18.4062,40.7848 21.5982,43.0418 C22.7022,43.8238 23.1532,45.5268 24.0012,46.9788" id="Fill-102" fill="#CCB581"></path>
                <path d="M46.5569,22.4983 C46.9189,26.8153 46.8529,31.1033 45.8559,35.3283 C45.6839,35.3293 45.5119,35.3303 45.3399,35.3313 C45.1309,28.4223 44.9219,21.5143 44.7119,14.6053 C44.7909,14.5933 44.8699,14.5793 44.9479,14.5663 C45.4879,17.2163 46.0269,19.8653 46.5669,22.5143 C46.5669,22.5153 46.5569,22.4983 46.5569,22.4983" id="Fill-104" fill="#CCB581"></path>
                <path d="M43.321,14.472 C42.762,15.64 42.343,16.903 41.621,17.959 C38.472,22.567 37.87,27.527 39.269,32.838 C39.467,33.589 39.479,34.389 39.359,35.184 C37.304,31.12 35.884,26.941 38.075,22.561 C39.502,19.708 41.273,17.027 42.889,14.269 C43.033,14.336 43.177,14.405 43.321,14.472" id="Fill-106" fill="#CCB581"></path>
                <path d="M44.0452,15.4202 C44.3422,21.6372 44.6252,27.5652 44.9082,33.4932 L44.4012,33.5692 C44.1952,33.0192 43.9892,32.4672 43.7532,31.8352 C43.4742,31.8672 43.1972,31.9002 42.9172,31.9342 C42.5962,26.4392 42.7062,21.0252 44.0452,15.4202" id="Fill-108" fill="#CCB581"></path>
                <path d="M60.6409,20.3782 C59.8489,22.1572 59.1289,23.9742 58.2489,25.7092 C56.2439,29.6642 55.7249,33.8722 55.9079,38.2252 C55.9339,38.8362 55.9119,39.4482 55.9119,40.2302 C55.3949,40.0262 55.0199,39.8782 54.6659,39.7392 C53.7209,32.3592 56.0889,26.0372 60.6409,20.3782" id="Fill-110" fill="#CCB581"></path>
                <path d="M54.1096,39.4749 C53.4986,39.2429 53.2306,39.1399 53.0236,39.0619 C51.5636,30.9929 54.9916,24.7659 60.3266,19.2159 C56.0356,25.2329 53.0886,31.6729 54.1096,39.4749" id="Fill-112" fill="#CCB581"></path>
                <path d="M44.8865,5.2308 C44.9885,5.3308 45.0895,5.4308 45.1915,5.5318 C46.7215,7.3158 48.1905,9.1578 49.7985,10.8698 C51.6485,12.8388 53.3545,14.9168 54.2465,17.4708 C54.7325,18.8618 54.7595,20.4168 54.9525,21.9018 C54.9795,22.1088 54.7705,22.3468 54.5095,22.9298 C54.2545,21.9208 54.0305,21.2848 53.9385,20.6278 C53.4705,17.2898 51.5485,14.7418 49.5195,12.2168 C47.8735,10.1678 46.3385,8.0298 44.7825,5.9098 C44.6865,5.7798 44.8455,5.4608 44.8865,5.2308" id="Fill-114" fill="#CCB581"></path>
                <path d="M40.5852,34.4407 C39.4672,31.3017 38.4132,28.0057 39.3012,24.7687 C40.1702,21.6017 41.8362,18.6547 43.3722,15.7087 C42.4432,18.7797 41.1562,21.7967 40.6872,24.9367 C40.2232,28.0407 40.5852,31.2677 40.5852,34.4407" id="Fill-116" fill="#CCB581"></path>
                <path d="M74.7849,8.637 C70.9019,12.241 66.5499,15.553 66.7069,21.674 C66.5139,21.676 66.3199,21.679 66.1259,21.681 C65.8929,20.996 65.4619,20.312 65.4589,19.626 C65.4429,16.298 67.3969,14.044 69.8079,12.089 C71.3499,10.839 72.9099,9.614 74.4619,8.376 C74.5699,8.463 74.6779,8.55 74.7849,8.637" id="Fill-118" fill="#CCB581"></path>
                <path d="M11.0676,29.8392 C14.1716,31.9142 17.3476,33.8932 20.3246,36.1362 C21.0446,36.6782 21.1066,38.0942 21.3196,39.1842 C17.0916,36.9202 14.6466,32.7782 11.0676,29.8392" id="Fill-120" fill="#CCB581"></path>
                <path d="M57.1843,19.8411 C56.7233,20.3221 56.3283,20.7361 55.6783,21.4141 C55.1883,15.9811 52.0773,12.2841 48.5843,8.8051 C52.8653,11.3981 56.0203,14.8311 57.1843,19.8411" id="Fill-122" fill="#CCB581"></path>
                <path d="M74.0725,7.345 C74.4295,7.136 74.7865,6.928 75.1425,6.721 C74.9965,7.023 74.9295,7.424 74.6935,7.612 C72.8085,9.102 70.9005,10.564 68.9835,12.012 C66.7555,13.696 65.3495,15.874 64.8905,18.647 C64.8535,18.873 64.7625,19.094 64.6775,19.31 C64.6375,19.41 64.5515,19.492 64.3805,19.73 C64.0275,19.344 63.7145,19.001 63.4405,18.702 C64.9435,13.851 66.9715,11.296 69.0395,10.955 C70.9995,9.549 72.5355,8.447 74.0725,7.345" id="Fill-124" fill="#CCB581"></path>
                <path d="M30.4832,43.8929 C26.6972,39.7889 26.7902,34.3789 25.2972,29.1609 C27.2152,32.3289 30.8412,42.7129 30.4832,43.8929" id="Fill-126" fill="#CCB581"></path>
                <path d="M51.8318,38.8157 C51.6278,38.4787 51.2718,38.1557 51.2418,37.8047 C50.8438,33.2107 51.6418,28.8577 54.0248,24.8607 C54.2838,24.4267 54.6998,24.0867 55.2988,23.8037 C52.7198,28.4627 51.8388,33.4207 52.4358,38.6797 C52.2338,38.7247 52.0328,38.7707 51.8318,38.8157" id="Fill-128" fill="#CCB581"></path>
                <path d="M74.8928,9.5472 C73.3758,11.6302 71.9698,13.8072 70.3128,15.7722 C68.5818,17.8242 68.7768,20.4582 68.0118,22.7952 C67.8548,22.8032 67.6988,22.8112 67.5418,22.8182 C67.4008,22.3012 67.0998,21.7692 67.1448,21.2692 C67.5278,17.1272 69.7588,13.9762 72.6758,11.2152 C73.3378,10.5882 74.0248,9.9862 74.7018,9.3732 C74.7658,9.4312 74.8288,9.4892 74.8928,9.5472" id="Fill-130" fill="#CCB581"></path>
                <path d="M42.5203,20.5677 C41.5003,24.8787 43.2263,29.3587 41.7123,33.6127 C40.5713,29.1677 40.5043,24.7917 42.5203,20.5677" id="Fill-132" fill="#CCB581"></path>
                <path d="M72.7102,13.8802 C72.2202,15.0992 72.1652,16.5572 70.8842,17.4262 C71.1592,18.3112 70.1062,23.1982 69.4762,23.5902 C69.5932,23.9372 69.7132,24.2942 69.8332,24.6512 C69.7722,24.7052 69.7112,24.7592 69.6502,24.8142 C69.3702,24.5082 69.0902,24.2032 68.9202,24.0192 C68.6492,19.9722 70.1242,16.7052 72.7102,13.8802" id="Fill-134" fill="#CCB581"></path>
                <path d="M42.8918,94.7903 C41.7618,93.9653 40.4998,93.0433 39.2368,92.1213 C43.3728,93.9983 47.3778,95.3073 51.4648,91.9043 C51.0448,93.6863 45.9218,96.0523 44.1398,95.3013 C44.3888,95.1813 44.5828,95.0863 44.7778,94.9923 C44.7388,94.9253 44.6998,94.8573 44.6618,94.7903 L42.8918,94.7903 Z" id="Fill-136" fill="#CCB581"></path>
                <path d="M34.5876,62.2288 C31.0876,63.2538 23.6426,62.2348 21.0086,60.2748 C25.3286,62.5118 30.1266,61.0448 34.5876,62.2288" id="Fill-138" fill="#CCB581"></path>
                <path d="M92.3293,55.8304 C93.4663,58.0804 91.2123,61.2944 87.9273,62.2744 C89.3503,60.1914 90.8153,58.0464 92.3293,55.8304" id="Fill-140" fill="#CCB581"></path>
            </g>
        </g>
    </g>
</svg>