<?xml version="1.0" encoding="UTF-8"?>
<svg width="285px" height="39px" viewBox="0 0 285 39" version="1.1" xmlns="http://www.w3.org/2000/svg" xmlns:xlink="http://www.w3.org/1999/xlink">
    <!-- Generator: Sketch 49.2 (51160) - http://www.bohemiancoding.com/sketch -->
    <title>Logo</title>
    <desc>Created with Sketch.</desc>
    <defs>
        <polygon id="path-1" points="0 0.203304706 65.895937 0.203304706 65.895937 38.9999897 0 38.9999897"></polygon>
        <rect id="path-3" x="0" y="0" width="9" height="9"></rect>
    </defs>
    <g id="Logo" stroke="none" stroke-width="1" fill="none" fill-rule="evenodd">
        <g id="Group-14">
            <g id="Page-1">
                <g id="Group-3">
                    <mask id="mask-2" fill="white">
                        <use xlink:href="#path-1"></use>
                    </mask>
                    <g id="Clip-2"></g>
                    <path d="M62.4273205,6.16709294 L35.6358411,9.70324588 C35.1842384,9.76289294 34.7837178,9.40592824 34.7837178,8.94343412 L34.7837178,8.93792824 C34.7837178,8.55251647 35.0658,8.22721059 35.4428137,8.17811647 L62.2388137,4.68509294 C62.678211,4.62774 63.0674301,4.97506941 63.0674301,5.42517529 L63.0674301,5.42746941 C63.0674301,5.80232824 62.7934849,6.11891647 62.4273205,6.16709294 M62.4304849,10.3102694 L35.6390055,13.9661753 C35.1864986,14.0281165 34.7837178,13.6706929 34.7837178,13.2072812 L34.7837178,13.2026929 C34.7837178,12.8181988 35.0639918,12.4933518 35.4391973,12.44334 L62.2356493,8.83010471 C62.6764027,8.77045765 63.0674301,9.11870471 63.0674301,9.56972824 L63.0674301,9.57064588 C63.0674301,9.94412824 62.7948411,10.2607165 62.4304849,10.3102694 M62.4336493,14.4539047 L35.6426219,18.2295635 C35.1887589,18.2937988 34.7837178,17.9354576 34.7837178,17.4706694 L34.7837178,17.4669988 C34.7837178,17.0838812 35.0621836,16.7599518 35.4360329,16.7081047 L62.2320329,12.9746576 C62.6741425,12.9131753 63.0674301,13.2618812 63.0674301,13.7138224 L63.0674301,13.7142812 C63.0674301,14.0873047 62.7966493,14.4025165 62.4336493,14.4539047 M62.4341014,18.5947871 L56.8607178,19.3839635 C56.7734712,19.3963518 56.6866767,19.3821282 56.6075671,19.3435871 C56.292937,19.1894224 55.9665534,19.04214 55.6302247,18.9044929 C55.2048411,18.7305988 55.2907315,18.0914576 55.7450466,18.02814 L62.2315808,17.1164576 C62.6736904,17.0545165 63.0674301,17.4032224 63.0674301,17.8560812 C63.0674301,18.2281871 62.7971014,18.5438576 62.4341014,18.5947871 M62.2912521,23.6744224 C61.8744575,23.2353282 61.3432932,22.6911635 60.8338274,22.2162812 C60.5531014,21.9547518 60.7018274,21.4807871 61.078389,21.4266459 L62.0367452,21.28854 C62.5810192,21.2100812 63.0674301,21.6390812 63.0674301,22.1974694 L63.0674301,23.3546224 C63.0674301,23.7675635 62.5733342,23.97174 62.2912521,23.6744224 M62.3002932,31.4863518 L57.8529781,32.1777988 C57.4072521,32.24754 57.1477726,31.6863988 57.4859096,31.3835753 C59.4532521,29.6203165 61.2641836,27.41154 62.2623205,26.1213282 C62.5272247,25.7790459 63.0674301,25.9722106 63.0674301,26.4076341 L63.0674301,30.5792576 C63.0674301,31.0321165 62.7414986,31.4175282 62.3002932,31.4863518 M41.0641151,30.1305282 L56.5329781,27.7428106 C56.9683068,27.6758224 57.2354712,28.2153988 56.9181288,28.5251047 C54.9363205,30.46134 52.0897315,32.6384576 48.9258,33.1390341 C45.7311288,33.6487871 42.8605808,32.3200341 40.8760603,30.9642106 C40.5347589,30.7311282 40.6572658,30.1929282 41.0641151,30.1305282 M34.7837178,34.7958459 L34.7837178,30.4998812 C34.7837178,30.0906106 35.2705808,29.8864341 35.5562795,30.1764106 C36.5566767,31.1917871 38.4146219,32.9366929 40.428074,34.1268812 C40.7969507,34.3448224 40.6988548,34.9087165 40.2770877,34.9770812 L35.8311288,35.7020224 C35.2818822,35.7914929 34.7837178,35.3611165 34.7837178,34.7958459 M35.5535671,25.2165282 L36.5724986,25.0605282 C36.9788959,24.9985871 37.2505808,25.4743871 36.9933616,25.7992341 C36.5074027,26.4135988 36.0033616,27.0963282 35.5992247,27.6556341 C35.3411014,28.0135165 34.7837178,27.8267753 34.7837178,27.3830929 L34.7837178,26.1236224 C34.7837178,25.6693871 35.1110055,25.2835165 35.5535671,25.2165282 M35.4301562,20.9714929 L41.8900192,20.0203518 C42.3583479,19.9519871 42.6069781,20.5727753 42.218663,20.8471518 C41.8728411,21.0912459 41.5383205,21.3426812 41.2151014,21.5991635 C41.154526,21.6468812 41.0840055,21.6776224 41.0080603,21.6890929 L35.6484986,22.4888224 C35.1928274,22.5571871 34.7837178,22.1983871 34.7837178,21.7308459 L34.7837178,21.7294694 C34.7837178,21.3486459 35.0590192,21.0256341 35.4301562,20.9714929 M31.0488411,22.5168106 C30.7730877,22.1708576 30.4882932,21.8175635 30.305211,21.6019165 C30.2346904,21.5184106 30.1976219,21.4142576 30.1976219,21.3045988 L30.1976219,3.68852824 C30.1976219,3.26778706 30.5334986,2.92688118 30.9480329,2.92688118 L30.9484849,2.92688118 C31.4475534,2.92688118 31.8525945,3.33752824 31.8525945,3.84452824 L31.8525945,22.2277518 C31.8525945,22.6604224 31.3173616,22.8526694 31.0488411,22.5168106 M30.9484849,30.6177988 L26.337526,30.6177988 C25.8976767,30.6177988 25.7195671,30.0497753 26.0748822,29.7868694 C28.1367041,28.26174 30.0384986,26.2094224 31.0628548,25.0284106 C31.3377041,24.7113635 31.8525945,24.9114106 31.8525945,25.3330694 L31.8525945,29.7001518 C31.8525945,30.2071518 31.4475534,30.6177988 30.9484849,30.6177988 M6.79836164,24.4232224 C6.48553973,24.0740576 6.48553973,23.54274 6.79836164,23.1935753 C8.22866301,21.5991635 12.4228274,17.4532341 17.3741836,17.4532341 C22.3273479,17.4532341 26.5228685,21.6023753 27.9513616,23.1954106 C28.2637315,23.5436576 28.2637315,24.07314 27.9513616,24.4218459 C26.5228685,26.01534 22.3273479,30.1640224 17.3741836,30.1640224 C12.4228274,30.1640224 8.22866301,26.0185518 6.79836164,24.4232224 M2.8957726,29.7001518 L2.8957726,25.3330694 C2.8957726,24.9114106 3.41021096,24.7113635 3.68551233,25.0284106 C4.70986849,26.2094224 6.61166301,28.26174 8.67303288,29.7868694 C9.02834795,30.0497753 8.85023836,30.6177988 8.41038904,30.6177988 L3.79988219,30.6177988 C3.30036164,30.6177988 2.8957726,30.2071518 2.8957726,29.7001518 M3.72303288,2.92688118 L3.72348493,2.92688118 C4.18006027,2.92688118 4.55029315,3.30265765 4.55029315,3.76652824 L4.55029315,21.3045988 C4.55029315,21.4142576 4.51367671,21.5184106 4.44270411,21.6019165 C4.26007397,21.8175635 3.9748274,22.1708576 3.69907397,22.5168106 C3.43100548,22.8526694 2.8957726,22.6604224 2.8957726,22.2282106 L2.8957726,3.76652824 C2.8957726,3.30265765 3.26600548,2.92688118 3.72303288,2.92688118 M8.27341644,2.92688118 C8.72999178,2.92688118 9.10067671,3.30265765 9.10067671,3.76652824 L9.10067671,17.0279047 C9.10067671,17.3316459 8.94833425,17.6133635 8.70196438,17.7854224 C8.51707397,17.9148106 8.33625205,18.0455753 8.16040274,18.17634 C7.86249863,18.3979518 7.44615616,18.1804694 7.44615616,17.8056106 L7.44615616,3.76652824 C7.44615616,3.30265765 7.81638904,2.92688118 8.27341644,2.92688118 M12.8238,2.92688118 C13.2808274,2.92688118 13.6510603,3.30265765 13.6510603,3.76652824 L13.6510603,14.6397282 C13.6510603,15.0255988 13.4155397,15.3752224 13.0561562,15.5013988 C12.9038137,15.5550812 12.7523753,15.6105988 12.6022932,15.6684106 C12.3093616,15.7821988 11.9960877,15.5573753 11.9960877,15.2384929 L11.9960877,3.76652824 C11.9960877,3.30265765 12.3667726,2.92688118 12.8238,2.92688118 M17.3737315,2.92688118 L17.3741836,2.92688118 C17.831211,2.92688118 18.2014438,3.30265765 18.2014438,3.76652824 L18.2014438,13.9212106 C18.2014438,14.3781988 17.8361836,14.7470929 17.385937,14.7470929 L17.3624301,14.7470929 C16.9121836,14.7470929 16.5464712,14.3781988 16.5464712,13.9212106 L16.5464712,3.76652824 C16.5464712,3.30265765 16.9171562,2.92688118 17.3737315,2.92688118 M22.7518274,3.76652824 L22.7518274,15.2412459 C22.7518274,15.5587518 22.4412658,15.7835753 22.1483342,15.67254 C21.9996082,15.6161047 21.849074,15.5619635 21.6976356,15.5091988 C21.3355397,15.3848576 21.0973068,15.0338576 21.0973068,14.6456929 L21.0973068,3.76652824 C21.0973068,3.30265765 21.4675397,2.92688118 21.9241151,2.92688118 L21.9245671,2.92688118 C22.3815945,2.92688118 22.7518274,3.30265765 22.7518274,3.76652824 M26.4749507,2.92688118 C26.931526,2.92688118 27.302211,3.30265765 27.302211,3.76652824 L27.302211,17.8056106 C27.302211,18.1804694 26.8854164,18.3979518 26.5879644,18.17634 C26.411663,18.0455753 26.2312932,17.9148106 26.0464027,17.7854224 C25.7995808,17.6133635 25.6476904,17.3316459 25.6476904,17.0279047 L25.6476904,3.76652824 C25.6476904,3.30265765 26.0179233,2.92688118 26.4749507,2.92688118 M39.5049781,4.63783412 L34.9627315,0.441892941 C34.7963753,0.288187059 34.579389,0.203304706 34.3542658,0.203304706 L0.904019178,0.203304706 C0.404950685,0.203304706 -9.04109589e-05,0.613951765 -9.04109589e-05,1.12095176 L-9.04109589e-05,32.4241871 C-9.04109589e-05,32.9307282 0.404950685,33.3418341 0.904019178,33.3418341 L25.3936356,33.3418341 C25.6174027,33.3418341 25.8330329,33.4257988 25.999389,33.5776694 L31.6649918,38.7637518 C31.8679644,38.9495753 32.1432658,39.0321635 32.4131425,38.9885753 L65.1342247,33.68274 C65.5731699,33.6111635 65.895937,33.2275871 65.895937,32.7761047 L65.895937,2.63690471 C65.895937,2.08448118 65.4190192,1.65731647 64.8792658,1.72614 L40.2264575,4.86999882 C39.9642658,4.90303412 39.7007178,4.81861059 39.5049781,4.63783412" id="Fill-1" fill="#303030" mask="url(#mask-2)"></path>
                </g>
                <path d="M19.9741985,21.916209 L18.4695363,21.916209 C18.2345127,21.916209 18.0437689,21.7258909 18.0437689,21.4904415 L18.0437689,19.9857794 C18.0437689,19.6630476 18.3848086,19.4650658 18.6730532,19.6098267 C19.3972836,19.9738579 19.98612,20.5626943 20.3501511,21.2869247 C20.4949121,21.5751692 20.2969302,21.916209 19.9741985,21.916209 M16.9997871,18 C14.2382595,18 12,20.2386852 12,23.0002129 C12,25.7613148 14.2382595,28 16.9997871,28 C19.7613148,28 22,25.7613148 22,23.0002129 C22,20.2386852 19.7613148,18 16.9997871,18" id="Fill-4" fill="#303030"></path>
            </g>
            <g id="Group" transform="translate(76.000000, 4.000000)">
                <path d="M17.5690548,15.8921162 L7.28800365,15.8921162 L5.55659947,19.4882434 L0,19.4882434 L9.65022951,0.484094053 L15.206829,0.484094053 L24.8570585,19.4882434 L19.300459,19.4882434 L17.5690548,15.8921162 Z M9.07309478,12.1853389 L15.8108072,12.1853389 L12.4553727,5.18672199 L9.07309478,12.1853389 Z M36.9795721,19.4882434 L32.0001074,19.4882434 L32.0001074,0.484094053 L44.4823236,0.484094053 C45.8245041,0.484094053 46.9631034,0.627015629 47.8981559,0.912863071 C48.8332083,1.19871051 49.5937658,1.60442337 50.1798513,2.13001383 C50.7659368,2.65560429 51.1909542,3.28953064 51.4549164,4.03181189 C51.7188785,4.77409315 51.8508576,5.60165519 51.8508576,6.51452282 C51.8508576,7.31673983 51.7412479,8.0175166 51.5220251,8.61687414 C51.3028023,9.21623167 51.007527,9.73028831 50.6361904,10.1590595 C50.2648538,10.5878306 49.8331255,10.949745 49.3409927,11.2448133 C48.8488598,11.5398816 48.3298911,11.7842314 47.7840711,11.97787 L53.8238531,19.4882434 L47.9988189,19.4882434 L42.4153759,12.4896266 L36.9795721,12.4896266 L36.9795721,19.4882434 Z M46.817706,6.4868603 C46.817706,6.1180249 46.7707303,5.8045195 46.6767777,5.54633472 C46.5828251,5.28814993 46.4195289,5.07837794 46.1868843,4.91701245 C45.9542397,4.75564696 45.6433058,4.63808243 45.2540735,4.56431535 C44.8648412,4.49054827 44.3794265,4.45366528 43.7978149,4.45366528 L36.9795721,4.45366528 L36.9795721,8.52005533 L43.7978149,8.52005533 C44.3794265,8.52005533 44.8648412,8.48317234 45.2540735,8.40940526 C45.6433058,8.33563817 45.9542397,8.21807365 46.1868843,8.05670816 C46.4195289,7.89534267 46.5828251,7.68557068 46.6767777,7.42738589 C46.7707303,7.16920111 46.817706,6.85569571 46.817706,6.4868603 Z M66.496658,19.4882434 L61.5171932,19.4882434 L61.5171932,0.484094053 L73.9994094,0.484094053 C75.3415899,0.484094053 76.4801893,0.627015629 77.4152417,0.912863071 C78.3502941,1.19871051 79.1108517,1.60442337 79.6969372,2.13001383 C80.2830226,2.65560429 80.7080401,3.28953064 80.9720023,4.03181189 C81.2359644,4.77409315 81.3679435,5.60165519 81.3679435,6.51452282 C81.3679435,7.31673983 81.2583338,8.0175166 81.0391109,8.61687414 C80.8198881,9.21623167 80.5246128,9.73028831 80.1532762,10.1590595 C79.7819396,10.5878306 79.3502114,10.949745 78.8580785,11.2448133 C78.3659457,11.5398816 77.846977,11.7842314 77.301157,11.97787 L83.340939,19.4882434 L77.5159048,19.4882434 L71.9324618,12.4896266 L66.496658,12.4896266 L66.496658,19.4882434 Z M76.3347918,6.4868603 C76.3347918,6.1180249 76.2878162,5.8045195 76.1938636,5.54633472 C76.0999109,5.28814993 75.9366148,5.07837794 75.7039702,4.91701245 C75.4713255,4.75564696 75.1603917,4.63808243 74.7711594,4.56431535 C74.381927,4.49054827 73.8965124,4.45366528 73.3149008,4.45366528 L66.496658,4.45366528 L66.496658,8.52005533 L73.3149008,8.52005533 C73.8965124,8.52005533 74.381927,8.48317234 74.7711594,8.40940526 C75.1603917,8.33563817 75.4713255,8.21807365 75.7039702,8.05670816 C75.9366148,7.89534267 76.0999109,7.68557068 76.1938636,7.42738589 C76.2878162,7.16920111 76.3347918,6.85569571 76.3347918,6.4868603 Z M91.0342791,19.4882434 L91.0342791,0.484094053 L109.703916,0.484094053 L109.703916,4.53665284 L96.1479612,4.53665284 L96.1479612,7.67634855 L109.005986,7.67634855 L109.005986,11.7289073 L96.1479612,11.7289073 L96.1479612,15.4356846 L109.891821,15.4356846 L109.891821,19.4882434 L91.0342791,19.4882434 Z M142.683811,10 C142.683811,11.6320967 142.393009,13.0728384 141.811398,14.3222683 C141.229786,15.5716983 140.397647,16.6159479 139.314955,17.4550484 C138.232262,18.294149 136.919182,18.9280753 135.375674,19.3568465 C133.832167,19.7856176 132.098543,20 130.174751,20 C128.250959,20 126.512861,19.7856176 124.960406,19.3568465 C123.40795,18.9280753 122.085922,18.294149 120.994282,17.4550484 C119.902642,16.6159479 119.061555,15.5716983 118.470996,14.3222683 C117.880436,13.0728384 117.585161,11.6320967 117.585161,10 C117.585161,8.36790332 117.880436,6.92716162 118.470996,5.67773167 C119.061555,4.42830173 119.902642,3.38405214 120.994282,2.54495159 C122.085922,1.70585104 123.40795,1.07192469 124.960406,0.643153527 C126.512861,0.214382365 128.250959,0 130.174751,0 C132.098543,0 133.832167,0.214382365 135.375674,0.643153527 C136.919182,1.07192469 138.232262,1.70585104 139.314955,2.54495159 C140.397647,3.38405214 141.229786,4.42830173 141.811398,5.67773167 C142.393009,6.92716162 142.683811,8.36790332 142.683811,10 Z M137.650659,10 C137.650659,9.28999184 137.541049,8.58229952 137.321826,7.8769018 C137.102604,7.17150408 136.713377,6.53757773 136.154135,5.97510373 C135.594893,5.41262974 134.832099,4.95620277 133.865729,4.60580913 C132.899359,4.25541549 131.669045,4.0802213 130.174751,4.0802213 C129.17259,4.0802213 128.291238,4.16090284 127.530669,4.32226833 C126.7701,4.48363382 126.112441,4.70723693 125.557673,4.99308437 C125.002905,5.27893181 124.537623,5.61318389 124.161812,5.99585062 C123.786002,6.37851736 123.486253,6.78884059 123.262556,7.22683264 C123.038859,7.66482469 122.880037,8.12125166 122.786084,8.59612725 C122.692132,9.07100284 122.645156,9.53895574 122.645156,10 C122.645156,10.4702651 122.692132,10.9451336 122.786084,11.4246196 C122.880037,11.9041057 123.038859,12.3628378 123.262556,12.8008299 C123.486253,13.2388219 123.786002,13.64684 124.161812,14.0248963 C124.537623,14.4029526 125.002905,14.7325943 125.557673,15.0138313 C126.112441,15.2950683 126.7701,15.5163662 127.530669,15.6777317 C128.291238,15.8390972 129.17259,15.9197787 130.174751,15.9197787 C131.669045,15.9197787 132.899359,15.7445845 133.865729,15.3941909 C134.832099,15.0437972 135.594893,14.5873703 136.154135,14.0248963 C136.713377,13.4624223 137.102604,12.8284959 137.321826,12.1230982 C137.541049,11.4177005 137.650659,10.7100082 137.650659,10 Z M151.343516,19.4882434 L151.343516,0.484094053 L156.322981,0.484094053 L156.322981,15.3250346 L169.784984,15.3250346 L169.784984,19.4882434 L151.343516,19.4882434 Z M192.711996,15.8921162 L182.430945,15.8921162 L180.699541,19.4882434 L175.142942,19.4882434 L184.793171,0.484094053 L190.34977,0.484094053 L200,19.4882434 L194.443401,19.4882434 L192.711996,15.8921162 Z M184.216036,12.1853389 L190.953749,12.1853389 L187.598314,5.18672199 L184.216036,12.1853389 Z" id="ARREOLA" fill="#303030"></path>
                <path d="M6.13037138,24.0101668 L7.51860387,27.7833116 L9.02153363,24.0101668 L10.5442388,24.0101668 L8.36103555,29.4444444 L6.73154329,29.4444444 L5.31167017,25.7899521 L3.89575214,29.4444444 L2.26625987,29.4444444 L0.0791015662,24.0101668 L1.60576179,24.0101668 L3.07705093,27.70421 L4.49692404,24.0101668 L6.13037138,24.0101668 Z M12.7432623,29.4444444 L12.7432623,24.0101668 L18.2447762,24.0101668 L18.2447762,25.1690048 L14.2501471,25.1690048 L14.2501471,26.0668076 L18.0391121,26.0668076 L18.0391121,27.2256455 L14.2501471,27.2256455 L14.2501471,28.2856065 L18.3001473,28.2856065 L18.3001473,29.4444444 L12.7432623,29.4444444 Z M27.179298,27.9454698 C27.179298,28.1564083 27.1516128,28.3396585 27.0962414,28.4952256 C27.04087,28.6507928 26.9637468,28.784605 26.8648693,28.8966661 C26.7659919,29.0087272 26.6473407,29.0996931 26.5089123,29.1695665 C26.3704838,29.2394399 26.2175557,29.2948104 26.0501232,29.3356798 C25.8826907,29.3765491 25.7040548,29.4048936 25.5142101,29.420714 C25.3243654,29.4365344 25.1279318,29.4444444 24.9249034,29.4444444 L20.9816903,29.4444444 L20.9816903,24.0101668 L24.853712,24.0101668 C25.0092792,24.0101668 25.1655032,24.0167586 25.3223888,24.0299422 C25.4792743,24.0431259 25.6289066,24.0675153 25.7712902,24.1031112 C25.9136737,24.1387071 26.0461675,24.1881451 26.1687755,24.2514266 C26.2913836,24.3147082 26.3981696,24.397764 26.4891369,24.5005966 C26.5801041,24.6034291 26.6512948,24.7273537 26.7027111,24.8723739 C26.7541274,25.0173942 26.7798351,25.1887792 26.7798351,25.3865341 C26.7798351,25.7398562 26.6928243,26.0200048 26.5188,26.2269882 C26.3447756,26.4339717 26.0705596,26.5717389 25.6961437,26.6402939 C25.9598169,26.658751 26.1859133,26.6989606 26.3744396,26.7609238 C26.5629659,26.822887 26.7165533,26.9072612 26.8352062,27.0140488 C26.9538592,27.1208365 27.04087,27.2513527 27.0962414,27.4056016 C27.1516128,27.5598504 27.179298,27.7398047 27.179298,27.9454698 Z M25.3480968,25.6198837 C25.3480968,25.5513287 25.33755,25.4860705 25.3164562,25.4241073 C25.2953623,25.3621441 25.2571303,25.3074328 25.2017589,25.2599716 C25.1463875,25.2125104 25.0712418,25.1742784 24.9763194,25.1452743 C24.8813971,25.1162703 24.7601092,25.1017685 24.6124522,25.1017685 L22.4490244,25.1017685 L22.4490244,26.1221787 L24.6124522,26.1221787 C24.7601092,26.1221787 24.8813971,26.1089952 24.9763194,26.0826279 C25.0712418,26.0562606 25.1463875,26.0206652 25.2017589,25.9758408 C25.2571303,25.9310163 25.2953623,25.8776233 25.3164562,25.8156601 C25.33755,25.7536969 25.3480968,25.6884388 25.3480968,25.6198837 Z M25.6882335,27.7754014 C25.6882335,27.651475 25.66714,27.5519398 25.6249523,27.476793 C25.5827645,27.4016461 25.5168472,27.3436389 25.4271983,27.3027695 C25.3375495,27.2619002 25.221535,27.2348741 25.0791515,27.2216904 C24.9367679,27.2085068 24.7667013,27.201915 24.5689464,27.201915 L22.4490244,27.201915 L22.4490244,28.3528428 L24.5689464,28.3528428 C24.7667013,28.3528428 24.9367679,28.3462511 25.0791515,28.3330674 C25.221535,28.3198838 25.3375495,28.2921985 25.4271983,28.2500108 C25.5168472,28.2078231 25.5827645,28.1491567 25.6249523,28.0740098 C25.66714,27.9988629 25.6882335,27.8993278 25.6882335,27.7754014 Z M40.7491716,26.7233506 C40.7491716,27.0713992 40.7109396,27.3805514 40.6344743,27.6508164 C40.5580091,27.9210815 40.4505639,28.1564063 40.3121354,28.3567979 C40.173707,28.5571895 40.0075954,28.7272562 39.8137956,28.867003 C39.6199958,29.0067498 39.4044462,29.1188092 39.1671403,29.2031847 C38.9298344,29.2875601 38.6740752,29.3488632 38.3998551,29.3870958 C38.125635,29.4253284 37.8395538,29.4444444 37.5416031,29.4444444 L34.0927748,29.4444444 L34.0927748,24.0101668 L37.5336929,24.0101668 C37.8316437,24.0101668 38.1177248,24.0292829 38.3919449,24.0675155 C38.6661651,24.1057481 38.9225834,24.1670512 39.1612077,24.2514266 C39.3998319,24.335802 39.6166999,24.4472023 39.811818,24.5856307 C40.0069362,24.7240592 40.173707,24.8941258 40.3121354,25.0958358 C40.4505639,25.2975458 40.5580091,25.5328706 40.6344743,25.8018173 C40.7109396,26.070764 40.7491716,26.3779387 40.7491716,26.7233506 Z M39.2699723,26.7233506 C39.2699723,26.4623141 39.2363545,26.2355585 39.1691178,26.0430771 C39.1018811,25.8505957 38.9937768,25.6917349 38.8448014,25.5664902 C38.695826,25.4412454 38.50137,25.3476428 38.2614273,25.2856796 C38.0214847,25.2237164 37.7288119,25.1927353 37.3834,25.1927353 L35.5601089,25.1927353 L35.5601089,28.261876 L37.3834,28.261876 C37.7288119,28.261876 38.0214847,28.2308949 38.2614273,28.1689317 C38.50137,28.1069685 38.695826,28.0120476 38.8448014,27.8841661 C38.9937768,27.7562845 39.1018811,27.5961055 39.1691178,27.403624 C39.2363545,27.2111426 39.2699723,26.984387 39.2699723,26.7233506 Z M43.3516131,29.4444444 L43.3516131,24.0101668 L48.853127,24.0101668 L48.853127,25.1690048 L44.8584979,25.1690048 L44.8584979,26.0668076 L48.6474629,26.0668076 L48.6474629,27.2256455 L44.8584979,27.2256455 L44.8584979,28.2856065 L48.9084981,28.2856065 L48.9084981,29.4444444 L43.3516131,29.4444444 Z M56.5971703,25.5407822 C56.4943377,25.4906842 56.3585481,25.4339954 56.1897972,25.3707138 C56.0210464,25.3074322 55.8298862,25.2474475 55.6163109,25.1907577 C55.4027356,25.134068 55.1707066,25.0866075 54.9202171,25.0483749 C54.6697275,25.0101423 54.41265,24.9910263 54.1489768,24.9910263 C53.9380382,24.9910263 53.758084,24.997618 53.6091086,25.0108017 C53.4601333,25.0239853 53.3348904,25.0411238 53.2333762,25.0622177 C53.131862,25.0833115 53.0514429,25.1077009 52.9921164,25.1353866 C52.9327899,25.1630723 52.887307,25.1914168 52.8556662,25.2204208 C52.8240254,25.2494249 52.803591,25.2784285 52.7943625,25.3074325 C52.7851339,25.3364366 52.7805197,25.3628035 52.7805197,25.3865341 C52.7805197,25.4656361 52.8200701,25.5348492 52.8991721,25.5941757 C52.978274,25.6535022 53.0863784,25.706236 53.2234885,25.7523788 C53.3605985,25.7985217 53.5201184,25.8420271 53.702053,25.8828964 C53.8839875,25.9237658 54.0771252,25.9659529 54.2814719,26.0094589 C54.4858187,26.052965 54.6967541,26.1004255 54.9142845,26.1518418 C55.1318148,26.203258 55.3427503,26.2632428 55.547097,26.3317978 C55.7514437,26.4003528 55.9445814,26.4801128 56.126516,26.5710801 C56.3084505,26.6620473 56.4679704,26.7681742 56.6050804,26.8894639 C56.7421905,27.0107535 56.8502949,27.1504982 56.9293969,27.3087022 C57.0084988,27.4669061 57.0480492,27.6475195 57.0480492,27.8505479 C57.0480492,28.1115844 57.0019071,28.3357032 56.9096215,28.5229112 C56.8173358,28.7101192 56.6940705,28.8683207 56.5398216,28.9975206 C56.3855728,29.1267205 56.2069369,29.2302106 56.0039085,29.3079942 C55.8008802,29.3857778 55.5879672,29.4457626 55.3651634,29.4879503 C55.1423595,29.530138 54.9169223,29.5578233 54.688845,29.571007 C54.4607677,29.5841906 54.2438997,29.5907823 54.0382346,29.5907823 C53.5003413,29.5907823 53.0026656,29.5466177 52.5451925,29.4582872 C52.0877195,29.3699567 51.6836464,29.2598748 51.332961,29.1280382 L51.332961,27.8307725 C51.6941933,28.0311641 52.1061765,28.1880473 52.568923,28.3014268 C53.0316695,28.4148063 53.5267085,28.4714952 54.0540549,28.4714952 C54.3651893,28.4714952 54.618971,28.4550159 54.8154075,28.4220567 C55.011844,28.3890976 55.1654314,28.3469105 55.2761741,28.2954942 C55.3869169,28.2440779 55.4620626,28.1880482 55.5016136,28.1274034 C55.5411646,28.0667585 55.5609398,28.0087513 55.5609398,27.9533799 C55.5609398,27.8663678 55.5213894,27.7905629 55.4422874,27.7259629 C55.3631854,27.661363 55.2550811,27.6046741 55.117971,27.5558946 C54.9808609,27.507115 54.821341,27.4622912 54.6394065,27.4214219 C54.457472,27.3805525 54.2643343,27.3396838 54.0599875,27.2988145 C53.8556408,27.2579451 53.6453646,27.2137805 53.4291525,27.1663193 C53.2129405,27.1188582 53.0026643,27.0628284 52.7983176,26.9982285 C52.5939708,26.9336286 52.4008331,26.8584828 52.2188986,26.772789 C52.0369641,26.6870953 51.8774442,26.5855826 51.7403341,26.468248 C51.603224,26.3509134 51.4951197,26.2151238 51.4160177,26.0608749 C51.3369157,25.9066261 51.2973653,25.7279902 51.2973653,25.5249618 C51.2973653,25.2850192 51.3395524,25.0780389 51.4239278,24.9040145 C51.5083033,24.7299902 51.6223402,24.5816763 51.7660421,24.4590682 C51.909744,24.3364602 52.0758556,24.2369251 52.264382,24.1604598 C52.4529083,24.0839946 52.6513194,24.024669 52.8596213,23.9824813 C53.0679231,23.9402936 53.2788585,23.91129 53.4924338,23.8954696 C53.7060091,23.8796492 53.9090344,23.8717391 54.1015159,23.8717391 C54.3124544,23.8717391 54.5293224,23.8822859 54.7521262,23.9033797 C54.9749301,23.9244736 55.1944348,23.9541364 55.4106468,23.992369 C55.6268588,24.0306016 55.8358167,24.0747662 56.0375267,24.1248641 C56.2392367,24.174962 56.4257827,24.2276959 56.5971703,24.2830672 L56.5971703,25.5407822 Z M59.7019067,29.4444444 L59.7019067,24.0101668 L61.1692407,24.0101668 L61.1692407,29.4444444 L59.7019067,29.4444444 Z M67.6357937,23.8717391 C68.1684136,23.8717391 68.6634526,23.917222 69.1209256,24.0081893 C69.5783986,24.0991566 69.9982919,24.2158302 70.3806181,24.3582137 L70.3806181,25.68712 C70.2303243,25.6027446 70.0609169,25.5210072 69.8723905,25.4419052 C69.6838642,25.3628032 69.4788613,25.2929309 69.2573758,25.232286 C69.0358903,25.1716412 68.798588,25.1228624 68.5454617,25.0859481 C68.2923355,25.0490339 68.0260295,25.030577 67.7465359,25.030577 C67.3984873,25.030577 67.0952676,25.0556256 66.8368679,25.1057235 C66.5784682,25.1558214 66.356986,25.2230571 66.1724147,25.3074325 C65.9878435,25.391808 65.8362337,25.4900248 65.7175807,25.6020859 C65.5989278,25.714147 65.5053252,25.8334573 65.4367702,25.9600205 C65.3682151,26.0865836 65.3207547,26.2157815 65.2943874,26.3476181 C65.26802,26.4794547 65.2548366,26.6073343 65.2548366,26.7312607 C65.2548366,26.8393667 65.2660425,26.9566996 65.2884547,27.0832627 C65.310867,27.2098258 65.353054,27.3363871 65.4150173,27.4629502 C65.4769805,27.5895133 65.5633321,27.7108012 65.6740749,27.8268174 C65.7848176,27.9428336 65.9291765,28.0456646 66.107156,28.1353135 C66.2851354,28.2249624 66.4993666,28.2968123 66.7498562,28.3508653 C67.0003457,28.4049183 67.298292,28.4319444 67.6437039,28.4319444 C67.8177282,28.4319444 67.969338,28.426671 68.0985379,28.4161241 C68.2277378,28.4055772 68.3457297,28.3910753 68.4525174,28.3726182 C68.559305,28.3541611 68.6594994,28.3317492 68.7531033,28.3053819 C68.8467073,28.2790146 68.9436058,28.2513293 69.0438016,28.2223252 L69.0438016,27.5657822 L67.398489,27.5657822 L67.398489,26.3753037 L70.5111357,26.3753037 L70.5111357,29.1517686 C70.3160175,29.217687 70.0978312,29.2776717 69.8565702,29.3317247 C69.6153092,29.3857777 69.3661418,29.4319198 69.1090604,29.4701525 C68.851979,29.5083851 68.5942423,29.5380479 68.3358426,29.5591417 C68.0774428,29.5802356 67.8335488,29.5907823 67.6041531,29.5907823 C67.2481943,29.5907823 66.9067426,29.5670521 66.5797878,29.5195909 C66.252833,29.4721298 65.9476359,29.3989615 65.6641872,29.3000841 C65.3807385,29.2012066 65.1223426,29.0753046 64.8889918,28.9223741 C64.655641,28.7694436 64.4565708,28.5875119 64.291775,28.3765733 C64.1269793,28.1656347 63.9990997,27.9237182 63.9081324,27.6508164 C63.8171652,27.3779147 63.7716822,27.0713992 63.7716822,26.7312607 C63.7716822,26.393759 63.8191427,26.0879027 63.914065,25.8136826 C64.0089874,25.5394624 64.1414812,25.2968867 64.3115504,25.0859481 C64.4816196,24.8750096 64.6859633,24.6930778 64.9245875,24.5401473 C65.1632118,24.3872169 65.4255627,24.2613148 65.7116481,24.1624374 C65.9977336,24.0635599 66.3035899,23.9903917 66.6292263,23.9429305 C66.9548627,23.8954693 67.2903818,23.8717391 67.6357937,23.8717391 Z M78.4885286,29.4444444 L74.822171,25.7108505 L74.822171,29.4444444 L73.3548369,29.4444444 L73.3548369,24.0101668 L74.9487335,24.0101668 L78.6190461,27.7595811 L78.6190461,24.0101668 L80.07847,24.0101668 L80.07847,29.4444444 L78.4885286,29.4444444 Z M93.5929725,26.6323838 C93.5428746,27.0015263 93.4268601,27.3390229 93.2449256,27.6448838 C93.0629911,27.9507447 92.8335989,28.2236424 92.556742,28.463585 C92.7861377,28.6270624 93.0201441,28.7905373 93.2587684,28.9540147 C93.4973926,29.1174921 93.7406275,29.2809671 93.9884803,29.4444444 L92.1335486,29.4444444 C91.9542508,29.331065 91.7762741,29.2124138 91.599613,29.0884874 C91.2805685,29.2387811 90.9470269,29.3534772 90.5989782,29.4325792 C90.2509296,29.5116812 89.9042045,29.5512316 89.5587926,29.5512316 C89.1606461,29.5512316 88.8053518,29.5176137 88.492899,29.4503771 C88.1804463,29.3831404 87.916777,29.2836053 87.7018834,29.1517686 C87.4869897,29.019932 87.3228556,28.8557979 87.2094761,28.6593614 C87.0960966,28.4629249 87.0394077,28.2355101 87.0394077,27.9771104 C87.0394077,27.7793555 87.0736847,27.598742 87.1422398,27.4352647 C87.2107948,27.2717873 87.3037382,27.1228141 87.4210728,26.9883408 C87.5384074,26.8538675 87.6748562,26.7312613 87.8304234,26.6205185 C87.9859906,26.5097758 88.1494655,26.4082631 88.3208531,26.3159775 C88.1784696,26.1208593 88.0683877,25.9296991 87.9906041,25.7424911 C87.9128205,25.5552832 87.8739293,25.372033 87.8739293,25.1927353 C87.8739293,24.9897069 87.9200714,24.8090935 88.012357,24.6508895 C88.1046426,24.4926856 88.2404323,24.3588735 88.4197301,24.2494491 C88.5990279,24.1400247 88.8185325,24.0563097 89.0782506,23.9983016 C89.3379687,23.9402935 89.6365741,23.9112899 89.9740758,23.9112899 C90.2746633,23.9112899 90.5389917,23.942271 90.767069,24.0042342 C90.9951464,24.0661974 91.1849882,24.1499124 91.3366003,24.2553817 C91.4882124,24.360851 91.6022494,24.4814797 91.6787146,24.6172714 C91.7551798,24.7530631 91.7934119,24.8934669 91.7934119,25.0384872 C91.7934119,25.2204217 91.7479289,25.385215 91.6569617,25.532872 C91.5659944,25.680529 91.4453657,25.8163187 91.295072,25.9402451 C91.1447783,26.0641715 90.9733933,26.1782084 90.7809118,26.2823593 C90.5884304,26.3865103 90.3893601,26.484727 90.183695,26.5770127 C90.3814499,26.7642206 90.6009546,26.9586767 90.8422155,27.1603867 C91.0834765,27.3620967 91.3464866,27.5697363 91.6312537,27.7833116 C91.7868209,27.6462015 91.9140413,27.4820674 92.0129187,27.2909043 C92.1117962,27.0997412 92.1744176,26.8802366 92.2007849,26.6323838 L93.5929725,26.6323838 Z M89.5825231,28.4873155 C89.7301801,28.4873155 89.8864041,28.4774279 90.0511999,28.4576524 C90.2159956,28.4378769 90.3840848,28.4055774 90.5554724,28.360753 C90.2707053,28.1471777 90.0011035,27.9382198 89.7466588,27.7338731 C89.4922142,27.5295263 89.2568894,27.3245235 89.0406774,27.1188584 C88.8534694,27.2190542 88.7025187,27.3258403 88.5878209,27.4392197 C88.4731231,27.5525992 88.415775,27.6778421 88.415775,27.8149522 C88.415775,27.8914174 88.4329135,27.969859 88.467191,28.0502793 C88.5014685,28.1306997 88.5627716,28.2032087 88.6511022,28.2678086 C88.7394327,28.3324086 88.858743,28.3851424 89.0090367,28.4260118 C89.1593305,28.4668811 89.3504907,28.4873155 89.5825231,28.4873155 Z M89.2502965,25.2718368 C89.2502965,25.3456653 89.2700717,25.4267436 89.3096227,25.5150741 C89.3491737,25.6034047 89.4058626,25.7003031 89.4796911,25.8057724 C89.6168011,25.750401 89.7446807,25.697008 89.8633337,25.6455917 C89.9819866,25.5941755 90.0854768,25.5427599 90.1738073,25.4913437 C90.2621378,25.4399274 90.331351,25.3865344 90.3814489,25.331163 C90.4315468,25.2757916 90.4565954,25.216466 90.4565954,25.1531845 C90.4565954,25.1215437 90.4486853,25.0859483 90.4328649,25.0463974 C90.4170445,25.0068464 90.3893593,24.9699327 90.3498083,24.9356552 C90.3102573,24.9013777 90.2555459,24.872374 90.1856725,24.8486434 C90.1157991,24.8249129 90.0254924,24.8130477 89.9147497,24.8130477 C89.7802763,24.8130477 89.6695353,24.825572 89.5825231,24.850621 C89.4955109,24.8756699 89.4276161,24.9086286 89.3788366,24.9494979 C89.330057,24.9903673 89.2964392,25.0384869 89.2779821,25.0938583 C89.2595249,25.1492297 89.2502965,25.2085553 89.2502965,25.2718368 Z M102.167582,25.1690048 L102.167582,26.1142685 L105.699467,26.1142685 L105.699467,27.2731065 L102.167582,27.2731065 L102.167582,29.4444444 L100.700248,29.4444444 L100.700248,24.0101668 L105.893266,24.0101668 L105.893266,25.1690048 L102.167582,25.1690048 Z M109.879985,29.4444444 L108.412651,29.4444444 L108.412651,24.0101668 L112.090874,24.0101668 C112.486383,24.0101668 112.821903,24.0510356 113.097441,24.1327743 C113.37298,24.214513 113.597098,24.3305274 113.769804,24.4808212 C113.94251,24.6311149 114.067753,24.8123875 114.145537,25.0246444 C114.22332,25.2369014 114.262212,25.4735445 114.262212,25.734581 C114.262212,25.9639767 114.229912,26.1643653 114.165312,26.3357529 C114.100712,26.5071405 114.013701,26.6541361 113.904277,26.7767441 C113.794853,26.8993522 113.667632,27.0028423 113.522612,27.0872178 C113.377592,27.1715932 113.224664,27.2414655 113.063823,27.2968369 L114.843608,29.4444444 L113.127104,29.4444444 L111.481792,27.4431748 L109.879985,27.4431748 L109.879985,29.4444444 Z M112.779057,25.7266708 C112.779057,25.6212015 112.765215,25.531554 112.737529,25.4577255 C112.709843,25.383897 112.661724,25.3239123 112.593169,25.2777694 C112.524613,25.2316266 112.432988,25.1980088 112.318291,25.1769149 C112.203593,25.1558211 112.060552,25.1452743 111.889165,25.1452743 L109.879985,25.1452743 L109.879985,26.3080673 L111.889165,26.3080673 C112.060552,26.3080673 112.203593,26.2975206 112.318291,26.2764267 C112.432988,26.2553329 112.524613,26.221715 112.593169,26.1755722 C112.661724,26.1294294 112.709843,26.0694447 112.737529,25.9956162 C112.765215,25.9217877 112.779057,25.8321401 112.779057,25.7266708 Z M124.153862,26.7312607 C124.153862,27.1979623 124.06817,27.6099455 123.896782,27.9672227 C123.725395,28.3244999 123.480182,28.6231053 123.161138,28.8630479 C122.842093,29.1029905 122.455159,29.2842632 122.000322,29.4068712 C121.545486,29.5294792 121.034627,29.5907823 120.467729,29.5907823 C119.900832,29.5907823 119.388654,29.5294792 118.931181,29.4068712 C118.473708,29.2842632 118.084137,29.1029905 117.762456,28.8630479 C117.440775,28.6231053 117.192925,28.3244999 117.018901,27.9672227 C116.844877,27.6099455 116.757866,27.1979623 116.757866,26.7312607 C116.757866,26.2645591 116.844877,25.8525759 117.018901,25.4952988 C117.192925,25.1380216 117.440775,24.8394161 117.762456,24.5994735 C118.084137,24.3595309 118.473708,24.1782583 118.931181,24.0556502 C119.388654,23.9330422 119.900832,23.8717391 120.467729,23.8717391 C121.034627,23.8717391 121.545486,23.9330422 122.000322,24.0556502 C122.455159,24.1782583 122.842093,24.3595309 123.161138,24.5994735 C123.480182,24.8394161 123.725395,25.1380216 123.896782,25.4952988 C124.06817,25.8525759 124.153862,26.2645591 124.153862,26.7312607 Z M122.670708,26.7312607 C122.670708,26.5282324 122.638409,26.3258662 122.573809,26.1241562 C122.509209,25.9224462 122.394513,25.7411736 122.229717,25.5803329 C122.064921,25.4194923 121.840143,25.288976 121.555376,25.1887802 C121.270609,25.0885844 120.908064,25.0384872 120.467729,25.0384872 C120.172415,25.0384872 119.912701,25.0615583 119.688579,25.1077011 C119.464457,25.1538439 119.27066,25.2177837 119.107182,25.2995224 C118.943705,25.3812611 118.806597,25.4768412 118.695854,25.5862656 C118.585112,25.6956899 118.496782,25.8130227 118.430864,25.9382675 C118.364946,26.0635123 118.318144,26.1940286 118.290459,26.3298203 C118.262773,26.465612 118.24893,26.5994241 118.24893,26.7312607 C118.24893,26.8657341 118.262773,27.0015237 118.290459,27.1386338 C118.318144,27.2757439 118.364946,27.4069193 118.430864,27.5321641 C118.496782,27.6574089 118.585112,27.7740825 118.695854,27.8821885 C118.806597,27.9902945 118.943705,28.0845563 119.107182,28.1649766 C119.27066,28.2453969 119.464457,28.3086776 119.688579,28.3548204 C119.912701,28.4009632 120.172415,28.4240342 120.467729,28.4240342 C120.908064,28.4240342 121.270609,28.3739371 121.555376,28.2737413 C121.840143,28.1735454 122.064921,28.0430292 122.229717,27.8821885 C122.394513,27.7213479 122.509209,27.5400752 122.573809,27.3383652 C122.638409,27.1366552 122.670708,26.9342891 122.670708,26.7312607 Z M131.889995,29.4444444 L128.223638,25.7108505 L128.223638,29.4444444 L126.756304,29.4444444 L126.756304,24.0101668 L128.3502,24.0101668 L132.020513,27.7595811 L132.020513,24.0101668 L133.479937,24.0101668 L133.479937,29.4444444 L131.889995,29.4444444 Z M139.491656,25.1927353 L139.491656,29.4444444 L138.024322,29.4444444 L138.024322,25.1927353 L135.718511,25.1927353 L135.718511,24.0101668 L141.801422,24.0101668 L141.801422,25.1927353 L139.491656,25.1927353 Z M144.036041,29.4444444 L144.036041,24.0101668 L149.537555,24.0101668 L149.537555,25.1690048 L145.542926,25.1690048 L145.542926,26.0668076 L149.331891,26.0668076 L149.331891,27.2256455 L145.542926,27.2256455 L145.542926,28.2856065 L149.592926,28.2856065 L149.592926,29.4444444 L144.036041,29.4444444 Z M157.408161,29.4444444 L153.741803,25.7108505 L153.741803,29.4444444 L152.274469,29.4444444 L152.274469,24.0101668 L153.868365,24.0101668 L157.538678,27.7595811 L157.538678,24.0101668 L158.998102,24.0101668 L158.998102,29.4444444 L157.408161,29.4444444 Z M168.620808,26.7233506 C168.620808,27.0713992 168.582575,27.3805514 168.50611,27.6508164 C168.429645,27.9210815 168.3222,28.1564063 168.183771,28.3567979 C168.045343,28.5571895 167.879231,28.7272562 167.685432,28.867003 C167.491632,29.0067498 167.276082,29.1188092 167.038776,29.2031847 C166.80147,29.2875601 166.545711,29.3488632 166.271491,29.3870958 C165.997271,29.4253284 165.71119,29.4444444 165.413239,29.4444444 L161.964411,29.4444444 L161.964411,24.0101668 L165.405329,24.0101668 C165.70328,24.0101668 165.989361,24.0292829 166.263581,24.0675155 C166.537801,24.1057481 166.794219,24.1670512 167.032844,24.2514266 C167.271468,24.335802 167.488336,24.4472023 167.683454,24.5856307 C167.878572,24.7240592 168.045343,24.8941258 168.183771,25.0958358 C168.3222,25.2975458 168.429645,25.5328706 168.50611,25.8018173 C168.582575,26.070764 168.620808,26.3779387 168.620808,26.7233506 Z M167.141608,26.7233506 C167.141608,26.4623141 167.10799,26.2355585 167.040754,26.0430771 C166.973517,25.8505957 166.865413,25.6917349 166.716437,25.5664902 C166.567462,25.4412454 166.373006,25.3476428 166.133063,25.2856796 C165.893121,25.2237164 165.600448,25.1927353 165.255036,25.1927353 L163.431745,25.1927353 L163.431745,28.261876 L165.255036,28.261876 C165.600448,28.261876 165.893121,28.2308949 166.133063,28.1689317 C166.373006,28.1069685 166.567462,28.0120476 166.716437,27.8841661 C166.865413,27.7562845 166.973517,27.5961055 167.040754,27.403624 C167.10799,27.2111426 167.141608,26.984387 167.141608,26.7233506 Z M182.190681,26.7233506 C182.190681,27.0713992 182.152449,27.3805514 182.075984,27.6508164 C181.999519,27.9210815 181.892073,28.1564063 181.753645,28.3567979 C181.615217,28.5571895 181.449105,28.7272562 181.255305,28.867003 C181.061505,29.0067498 180.845956,29.1188092 180.60865,29.2031847 C180.371344,29.2875601 180.115585,29.3488632 179.841365,29.3870958 C179.567144,29.4253284 179.281063,29.4444444 178.983113,29.4444444 L175.534284,29.4444444 L175.534284,24.0101668 L178.975202,24.0101668 C179.273153,24.0101668 179.559234,24.0292829 179.833454,24.0675155 C180.107675,24.1057481 180.364093,24.1670512 180.602717,24.2514266 C180.841341,24.335802 181.058209,24.4472023 181.253328,24.5856307 C181.448446,24.7240592 181.615217,24.8941258 181.753645,25.0958358 C181.892073,25.2975458 181.999519,25.5328706 182.075984,25.8018173 C182.152449,26.070764 182.190681,26.3779387 182.190681,26.7233506 Z M180.711482,26.7233506 C180.711482,26.4623141 180.677864,26.2355585 180.610627,26.0430771 C180.543391,25.8505957 180.435286,25.6917349 180.286311,25.5664902 C180.137336,25.4412454 179.942879,25.3476428 179.702937,25.2856796 C179.462994,25.2237164 179.170321,25.1927353 178.824909,25.1927353 L177.001618,25.1927353 L177.001618,28.261876 L178.824909,28.261876 C179.170321,28.261876 179.462994,28.2308949 179.702937,28.1689317 C179.942879,28.1069685 180.137336,28.0120476 180.286311,27.8841661 C180.435286,27.7562845 180.543391,27.5961055 180.610627,27.403624 C180.677864,27.2111426 180.711482,26.984387 180.711482,26.7233506 Z M184.793123,29.4444444 L184.793123,24.0101668 L190.294636,24.0101668 L190.294636,25.1690048 L186.300007,25.1690048 L186.300007,26.0668076 L190.088972,26.0668076 L190.088972,27.2256455 L186.300007,27.2256455 L186.300007,28.2856065 L190.350008,28.2856065 L190.350008,29.4444444 L184.793123,29.4444444 Z M196.678133,29.4444444 L194.969539,29.4444444 L192.22076,24.0101668 L193.858162,24.0101668 L195.835701,28.0997178 L197.809285,24.0101668 L199.446688,24.0101668 L196.678133,29.4444444 Z" id="WEB-DESIGN-&amp;-FRONTEN" fill="#2E302E"></path>
                <g id="Group-5" transform="translate(200.000000, 0.000000)">
                    <mask id="mask-4" fill="white">
                        <use xlink:href="#path-3"></use>
                    </mask>
                    <g id="Mask"></g>
                    <g mask="url(#mask-4)" id="Line-2" stroke="#303030" stroke-linecap="square" stroke-width="3.5481598">
                        <g transform="translate(-3.130435, -3.130435)">
                            <path d="M0.117391304,0.117391304 L15.1956635,15.1956635"></path>
                            <path d="M0.117391304,15.1434783 L15.1956635,0.065206108"></path>
                        </g>
                    </g>
                </g>
            </g>
        </g>
    </g>
</svg>