<?xml version="1.0" encoding="UTF-8"?>
<svg width="88px" height="55px" viewBox="0 0 88 55" version="1.1" xmlns="http://www.w3.org/2000/svg" xmlns:xlink="http://www.w3.org/1999/xlink">
    <!-- Generator: Sketch 47 (45396) - http://www.bohemiancoding.com/sketch -->
    <title>Page 1</title>
    <desc>Created with Sketch.</desc>
    <defs>
        <polygon id="path-1" points="87.8612493 55 0 55 0 0.371847826 87.8612493 0.371847826"></polygon>
    </defs>
    <g id="Website" stroke="none" stroke-width="1" fill="none" fill-rule="evenodd">
        <g id="Blog:-Last-Post-Copy-2" transform="translate(-1328.000000, -35.000000)">
            <g id="Page-1" transform="translate(1328.000000, 35.000000)">
                <path d="M23,27 C19.1340259,27 16,30.1341593 16,33.999702 C16,37.8658407 19.1340259,41 23,41 C26.8659741,41 30,37.8658407 30,33.999702 C30,30.1341593 26.8659741,27 23,27" id="Fill-1" fill="#1A1A1A"></path>
                <g id="Group-5">
                    <mask id="mask-2" fill="white">
                        <use xlink:href="#path-1"></use>
                    </mask>
                    <g id="Clip-4"></g>
                    <path d="M84.0899068,8.63834783 L46.3782904,13.886663 L46.3782904,11.7051957 L84.0899068,6.52084783 L84.0899068,8.63834783 Z M84.0899068,14.4593804 L46.3782904,19.8864457 L46.3782904,17.7049783 L84.0899068,12.3430761 L84.0899068,14.4593804 Z M84.0899068,20.2822065 L46.3782904,25.8868261 L46.3782904,23.7047609 L84.0899068,18.1647065 L84.0899068,20.2822065 Z M84.0899068,26.103837 L75.6364822,27.3658478 C74.4593315,26.7447065 73.1622356,26.2006848 71.7699068,25.8115 L84.0899068,23.9869348 L84.0899068,26.103837 Z M84.0899068,34.5487283 L82.7283178,32.9387826 C82.6222356,32.8132391 81.6910027,31.7287826 80.122674,30.4105761 L84.0899068,29.8085652 L84.0899068,34.5487283 Z M84.0899068,44.1868804 L74.9584,45.6850326 C79.5567014,42.0257391 82.5336329,37.6245435 82.7283178,37.334 L84.0899068,35.3013913 L84.0899068,44.1868804 Z M53.2923178,42.6857391 L77.1758795,38.7986739 C74.5726466,41.7620978 70.1961534,45.8506304 65.2344,46.6786196 C60.2720438,47.512587 55.8961534,44.8403043 53.2923178,42.6857391 L53.2923178,42.6857391 Z M46.3782904,50.5226413 L46.3782904,41.3645435 L47.7398795,43.0115543 C47.9345644,43.2465 50.9108932,46.7706848 55.5097973,48.9521522 L46.3782904,50.5226413 Z M41.075989,35.8286739 L42.470126,33.9491087 L42.470126,43.1335109 L33.1210301,43.1335109 C37.8296329,40.1449783 40.8770849,36.0976957 41.075989,35.8286739 L41.075989,35.8286739 Z M3.86103014,43.1335109 L3.86103014,33.9491087 L5.25516712,35.8286739 C5.45407123,36.0976957 8.50152329,40.1449783 13.2095233,43.1335109 L3.86103014,43.1335109 Z M3.86103014,4.20128261 L6.06705753,4.20128261 L6.06705753,30.2826413 C5.59330411,30.8422065 5.31061918,31.2164457 5.25516712,31.2911739 L3.86103014,33.171337 L3.86103014,4.20128261 Z M9.92820822,4.20128261 L12.1342356,4.20128261 L12.1342356,24.7091087 C11.3410301,25.2674783 10.602674,25.8455761 9.92820822,26.4194891 L9.92820822,4.20128261 Z M15.9947836,4.20128261 L18.2014137,4.20128261 L18.2014137,21.6063913 C17.4419616,21.8509022 16.7054137,22.1396522 15.9947836,22.4660652 L15.9947836,4.20128261 Z M22.0619616,4.20128261 L24.2685918,4.20128261 L24.2685918,20.8399783 C23.9039342,20.8130761 23.5368658,20.7951413 23.1655781,20.7951413 C22.7936877,20.7951413 22.4266192,20.8130761 22.0619616,20.8399783 L22.0619616,4.20128261 Z M28.1297425,21.4336196 L28.1297425,4.20128261 L30.3357699,4.20128261 L30.3357699,22.4660652 C29.4527562,22.0595435 28.5299616,21.7074239 27.5716055,21.4336196 L28.1297425,21.4336196 Z M34.1969205,4.20128261 L36.4029479,4.20128261 L36.4029479,26.4194891 C35.7284822,25.8455761 34.9895233,25.2674783 34.1969205,24.7091087 L34.1969205,4.20128261 Z M40.2634959,4.20128261 L42.470126,4.20128261 L42.470126,33.171337 L41.075989,31.2911739 C41.0199342,31.2164457 40.7378521,30.8422065 40.2634959,30.2826413 L40.2634959,4.20128261 Z M50.346126,35.06525 C48.7777973,36.9161196 47.8459616,38.3287826 47.7398795,38.4919891 L46.3782904,40.589163 L46.3782904,35.7043261 L50.346126,35.06525 Z M46.3782904,31.8866087 L46.3782904,29.7045435 L58.6982904,27.7932935 C57.3059616,28.6123152 56.0088658,29.5622609 54.8317151,30.5558478 L46.3782904,31.8866087 Z M87.8612493,2.33068478 L53.0843726,7.00688043 L46.2722082,0.371608696 L40.2634959,0.371608696 L36.4029479,0.371608696 L15.9947836,0.371608696 L12.1342356,0.371608696 L9.92820822,0.371608696 L6.06705753,0.371608696 L-0.000120547945,0.371608696 L-0.000120547945,46.9631848 L34.3216877,46.9631848 L42.648537,55.0003587 L87.8612493,47.2686739 L87.8612493,2.33068478 Z" id="Fill-3" fill="#1A1A1A" mask="url(#mask-2)"></path>
                </g>
            </g>
        </g>
    </g>
</svg>