<?xml version="1.0" encoding="UTF-8"?>
<svg width="66px" height="39px" viewBox="0 0 66 39" version="1.1" xmlns="http://www.w3.org/2000/svg" xmlns:xlink="http://www.w3.org/1999/xlink">
    <!-- Generator: Sketch 49.2 (51160) - http://www.bohemiancoding.com/sketch -->
    <title>Page 1</title>
    <desc>Created with Sketch.</desc>
    <defs>
        <polygon id="path-1" points="0 0.203304706 65.895937 0.203304706 65.895937 38.9999897 0 38.9999897"></polygon>
    </defs>
    <g id="Bootstrap-4-Grid-System" stroke="none" stroke-width="1" fill="none" fill-rule="evenodd">
        <g id="Group-14">
            <g id="Page-1">
                <g id="Group-3">
                    <mask id="mask-2" fill="white">
                        <use xlink:href="#path-1"></use>
                    </mask>
                    <g id="Clip-2"></g>
                    <path d="M62.4273205,6.16709294 L35.6358411,9.70324588 C35.1842384,9.76289294 34.7837178,9.40592824 34.7837178,8.94343412 L34.7837178,8.93792824 C34.7837178,8.55251647 35.0658,8.22721059 35.4428137,8.17811647 L62.2388137,4.68509294 C62.678211,4.62774 63.0674301,4.97506941 63.0674301,5.42517529 L63.0674301,5.42746941 C63.0674301,5.80232824 62.7934849,6.11891647 62.4273205,6.16709294 M62.4304849,10.3102694 L35.6390055,13.9661753 C35.1864986,14.0281165 34.7837178,13.6706929 34.7837178,13.2072812 L34.7837178,13.2026929 C34.7837178,12.8181988 35.0639918,12.4933518 35.4391973,12.44334 L62.2356493,8.83010471 C62.6764027,8.77045765 63.0674301,9.11870471 63.0674301,9.56972824 L63.0674301,9.57064588 C63.0674301,9.94412824 62.7948411,10.2607165 62.4304849,10.3102694 M62.4336493,14.4539047 L35.6426219,18.2295635 C35.1887589,18.2937988 34.7837178,17.9354576 34.7837178,17.4706694 L34.7837178,17.4669988 C34.7837178,17.0838812 35.0621836,16.7599518 35.4360329,16.7081047 L62.2320329,12.9746576 C62.6741425,12.9131753 63.0674301,13.2618812 63.0674301,13.7138224 L63.0674301,13.7142812 C63.0674301,14.0873047 62.7966493,14.4025165 62.4336493,14.4539047 M62.4341014,18.5947871 L56.8607178,19.3839635 C56.7734712,19.3963518 56.6866767,19.3821282 56.6075671,19.3435871 C56.292937,19.1894224 55.9665534,19.04214 55.6302247,18.9044929 C55.2048411,18.7305988 55.2907315,18.0914576 55.7450466,18.02814 L62.2315808,17.1164576 C62.6736904,17.0545165 63.0674301,17.4032224 63.0674301,17.8560812 C63.0674301,18.2281871 62.7971014,18.5438576 62.4341014,18.5947871 M62.2912521,23.6744224 C61.8744575,23.2353282 61.3432932,22.6911635 60.8338274,22.2162812 C60.5531014,21.9547518 60.7018274,21.4807871 61.078389,21.4266459 L62.0367452,21.28854 C62.5810192,21.2100812 63.0674301,21.6390812 63.0674301,22.1974694 L63.0674301,23.3546224 C63.0674301,23.7675635 62.5733342,23.97174 62.2912521,23.6744224 M62.3002932,31.4863518 L57.8529781,32.1777988 C57.4072521,32.24754 57.1477726,31.6863988 57.4859096,31.3835753 C59.4532521,29.6203165 61.2641836,27.41154 62.2623205,26.1213282 C62.5272247,25.7790459 63.0674301,25.9722106 63.0674301,26.4076341 L63.0674301,30.5792576 C63.0674301,31.0321165 62.7414986,31.4175282 62.3002932,31.4863518 M41.0641151,30.1305282 L56.5329781,27.7428106 C56.9683068,27.6758224 57.2354712,28.2153988 56.9181288,28.5251047 C54.9363205,30.46134 52.0897315,32.6384576 48.9258,33.1390341 C45.7311288,33.6487871 42.8605808,32.3200341 40.8760603,30.9642106 C40.5347589,30.7311282 40.6572658,30.1929282 41.0641151,30.1305282 M34.7837178,34.7958459 L34.7837178,30.4998812 C34.7837178,30.0906106 35.2705808,29.8864341 35.5562795,30.1764106 C36.5566767,31.1917871 38.4146219,32.9366929 40.428074,34.1268812 C40.7969507,34.3448224 40.6988548,34.9087165 40.2770877,34.9770812 L35.8311288,35.7020224 C35.2818822,35.7914929 34.7837178,35.3611165 34.7837178,34.7958459 M35.5535671,25.2165282 L36.5724986,25.0605282 C36.9788959,24.9985871 37.2505808,25.4743871 36.9933616,25.7992341 C36.5074027,26.4135988 36.0033616,27.0963282 35.5992247,27.6556341 C35.3411014,28.0135165 34.7837178,27.8267753 34.7837178,27.3830929 L34.7837178,26.1236224 C34.7837178,25.6693871 35.1110055,25.2835165 35.5535671,25.2165282 M35.4301562,20.9714929 L41.8900192,20.0203518 C42.3583479,19.9519871 42.6069781,20.5727753 42.218663,20.8471518 C41.8728411,21.0912459 41.5383205,21.3426812 41.2151014,21.5991635 C41.154526,21.6468812 41.0840055,21.6776224 41.0080603,21.6890929 L35.6484986,22.4888224 C35.1928274,22.5571871 34.7837178,22.1983871 34.7837178,21.7308459 L34.7837178,21.7294694 C34.7837178,21.3486459 35.0590192,21.0256341 35.4301562,20.9714929 M31.0488411,22.5168106 C30.7730877,22.1708576 30.4882932,21.8175635 30.305211,21.6019165 C30.2346904,21.5184106 30.1976219,21.4142576 30.1976219,21.3045988 L30.1976219,3.68852824 C30.1976219,3.26778706 30.5334986,2.92688118 30.9480329,2.92688118 L30.9484849,2.92688118 C31.4475534,2.92688118 31.8525945,3.33752824 31.8525945,3.84452824 L31.8525945,22.2277518 C31.8525945,22.6604224 31.3173616,22.8526694 31.0488411,22.5168106 M30.9484849,30.6177988 L26.337526,30.6177988 C25.8976767,30.6177988 25.7195671,30.0497753 26.0748822,29.7868694 C28.1367041,28.26174 30.0384986,26.2094224 31.0628548,25.0284106 C31.3377041,24.7113635 31.8525945,24.9114106 31.8525945,25.3330694 L31.8525945,29.7001518 C31.8525945,30.2071518 31.4475534,30.6177988 30.9484849,30.6177988 M6.79836164,24.4232224 C6.48553973,24.0740576 6.48553973,23.54274 6.79836164,23.1935753 C8.22866301,21.5991635 12.4228274,17.4532341 17.3741836,17.4532341 C22.3273479,17.4532341 26.5228685,21.6023753 27.9513616,23.1954106 C28.2637315,23.5436576 28.2637315,24.07314 27.9513616,24.4218459 C26.5228685,26.01534 22.3273479,30.1640224 17.3741836,30.1640224 C12.4228274,30.1640224 8.22866301,26.0185518 6.79836164,24.4232224 M2.8957726,29.7001518 L2.8957726,25.3330694 C2.8957726,24.9114106 3.41021096,24.7113635 3.68551233,25.0284106 C4.70986849,26.2094224 6.61166301,28.26174 8.67303288,29.7868694 C9.02834795,30.0497753 8.85023836,30.6177988 8.41038904,30.6177988 L3.79988219,30.6177988 C3.30036164,30.6177988 2.8957726,30.2071518 2.8957726,29.7001518 M3.72303288,2.92688118 L3.72348493,2.92688118 C4.18006027,2.92688118 4.55029315,3.30265765 4.55029315,3.76652824 L4.55029315,21.3045988 C4.55029315,21.4142576 4.51367671,21.5184106 4.44270411,21.6019165 C4.26007397,21.8175635 3.9748274,22.1708576 3.69907397,22.5168106 C3.43100548,22.8526694 2.8957726,22.6604224 2.8957726,22.2282106 L2.8957726,3.76652824 C2.8957726,3.30265765 3.26600548,2.92688118 3.72303288,2.92688118 M8.27341644,2.92688118 C8.72999178,2.92688118 9.10067671,3.30265765 9.10067671,3.76652824 L9.10067671,17.0279047 C9.10067671,17.3316459 8.94833425,17.6133635 8.70196438,17.7854224 C8.51707397,17.9148106 8.33625205,18.0455753 8.16040274,18.17634 C7.86249863,18.3979518 7.44615616,18.1804694 7.44615616,17.8056106 L7.44615616,3.76652824 C7.44615616,3.30265765 7.81638904,2.92688118 8.27341644,2.92688118 M12.8238,2.92688118 C13.2808274,2.92688118 13.6510603,3.30265765 13.6510603,3.76652824 L13.6510603,14.6397282 C13.6510603,15.0255988 13.4155397,15.3752224 13.0561562,15.5013988 C12.9038137,15.5550812 12.7523753,15.6105988 12.6022932,15.6684106 C12.3093616,15.7821988 11.9960877,15.5573753 11.9960877,15.2384929 L11.9960877,3.76652824 C11.9960877,3.30265765 12.3667726,2.92688118 12.8238,2.92688118 M17.3737315,2.92688118 L17.3741836,2.92688118 C17.831211,2.92688118 18.2014438,3.30265765 18.2014438,3.76652824 L18.2014438,13.9212106 C18.2014438,14.3781988 17.8361836,14.7470929 17.385937,14.7470929 L17.3624301,14.7470929 C16.9121836,14.7470929 16.5464712,14.3781988 16.5464712,13.9212106 L16.5464712,3.76652824 C16.5464712,3.30265765 16.9171562,2.92688118 17.3737315,2.92688118 M22.7518274,3.76652824 L22.7518274,15.2412459 C22.7518274,15.5587518 22.4412658,15.7835753 22.1483342,15.67254 C21.9996082,15.6161047 21.849074,15.5619635 21.6976356,15.5091988 C21.3355397,15.3848576 21.0973068,15.0338576 21.0973068,14.6456929 L21.0973068,3.76652824 C21.0973068,3.30265765 21.4675397,2.92688118 21.9241151,2.92688118 L21.9245671,2.92688118 C22.3815945,2.92688118 22.7518274,3.30265765 22.7518274,3.76652824 M26.4749507,2.92688118 C26.931526,2.92688118 27.302211,3.30265765 27.302211,3.76652824 L27.302211,17.8056106 C27.302211,18.1804694 26.8854164,18.3979518 26.5879644,18.17634 C26.411663,18.0455753 26.2312932,17.9148106 26.0464027,17.7854224 C25.7995808,17.6133635 25.6476904,17.3316459 25.6476904,17.0279047 L25.6476904,3.76652824 C25.6476904,3.30265765 26.0179233,2.92688118 26.4749507,2.92688118 M39.5049781,4.63783412 L34.9627315,0.441892941 C34.7963753,0.288187059 34.579389,0.203304706 34.3542658,0.203304706 L0.904019178,0.203304706 C0.404950685,0.203304706 -9.04109589e-05,0.613951765 -9.04109589e-05,1.12095176 L-9.04109589e-05,32.4241871 C-9.04109589e-05,32.9307282 0.404950685,33.3418341 0.904019178,33.3418341 L25.3936356,33.3418341 C25.6174027,33.3418341 25.8330329,33.4257988 25.999389,33.5776694 L31.6649918,38.7637518 C31.8679644,38.9495753 32.1432658,39.0321635 32.4131425,38.9885753 L65.1342247,33.68274 C65.5731699,33.6111635 65.895937,33.2275871 65.895937,32.7761047 L65.895937,2.63690471 C65.895937,2.08448118 65.4190192,1.65731647 64.8792658,1.72614 L40.2264575,4.86999882 C39.9642658,4.90303412 39.7007178,4.81861059 39.5049781,4.63783412" id="Fill-1" fill="#1A1A1A" mask="url(#mask-2)"></path>
                </g>
                <path d="M19.9741985,21.916209 L18.4695363,21.916209 C18.2345127,21.916209 18.0437689,21.7258909 18.0437689,21.4904415 L18.0437689,19.9857794 C18.0437689,19.6630476 18.3848086,19.4650658 18.6730532,19.6098267 C19.3972836,19.9738579 19.98612,20.5626943 20.3501511,21.2869247 C20.4949121,21.5751692 20.2969302,21.916209 19.9741985,21.916209 M16.9997871,18 C14.2382595,18 12,20.2386852 12,23.0002129 C12,25.7613148 14.2382595,28 16.9997871,28 C19.7613148,28 22,25.7613148 22,23.0002129 C22,20.2386852 19.7613148,18 16.9997871,18" id="Fill-4" fill="#1A1A1A"></path>
            </g>
        </g>
    </g>
</svg>