<?xml version="1.0" encoding="UTF-8"?>
<svg width="230px" height="66px" viewBox="0 0 230 66" version="1.1" xmlns="http://www.w3.org/2000/svg" xmlns:xlink="http://www.w3.org/1999/xlink">
    <!-- Generator: Sketch 49.2 (51160) - http://www.bohemiancoding.com/sketch -->
    <title>Page 1</title>
    <desc>Created with Sketch.</desc>
    <defs>
        <polygon id="path-1" points="0 0 230 0 230 66 0 66"></polygon>
    </defs>
    <g id="Bootstrap-4-Grid-System" stroke="none" stroke-width="1" fill="none" fill-rule="evenodd">
        <g id="Home" transform="translate(-959.000000, -1646.000000)">
            <g id="Page-1" transform="translate(959.000000, 1646.000000)">
                <mask id="mask-2" fill="white">
                    <use xlink:href="#path-1"></use>
                </mask>
                <g id="Clip-2"></g>
                <path d="M136.246007,32.6317654 C136.2872,32.6972343 136.320683,32.7821013 136.338085,32.7728431 C136.589428,32.6394806 136.863241,32.5667373 137.082202,32.3328569 C137.396547,31.9975768 137.675205,31.5525206 137.957388,31.129067 C138.00519,31.056985 137.992854,30.8574923 138.008274,30.7168554 C137.94285,30.7183985 137.870376,30.6873173 137.813323,30.7267749 C137.252261,31.1127548 136.81566,31.8523108 136.316497,32.4150788 C136.290063,32.4446169 136.280591,32.5215484 136.246007,32.6317654 Z M157.418104,35.7971973 C157.377132,35.8805213 157.39167,35.9819209 157.456434,36.048492 C157.591027,36.1862632 157.698525,36.3174214 157.761306,36.2986845 C158.89973,35.9589958 160.140146,35.7736108 161.132963,35.1784391 C162.557316,34.3242574 163.821302,33.1914472 165.098725,32.1126434 C165.272749,31.9658343 165.271428,31.6115969 165.299844,31.2921881 C165.310638,31.1698472 165.217899,31.0627163 165.095201,31.0543398 C164.868529,31.0384686 164.638333,31.0142209 164.446246,31.0885071 C161.904396,32.0714222 159.92515,33.9545897 157.663059,35.3871901 C157.565033,35.4493524 157.518333,35.592855 157.418104,35.7971973 Z M184.811445,33.7436343 C184.844488,33.7487043 184.878852,33.7453978 184.911234,33.7361396 C185.121605,33.6770633 185.544549,33.6318743 185.759325,33.3966713 C186.692225,32.376062 187.642307,31.3483988 188.403827,30.2021421 C189.007844,29.2930724 188.698566,28.9551471 187.564107,29.0543424 C187.384576,29.0702136 187.176188,29.0768266 187.036308,29.1700702 C185.266551,30.3526985 183.473885,31.5057886 181.784972,32.7992952 C181.644211,32.9073078 181.684082,33.1325914 181.85348,33.1865977 C182.800038,33.4872696 183.599887,33.5573676 184.811445,33.7436343 Z M215.879554,30.9862257 C215.830651,30.9679297 215.770514,30.9696932 215.717866,30.9923979 C215.505072,31.0843189 215.275317,31.1647773 215.077943,31.2946129 C213.249811,32.4977415 211.413088,33.6883054 209.613373,34.9328756 C208.542355,35.6735338 207.505922,36.4719457 206.518171,37.3192939 C206.335115,37.4762428 206.316391,37.8249694 206.271233,38.1430556 C206.253611,38.2682621 206.342385,38.3826674 206.467946,38.3941299 C206.741318,38.419039 207.020858,38.4604805 207.245987,38.3683391 C208.088571,38.0238008 208.901417,37.6032128 209.7125,37.1861517 C212.272193,35.8701609 213.939739,33.5055656 216.096974,31.7154213 C216.188832,31.6393716 216.254477,31.5315794 216.316817,31.4198194 C216.382902,31.3021076 216.328271,31.1535351 216.202049,31.1065827 L215.879554,30.9862257 Z M174.985705,40.1183645 C175.791281,39.9056457 177.038526,39.7782349 178.08377,39.2502955 C179.467591,38.5512993 180.696111,37.5428139 181.986091,36.6593145 C182.59187,36.2444578 182.644958,35.7822077 181.996003,35.3735232 C181.501467,35.0622704 180.955605,34.8339008 180.449394,34.5396214 C178.644392,33.4901353 177.599147,33.5650828 176.104965,34.8704928 C175.939312,35.0153179 175.736431,35.1290619 175.604701,35.2990165 C174.850671,36.2709099 173.999055,37.1916626 173.402748,38.2545952 C172.849617,39.2401555 173.48932,40.091692 174.985705,40.1183645 Z M52.0532538,63.6889286 L52.1409265,63.5599747 C52.177053,63.5066297 52.234547,63.4713603 52.2984292,63.464086 C53.0641342,63.3765737 53.8481228,63.3593798 54.5860722,63.1662797 C58.2167831,62.2162092 61.5992345,60.6718488 64.7616229,58.6643566 C66.0458751,57.8489713 67.2111742,56.8475398 68.48265,56.0094498 C70.4061645,54.7415136 72.4534784,53.6488223 74.3036386,52.2854382 C76.3256198,50.795525 78.1808466,49.0794465 80.1131725,47.4671924 C82.5354087,45.4460332 84.9873831,43.4594822 87.3743739,41.3977633 C88.3055118,40.5933997 89.1035986,39.6323076 89.9404552,38.7225765 C90.0224006,38.6335212 90.0534605,38.4975135 90.0820974,38.3593014 C90.1063286,38.2422509 90.0329742,38.1271844 89.9168848,38.0998506 C89.7737006,38.0659037 89.6311773,38.0341612 89.50892,38.0705328 C86.9408562,38.834557 84.3758764,39.6093824 81.8188268,40.4095578 C81.3731935,40.5490925 80.9859353,40.8751143 80.540302,41.0142082 C79.2820432,41.4068011 78.005501,41.7403177 76.7401932,42.1102059 C76.0403529,42.3147686 75.2999804,42.4516581 74.6611585,42.7809865 C71.1280332,44.6015507 67.6292721,46.4893472 64.1012133,48.3200514 C61.4282946,49.7068015 58.7421589,50.9599687 56.3483393,52.9335141 C53.8994489,54.9524689 51.3353502,56.8426902 49.1756918,59.1695913 C48.6467914,59.7394131 48.3053521,61.350565 48.6569244,61.7019368 C49.5545792,62.5993235 50.8919197,63.0560627 52.0532538,63.6889286 Z M156.218441,38.9802639 C156.208969,38.9804843 156.200157,38.9804843 156.190685,38.9796026 C155.947052,38.958 155.397885,38.8343366 154.875814,38.9066389 C154.458377,38.964613 153.914938,39.1804179 153.728357,39.5011493 C153.579886,39.7566323 153.777481,40.3595192 154.00988,40.6648203 C154.993445,41.959429 156.642266,42.3806784 158.132924,41.625692 C161.184289,40.0808907 164.216931,38.4950887 167.2086,36.8383069 C169.406587,35.6212909 171.474608,34.1633406 173.69947,33.0029762 C175.340581,32.1470311 177.151311,31.6221778 178.865776,30.9002565 C179.527948,30.6211871 180.239904,30.3165473 180.743692,29.8309313 C182.220252,28.4069278 183.901895,27.379485 185.83356,26.7139949 C187.331047,26.1983998 188.803201,26.3240472 190.215878,26.9037885 C191.386244,27.3843346 191.742002,28.1814238 191.575247,29.4489192 C191.527446,29.8119739 191.424573,30.1679748 191.375009,30.5310296 C191.336019,30.8164916 191.314872,31.1041579 191.293064,31.3918243 C191.281609,31.5412785 191.418626,31.6576676 191.564233,31.6230595 C191.91933,31.5388537 192.281255,31.4674331 192.594498,31.3032098 C194.107405,30.5089862 195.670756,29.7764841 197.07286,28.8136285 C199.744016,26.9796178 202.196211,24.8264187 204.843577,22.9582408 C204.848203,22.9551547 204.852168,22.9516278 204.856573,22.9483212 C207.845599,20.4466161 210.856212,17.9673951 213.784879,15.3953715 C215.755314,13.6647444 217.602611,11.7945825 219.556745,10.0443367 C220.278834,9.39802433 221.116131,8.86038587 221.960698,8.37763546 C222.75548,7.92332104 223.481094,8.22267038 223.926286,8.97390936 C224.380951,9.74124003 224.035987,10.2727063 223.36941,10.8315065 C221.909592,12.0551355 220.572031,13.4233692 219.143273,14.6862354 C217.893826,15.7908301 216.549436,16.7889551 215.319153,17.9136092 C214.137773,18.9935153 213.078431,20.2067839 211.908506,21.3003568 C211.275631,21.8915608 210.477104,22.3035519 209.833436,22.8850567 C207.299957,25.1725001 204.880144,27.5578161 202.787451,30.2848048 C201.31706,32.2003761 199.555894,33.8906638 197.977343,35.7268788 C197.646478,36.1117565 197.463642,36.6240451 197.245342,37.1056933 C197.187627,37.2331042 197.260321,37.3801336 197.396897,37.410774 C197.939895,37.5326739 198.512852,37.7427475 198.964213,37.5906481 C200.071798,37.2176738 201.100081,36.5995769 202.144224,36.0504759 C202.523552,35.8512036 202.822036,35.4526589 203.214581,35.3320816 C204.798859,34.8455838 205.507511,33.3598588 206.680079,32.4130949 C207.767618,31.5351063 208.835332,30.5762185 210.060328,29.9374009 C212.201262,28.8211232 214.560718,28.3630614 216.978989,28.3987717 C217.607237,28.4082504 218.242754,28.6837929 218.853821,28.8980547 C219.52965,29.1352416 220.188518,29.4255532 220.840777,29.7233595 C221.755614,30.1410819 221.851878,30.972118 221.063483,31.6016774 C219.310248,33.0014331 217.499959,34.3352791 215.814791,35.8121868 C215.027718,36.5019247 214.459607,37.448909 213.834884,38.310365 C213.729588,38.455631 213.795233,38.9416879 213.862419,38.9593226 C214.227209,39.0534479 214.699496,39.2062087 214.985204,39.0554318 C216.798797,38.0983075 218.546085,37.015095 220.366727,36.0725193 C222.696003,34.8667454 225.011623,33.5862445 227.669342,33.2205445 C228.168284,33.1519895 228.711062,33.1361183 229.188196,33.2646313 C229.515757,33.3528049 229.939142,33.6991067 229.995755,33.9927247 C230.043115,34.2382882 229.684714,34.697893 229.394821,34.8486699 C228.301555,35.4173895 227.208509,36.0905949 226.031314,36.3687826 C224.136437,36.8167044 222.658555,38.011677 220.964796,38.8063415 C218.380432,40.0189488 215.858848,41.3680047 213.184387,42.3789149 C213.091207,42.4141843 212.98437,42.3808988 212.925774,42.30022 C210.771182,39.3457434 210.754441,39.6029898 208.997681,40.1379831 C207.621791,40.5568077 206.057118,41.1932005 204.592233,40.1679621 C204.321725,39.9790502 204.063333,39.7722831 203.789521,39.5886616 C203.033288,39.0818839 202.36693,38.8103093 201.389753,39.3666846 C198.956723,40.7516713 196.797065,40.2825878 195.085022,38.2105084 C194.585199,37.6054172 194.841389,34.9690268 195.427343,34.2429173 C195.730012,33.8672978 195.998758,33.4643445 196.268164,33.0620525 C196.38095,32.8934205 196.22587,32.67475 196.029818,32.7256702 C195.574712,32.8438228 195.119166,32.9604324 194.68697,33.1352366 C192.35483,34.0775918 189.984801,34.9498491 187.731963,36.0579706 C185.909558,36.9542552 184.158966,38.0465055 182.515432,39.2428007 C180.662848,40.5914158 178.767971,41.8441421 176.496849,42.1946321 C175.482444,42.3509198 174.3134,42.1073402 173.333139,41.7334842 C172.002407,41.2258248 170.532896,40.7062619 170.290585,38.9037733 C170.265252,38.7166248 169.645154,38.4355715 169.364733,38.4955295 C168.886278,38.5975905 168.395266,38.8627726 168.019243,39.1865901 C165.634895,41.2403734 162.919241,42.7704056 160.013483,43.8664034 C158.30056,44.5124953 156.534327,44.8751092 154.510584,44.1668549 C153.009353,43.6413403 152.063235,42.8365358 151.161395,41.7286347 C150.619718,41.0629241 150.026715,40.8903243 149.259689,41.4191454 C147.928296,42.3372529 146.461649,42.8837087 144.852699,43.1874667 C143.931694,43.3611687 143.100345,43.9898464 142.215246,44.3835415 C141.680839,44.6209489 141.127927,44.824189 140.569068,44.9956866 C140.296798,45.0792311 139.935533,44.9624011 139.711064,45.0970863 C139.017833,45.5143678 138.344426,45.3386819 137.728514,45.0402143 C137.293674,44.829259 136.824691,44.4772259 136.608373,44.0636918 C135.769754,42.4606959 136.057885,41.2355239 137.314381,40.1426122 C138.842046,38.8138362 140.331382,37.4403121 141.826666,36.0747236 C141.860369,36.0438629 141.890108,36.0081526 141.916762,35.9697971 C142.027785,35.8106437 141.900461,35.5974841 141.708154,35.6223931 C141.682821,35.6256996 141.657048,35.6287857 141.631495,35.6316513 C140.807635,35.7240132 139.976286,35.9310007 139.160356,35.8816235 C136.880863,35.7434114 135.186664,37.0245736 133.328573,38.0178491 C131.106134,39.2055474 128.808799,40.2737704 126.474456,41.2229591 C125.006928,41.8196739 123.421108,42.1430505 121.870533,42.5138205 C120.539801,42.8319067 119.191226,43.1956228 117.836483,43.2657208 C115.831904,43.3693247 115.353889,42.4911158 116.153518,40.6628364 C116.871422,39.021485 118.103687,37.854728 119.490371,36.8081075 C119.723871,36.6317603 119.992397,36.4867147 120.182721,36.272012 C120.299912,36.1395312 120.379655,35.9739853 120.458076,35.8071168 C120.517552,35.6805877 120.44618,35.5311334 120.310266,35.4985092 C120.160913,35.4625785 120.011561,35.4268682 119.862209,35.390717 C118.323089,35.0195062 116.785952,34.6390371 115.243087,34.2836976 C114.858912,34.1950831 114.453591,34.1351251 114.061927,34.1525394 C112.681411,34.2133791 111.300895,34.2951601 109.923243,34.4044954 C108.868746,34.4880399 107.821078,34.6705592 106.765921,34.7291946 C103.90488,34.888348 101.115432,35.4337016 98.3301684,36.0828797 C96.5996221,36.4862739 95.2867331,37.4744794 94.0679051,38.6421181 C91.8066961,40.8083228 89.6505622,43.0889327 87.325471,45.1826146 C85.3733196,46.9403552 83.2400952,48.496619 81.1925611,50.1487717 C80.2871964,50.8795103 79.4076048,51.6428732 78.4949707,52.3641331 C76.4355413,53.9913767 74.3959373,55.6468359 72.2814371,57.1995728 C71.2401575,57.9642583 70.0341059,58.5001333 68.9320281,59.1867851 C67.7272982,59.9373628 66.6120034,60.8488573 65.3592517,61.5004601 C63.0934168,62.679341 60.9108489,64.0559512 58.355121,64.6129878 C56.6241341,64.9903708 54.941169,65.6302906 53.197626,65.8989997 C50.8476427,66.2609522 48.7208066,65.6796679 47.1867531,63.6741595 C46.7541165,63.108526 46.2981299,62.555898 45.9177004,61.9560971 C45.1083793,60.6800049 45.5366102,59.4817258 46.2877765,58.3707385 C48.0203054,55.8077527 50.3841665,53.8992353 52.8524419,52.0969671 C54.2997038,51.0399862 55.6498207,49.8419276 57.1429015,48.8583512 C59.3752534,47.3873953 61.9371493,46.4077867 64.1300704,44.9103787 C64.1428469,44.9015613 64.1567247,44.894287 64.1714837,44.8887761 C66.9204001,43.8496504 69.4433058,42.2221863 72.1715156,41.1054678 C74.6043254,40.1095471 77.0822933,39.2161282 79.5692928,38.3617261 C83.0869983,37.1533071 86.5782697,35.8512036 90.2882826,35.2879948 C91.5093135,35.1026098 92.7241764,34.7809966 93.8914581,34.3760594 C94.5166223,34.1591524 95.1417866,33.7275427 95.5825737,33.2293619 C97.7876104,30.736474 100.009389,28.251081 102.071902,25.6415836 C103.673803,23.6149136 105.006738,21.3772883 106.541452,19.2941872 C107.687587,17.7388051 107.75257,15.8684228 108.242701,14.1254514 C108.674456,12.5903492 108.985717,11.0175528 109.264816,9.44607894 C109.327156,9.09492762 109.052463,8.67235569 108.898705,8.29651576 C108.556164,7.45886665 108.331695,6.51981791 107.790239,5.83492955 C107.398134,5.33917354 106.586831,5.1546703 105.940078,4.88507955 C104.282666,4.19423947 102.660059,3.34160085 100.934138,2.91638371 C99.3276116,2.52026386 97.5979464,2.41643946 95.9365691,2.49359135 C92.4397905,2.65605119 88.9474176,2.97039004 85.4629749,3.31999832 C82.8283856,3.58451909 80.1865269,3.88386843 77.5891654,4.38293095 C75.1257362,4.85642313 72.7092274,5.58539829 70.2845681,6.24736152 C68.1495815,6.83040939 65.9985142,7.38237606 63.9157347,8.12105031 C61.8510185,8.85333198 59.8517264,9.77628904 57.8440636,10.6617723 C55.1202594,11.8635784 52.3660562,13.0115985 49.7158267,14.3613157 C46.5924285,15.9521877 43.5652941,17.7317512 40.4989493,19.4339424 C38.8697333,20.338383 37.2237758,21.2159306 35.6278226,22.176141 C34.7301678,22.7164247 33.9483821,23.4469429 33.0619617,24.0083882 C31.3737098,25.077493 29.6087992,26.0284452 27.9502856,27.1398733 C26.7103104,27.9711298 25.5769523,28.9648462 24.4145169,29.908524 C21.666041,32.1397567 18.8631551,34.3099292 16.2098417,36.6496154 C14.4519802,38.1994867 12.92057,40.0059431 11.2752734,41.6849887 C10.611119,42.3630437 9.85929175,42.9613015 9.24073599,43.6768301 C7.59940443,45.575428 5.95939458,47.4795367 4.42776416,49.4656468 C3.94600438,50.0905771 3.79004374,50.9753991 3.52173857,51.7541923 C3.33317598,52.3015299 3.19924368,52.813598 2.41305226,52.6454069 C1.71761759,52.4966139 -0.0124881711,51.8048921 6.79822159e-05,50.9795873 C0.0287048232,49.1012694 1.04024616,47.6979867 2.12227818,46.3290917 C4.95071693,42.7510074 7.99525369,39.357206 11.3810094,36.307061 C14.1761854,33.7890437 17.1147658,31.4275346 20.0421118,29.0613963 C22.6463021,26.9564722 25.3150354,24.9315657 27.9731951,22.8945354 C28.3968,22.5700565 28.9320887,22.3961341 29.3849913,22.1049409 C31.5825384,20.6923999 33.6992415,19.1365769 35.9771921,17.8712859 C39.1977353,16.0822438 42.5411966,14.5158399 45.8192338,12.82952 C47.2023932,12.1179592 48.5188067,11.2697292 49.925977,10.6130564 C52.3319122,9.4906066 54.767806,8.42789441 57.2239658,7.41984984 C59.2051946,6.6066689 61.206249,5.81971961 63.2495977,5.18641279 C65.9978533,4.33443548 68.7875222,3.61163247 71.5738868,2.88860903 C74.0593443,2.24383965 76.5626448,1.66586177 79.062641,1.07862566 C79.5571772,0.962456954 80.0726403,0.934902707 80.5790719,0.870535986 C81.8983491,0.703006165 87.4008079,0.133404772 88.2951585,0.0981353357 C91.4881663,-0.0286142003 95.9883357,-0.152718529 99.2115223,0.551127156 C101.101554,0.963999992 103.02617,1.15467538 104.834917,1.93192558 C107.506954,3.08038659 109.989548,4.59013889 111.31213,7.19875456 C111.966592,8.48961592 111.98113,10.2927658 111.771861,11.7923782 C111.431083,14.2347866 110.950424,16.7360509 110.004527,18.9924131 C109.102467,21.1436283 107.590001,23.0554522 106.233276,24.9937281 C105.147499,26.5451424 103.924045,28.0044153 102.701692,29.4539892 C101.996345,30.2903157 101.148254,31.0047422 100.41427,31.8190253 C100.229011,32.0246902 100.131205,32.30905 100.025029,32.5859151 C99.9737028,32.7188368 100.060715,32.8647641 100.202137,32.8830601 C100.48454,32.9198726 100.768045,32.9639594 101.039654,32.9249426 C103.705303,32.5402853 106.363023,32.0969925 109.031756,31.736583 C109.91311,31.6177691 110.831691,31.7696481 111.711944,31.6455438 C112.351647,31.5553863 113.055452,31.3442105 113.556156,30.9595532 C114.652507,30.1170546 115.593998,29.0741814 116.680656,28.217575 C117.775465,27.3547964 119.809341,27.5622248 120.707657,28.6306683 C121.012529,28.9932822 121.197787,29.6735414 121.084782,30.1190385 C120.922433,30.7576357 120.443537,31.3181993 120.086017,31.9034515 C119.997243,32.0487175 119.898336,32.1875909 119.797446,32.3253621 C119.693252,32.4673216 119.788855,32.6694596 119.964421,32.676293 C120.106944,32.6818039 120.248586,32.6822447 120.387144,32.6621853 C122.111523,32.4146379 123.835901,32.1662088 125.554993,31.8847146 C126.938152,31.6581085 128.045957,31.9841303 128.389379,32.7741657 C128.71672,33.5278295 128.145085,34.4913464 126.880658,35.3001186 C126.666763,35.4372286 126.446259,35.5798494 126.208794,35.6620712 C123.962784,36.4393214 122.444591,38.2784021 120.541783,39.5555965 C120.402124,39.649281 120.334717,39.8509781 120.263786,40.0478256 C120.22061,40.1675213 120.286475,40.298459 120.408512,40.3346102 C120.602141,40.3921435 120.797312,40.4536446 120.965388,40.4106599 C123.791184,39.6867548 126.587241,38.8898859 129.111468,37.3426599 C130.004497,36.7953223 131.002821,36.4230093 131.925368,35.919979 C132.623446,35.5390691 133.133623,35.045297 133.056964,34.09699 C132.844611,31.47096 135.1371,28.9946048 137.858922,28.9516201 C138.797329,28.9368511 139.763712,29.1118756 140.675465,29.3556756 C142.258201,29.7789089 142.546112,30.5989232 141.746483,32.0462927 C141.691853,32.1448267 141.640306,32.2451242 141.589861,32.3460829 C141.511661,32.5021502 141.638324,32.6846695 141.811687,32.6639487 C141.953329,32.6469753 142.092768,32.6238297 142.223176,32.5759956 C143.923103,31.9512857 145.616201,31.5988118 147.411952,32.2583502 C148.330313,32.5953938 148.872651,33.9856708 148.160915,34.6956887 C147.156863,35.6968998 146.056328,36.6068512 144.951827,37.4996088 C143.993153,38.2746547 142.960024,38.9573387 141.986592,39.7149703 C141.771595,39.8822797 141.640527,40.1807473 141.522014,40.442182 C141.449321,40.6022171 141.403502,40.7741556 141.359886,40.9474167 C141.323098,41.0929031 141.439408,41.2315561 141.589201,41.2211957 C141.799571,41.206647 142.009722,41.1912166 142.211061,41.1409577 C142.873893,40.9758526 143.527254,40.7719512 144.183919,40.5832597 C146.542273,39.9052048 148.757883,38.8890042 150.731622,37.4475864 C151.723118,36.7234608 152.457543,35.6567808 153.394848,34.8453633 C154.627114,33.7784629 155.878764,32.7073742 157.24342,31.8265201 C158.794435,30.8255294 160.413518,29.8598081 162.127102,29.2037966 C163.481625,28.6853359 165.016119,28.5660811 166.485189,28.4452833 C167.485496,28.3630614 168.609161,29.9991224 168.33601,30.985344 C168.024529,32.1097777 167.725605,33.2196628 166.701507,34.0134455 C165.846367,34.6760701 165.201377,35.6082853 164.355269,36.2856789 C161.687196,38.4212433 159.961276,38.886359 156.218441,38.9802639 Z" id="Fill-1" fill="#474847" mask="url(#mask-2)"></path>
            </g>
        </g>
    </g>
</svg>