<svg id="Layer_1" data-name="Layer 1" xmlns="http://www.w3.org/2000/svg" viewBox="0 0 250 250"><defs><style>.cls-1{opacity:0.16;}</style></defs><title>icons</title><g class="cls-1"><path d="M-.52,114.61c2,.24,4.43-.87,6.06,1.78-2,1.48-4.14.29-6.06.62Z"/><path d="M-.52,157.09c1.29.11,2.83,0,2.95,1.81C2.56,161,1,161-.52,161.1Z"/><path d="M-.52,203.57l2.72.58c-.73,1.6-1.81,1-2.72,1Z"/><path d="M-.52,119.42c1.67.8,1.68,1.6,0,2.4Z"/><path d="M132,149.63c4.14-2.48,7.56-.37,11-.21.21,4.81-1,5.93-4.87,5C135.56,153.81,133.69,152.3,132,149.63Z"/><path d="M10.56,222.33c1.54-.94,2.8-1.62,4-2.43,2.67-1.86,3.91-1.95,6.58-.31,2,1.21,2,3.42-.12,4.26a13.17,13.17,0,0,1-10-.36C10.72,223.4,10.7,222.8,10.56,222.33Z"/><path d="M42.4,173.43c1.36-4.73,5.15-6.43,8.07-8.91a2.33,2.33,0,0,1,2.28.35c.41.55.42,2.16,0,2.39C49.47,169.28,47,172.77,42.4,173.43Z"/><path d="M204.75,223.3c.23,2.55.7,5-1.27,6.22-2.22,1.4-4.53.2-7.18-1.58C199.2,226.3,200.85,223.49,204.75,223.3Z"/><path d="M34.45,215.58c-.61.6-1,1.36-1.63,1.51a3.85,3.85,0,0,1-2.3-.33c-1.92-.84-3.76-1.84-5.66-2.73-1-.49-1.95-1.11-1.51-2.4.52-1.5,1.67-1.5,2.92-.9,2.37,1.14,4.75,2.26,7.09,3.46C33.76,214.4,34,215,34.45,215.58Z"/><path d="M53.11,70.24a14.47,14.47,0,0,1-2.71,0c-1.18-.23-2.65-.73-1.82-2.26a3.24,3.24,0,0,1,2.79-1.36,56,56,0,0,1,6.73,3.06,2.51,2.51,0,0,1-2.27,2.93c-1,0-2-1.16-3-1.8Z"/><path d="M29.5,204.59a22.75,22.75,0,0,1,3-.9,4,4,0,0,0,3.15-2,3.55,3.55,0,0,1,4.55-1.8c1.47,2.93-4.46,2.37-1.93,5.55C35.09,206.59,32.32,205.93,29.5,204.59Z"/><path d="M215.12,142c-.64,2.6-1.52,3.44-2.74,2.39-2.38-2.07-4.74-2.06-7.92-.12.31-1.5.28-2.61.6-2.71a13.13,13.13,0,0,1,4.85-1.09C211.68,140.59,213.39,141.48,215.12,142Z"/><path d="M38.7,222.82c-.81,1.7-1.32,3-2,4.12a2.15,2.15,0,0,1-1.48,1c-.53,0-1.48-.53-1.53-.92a17.27,17.27,0,0,1,0-4.62c.06-.44,1.31-1.1,1.87-1A15.32,15.32,0,0,1,38.7,222.82Z"/><path d="M42.5,45.92c0,2.39-1.94,4.39-3.59,4.25a2.23,2.23,0,0,1-2.33-2.22c-.07-1.62,2-3.42,3.87-3.19C41.28,44.85,42,45.64,42.5,45.92Z"/><path d="M253.82,242.68c-4.75,3.27-6.16,3.25-8.29.09C248.49,240.44,249.84,240.4,253.82,242.68Z"/><path d="M174.46,64.24A14.71,14.71,0,0,1,171,65.5a2.79,2.79,0,0,1-2.2-1.17,2.71,2.71,0,0,1,0-2.49,2.81,2.81,0,0,1,2.44-.53A17.22,17.22,0,0,1,174.54,63Z"/><path d="M49.14,203.7c.34,2.3-.34,3.76-2,4.26a3.83,3.83,0,0,1-2.79-1c-1.31-1-1-2.53.65-3A19.77,19.77,0,0,1,49.14,203.7Z"/><path d="M63.59,110.62c2.61-2.61,4.55-2.78,7.83-.53-2,1.89-4.37,2.11-6.79,2-.35,0-.68-1-1-1.54Z"/><path d="M196.37,133.17c3-1.44,5.46-1.08,8-.55C203.05,136.15,200.72,136.37,196.37,133.17Z"/><path d="M17.13,124.25c.45-2.38,1.54-3.36,3.5-2.85a17,17,0,0,1,3.12,1.49c-1.28,2.89-1.67,3.13-3.7,2.45-1-.34-2-.74-3-1.11Z"/><path d="M6.15,216.59c-2-.28-3.69.21-3.73-1.85,0-1.76,1.38-2.12,2.77-2.25,1.72-.16,3.68,1.1,3.22,2.12S6.68,216.16,6.15,216.59Z"/><path d="M139,125.68c1.11-.54,1.93-1.27,2.72-1.26a11.38,11.38,0,0,1,3.77.93,1.81,1.81,0,0,1,1,1.43,1.78,1.78,0,0,1-1.28,1.16A7.13,7.13,0,0,1,139,125.68Z"/><path d="M74.12,112.73h7.35c-1.16,2.46-2.77,3.5-4.77,3.08C75.06,115.47,73.69,114.82,74.12,112.73Z"/><path d="M219.44,80.89a10.24,10.24,0,0,1,7.88-.09C225.26,84.06,222.84,84.17,219.44,80.89Z"/><path d="M181.38,29.84c1-3,2.07-3.82,4.34-3.3.56.13,1.44.63,1.46,1a2.58,2.58,0,0,1-.77,2A4.18,4.18,0,0,1,181.38,29.84Z"/><path d="M94.35,79.58A4,4,0,0,1,98.88,79a2,2,0,0,1,1.11,3,1.78,1.78,0,0,1-3,.55A26.49,26.49,0,0,1,94.35,79.58Z"/><path d="M123.79,107c1.25-1,2.14-2.07,3.25-2.41.7-.21,1.91.53,2.54,1.19.22.23-.41,1.74-1,2.2C127.18,109,125.65,109.14,123.79,107Z"/><path d="M76,77.26a39.28,39.28,0,0,1-4.23,1.09c-1.18.17-2.28-.5-2.06-1.72a3,3,0,0,1,1.9-1.95C73.35,74.37,74.94,74.94,76,77.26Z"/><path d="M113.65,198.31a40,40,0,0,1-3.68,2.95,1.9,1.9,0,0,1-1.77-.3,2,2,0,0,1-.33-1.73C108.82,196.7,110.44,196.33,113.65,198.31Z"/><path d="M105.89,11.89a5.27,5.27,0,0,1,5.19-1.32c.59.12,1,1,1.53,1.49-.55.48-1,1.25-1.65,1.4A5.31,5.31,0,0,1,105.89,11.89Z"/><path d="M69,244.51c-.54,2.37-1.54,3.71-3.39,4.11a2.82,2.82,0,0,1-2-.59c-.2-.16,0-1.35.4-1.7C65.25,245.11,66.65,243.89,69,244.51Z"/><path d="M143.45,244.77c1.31-.48,2.29-.77,3.22-1.19,1.09-.49,2.21-.63,2.67.61a2.82,2.82,0,0,1-.32,2.47,2.77,2.77,0,0,1-2.4.12A19,19,0,0,1,143.45,244.77Z"/><path d="M36.89,79.1c-.89.54-1.81,1.55-2.67,1.5a3.37,3.37,0,0,1-2.58-1.75c-.37-1.43,1-2,2.27-1.85a13.17,13.17,0,0,1,2.91,1.08Z"/><path d="M58.59,138.94c-1.43,1-2.14,1.8-3,1.95-1.35.24-2.49-.56-2.2-2,.16-.81,1.24-2,1.87-2C56.17,136.89,57,137.89,58.59,138.94Z"/><path d="M109.79,115.58c-.85-1-1.53-1.56-1.75-2.23a3.2,3.2,0,0,1,0-2.35,2.08,2.08,0,0,1,2-.2,3.61,3.61,0,0,1,1.52,2.36C111.62,113.89,110.58,114.61,109.79,115.58Z"/><path d="M173.87,79.75c1.92-2.68,1.92-2.68,5.8-.56C177.73,81.38,177.45,81.42,173.87,79.75Z"/><path d="M112.79,73.95c-1.58.84-2.46,1.69-3.27,1.63A4.56,4.56,0,0,1,107.06,74a1.81,1.81,0,0,1,.31-1.64,4.89,4.89,0,0,1,2.56-.14C110.64,72.34,111.24,73,112.79,73.95Z"/><path d="M65.7,180.58c.06-.12.08-.31.17-.34,2.37-1,4.17-.74,4.74.73a1.87,1.87,0,0,1-.42,1.67C68.95,183.7,67.23,182.87,65.7,180.58Z"/><path d="M226.88,241a29.62,29.62,0,0,1,2.7,3c.07.09-1,1.43-1.67,1.5a2.27,2.27,0,0,1-2.76-2.09C225.12,242.81,226,242.13,226.88,241Z"/><path d="M141.67,1.05h6.45l-2.5,4Z"/><path d="M15.8,9.38a12.42,12.42,0,0,1,2.09-2.92c.4-.32,1.57.31,2.39.5-.21.78-.18,1.94-.68,2.27a10.88,10.88,0,0,1-3.16,1Z"/><path d="M64.1,49.63c-1.6.81-2.32,1.48-3,1.47a2.33,2.33,0,0,1-2.52-2.41c0-.41,1.18-1.24,1.6-1.12A23.92,23.92,0,0,1,64.1,49.63Z"/><path d="M17.1,124.22l.87,2a8,8,0,0,1-6.72-.37c1.75-2.35,4-1.43,5.89-1.56Z"/><path d="M82.36,128.38a11,11,0,0,1,1.4-2.19c.78-.76,2-1.4,2.64-.08a3,3,0,0,1-.71,2.68c-.61.55-1.84.4-2.8.56Z"/><path d="M232,209c2.73-.19,4.38,1,5.91,3C234.87,213,234.66,212.93,232,209Z"/><path d="M193.94,112.95c-2.24,1.92-3.92,1.37-5.71-.13C190.81,110.89,191,110.89,193.94,112.95Z"/><path d="M40.65,181.11c0-.26-.12-.56,0-.77.57-1.21,1.12-2.65,2.84-2.06a2.06,2.06,0,0,1,1,1.78,2.28,2.28,0,0,1-3.51,1.34C40.8,181.35,40.74,181.21,40.65,181.11Z"/><path d="M151.74,242.08c1.31-.42,1.95-.84,2.48-.74a6.49,6.49,0,0,1,2.36,1.1c.15.11,0,1.23-.29,1.32a4.83,4.83,0,0,1-2.57.4C153.12,244,152.7,243.14,151.74,242.08Z"/><path d="M250.51,217.21a20.64,20.64,0,0,1-3.65-.55,1.73,1.73,0,0,1-.68-1.57,1.87,1.87,0,0,1,1.47-.94C249,214.15,250.24,214.62,250.51,217.21Z"/><path d="M246.39,106.2c.81,1,1.79,1.64,1.73,2.2s-1.2,1.82-1.6,1.71c-.82-.21-1.47-1.12-2.19-1.74Z"/><path d="M29.39,72.28c-.21,2-1.62,2.22-2.82,2.45-.48.09-1.11-.65-1.67-1a17.83,17.83,0,0,1,2.76-2.34C28,71.21,28.85,72,29.39,72.28Z"/><path d="M10.38,204.65c1.81-3.07,2-3.11,5.29-1.46C14.38,205,12.61,204.54,10.38,204.65Z"/><path d="M247.85,227.1a22.33,22.33,0,0,1,2.19,2.82c.1.18-.94,1.31-1,1.25a12.37,12.37,0,0,1-2.62-1.89A17.47,17.47,0,0,1,247.85,227.1Z"/><path d="M87.81,192.13l-3.13,1-2-4.62L87.84,191Z"/><path d="M182.32,194.7c-.4.3-1.29,1.31-1.65,1.15-.81-.36-1.37-1.3-2-2,.51-.48,1-1.28,1.56-1.37C181.33,192.28,182.27,192.78,182.32,194.7Z"/><path d="M182.23,19.64h-6.42C178.24,17.17,178.9,17.14,182.23,19.64Z"/><path d="M162.82,162c2.43,1.61,2.52,2.91.71,5.3C161.58,165.69,162.78,163.79,162.82,162Z"/><path d="M49.2,57.11c-.44.48-.58.75-.8.84-1.24.55-2.57,1-3.44-.48a1.77,1.77,0,0,1,.62-1.59C47.05,55,48.3,55.35,49.2,57.11Z"/><path d="M151.43,187.61a20.38,20.38,0,0,1,3.45.8c.33.13.58,1.25.38,1.69a1.69,1.69,0,0,1-1.57.6,18.29,18.29,0,0,1-2.78-1.81Z"/><path d="M5.75,158.3,4,156c.6-.4,1.25-1.18,1.79-1.1.72.1,1.34.85,2,1.33Z"/><path d="M63.61,110.59l-7,1.2c.18-1.81,1.5-2.37,3-2.77,1.74-.46,3.13-.16,3.94,1.6Z"/><path d="M233.61,108.6h4.77C236.78,111.14,236.44,111.19,233.61,108.6Z"/><path d="M203.23,178.92c-2.36,1.42-3.72,3-6.24,1.67C198.54,178.64,200,177.63,203.23,178.92Z"/><path d="M1.59,65.22H7C5.24,67.74,4.55,67.81,1.59,65.22Z"/><path d="M158.76,76.19c.93-2.38,2.21-3.28,4.73-2.45C162.78,76.38,161.2,76.71,158.76,76.19Z"/><path d="M185.87,127.65a17.37,17.37,0,0,1,3.56-1.24,3.63,3.63,0,0,1,2,.89,1.16,1.16,0,0,1-.11,1.06,3.67,3.67,0,0,1-2.05.77A15.92,15.92,0,0,1,185.87,127.65Z"/><path d="M192.68,211.17a18.87,18.87,0,0,1-3.23,1.86,2,2,0,0,1-1.84-.8c-.49-1.11.3-1.74,1.4-1.81s2.28,0,3.42,0Z"/><path d="M103.65,242.61c.4-2.06,1.11-3.23,2.57-3.29.76,0,1.56.86,2.34,1.34l-.21.93Z"/><path d="M52.31,211c0,.13,0,.29,0,.38-.94,1.38-2.17,1.93-3.68,1a1.49,1.49,0,0,1-.22-1.39C48.94,209.79,50.09,209.83,52.31,211Z"/><path d="M59.15,173l5.86-1.1C62.86,174.92,62,175.09,59.15,173Z"/><path d="M63.33,210.7v-3.41c1.84-.46,2.74.53,4,2.23Z"/><path d="M188.3,11.52c3.49-1.28,3.49-1.28,5.4,1C191.76,13.75,190.31,12.79,188.3,11.52Z"/><path d="M100.23,14.81c1-1.58,2.05-2.28,3.37-1.06a2.1,2.1,0,0,1,.1,2.06C102.37,17,101.32,16.18,100.23,14.81Z"/><path d="M33,242.91c2.83-.79,4.51-.74,5.84,1.5C36.6,245.52,35.2,244.5,33,242.91Z"/><path d="M115.08,148.76c1.52-2.64,3-2,4.88-.7C118.51,149.5,117.18,149.76,115.08,148.76Z"/><path d="M41.27,130.66c2.18-.24,4.11.19,5.26,2.81L41,131.69Z"/><path d="M232.75,7.78l4.06,1.84,0,.84-3.57,1.44Z"/><path d="M223.9,129.39c.42,4.07.22,4.23-3.8,2.89Z"/><path d="M160.11,90.09c-1,.8-1.68,1.57-1.9,1.46A13.27,13.27,0,0,1,156,89.81c.39-.44.91-1.32,1.16-1.25A16.79,16.79,0,0,1,160.11,90.09Z"/><path d="M211.54,236.62c1-1.52,2.09-2,3.42-1.15a1.69,1.69,0,0,1,.14,1.64C214,238.26,212.84,238.17,211.54,236.62Z"/><path d="M182.2,65.41c.69,1,1.25,1.46,1.29,2,.11,1.2-.49,2.11-1.8,2-.48-.05-1.33-.92-1.25-1.12A18.26,18.26,0,0,1,182.2,65.41Z"/><path d="M236.37,203.35c2.29-1.87,2.29-1.87,4.46-1.05C239.27,204.58,239.27,204.58,236.37,203.35Z"/><path d="M115.89,229.88l-5,3.67C111.32,230.09,112.42,229.27,115.89,229.88Z"/><path d="M99.68,229.6a9.07,9.07,0,0,1-.88,2.1,17.36,17.36,0,0,1-2.26,2c-.07.05-.83-.57-.8-.64a18.29,18.29,0,0,1,1.73-2.88C97.71,229.85,98.4,229.9,99.68,229.6Z"/><path d="M9.34,97.91c-2.1.82-3.14-.62-5.34-1.6,1.5-.59,2.16-1.11,2.73-1A2.89,2.89,0,0,1,9.34,97.91Z"/><path d="M220.38,161.55c1.09-1.61,2.11-2.33,3.45-1.16a1.7,1.7,0,0,1,0,1.66C222.71,163,221.52,163,220.38,161.55Z"/><path d="M103.52,89.53c1.68-2.55,1.86-2.57,4.25-.4C106.36,90,105.08,90.67,103.52,89.53Z"/><path d="M57.2,202c.21-.95.15-2.49.68-2.73,1.33-.6,2.53,0,3.07,2.23l-3.76.48Z"/><path d="M183.06,103c-2.33,1.58-3.35.7-4.57-.57C180.45,100.44,181.52,101.45,183.06,103Z"/><path d="M89.53,9.85c.67.29,1.38.38,1.5.7a10,10,0,0,1,.55,2.79,2.5,2.5,0,0,1-1.29.4,7.82,7.82,0,0,1-1.11-2.27C89.06,11.08,89.36,10.56,89.53,9.85Z"/><path d="M15.62,250.57c1.45-1.53,2.53-2.18,4.25-1C19.06,251.75,17.86,252,15.62,250.57Z"/><path d="M187.7,175.3l5-.72a4.3,4.3,0,0,1-4.76,2.14Z"/><path d="M63.28,153.78l4.17,1.53c-.81.89-1.25,1.81-1.75,1.85C64,157.28,63.62,156,63.28,153.78Z"/><path d="M181.67,44.66a10.09,10.09,0,0,1-2.43,1.53c-.36.09-.93-.62-1.4-1a7.93,7.93,0,0,1,1.79-1.6C179.95,43.48,180.62,44.1,181.67,44.66Z"/><path d="M252.71,1.15c-1.9.57-3.58,2.12-6,.51l5.8-1.33Z"/><path d="M208.28,222.13l5.18-.93C211.67,223.78,211.43,223.83,208.28,222.13Z"/><path d="M165.8,67l-4.66-.79C163.59,63.83,163.76,63.86,165.8,67Z"/><path d="M37,235.28a4.23,4.23,0,0,1-5-1.43A4.15,4.15,0,0,1,37,235.28Z"/><path d="M189.13,239h-4.9C186.05,237,186.15,237,189.13,239Z"/><path d="M151,224.74h4c-1,1.13-1.45,2.16-2,2.19-.78,0-1.6-.63-2.4-1Z"/><path d="M62.93,25.53c.46,1.93-.06,3-1.48,3.41-.3.09-1.19-.67-1.23-1.08C60.07,26.17,61.26,25.77,62.93,25.53Z"/><path d="M43.82,192.05c-2.11-.3-3.08-1-3-3C42.82,188.95,43.95,189.46,43.82,192.05Z"/><path d="M66.53,145.31c.74-2.13,2.1-2.55,4.23-2.32C69.94,145.14,68.85,146.05,66.53,145.31Z"/><path d="M57.18,202a13.11,13.11,0,0,1-1.37,1.91c-1.67,1.64-2.21,1.44-3.42-1.11l0,0L57.2,202Z"/><path d="M228.41,104.93c0,.33.05.49,0,.57-.79,1.15-1.7,2.08-3.13,1a1.4,1.4,0,0,1-.09-1.37C226.2,103.87,227.33,104.07,228.41,104.93Z"/><path d="M77.1,163.29l4.75-.46C80.26,165.88,80.26,165.88,77.1,163.29Z"/><path d="M52.09,147.18,56.76,146C55.52,149.18,55.41,149.21,52.09,147.18Z"/><path d="M158.06,180.13c-3,.94-3,.94-4.07-1.43C155.66,177.8,156.57,178.83,158.06,180.13Z"/><path d="M176.72,199.8c-2.17.93-3.33-.72-4.79-1.66A4,4,0,0,1,176.72,199.8Z"/><path d="M185.33,194.29c1.09-1.29,2.17-1.46,3.19-.51a1.74,1.74,0,0,1-.23,1.67C187.08,196.28,186.11,195.78,185.33,194.29Z"/><path d="M86.39,210.85c-.5.9-1,1.83-1.54,2.68,0,.07-1.12-.26-1.23-.58-.6-1.73.64-2.2,1.76-2.71Z"/><path d="M176.9,120.43c-2.33,3.85-2.33,3.85-4.9,2.21Z"/><path d="M52.39,202.76l-3.29-.4-.28-.9c.74-.5,1.5-1.44,2.21-1.4,1.69.08,1.23,1.64,1.34,2.74Z"/><path d="M95.27,98.14C94.1,99.83,93,99.49,92,98.23a1.08,1.08,0,0,1,.14-1.05C93.62,96.22,94.54,96.9,95.27,98.14Z"/><path d="M53.46,169.65c1.43-2,2.44-2.35,3.66-1.21.23.21,0,.92,0,1.39Z"/><path d="M12.46,164.14c.42.76,1,1.59.93,1.7a3.76,3.76,0,0,1-1.86,1.09c-.29,0-.72-.83-1.09-1.29Z"/><path d="M253.33,185.63c-2.29,1.15-3.68-.1-5.21-1l.35-.93Z"/><path d="M170.69,84.87c1.18-1.78,2.44-1.86,4.33-.93C173.66,85.36,172.57,86.23,170.69,84.87Z"/><path d="M13.27,77.29c-1.67,1-1.67,1-3.39.14C11.06,75.55,12.19,76.23,13.27,77.29Z"/><path d="M113.26,224c.34,1.82-.39,2.51-1.82,2.52a1.09,1.09,0,0,1-.81-.7C110.58,224.24,111.65,224,113.26,224Z"/><path d="M88.7,27.64c-.52,2.28-1.85,2.4-3.82,2.52C85.75,28.06,86.7,27.28,88.7,27.64Z"/><path d="M154.51,120.26c1.81-1,2.81-.67,3.76.8C156.82,122.16,155.8,121.93,154.51,120.26Z"/><path d="M221.2,165.79h-4.41C218,163.47,218,163.47,221.2,165.79Z"/><path d="M110.24,168.07l-3.09-2.21c2.54-1.14,3.36-.31,3.9,1Z"/><path d="M201.54,123.07l-4.2,2c.59-2.11,2.07-2.6,3.65-2.94Z"/><path d="M212.16,1.07c2.07-1.23,3-.66,3.64,1.11C214.13,3,213.15,2.64,212.16,1.07Z"/><path d="M49.95,138.19c-.81.45-1.38,1-1.77.92a1.69,1.69,0,0,1-1-1.32,1.55,1.55,0,0,1,1.2-1C48.87,136.86,49.26,137.53,49.95,138.19Z"/><path d="M163.84,132.59c-1-1.36-.89-2.31.54-2.91a1.1,1.1,0,0,1,1,.36C166.05,131.54,165.11,132.08,163.84,132.59Z"/><path d="M205.25,158.52c2-1.56,2.9-1.39,3.49-.25.16.31-.22.9-.35,1.36Z"/><path d="M158.81,79.67c-2.48.18-3.72-.27-4.75-2C156.08,77.16,157.19,77.94,158.81,79.67Z"/><path d="M31.5,225.18a16.05,16.05,0,0,1-2.34,1.66c-.18.08-.71-.59-1.08-.91a15.41,15.41,0,0,1,1.78-1.77C30,224.07,30.61,224.62,31.5,225.18Z"/><path d="M122.11,194.49l-3.59.19c1.23-2.33,2.26-2.57,3.56-1.38Z"/><path d="M28.62,62.92c-1.57,1.39-2.6,1.23-3.75-.13C26.07,61.4,27.11,61.64,28.62,62.92Z"/><path d="M18,90.36c.45.87,1,1.45.89,1.84s-.83.77-1.28,1.15c-.33-.46-.94-.93-.92-1.37S17.4,91.11,18,90.36Z"/><path d="M237.73,248.23c-1,1.35-2.07,1.19-3.35.55C235.77,247.06,235.77,247.06,237.73,248.23Z"/><path d="M146.32,13.79c-2,1.05-2,1.05-3.64.12C143.67,12.46,144.72,12.68,146.32,13.79Z"/><path d="M16.94,12.38c-.53,1.27-1.15,2.06-2.36,1.33a1.39,1.39,0,0,1-.31-1.33C15,11.16,15.86,11.37,16.94,12.38Z"/><path d="M10,132.89c2.86,1.62.65,2.91,1.27,4.74C8.49,135.88,10,134.61,10,132.89Z"/><path d="M181.7,245.07c-1.21,1.15-2.11,1.12-3.15-.21C179.76,243.52,180.66,243.57,181.7,245.07Z"/><path d="M84.62,146.24c-1.19,1.39-2.2,1.45-3.53.2C82.24,144.74,83.27,144.93,84.62,146.24Z"/><path d="M166.57,95.49C167.14,97,166.4,98,164.1,99l1.37-4Z"/><path d="M56.74,216.72l4.12-1.92C60.05,217.21,60.05,217.21,56.74,216.72Z"/><path d="M10.08,88.78l3.34,1.13C11.71,91.25,11.71,91.25,10.08,88.78Z"/><path d="M176.61,224.41a6.22,6.22,0,0,1-1.77,1c-.23,0-.87-.88-.79-1a2.84,2.84,0,0,1,1.31-1.08C175.56,223.22,176,223.85,176.61,224.41Z"/><path d="M150.18,105l2.22-.33.14,1.36h-2.28Z"/><path d="M243.13,52.79l3.38,1c-2.06,1.63-2.87.76-3.69-.1Z"/><path d="M32.77,168.3l-.87,2.92c-1.46-1.64-1.1-2.46-.18-3.2Z"/><path d="M179.52,169.85l-3.33.16C177.17,168,178.3,168.24,179.52,169.85Z"/><path d="M23.43,151.47c-.71.52-1.21,1.1-1.45,1-.51-.2-.88-.75-1.31-1.16.33-.34.72-1,1-1C22.18,150.46,22.64,150.94,23.43,151.47Z"/><path d="M132.47,190.31l2.54.7-.22,1.13-2.61-.36Z"/><path d="M37.22,36.6l4.08-1.12C40,37.5,40,37.5,37.22,36.6Z"/><path d="M179.66,114.9l1.75,2.18C179.48,117.41,178.9,116.68,179.66,114.9Z"/><path d="M218.34,114.1l3.48-.79C220.11,115.13,220.11,115.13,218.34,114.1Z"/><path d="M10.89,102.85l2.74,1c-1.66,1.39-2.42,1-3.06-.06Z"/><path d="M77.06,142.7a11.14,11.14,0,0,1-2.22.52c-.23,0-.47-.52-.71-.8a4.9,4.9,0,0,1,1.48-.93C75.89,141.43,76.3,142,77.06,142.7Z"/><path d="M127.79,251.28c.19-1.34.91-1.83,2.14-1.34a1.06,1.06,0,0,1,.38,1c-.62,1.18-1.48,1.27-2.53.37"/><path d="M185.14,251.62l-3.55-1c2-1.25,2.94-.91,3.81,0l-.26,1"/><path d="M222,38.18l2.71,1.8-.59,1-2.83-1.57Z"/><path d="M81.65,38.59l3,1.27c-1.91,1.23-2.76.63-3.52-.3Z"/><path d="M101,47.55c-.88.56-1.33,1-1.85,1.12-.33.05-.75-.49-1.13-.76.42-.39.79-.95,1.29-1.12C99.57,46.67,100.08,47.13,101,47.55Z"/><path d="M190.66,101.9c-.59.54-1,1.17-1.24,1.1a2.7,2.7,0,0,1-1.28-1.1c-.09-.16.57-1.06.75-1A7.24,7.24,0,0,1,190.66,101.9Z"/><path d="M36.07,93.69l-2.77.48c0-.72-.06-1.06.07-1.19C34.26,92.11,35.07,92.08,36.07,93.69Z"/><path d="M147.81,63.74l-3.16,1.84c.76-2.17.76-2.17,2.81-2.56Z"/><path d="M127,64.6c.2-1.63.78-2.43,2.5-2.46C129.49,63.92,128.68,64.49,127,64.6Z"/><path d="M25.12,159.3c-.31,1.17-.5,1.91-.75,2.63,0,0-.86-.06-1-.26C22.88,160.52,23.31,159.81,25.12,159.3Z"/><path d="M174.78,234.23c2.27-.92,3.09-.26,3.26,1.69Z"/><path d="M78,230.94c-.75.08-1.49.19-2.24.2a2.77,2.77,0,0,1-.16-1c.7-.25,1.43-.42,2.15-.6Z"/><path d="M124.83,212.35l-3.11-.19,0-.82h3.18Z"/><path d="M72.58,3.26l2.6-1.53c.23.61.45.88.39,1.07C75.11,4.35,74.25,4.52,72.58,3.26Z"/><path d="M25.12,141.88l3.2-.16c-1.58,2.39-1.58,2.39-3.17.14Z"/><path d="M230.78,190.3h-2.49C229.24,189,229.24,189,230.78,190.3Z"/><path d="M193.09,221.39l-.83,1-1.53-1.29c.26-.25.61-.76.75-.7A9.64,9.64,0,0,1,193.09,221.39Z"/><path d="M56.93,156l-3-.32L53.9,155a5.67,5.67,0,0,1,1.52-.3,7.58,7.58,0,0,1,1.65.49Z"/><path d="M29.46,56.46l-1.22,1.39c-.32-.32-1-.8-.9-.92a4.36,4.36,0,0,1,1.15-1.26C28.55,55.63,29,56.08,29.46,56.46Z"/><path d="M20.39,54.88a4.7,4.7,0,0,1-1,.53c-.59.16-1.2.22-2,.37.06-.58,0-1.07.15-1.21C18.37,53.93,19.27,53.49,20.39,54.88Z"/><path d="M13,197.72c-.71.07-1.41.16-2.12.19a1.46,1.46,0,0,1-.2-.63c.65-.33,1.32-.61,2-.91Z"/><path d="M249.56,162.31a3.72,3.72,0,0,1,1.37-.17c.41.11.73.54,1.44,1.12-.84.28-1.29.57-1.68.52a4,4,0,0,1-1.25-.68Z"/><path d="M152.05,128.16l-2.37-1C151.24,126.33,151.24,126.33,152.05,128.16Z"/><path d="M180,127.87a20,20,0,0,1-.94-1.94,2.85,2.85,0,0,1,.84-.53c.46.56.86,1.17,1.27,1.77Z"/><path d="M172.65,107.76c.71-.17,1.42-.35,2.14-.46a7.74,7.74,0,0,1,.27,1l-2.18.49Z"/><path d="M193.18,35.19l.47,2.31-1,.23L192,35.48Z"/><path d="M190.06,3.09c2.35-.54,3.1,0,3.79,2.4Z"/><path d="M58,135.49l-1.2-2,.44-.62a4.93,4.93,0,0,1,1.42.66c.26.24.23.78.34,1.19Z"/><path d="M13.29,22.06l3,.32.06.59a6.29,6.29,0,0,1-1.53.27,8.2,8.2,0,0,1-1.65-.45Z"/><path d="M49.76,4.31c-1,0-1.52.17-1.79,0s-.28-.8-.4-1.22c.34-.06.78-.29,1-.15S49.16,3.55,49.76,4.31Z"/><path d="M96.35,228H94.23l0-.68,2.08-.26Z"/><path d="M90.55,238.07l-2.68,1-.34-1,2.73-.84Z"/><path d="M96.82,90c.45.41,1,.67,1.08,1.05.07.23-.5.64-.78,1a5,5,0,0,1-1-1C96,90.9,96.47,90.46,96.82,90Z"/><path d="M145.1,181.57c-.41.3-.71.69-1,.66s-.49-.45-.74-.7c.25-.24.49-.66.75-.67S144.7,181.24,145.1,181.57Z"/><path d="M233.56,179.9l2-.12.11.7-2,.45Z"/><path d="M137.56,183.79c.37.53.79,1,.72,1.08a2.5,2.5,0,0,1-1,.81c-.1,0-.67-.56-.61-.71A5,5,0,0,1,137.56,183.79Z"/><path d="M192.28,196.16c-.26-.59-.58-1-.48-1.17a1.33,1.33,0,0,1,.88-.66c.24,0,.53.37.8.58Z"/><path d="M213.24,196.79c-.42.31-.71.71-1,.69s-.49-.45-.74-.7c.25-.24.5-.66.77-.68S212.83,196.48,213.24,196.79Z"/><path d="M37.41,53.5l-1.53-1.68.54-.6,1.73,1.48Z"/><path d="M192.47,51.07l-2-.43.1-.69,2,.09Z"/><path d="M204,193.51a6.85,6.85,0,0,1-.53-1.61c0-.14.66-.5.85-.41a1.17,1.17,0,0,1,.55.9C204.88,192.66,204.49,192.92,204,193.51Z"/><path d="M209.21,200.76c-.54.44-.87.89-1.06.83a4.23,4.23,0,0,1-1.13-.76c.24-.25.5-.71.73-.7A5.07,5.07,0,0,1,209.21,200.76Z"/><path d="M155.5,33.47a8.33,8.33,0,0,1-.66-1.76c0-.22.51-.73.6-.69a3.42,3.42,0,0,1,1.13.83A11.32,11.32,0,0,1,155.5,33.47Z"/><path d="M209.2,22.11a5,5,0,0,1-1.46.65c-.23,0-.48-.47-.72-.74a4.49,4.49,0,0,1,1.15-.78C208.35,21.19,208.68,21.65,209.2,22.11Z"/><path d="M176.37,157.15c-.35-.54-.76-1-.69-1.1a2.79,2.79,0,0,1,1.09-.84c.09,0,.68.6.61.75A5.48,5.48,0,0,1,176.37,157.15Z"/><path d="M205.17,74.86c-1,.36-1.49.7-1.86.62s-.56-.63-.84-1c.32-.18.66-.54,1-.51A7,7,0,0,1,205.17,74.86Z"/><path d="M48.19,154.4l1.26-1.78.68.51-1.33,1.72Z"/><path d="M100.47,152.38l-1.85,1.38-.53-.59,1.72-1.59Z"/><path d="M139,88.34l2.09-.53.23.66-2.18.79Z"/><path d="M59.81,148.9l2,.39-.05.67H59.62Z"/><path d="M219.64,89.16l-2.38.54-.18-.76,2.37-.57Z"/><path d="M106.73,214.19l-1.83,1-.42-.67,1.77-1.16Z"/><path d="M84.33,246.59l-1.93-.12,0-.69,1.94-.21Z"/><path d="M78.43,246.27c.33.41.73.7.72,1a1,1,0,0,1-.71.69,1,1,0,0,1-.72-.7C77.69,247,78.11,246.67,78.43,246.27Z"/><path d="M75.93,86.43c-.22-.5-.53-.91-.43-1.08a1.41,1.41,0,0,1,.9-.43c.09,0,.41.45.35.57A5,5,0,0,1,75.93,86.43Z"/><path d="M165,247.72a16.07,16.07,0,0,1-1.59.36c-.07,0-.2-.38-.31-.58l1.78-.45Z"/><path d="M208.07,247.64,206,248l-.19-.64,2-.57Z"/><path d="M176.15,117.42a7.08,7.08,0,0,1-1.47.57,1.12,1.12,0,0,1-.37-.83,1.13,1.13,0,0,1,.84-.57C175.38,116.57,175.63,117,176.15,117.42Z"/><path d="M177.52,135.84c-.59,0-1,.12-1.27,0s-.42-.59-.63-.9a3,3,0,0,1,1.23-.22C177.09,134.76,177.21,135.28,177.52,135.84Z"/><path d="M80.62,137l-.91-.75a3.12,3.12,0,0,1,.8-.56.81.81,0,0,1,.58.32A4.79,4.79,0,0,1,80.62,137Z"/><path d="M211.69,77l-1.56.5-.22-.92,1.66-.26Z"/><path d="M169.94,77.88l-1.73.55-.22-.65,1.73-.56Z"/><path d="M190.1,78.13l1,.85a7.85,7.85,0,0,1-1.06.83c-.1.06-.58-.3-.56-.35A12.07,12.07,0,0,1,190.1,78.13Z"/><path d="M73.47,81.55a4.68,4.68,0,0,1-1,.77c-.17.06-.45-.17-.68-.27.13-.3.21-.79.41-.84S72.85,81.36,73.47,81.55Z"/><path d="M198,107.06l-2.24.27-.09-.64,2.24-.35Z"/><path d="M26.32,91.64c-.39.32-.66.7-.92.7a.92.92,0,0,1-.63-.68,1,1,0,0,1,.68-.68C25.66,90.94,25.94,91.33,26.32,91.64Z"/><path d="M198.25,98.25l1.65-.4.22.55-1.55.77Z"/><path d="M218.9,99.47l-1.55.51-.22-.92,1.61-.27Z"/><path d="M102.88,101.83,100.8,101l.26-.68,2.09.82Z"/><path d="M49.35,101.33l1.84.41-.06.53H49.28Z"/><path d="M125.25,32.42c-.35.06-.74.26-1,.15s-.21-.57-.31-.88a2,2,0,0,1,.71-.2,6,6,0,0,1,1.07.33Z"/><path d="M38.15,15c-.45.2-1,.53-1,.44a4.8,4.8,0,0,1-.7-1.15c.34-.09.73-.32,1-.22S37.85,14.56,38.15,15Z"/><path d="M184.34,14c-.32-.41-.7-.68-.69-.94s.46-.66.67-.63a1,1,0,0,1,.69.69C185,13.36,184.65,13.65,184.34,14Z"/><path d="M95.39,59.26c-.67.26-1.13.56-1.25.46a5,5,0,0,1-.81-1.11c.21-.11.49-.36.62-.3A11.42,11.42,0,0,1,95.39,59.26Z"/><path d="M40.45,56l-1.61.21c0-.22-.08-.6,0-.64A15,15,0,0,1,40.35,55Z"/><path d="M109.28,59.29l.81,1.31c-.32.14-.67.45-.94.38a1.15,1.15,0,0,1-.71-.75C108.39,60,108.84,59.75,109.28,59.29Z"/><path d="M105.14,45.22l-1.66-.72.27-.63,1.67.71Z"/><path d="M144,40.75l-1.83-.29,0-.59H144Z"/><path d="M31.44,52.67l-1.17.59a3.45,3.45,0,0,1-.42-.91c0-.11.43-.44.58-.39A4.27,4.27,0,0,1,31.44,52.67Z"/><path d="M194.08,47.82c-.41.32-.68.7-1,.7s-.68-.46-.65-.66a1,1,0,0,1,.69-.7C193.4,47.13,193.7,47.52,194.08,47.82Z"/><path d="M118,183.73l2.14-.26.09.71-2.13.35Z"/><path d="M4.1,230.21l.53,1.1a3,3,0,0,1-.89.34c-.12,0-.42-.42-.38-.55A3.92,3.92,0,0,1,4.1,230.21Z"/><path d="M4.22,150.71c-.43.31-.86.62-1.31.9,0,0-.26-.36-.4-.55l1.33-.94Z"/><path d="M106.14,154.31l.82.34a4.72,4.72,0,0,1-.51.91,1.13,1.13,0,0,1-.62-.25A5,5,0,0,1,106.14,154.31Z"/><path d="M8.64,238.28,6,238.66,5.89,238l2.63-.59Z"/><path d="M223.83,233.54c.47.4.9.59,1,.86s-.32.57-.57.78c-.05,0-.55-.23-.58-.4A4.45,4.45,0,0,1,223.83,233.54Z"/><path d="M100.81,201.81c-.21-.5-.52-.9-.42-1.08s.57-.37.9-.43c.09,0,.41.45.35.56A5,5,0,0,1,100.81,201.81Z"/><path d="M172.58,204.7c-.36.08-.75.27-1,.18s-.2-.57-.29-.88a4.69,4.69,0,0,1,1.08-.08C172.43,203.94,172.48,204.35,172.58,204.7Z"/><path d="M214.84,204.79c.29.38.67.68.64.9a1,1,0,0,1-.7.65c-.22,0-.65-.42-.65-.66S214.52,205.17,214.84,204.79Z"/><path d="M220.26,213.26a7.22,7.22,0,0,1-1.31,1.12c-.13.06-.49-.35-.75-.55.23-.28.41-.66.71-.79S219.52,213.13,220.26,213.26Z"/><path d="M15.52,227.14c-.61.27-1,.58-1.18.49a1.3,1.3,0,0,1-.65-.84c0-.21.36-.49.56-.74Z"/><path d="M133.14,222.19l-.82,1a3.49,3.49,0,0,1-.72-.68c-.05-.09.23-.55.39-.57A3.85,3.85,0,0,1,133.14,222.19Z"/><path d="M134.1,137.83l-2.07-.5.11-.62,2.17.36Z"/><path d="M162.42,144.15c-.53.4-.86.82-1,.76a4.36,4.36,0,0,1-1.12-.76c.24-.25.5-.73.71-.7A5.43,5.43,0,0,1,162.42,144.15Z"/><path d="M164.3,49.61c-.37.41-.58.84-.81.85s-.54-.35-.73-.61c0-.06.24-.53.39-.54A4.22,4.22,0,0,1,164.3,49.61Z"/><path d="M46.45,50c-.48.21-.84.5-1,.42s-.34-.52-.39-.83c0-.09.42-.39.54-.34A4.33,4.33,0,0,1,46.45,50Z"/><path d="M221.2,229.94l-.7.6c-.12-.18-.39-.43-.35-.54a3.3,3.3,0,0,1,.59-.72Z"/><path d="M55.13,82.46l-.91-.8a2.86,2.86,0,0,1,.77-.53c.15,0,.57.24.55.35A3.77,3.77,0,0,1,55.13,82.46Z"/><path d="M242.43,67.2l1.72-.62.23.61-1.71.64Z"/><path d="M33.18,65.08l-.36.78a4.56,4.56,0,0,1-.86-.44s.17-.59.26-.59A3.82,3.82,0,0,1,33.18,65.08Z"/><path d="M39.31,184.66c-.25.32-.49.69-.53.67a5.56,5.56,0,0,1-.84-.59c.15-.19.34-.56.45-.54A3.63,3.63,0,0,1,39.31,184.66Z"/><path d="M247.54,26.74l-.57-.52a6.66,6.66,0,0,1,.67-.69s.46.33.43.4A4.72,4.72,0,0,1,247.54,26.74Z"/><path d="M94.63,136.35c-.22-.5-.51-.86-.46-1.16a1,1,0,0,1,.74-.66c.24,0,.53.36.79.57Z"/><path d="M244.21,207.4a11.86,11.86,0,0,1-1.31-.58c-.07,0,0-.41.07-.62l1.59.4Z"/><path d="M239,132.41l1.73.21-.08.63-1.72-.26Z"/><path d="M232.62,36.24l-.78.64c-.14-.2-.44-.48-.39-.58a3.85,3.85,0,0,1,.68-.78Z"/><path d="M45.79,28.92l.77.93a3.14,3.14,0,0,1-.89.42c-.15,0-.52-.35-.49-.45A3.93,3.93,0,0,1,45.79,28.92Z"/><path d="M47.68,33.62l2,.83a5.88,5.88,0,0,1-1.22.27C48.31,34.72,48.17,34.33,47.68,33.62Z"/><path d="M140.6,103l1.44-.69.32.53-1.37,1Z"/><path d="M58.78,103.78a4.59,4.59,0,0,1-.3-.93c0-.07.52-.3.55-.26a6,6,0,0,1,.47.87Z"/><path d="M85.44,156.66c.3.6.61.92.57,1.21s-.48.44-.77.52-.57-.3-.54-.4A6.79,6.79,0,0,1,85.44,156.66Z"/><path d="M166.09,87c-.33.47-.48.87-.76,1s-.54-.26-.81-.41c.18-.31.3-.71.57-.89S165.65,86.91,166.09,87Z"/><path d="M18.41,102.73l1.4.88-.26.56-1.59-.6Z"/><path d="M222.47,108.41c.18.31.42.58.37.67a.87.87,0,0,1-.59.39c-.17,0-.36-.23-.54-.36Z"/><path d="M28.69,145.4l.57.41c-.14.18-.27.49-.42.51s-.38-.23-.57-.37Z"/><path d="M230.2,111.45c-.24.28-.41.6-.51.58a3.54,3.54,0,0,1-.83-.41c.14-.17.29-.49.42-.48A3.44,3.44,0,0,1,230.2,111.45Z"/><path d="M134.93,34l.63.52a3.13,3.13,0,0,1-.71.57c-.1,0-.34-.25-.52-.39Z"/><path d="M25,1.28a4.19,4.19,0,0,1-1,.06c-.1,0-.14-.38-.21-.59a4.74,4.74,0,0,1,1-.19C24.79.57,24.86,1,25,1.28Z"/><path d="M138.37-.62l.49.57-.81.4c-.1-.23-.27-.46-.26-.69S138.17-.53,138.37-.62Z"/><path d="M84.4,150.3l-.29.55-.6-.34.42-.74Z"/><path d="M225.54,113.12c-.2.09-.43.28-.59.23s-.21-.35-.32-.54c.2-.09.43-.28.6-.23S225.44,112.93,225.54,113.12Z"/><path d="M122.55,123.08l.83-.6c.1.2.3.42.26.59a.83.83,0,0,1-.47.51C123.05,123.61,122.83,123.32,122.55,123.08Z"/><path d="M156.87,220l.54.37c-.13.17-.25.46-.4.48s-.36-.21-.54-.34Z"/><path d="M187.9,134.68a3.43,3.43,0,0,1,.92-.31c.13,0,.27.31.41.49a3.69,3.69,0,0,1-.84.41C188.31,135.29,188.13,135,187.9,134.68Z"/><path d="M170.9,72.17c-.24.29-.42.62-.52.59a3.64,3.64,0,0,1-.85-.42c.14-.17.29-.5.42-.49A3.47,3.47,0,0,1,170.9,72.17Z"/><path d="M174.27,162.39c-.24.27-.38.55-.53.56a.93.93,0,0,1-.65-.29c-.07-.08.12-.55.14-.54A9.48,9.48,0,0,1,174.27,162.39Z"/><path d="M71.09,233.34l-.29.67-.83-.49c.17-.18.32-.46.52-.51S70.89,233.23,71.09,233.34Z"/><path d="M208.39,95.73l-.54-.31a3.43,3.43,0,0,1,.47-.41s.28.12.28.16A3.43,3.43,0,0,1,208.39,95.73Z"/><path d="M25.14,141.85l-2.09-.79.43-.72,1.64,1.54Z"/><path d="M41.19,175.39l-.35.55a3.94,3.94,0,0,1-.48-.45s.12-.3.17-.29A4.41,4.41,0,0,1,41.19,175.39Z"/><path d="M234.93,75.62a5.3,5.3,0,0,1-1,.23c-.08,0-.17-.38-.26-.58a7.36,7.36,0,0,1,1-.34A4.18,4.18,0,0,1,234.93,75.62Z"/><path d="M142.89,191.09l-.53-.44a5.51,5.51,0,0,1,.84-.44,3,3,0,0,1,.32.55Z"/><path d="M122,45.22a3.63,3.63,0,0,1-1,.29c-.14,0-.28-.31-.41-.48a3.64,3.64,0,0,1,.86-.42C121.64,44.59,121.81,44.93,122,45.22Z"/><path d="M227.54,43.84l-.57.3c-.09-.2-.28-.43-.23-.59s.35-.21.54-.32Z"/><path d="M44.62,39.69l-.91-1.05a4.13,4.13,0,0,1,1.09.05c.14,0,.18.42.27.65Z"/><path d="M54.84,186.75c-.13.17-.25.45-.4.47s-.35-.21-.53-.32c.13-.17.25-.45.4-.48S54.66,186.63,54.84,186.75Z"/><path d="M66.88,49.78c-.18.11-.38.34-.54.31s-.26-.31-.38-.48c.18-.11.38-.33.54-.31S66.76,49.61,66.88,49.78Z"/><path d="M138.67,102.25c-.37.09-.74.24-.79.17a4.09,4.09,0,0,1-.38-.9c.22-.05.55-.22.65-.13A3.58,3.58,0,0,1,138.67,102.25Z"/><path d="M201.48,101.8l-.51.41a4.84,4.84,0,0,1-.32-.57s.22-.22.28-.2A3.43,3.43,0,0,1,201.48,101.8Z"/></g></svg>