<?xml version="1.0" encoding="UTF-8"?>
<svg width="255px" height="253px" viewBox="0 0 255 253" version="1.1" xmlns="http://www.w3.org/2000/svg" xmlns:xlink="http://www.w3.org/1999/xlink">
    <!-- Generator: Sketch 49.2 (51160) - http://www.bohemiancoding.com/sketch -->
    <title>texture</title>
    <desc>Created with Sketch.</desc>
    <defs></defs>
    <g id="Bootstrap-4-Grid-System" stroke="none" stroke-width="1" fill="none" fill-rule="evenodd" opacity="0.3">
        <g id="Home" transform="translate(-225.000000, -770.000000)" fill="#000000" fill-rule="nonzero">
            <g id="texture" transform="translate(225.000000, 770.000000)">
                <g id="Group" opacity="0.16">
                    <path d="M0.48,115.61 C2.48,115.85 4.91,114.74 6.54,117.39 C4.54,118.87 2.4,117.68 0.48,118.01 L0.48,115.61 Z" id="Shape"></path>
                    <path d="M0.48,158.09 C1.77,158.2 3.31,158.09 3.43,159.9 C3.56,162 2,162 0.48,162.1 L0.48,158.09 Z" id="Shape"></path>
                    <path d="M0.48,204.57 L3.2,205.15 C2.47,206.75 1.39,206.15 0.48,206.15 L0.48,204.57 Z" id="Shape"></path>
                    <path d="M0.48,120.42 C2.15,121.22 2.16,122.02 0.48,122.82 L0.48,120.42 Z" id="Shape"></path>
                    <path d="M133,150.63 C137.14,148.15 140.56,150.26 144,150.42 C144.21,155.23 143,156.35 139.13,155.42 C136.56,154.81 134.69,153.3 133,150.63 Z" id="Shape"></path>
                    <path d="M11.56,223.33 C13.1,222.39 14.36,221.71 15.56,220.9 C18.23,219.04 19.47,218.95 22.14,220.59 C24.14,221.8 24.14,224.01 22.02,224.85 C18.7691217,226.050313 15.1761522,225.920966 12.02,224.49 C11.72,224.4 11.7,223.8 11.56,223.33 Z" id="Shape"></path>
                    <path d="M43.4,174.43 C44.76,169.7 48.55,168 51.47,165.52 C52.2384854,165.225889 53.1051176,165.358925 53.75,165.87 C54.16,166.42 54.17,168.03 53.75,168.26 C50.47,170.28 48,173.77 43.4,174.43 Z" id="Shape"></path>
                    <path d="M205.75,224.3 C205.98,226.85 206.45,229.3 204.48,230.52 C202.26,231.92 199.95,230.72 197.3,228.94 C200.2,227.3 201.85,224.49 205.75,224.3 Z" id="Shape"></path>
                    <path d="M35.45,216.58 C34.84,217.18 34.45,217.94 33.82,218.09 C33.0376435,218.219496 32.2343849,218.104245 31.52,217.76 C29.6,216.92 27.76,215.92 25.86,215.03 C24.86,214.54 23.91,213.92 24.35,212.63 C24.87,211.13 26.02,211.13 27.27,211.73 C29.64,212.87 32.02,213.99 34.36,215.19 C34.76,215.4 35,216 35.45,216.58 Z" id="Shape"></path>
                    <path d="M54.11,71.24 C53.2086557,71.3247762 52.3013443,71.3247762 51.4,71.24 C50.22,71.01 48.75,70.51 49.58,68.98 C50.218224,68.0817235 51.2692411,67.5693998 52.37,67.62 C54.678287,68.4906447 56.9265183,69.5128718 59.1,70.68 C59.2202993,71.3747624 59.0428244,72.088085 58.610989,72.6454761 C58.1791536,73.2028672 57.5327861,73.5529181 56.83,73.61 C55.83,73.61 54.83,72.45 53.83,71.81 L54.11,71.24 Z" id="Shape"></path>
                    <path d="M30.5,205.59 C31.4781369,205.221437 32.4805118,204.920725 33.5,204.69 C34.8156724,204.583895 35.9942996,203.835561 36.65,202.69 C37.4449371,200.973658 39.4459951,200.182031 41.2,200.89 C42.67,203.82 36.74,203.26 39.27,206.44 C36.09,207.59 33.32,206.93 30.5,205.59 Z" id="Shape"></path>
                    <path d="M216.12,143 C215.48,145.6 214.6,146.44 213.38,145.39 C211,143.32 208.64,143.33 205.46,145.27 C205.77,143.77 205.74,142.66 206.06,142.56 C207.592512,141.891157 209.238676,141.521195 210.91,141.47 C212.68,141.59 214.39,142.48 216.12,143 Z" id="Shape"></path>
                    <path d="M39.7,223.82 C38.89,225.52 38.38,226.82 37.7,227.94 C37.3750231,228.472182 36.8350052,228.837059 36.22,228.94 C35.69,228.94 34.74,228.41 34.69,228.02 C34.4830831,226.48695 34.4830831,224.93305 34.69,223.4 C34.75,222.96 36,222.3 36.56,222.4 C37.6567419,222.753731 38.710071,223.230077 39.7,223.82 Z" id="Shape"></path>
                    <path d="M43.5,46.92 C43.5,49.31 41.56,51.31 39.91,51.17 C39.3031714,51.1972431 38.7114899,50.9757601 38.2717095,50.5567419 C37.831929,50.1377236 37.5821127,49.5574361 37.58,48.95 C37.51,47.33 39.58,45.53 41.45,45.76 C42.28,45.85 43,46.64 43.5,46.92 Z" id="Shape"></path>
                    <path d="M254.82,243.68 C250.07,246.95 248.66,246.93 246.53,243.77 C249.49,241.44 250.84,241.4 254.82,243.68 Z" id="Shape"></path>
                    <path d="M175.46,65.24 C174.363995,65.803266 173.201556,66.2265819 172,66.5 C171.12357,66.4773238 170.308772,66.0439992 169.8,65.33 C169.396118,64.5491327 169.396118,63.6208673 169.8,62.84 C170.485866,62.2918367 171.388531,62.0957661 172.24,62.31 C173.397616,62.7529281 174.504027,63.3195448 175.54,64 L175.46,65.24 Z" id="Shape"></path>
                    <path d="M50.14,204.7 C50.48,207 49.8,208.46 48.14,208.96 C47.1134856,209.014589 46.1081163,208.654242 45.35,207.96 C44.04,206.96 44.35,205.43 46,204.96 C47.3670644,204.728396 48.7547008,204.64125 50.14,204.7 Z" id="Shape"></path>
                    <path d="M64.59,111.62 C67.2,109.01 69.14,108.84 72.42,111.09 C70.42,112.98 68.05,113.2 65.63,113.09 C65.28,113.09 64.95,112.09 64.63,111.55 L64.59,111.62 Z" id="Shape"></path>
                    <path d="M197.37,134.17 C200.37,132.73 202.83,133.09 205.37,133.62 C204.05,137.15 201.72,137.37 197.37,134.17 Z" id="Shape"></path>
                    <path d="M18.13,125.25 C18.58,122.87 19.67,121.89 21.63,122.4 C22.7179356,122.789341 23.763341,123.28859 24.75,123.89 C23.47,126.78 23.08,127.02 21.05,126.34 C20.05,126 19.05,125.6 18.05,125.23 L18.13,125.25 Z" id="Shape"></path>
                    <path d="M7.15,217.59 C5.15,217.31 3.46,217.8 3.42,215.74 C3.42,213.98 4.8,213.62 6.19,213.49 C7.91,213.33 9.87,214.59 9.41,215.61 C8.95,216.63 7.68,217.16 7.15,217.59 Z" id="Shape"></path>
                    <path d="M140,126.68 C141.11,126.14 141.93,125.41 142.72,125.42 C144.020665,125.511731 145.295892,125.82631 146.49,126.35 C147.046267,126.623916 147.423608,127.163514 147.49,127.78 C147.292124,128.361661 146.80827,128.800153 146.21,128.94 C143.894774,129.249349 141.574846,128.405059 140,126.68 Z" id="Shape"></path>
                    <path d="M75.12,113.73 L82.47,113.73 C81.31,116.19 79.7,117.23 77.7,116.81 C76.06,116.47 74.69,115.82 75.12,113.73 Z" id="Shape"></path>
                    <path d="M220.44,81.89 C222.94949,80.8100156 225.786498,80.7776132 228.32,81.8 C226.26,85.06 223.84,85.17 220.44,81.89 Z" id="Shape"></path>
                    <path d="M182.38,30.84 C183.38,27.84 184.45,27.02 186.72,27.54 C187.28,27.67 188.16,28.17 188.18,28.54 C188.225458,29.2867765 187.94451,30.0165112 187.41,30.54 C185.988818,31.7529405 183.935279,31.875418 182.38,30.84 Z" id="Shape"></path>
                    <path d="M95.35,80.58 C96.5903908,79.4589349 98.397179,79.2276022 99.88,80 C100.482947,80.1796878 100.966196,80.6326201 101.184518,81.2226784 C101.40284,81.8127366 101.330782,82.4711325 100.99,83 C100.769741,83.5841785 100.259525,84.0102588 99.6454376,84.1228415 C99.0313499,84.2354243 98.4031675,84.0180503 97.99,83.55 C97.0368822,82.6274931 96.1543999,81.6347006 95.35,80.58 Z" id="Shape"></path>
                    <path d="M124.79,108 C126.04,107 126.93,105.93 128.04,105.59 C128.74,105.38 129.95,106.12 130.58,106.78 C130.8,107.01 130.17,108.52 129.58,108.98 C128.18,110 126.65,110.14 124.79,108 Z" id="Shape"></path>
                    <path d="M77,78.26 C75.6113096,78.7015131 74.1991266,79.065409 72.77,79.35 C71.59,79.52 70.49,78.85 70.71,77.63 C70.9949415,76.7134925 71.7012014,75.9886468 72.61,75.68 C74.35,75.37 75.94,75.94 77,78.26 Z" id="Shape"></path>
                    <path d="M114.65,199.31 C113.482425,200.364859 112.253622,201.349904 110.97,202.26 C110.366981,202.462617 109.702574,202.350006 109.2,201.96 C108.828349,201.465411 108.706508,200.826668 108.87,200.23 C109.82,197.7 111.44,197.33 114.65,199.31 Z" id="Shape"></path>
                    <path d="M106.89,12.89 C108.250874,11.5382995 110.238693,11.0327269 112.08,11.57 C112.67,11.69 113.08,12.57 113.61,13.06 C113.06,13.54 112.61,14.31 111.96,14.46 C110.110903,14.8793803 108.178492,14.2809806 106.89,12.89 Z" id="Shape"></path>
                    <path d="M70,245.51 C69.46,247.88 68.46,249.22 66.61,249.62 C65.8924377,249.686088 65.1767987,249.474975 64.61,249.03 C64.41,248.87 64.61,247.68 65.01,247.33 C66.25,246.11 67.65,244.89 70,245.51 Z" id="Shape"></path>
                    <path d="M144.45,245.77 C145.76,245.29 146.74,245 147.67,244.58 C148.76,244.09 149.88,243.95 150.34,245.19 C150.622398,246.018382 150.504173,246.930931 150.02,247.66 C149.279902,248.062986 148.396605,248.107151 147.62,247.78 C146.499581,247.216273 145.437734,246.542988 144.45,245.77 Z" id="Shape"></path>
                    <path d="M37.89,80.1 C37,80.64 36.08,81.65 35.22,81.6 C34.1256607,81.4734243 33.1622736,80.819964 32.64,79.85 C32.27,78.42 33.64,77.85 34.91,78 C35.9191802,78.2440354 36.8959624,78.6065525 37.82,79.08 L37.89,80.1 Z" id="Shape"></path>
                    <path d="M59.59,139.94 C58.16,140.94 57.45,141.74 56.59,141.89 C55.24,142.13 54.1,141.33 54.39,139.89 C54.55,139.08 55.63,137.89 56.26,137.89 C57.17,137.89 58,138.89 59.59,139.94 Z" id="Shape"></path>
                    <path d="M110.79,116.58 C109.94,115.58 109.26,115.02 109.04,114.35 C108.74196,113.595016 108.74196,112.754984 109.04,112 C109.628074,111.594269 110.383229,111.518754 111.04,111.8 C111.844299,112.349394 112.392462,113.200489 112.56,114.16 C112.62,114.89 111.58,115.61 110.79,116.58 Z" id="Shape"></path>
                    <path d="M174.87,80.75 C176.79,78.07 176.79,78.07 180.67,80.19 C178.73,82.38 178.45,82.42 174.87,80.75 Z" id="Shape"></path>
                    <path d="M113.79,74.95 C112.21,75.79 111.33,76.64 110.52,76.58 C109.54881,76.3376098 108.684359,75.7823929 108.06,75 C107.890079,74.4354704 108.005745,73.8235573 108.37,73.36 C109.195695,73.0864814 110.079403,73.0381536 110.93,73.22 C111.64,73.34 112.24,74 113.79,74.95 Z" id="Shape"></path>
                    <path d="M66.7,181.58 C66.76,181.46 66.78,181.27 66.87,181.24 C69.24,180.24 71.04,180.5 71.61,181.97 C71.7498826,182.561844 71.5932248,183.184746 71.19,183.64 C69.95,184.7 68.23,183.87 66.7,181.58 Z" id="Shape"></path>
                    <path d="M227.88,242 C228.847164,242.937448 229.749257,243.939774 230.58,245 C230.65,245.09 229.58,246.43 228.91,246.5 C228.259234,246.644939 227.577653,246.496463 227.046138,246.093975 C226.514623,245.691488 226.186922,245.075688 226.15,244.41 C226.12,243.81 227,243.13 227.88,242 Z" id="Shape"></path>
                    <polygon id="Shape" points="142.67 2.05 149.12 2.05 146.62 6.05"></polygon>
                    <path d="M16.8,10.38 C17.3515396,9.3105632 18.0555628,8.32695191 18.89,7.46 C19.29,7.14 20.46,7.77 21.28,7.96 C21.07,8.74 21.1,9.9 20.6,10.23 C19.603919,10.722761 18.5382227,11.0600067 17.44,11.23 L16.8,10.38 Z" id="Shape"></path>
                    <path d="M65.1,50.63 C63.5,51.44 62.78,52.11 62.1,52.1 C61.4356786,52.1548308 60.7796849,51.9225086 60.2979445,51.4617966 C59.8162041,51.0010846 59.5548542,50.3561059 59.58,49.69 C59.58,49.28 60.76,48.45 61.18,48.57 C62.5475538,49.1339774 63.8598425,49.8235985 65.1,50.63 Z" id="Shape"></path>
                    <path d="M18.1,125.22 L18.97,127.22 C16.7845551,128.090722 14.326641,127.95539 12.25,126.85 C14,124.5 16.25,125.42 18.14,125.29 L18.1,125.22 Z" id="Shape"></path>
                    <path d="M83.36,129.38 C83.7384757,128.597236 84.2084224,127.862105 84.76,127.19 C85.54,126.43 86.76,125.79 87.4,127.11 C87.6150706,128.065674 87.3500167,129.066159 86.69,129.79 C86.08,130.34 84.85,130.19 83.89,130.35 L83.36,129.38 Z" id="Shape"></path>
                    <path d="M233,210 C235.73,209.81 237.38,211 238.91,213 C235.87,214 235.66,213.93 233,210 Z" id="Shape"></path>
                    <path d="M194.94,113.95 C192.7,115.87 191.02,115.32 189.23,113.82 C191.81,111.89 192,111.89 194.94,113.95 Z" id="Shape"></path>
                    <path d="M41.65,182.11 C41.65,181.85 41.53,181.55 41.65,181.34 C42.22,180.13 42.77,178.69 44.49,179.28 C45.1145951,179.654802 45.4948163,180.331596 45.49,181.06 C45.3131724,181.789501 44.7886115,182.385229 44.0873503,182.652947 C43.3860891,182.920665 42.5979853,182.826068 41.98,182.4 C41.8,182.35 41.74,182.21 41.65,182.11 Z" id="Shape"></path>
                    <path d="M152.74,243.08 C154.05,242.66 154.69,242.24 155.22,242.34 C156.072897,242.543478 156.875718,242.917674 157.58,243.44 C157.73,243.55 157.58,244.67 157.29,244.76 C156.486024,245.125821 155.597126,245.26417 154.72,245.16 C154.12,245 153.7,244.14 152.74,243.08 Z" id="Shape"></path>
                    <path d="M251.51,218.21 C250.279349,218.136046 249.057799,217.951977 247.86,217.66 C247.372303,217.293221 247.113909,216.696636 247.18,216.09 C247.484828,215.553256 248.03489,215.201516 248.65,215.15 C250,215.15 251.24,215.62 251.51,218.21 Z" id="Shape"></path>
                    <path d="M247.39,107.2 C248.2,108.2 249.18,108.84 249.12,109.4 C249.06,109.96 247.92,111.22 247.52,111.11 C246.7,110.9 246.05,109.99 245.33,109.37 L247.39,107.2 Z" id="Shape"></path>
                    <path d="M30.39,73.28 C30.18,75.28 28.77,75.5 27.57,75.73 C27.09,75.82 26.46,75.08 25.9,74.73 C26.7382675,73.8584234 27.6630283,73.074387 28.66,72.39 C29,72.21 29.85,73 30.39,73.28 Z" id="Shape"></path>
                    <path d="M11.38,205.65 C13.19,202.58 13.38,202.54 16.67,204.19 C15.38,206 13.61,205.54 11.38,205.65 Z" id="Shape"></path>
                    <path d="M248.85,228.1 C249.654102,228.980037 250.386442,229.923051 251.04,230.92 C251.14,231.1 250.1,232.23 250.04,232.17 C249.087802,231.657239 248.206959,231.021822 247.42,230.28 C247.841703,229.51873 248.3197,228.790035 248.85,228.1 Z" id="Shape"></path>
                    <polygon id="Shape" points="88.81 193.13 85.68 194.13 83.68 189.51 88.84 192"></polygon>
                    <path d="M183.32,195.7 C182.92,196 182.03,197.01 181.67,196.85 C180.86,196.49 180.3,195.55 179.67,194.85 C180.18,194.37 180.67,193.57 181.23,193.48 C182.33,193.28 183.27,193.78 183.32,195.7 Z" id="Shape"></path>
                    <path d="M183.23,20.64 L176.81,20.64 C179.24,18.17 179.9,18.14 183.23,20.64 Z" id="Shape"></path>
                    <path d="M163.82,163 C166.25,164.61 166.34,165.91 164.53,168.3 C162.58,166.69 163.78,164.79 163.82,163 Z" id="Shape"></path>
                    <path d="M50.2,58.11 C49.76,58.59 49.62,58.86 49.4,58.95 C48.16,59.5 46.83,59.95 45.96,58.47 C45.8806408,57.8687847 46.1145997,57.2687934 46.58,56.88 C48.05,56 49.3,56.35 50.2,58.11 Z" id="Shape"></path>
                    <path d="M152.43,188.61 C153.601035,188.776051 154.755393,189.043728 155.88,189.41 C156.21,189.54 156.46,190.66 156.26,191.1 C155.88027,191.564504 155.282736,191.792861 154.69,191.7 C153.710419,191.182122 152.779927,190.576297 151.91,189.89 L152.43,188.61 Z" id="Shape"></path>
                    <path d="M6.75,159.3 L5,157 C5.6,156.6 6.25,155.82 6.79,155.9 C7.51,156 8.13,156.75 8.79,157.23 L6.75,159.3 Z" id="Shape"></path>
                    <path d="M64.61,111.59 L57.61,112.79 C57.79,110.98 59.11,110.42 60.61,110.02 C62.35,109.56 63.74,109.86 64.55,111.62 L64.61,111.59 Z" id="Shape"></path>
                    <path d="M234.61,109.6 L239.38,109.6 C237.78,112.14 237.44,112.19 234.61,109.6 Z" id="Shape"></path>
                    <path d="M204.23,179.92 C201.87,181.34 200.51,182.92 197.99,181.59 C199.54,179.64 201,178.63 204.23,179.92 Z" id="Shape"></path>
                    <path d="M2.59,66.22 L8,66.22 C6.24,68.74 5.55,68.81 2.59,66.22 Z" id="Shape"></path>
                    <path d="M159.76,77.19 C160.69,74.81 161.97,73.91 164.49,74.74 C163.78,77.38 162.2,77.71 159.76,77.19 Z" id="Shape"></path>
                    <path d="M186.87,128.65 C188.008167,128.108739 189.201862,127.692958 190.43,127.41 C191.172367,127.493791 191.870801,127.804594 192.43,128.3 C192.567412,128.650263 192.526405,129.045416 192.32,129.36 C191.730948,129.819304 191.01577,130.087932 190.27,130.13 C189.082885,129.770792 187.941813,129.27409 186.87,128.65 Z" id="Shape"></path>
                    <path d="M193.68,212.17 C192.667354,212.895075 191.585411,213.518113 190.45,214.03 C189.737594,214.112519 189.035538,213.807277 188.61,213.23 C188.12,212.12 188.91,211.49 190.01,211.42 C191.11,211.35 192.29,211.42 193.43,211.42 L193.68,212.17 Z" id="Shape"></path>
                    <path d="M104.65,243.61 C105.05,241.55 105.76,240.38 107.22,240.32 C107.98,240.32 108.78,241.18 109.56,241.66 L109.35,242.59 L104.65,243.61 Z" id="Shape"></path>
                    <path d="M53.31,212 C53.31,212.13 53.31,212.29 53.31,212.38 C52.37,213.76 51.14,214.31 49.63,213.38 C49.3286928,212.982671 49.2461192,212.460956 49.41,211.99 C49.94,210.79 51.09,210.83 53.31,212 Z" id="Shape"></path>
                    <path d="M60.15,174 L66.01,172.9 C63.86,175.92 63,176.09 60.15,174 Z" id="Shape"></path>
                    <path d="M64.33,211.7 L64.33,208.29 C66.17,207.83 67.07,208.82 68.33,210.52 L64.33,211.7 Z" id="Shape"></path>
                    <path d="M189.3,12.52 C192.79,11.24 192.79,11.24 194.7,13.52 C192.76,14.75 191.31,13.79 189.3,12.52 Z" id="Shape"></path>
                    <path d="M101.23,15.81 C102.23,14.23 103.28,13.53 104.6,14.75 C104.991451,15.3718779 105.029376,16.1531305 104.7,16.81 C103.37,18 102.32,17.18 101.23,15.81 Z" id="Shape"></path>
                    <path d="M34,243.91 C36.83,243.12 38.51,243.17 39.84,245.41 C37.6,246.52 36.2,245.5 34,243.91 Z" id="Shape"></path>
                    <path d="M116.08,149.76 C117.6,147.12 119.08,147.76 120.96,149.06 C119.51,150.5 118.18,150.76 116.08,149.76 Z" id="Shape"></path>
                    <path d="M42.27,131.66 C44.45,131.42 46.38,131.85 47.53,134.47 L42,132.69 L42.27,131.66 Z" id="Shape"></path>
                    <polygon id="Shape" points="233.75 8.78 237.81 10.62 237.81 11.46 234.24 12.9"></polygon>
                    <path d="M224.9,130.39 C225.32,134.46 225.12,134.62 221.1,133.28 L224.9,130.39 Z" id="Shape"></path>
                    <path d="M161.11,91.09 C160.11,91.89 159.43,92.66 159.21,92.55 C158.41377,92.0499321 157.672943,91.4666563 157,90.81 C157.39,90.37 157.91,89.49 158.16,89.56 C159.191509,89.9711926 160.179681,90.4837023 161.11,91.09 Z" id="Shape"></path>
                    <path d="M212.54,237.62 C213.54,236.1 214.63,235.62 215.96,236.47 C216.287712,236.955469 216.340685,237.576009 216.1,238.11 C215,239.26 213.84,239.17 212.54,237.62 Z" id="Shape"></path>
                    <path d="M183.2,66.41 C183.89,67.41 184.45,67.87 184.49,68.41 C184.6,69.61 184,70.52 182.69,70.41 C182.21,70.36 181.36,69.49 181.44,69.29 C181.936494,68.2777224 182.525677,67.3136048 183.2,66.41 Z" id="Shape"></path>
                    <path d="M237.37,204.35 C239.66,202.48 239.66,202.48 241.83,203.3 C240.27,205.58 240.27,205.58 237.37,204.35 Z" id="Shape"></path>
                    <path d="M116.89,230.88 L111.89,234.55 C112.32,231.09 113.42,230.27 116.89,230.88 Z" id="Shape"></path>
                    <path d="M100.68,230.6 C100.476044,231.334186 100.180381,232.039744 99.8,232.7 C99.1061518,233.431007 98.3499619,234.100202 97.54,234.7 C97.47,234.75 96.71,234.13 96.74,234.06 C97.2270883,233.048957 97.8061975,232.084891 98.47,231.18 C98.71,230.85 99.4,230.9 100.68,230.6 Z" id="Shape"></path>
                    <path d="M10.34,98.91 C8.24,99.73 7.2,98.29 5,97.31 C6.5,96.72 7.16,96.2 7.73,96.31 C9.11123356,96.4379775 10.2067212,97.5292679 10.34,98.91 Z" id="Shape"></path>
                    <path d="M221.38,162.55 C222.47,160.94 223.49,160.22 224.83,161.39 C225.118519,161.905723 225.118519,162.534277 224.83,163.05 C223.71,164 222.52,164 221.38,162.55 Z" id="Shape"></path>
                    <path d="M104.52,90.53 C106.2,87.98 106.38,87.96 108.77,90.13 C107.36,91 106.08,91.67 104.52,90.53 Z" id="Shape"></path>
                    <path d="M58.2,203 C58.41,202.05 58.35,200.51 58.88,200.27 C60.21,199.67 61.41,200.27 61.95,202.5 L58.19,202.98 L58.2,203 Z" id="Shape"></path>
                    <path d="M184.06,104 C181.73,105.58 180.71,104.7 179.49,103.43 C181.45,101.44 182.52,102.45 184.06,104 Z" id="Shape"></path>
                    <path d="M90.53,10.85 C91.2,11.14 91.91,11.23 92.03,11.55 C92.3453042,12.4490512 92.5305097,13.3885482 92.58,14.34 C92.1948414,14.5891589 91.7485543,14.7275425 91.29,14.74 C90.7993884,14.0485105 90.4244953,13.2818372 90.18,12.47 C90.06,12.08 90.36,11.56 90.53,10.85 Z" id="Shape"></path>
                    <path d="M16.62,251.57 C18.07,250.04 19.15,249.39 20.87,250.57 C20.06,252.75 18.86,253 16.62,251.57 Z" id="Shape"></path>
                    <path d="M188.7,176.3 L193.7,175.58 C192.777099,177.284733 190.827653,178.161164 188.94,177.72 L188.7,176.3 Z" id="Shape"></path>
                    <path d="M64.28,154.78 L68.45,156.31 C67.64,157.2 67.2,158.12 66.7,158.16 C65,158.28 64.62,157 64.28,154.78 Z" id="Shape"></path>
                    <path d="M182.67,45.66 C181.937085,46.2832417 181.1188,46.798458 180.24,47.19 C179.88,47.28 179.31,46.57 178.84,46.19 C179.352006,45.5689119 179.955588,45.0293968 180.63,44.59 C180.95,44.48 181.62,45.1 182.67,45.66 Z" id="Shape"></path>
                    <path d="M253.71,2.15 C251.81,2.72 250.13,4.27 247.71,2.66 L253.51,1.33 L253.71,2.15 Z" id="Shape"></path>
                    <path d="M209.28,223.13 L214.46,222.2 C212.67,224.78 212.43,224.83 209.28,223.13 Z" id="Shape"></path>
                    <path d="M166.8,68 L162.14,67.21 C164.59,64.83 164.76,64.86 166.8,68 Z" id="Shape"></path>
                    <path d="M38,236.28 C36.2025468,237.005143 34.142218,236.415889 33,234.85 C34.7957056,234.09381 36.8756813,234.688683 38,236.28 Z" id="Shape"></path>
                    <path d="M190.13,240 L185.23,240 C187.05,238 187.15,238 190.13,240 Z" id="Shape"></path>
                    <path d="M152,225.74 L156,225.74 C155,226.87 154.55,227.9 154,227.93 C153.22,227.93 152.4,227.3 151.6,226.93 L152,225.74 Z" id="Shape"></path>
                    <path d="M63.93,26.53 C64.39,28.46 63.87,29.53 62.45,29.94 C62.15,30.03 61.26,29.27 61.22,28.86 C61.07,27.17 62.26,26.77 63.93,26.53 Z" id="Shape"></path>
                    <path d="M44.82,193.05 C42.71,192.75 41.74,192.05 41.82,190.05 C43.82,189.95 44.95,190.46 44.82,193.05 Z" id="Shape"></path>
                    <path d="M67.53,146.31 C68.27,144.18 69.63,143.76 71.76,143.99 C70.94,146.14 69.85,147.05 67.53,146.31 Z" id="Shape"></path>
                    <path d="M58.18,203 C57.7814446,203.676404 57.3229355,204.315639 56.81,204.91 C55.14,206.55 54.6,206.35 53.39,203.8 L58.2,203 L58.18,203 Z" id="Shape"></path>
                    <path d="M229.41,105.93 C229.41,106.26 229.46,106.42 229.41,106.5 C228.62,107.65 227.71,108.58 226.28,107.5 C226.012766,107.090401 225.978648,106.571039 226.19,106.13 C227.2,104.87 228.33,105.07 229.41,105.93 Z" id="Shape"></path>
                    <path d="M78.1,164.29 L82.85,163.83 C81.26,166.88 81.26,166.88 78.1,164.29 Z" id="Shape"></path>
                    <path d="M53.09,148.18 L57.76,147 C56.52,150.18 56.41,150.21 53.09,148.18 Z" id="Shape"></path>
                    <path d="M159.06,181.13 C156.06,182.07 156.06,182.07 154.99,179.7 C156.66,178.8 157.57,179.83 159.06,181.13 Z" id="Shape"></path>
                    <path d="M177.72,200.8 C175.55,201.73 174.39,200.08 172.93,199.14 C174.718243,198.481751 176.722558,199.176357 177.72,200.8 Z" id="Shape"></path>
                    <path d="M186.33,195.29 C187.42,194 188.5,193.83 189.52,194.78 C189.736111,195.339122 189.649208,195.970113 189.29,196.45 C188.08,197.28 187.11,196.78 186.33,195.29 Z" id="Shape"></path>
                    <path d="M87.39,211.85 C86.89,212.75 86.39,213.68 85.85,214.53 C85.85,214.6 84.73,214.27 84.62,213.95 C84.02,212.22 85.26,211.75 86.38,211.24 L87.39,211.85 Z" id="Shape"></path>
                    <path d="M177.9,121.43 C175.57,125.28 175.57,125.28 173,123.64 L177.9,121.43 Z" id="Shape"></path>
                    <path d="M53.39,203.76 L50.1,203.36 L49.82,202.46 C50.56,201.96 51.32,201.02 52.03,201.06 C53.72,201.14 53.26,202.7 53.37,203.8 L53.39,203.76 Z" id="Shape"></path>
                    <path d="M96.27,99.14 C95.1,100.83 94,100.49 93,99.23 C92.8600313,98.879576 92.9131069,98.481509 93.14,98.18 C94.62,97.22 95.54,97.9 96.27,99.14 Z" id="Shape"></path>
                    <path d="M54.46,170.65 C55.89,168.65 56.9,168.3 58.12,169.44 C58.35,169.65 58.12,170.36 58.12,170.83 L54.46,170.65 Z" id="Shape"></path>
                    <path d="M13.46,165.14 C13.88,165.9 14.46,166.73 14.39,166.84 C13.8896852,167.377098 13.2431032,167.756009 12.53,167.93 C12.24,167.93 11.81,167.1 11.44,166.64 L13.46,165.14 Z" id="Shape"></path>
                    <path d="M254.33,186.63 C252.04,187.78 250.65,186.53 249.12,185.63 L249.47,184.7 L254.33,186.63 Z" id="Shape"></path>
                    <path d="M171.69,85.87 C172.87,84.09 174.13,84.01 176.02,84.94 C174.66,86.36 173.57,87.23 171.69,85.87 Z" id="Shape"></path>
                    <path d="M14.27,78.29 C12.6,79.29 12.6,79.29 10.88,78.43 C12.06,76.55 13.19,77.23 14.27,78.29 Z" id="Shape"></path>
                    <path d="M114.26,225 C114.6,226.82 113.87,227.51 112.44,227.52 C112.066119,227.444465 111.758923,227.178986 111.63,226.82 C111.58,225.24 112.65,225 114.26,225 Z" id="Shape"></path>
                    <path d="M89.7,28.64 C89.18,30.92 87.85,31.04 85.88,31.16 C86.75,29.06 87.7,28.28 89.7,28.64 Z" id="Shape"></path>
                    <path d="M155.51,121.26 C157.32,120.26 158.32,120.59 159.27,122.06 C157.82,123.16 156.8,122.93 155.51,121.26 Z" id="Shape"></path>
                    <path d="M222.2,166.79 L217.79,166.79 C219,164.47 219,164.47 222.2,166.79 Z" id="Shape"></path>
                    <path d="M111.24,169.07 L108.15,166.86 C110.69,165.72 111.51,166.55 112.05,167.86 L111.24,169.07 Z" id="Shape"></path>
                    <path d="M202.54,124.07 L198.34,126.07 C198.93,123.96 200.41,123.47 201.99,123.13 L202.54,124.07 Z" id="Shape"></path>
                    <path d="M213.16,2.07 C215.23,0.84 216.16,1.41 216.8,3.18 C215.13,4 214.15,3.64 213.16,2.07 Z" id="Shape"></path>
                    <path d="M50.95,139.19 C50.14,139.64 49.57,140.19 49.18,140.11 C48.6391586,139.874653 48.260147,139.374358 48.18,138.79 C48.370523,138.264744 48.8289982,137.882681 49.38,137.79 C49.87,137.86 50.26,138.53 50.95,139.19 Z" id="Shape"></path>
                    <path d="M164.84,133.59 C163.84,132.23 163.95,131.28 165.38,130.68 C165.753037,130.62032 166.130601,130.756243 166.38,131.04 C167.05,132.54 166.11,133.08 164.84,133.59 Z" id="Shape"></path>
                    <path d="M206.25,159.52 C208.25,157.96 209.15,158.13 209.74,159.27 C209.9,159.58 209.52,160.17 209.39,160.63 L206.25,159.52 Z" id="Shape"></path>
                    <path d="M159.81,80.67 C157.33,80.85 156.09,80.4 155.06,78.67 C157.08,78.16 158.19,78.94 159.81,80.67 Z" id="Shape"></path>
                    <path d="M32.5,226.18 C31.7711185,226.802078 30.9879906,227.35763 30.16,227.84 C29.98,227.92 29.45,227.25 29.08,226.93 C29.6242115,226.292575 30.2195195,225.700612 30.86,225.16 C31,225.07 31.61,225.62 32.5,226.18 Z" id="Shape"></path>
                    <path d="M123.11,195.49 L119.52,195.68 C120.75,193.35 121.78,193.11 123.08,194.3 L123.11,195.49 Z" id="Shape"></path>
                    <path d="M29.62,63.92 C28.05,65.31 27.02,65.15 25.87,63.79 C27.07,62.4 28.11,62.64 29.62,63.92 Z" id="Shape"></path>
                    <path d="M19,91.36 C19.45,92.23 20,92.81 19.89,93.2 C19.78,93.59 19.06,93.97 18.61,94.35 C18.28,93.89 17.67,93.42 17.69,92.98 C17.71,92.54 18.4,92.11 19,91.36 Z" id="Shape"></path>
                    <path d="M238.73,249.23 C237.73,250.58 236.66,250.42 235.38,249.78 C236.77,248.06 236.77,248.06 238.73,249.23 Z" id="Shape"></path>
                    <path d="M147.32,14.79 C145.32,15.84 145.32,15.84 143.68,14.91 C144.67,13.46 145.72,13.68 147.32,14.79 Z" id="Shape"></path>
                    <path d="M17.94,13.38 C17.41,14.65 16.79,15.44 15.58,14.71 C15.2509937,14.351488 15.1334141,13.8470335 15.27,13.38 C16,12.16 16.86,12.37 17.94,13.38 Z" id="Shape"></path>
                    <path d="M11,133.89 C13.86,135.51 11.65,136.8 12.27,138.63 C9.49,136.88 11,135.61 11,133.89 Z" id="Shape"></path>
                    <path d="M182.7,246.07 C181.49,247.22 180.59,247.19 179.55,245.86 C180.76,244.52 181.66,244.57 182.7,246.07 Z" id="Shape"></path>
                    <path d="M85.62,147.24 C84.43,148.63 83.42,148.69 82.09,147.44 C83.24,145.74 84.27,145.93 85.62,147.24 Z" id="Shape"></path>
                    <path d="M167.57,96.49 C168.14,98 167.4,99 165.1,100 L166.47,96 L167.57,96.49 Z" id="Shape"></path>
                    <path d="M57.74,217.72 L61.86,215.8 C61.05,218.21 61.05,218.21 57.74,217.72 Z" id="Shape"></path>
                    <path d="M11.08,89.78 L14.42,90.91 C12.71,92.25 12.71,92.25 11.08,89.78 Z" id="Shape"></path>
                    <path d="M177.61,225.41 C177.078835,225.838148 176.48085,226.175993 175.84,226.41 C175.61,226.41 174.97,225.53 175.05,225.41 C175.366328,224.924846 175.823425,224.548002 176.36,224.33 C176.56,224.22 177,224.85 177.61,225.41 Z" id="Shape"></path>
                    <polygon id="Shape" points="151.18 106 153.4 105.67 153.54 107.03 151.26 107.03"></polygon>
                    <path d="M244.13,53.79 L247.51,54.79 C245.45,56.42 244.64,55.55 243.82,54.69 L244.13,53.79 Z" id="Shape"></path>
                    <path d="M33.77,169.3 L32.9,172.22 C31.44,170.58 31.8,169.76 32.72,169.02 L33.77,169.3 Z" id="Shape"></path>
                    <path d="M180.52,170.85 L177.19,171.01 C178.17,169 179.3,169.24 180.52,170.85 Z" id="Shape"></path>
                    <path d="M24.43,152.47 C23.72,152.99 23.22,153.57 22.98,153.47 C22.47,153.27 22.1,152.72 21.67,152.31 C22,151.97 22.39,151.31 22.67,151.31 C23.18,151.46 23.64,151.94 24.43,152.47 Z" id="Shape"></path>
                    <polygon id="Shape" points="133.47 191.31 136.01 192.01 135.79 193.14 133.18 192.78"></polygon>
                    <path d="M38.22,37.6 L42.3,36.48 C41,38.5 41,38.5 38.22,37.6 Z" id="Shape"></path>
                    <path d="M180.66,115.9 L182.41,118.08 C180.48,118.41 179.9,117.68 180.66,115.9 Z" id="Shape"></path>
                    <path d="M219.34,115.1 L222.82,114.31 C221.11,116.13 221.11,116.13 219.34,115.1 Z" id="Shape"></path>
                    <path d="M11.89,103.85 L14.63,104.85 C12.97,106.24 12.21,105.85 11.57,104.79 L11.89,103.85 Z" id="Shape"></path>
                    <path d="M78.06,143.7 C77.339733,143.948806 76.5958375,144.123052 75.84,144.22 C75.61,144.22 75.37,143.7 75.13,143.42 C75.5636072,143.023803 76.064915,142.708792 76.61,142.49 C76.89,142.43 77.3,143 78.06,143.7 Z" id="Shape"></path>
                    <path d="M128.79,252.28 C128.98,250.94 129.7,250.45 130.93,250.94 C131.227915,251.180284 131.37316,251.562508 131.31,251.94 C130.69,253.12 129.83,253.21 128.78,252.31" id="Shape"></path>
                    <path d="M186.14,252.62 L182.59,251.62 C184.59,250.37 185.53,250.71 186.4,251.62 L186.14,252.62" id="Shape"></path>
                    <polygon id="Shape" points="223 39.18 225.71 40.98 225.12 41.98 222.29 40.41"></polygon>
                    <path d="M82.65,39.59 L85.65,40.86 C83.74,42.09 82.89,41.49 82.13,40.56 L82.65,39.59 Z" id="Shape"></path>
                    <path d="M102,48.55 C101.12,49.11 100.67,49.55 100.15,49.67 C99.82,49.72 99.4,49.18 99.02,48.91 C99.44,48.52 99.81,47.96 100.31,47.79 C100.57,47.67 101.08,48.13 102,48.55 Z" id="Shape"></path>
                    <path d="M191.66,102.9 C191.07,103.44 190.66,104.07 190.42,104 C189.886752,103.77953 189.438163,103.394023 189.14,102.9 C189.05,102.74 189.71,101.84 189.89,101.9 C190.524096,102.148428 191.119968,102.485079 191.66,102.9 Z" id="Shape"></path>
                    <path d="M37.07,94.69 L34.3,95.17 C34.3,94.45 34.24,94.11 34.37,93.98 C35.26,93.11 36.07,93.08 37.07,94.69 Z" id="Shape"></path>
                    <path d="M148.81,64.74 L145.65,66.58 C146.41,64.41 146.41,64.41 148.46,64.02 L148.81,64.74 Z" id="Shape"></path>
                    <path d="M128,65.6 C128.2,63.97 128.78,63.17 130.5,63.14 C130.49,64.92 129.68,65.49 128,65.6 Z" id="Shape"></path>
                    <path d="M26.12,160.3 C25.81,161.47 25.62,162.21 25.37,162.93 C25.37,162.93 24.51,162.87 24.37,162.67 C23.88,161.52 24.31,160.81 26.12,160.3 Z" id="Shape"></path>
                    <path d="M175.78,235.23 C178.05,234.31 178.87,234.97 179.04,236.92 L175.78,235.23 Z" id="Shape"></path>
                    <path d="M79,231.94 C78.25,232.02 77.51,232.13 76.76,232.14 C76.6456683,231.819331 76.5914287,231.480333 76.6,231.14 C77.3,230.89 78.03,230.72 78.75,230.54 L79,231.94 Z" id="Shape"></path>
                    <polygon id="Shape" points="125.83 213.35 122.72 213.16 122.72 212.34 125.9 212.34"></polygon>
                    <path d="M73.58,4.26 L76.18,2.73 C76.41,3.34 76.63,3.61 76.57,3.8 C76.11,5.35 75.25,5.52 73.58,4.26 Z" id="Shape"></path>
                    <path d="M26.12,142.88 L29.32,142.72 C27.74,145.11 27.74,145.11 26.15,142.86 L26.12,142.88 Z" id="Shape"></path>
                    <path d="M231.78,191.3 L229.29,191.3 C230.24,190 230.24,190 231.78,191.3 Z" id="Shape"></path>
                    <path d="M194.09,222.39 L193.26,223.39 L191.73,222.1 C191.99,221.85 192.34,221.34 192.48,221.4 C193.047799,221.676467 193.587057,222.00806 194.09,222.39 Z" id="Shape"></path>
                    <path d="M57.93,157 L54.93,156.68 L54.9,156 C55.3905531,155.830922 55.9019932,155.72998 56.42,155.7 C56.9868205,155.800156 57.5403885,155.964549 58.07,156.19 L57.93,157 Z" id="Shape"></path>
                    <path d="M30.46,57.46 L29.24,58.85 C28.92,58.53 28.24,58.05 28.34,57.93 C28.6366272,57.4383739 29.0274397,57.0101793 29.49,56.67 C29.55,56.63 30,57.08 30.46,57.46 Z" id="Shape"></path>
                    <path d="M21.39,55.88 C21.079232,56.0963019 20.7434649,56.2742584 20.39,56.41 C19.8,56.57 19.19,56.63 18.39,56.78 C18.45,56.2 18.39,55.71 18.54,55.57 C19.37,54.93 20.27,54.49 21.39,55.88 Z" id="Shape"></path>
                    <path d="M14,198.72 C13.29,198.79 12.59,198.88 11.88,198.91 C11.7660484,198.718051 11.6976284,198.502528 11.68,198.28 C12.33,197.95 13,197.67 13.68,197.37 L14,198.72 Z" id="Shape"></path>
                    <path d="M250.56,163.31 C251.00206,163.168352 251.466726,163.110693 251.93,163.14 C252.34,163.25 252.66,163.68 253.37,164.26 C252.53,164.54 252.08,164.83 251.69,164.78 C251.23604,164.629865 250.812676,164.399555 250.44,164.1 L250.56,163.31 Z" id="Shape"></path>
                    <path d="M153.05,129.16 L150.68,128.16 C152.24,127.33 152.24,127.33 153.05,129.16 Z" id="Shape"></path>
                    <path d="M181,128.87 C180.652018,128.240702 180.338229,127.593095 180.06,126.93 C180.30682,126.705529 180.591137,126.526139 180.9,126.4 C181.36,126.96 181.76,127.57 182.17,128.17 L181,128.87 Z" id="Shape"></path>
                    <path d="M173.65,108.76 C174.36,108.59 175.07,108.41 175.79,108.3 C175.902228,108.62693 175.99243,108.961012 176.06,109.3 L173.88,109.79 L173.65,108.76 Z" id="Shape"></path>
                    <polygon id="Shape" points="194.18 36.19 194.65 38.5 193.65 38.73 193 36.48"></polygon>
                    <path d="M191.06,4.09 C193.41,3.55 194.16,4.09 194.85,6.49 L191.06,4.09 Z" id="Shape"></path>
                    <path d="M59,136.49 L57.8,134.49 L58.24,133.87 C58.7454723,134.012944 59.2248512,134.235754 59.66,134.53 C59.92,134.77 59.89,135.31 60,135.72 L59,136.49 Z" id="Shape"></path>
                    <path d="M14.29,23.06 L17.29,23.38 L17.35,23.97 C16.8531174,24.1228816 16.3391981,24.2135733 15.82,24.24 C15.2558181,24.1479232 14.7028111,23.9971031 14.17,23.79 L14.29,23.06 Z" id="Shape"></path>
                    <path d="M50.76,5.31 C49.76,5.31 49.24,5.48 48.97,5.31 C48.7,5.14 48.69,4.51 48.57,4.09 C48.91,4.03 49.35,3.8 49.57,3.94 C49.79,4.08 50.16,4.55 50.76,5.31 Z" id="Shape"></path>
                    <polygon id="Shape" points="97.35 229 95.23 229 95.23 228.32 97.31 228.06"></polygon>
                    <polygon id="Shape" points="91.55 239.07 88.87 240.07 88.53 239.07 91.26 238.23"></polygon>
                    <path d="M97.82,91 C98.27,91.41 98.82,91.67 98.9,92.05 C98.97,92.28 98.4,92.69 98.12,93.05 C97.7409717,92.7657288 97.4042712,92.4290283 97.12,92.05 C97,91.9 97.47,91.46 97.82,91 Z" id="Shape"></path>
                    <path d="M146.1,182.57 C145.69,182.87 145.39,183.26 145.1,183.23 C144.81,183.2 144.61,182.78 144.36,182.53 C144.61,182.29 144.85,181.87 145.11,181.86 C145.37,181.85 145.7,182.24 146.1,182.57 Z" id="Shape"></path>
                    <polygon id="Shape" points="234.56 180.9 236.56 180.78 236.67 181.48 234.67 181.93"></polygon>
                    <path d="M138.56,184.79 C138.93,185.32 139.35,185.79 139.28,185.87 C139.023061,186.222637 138.678305,186.501889 138.28,186.68 C138.18,186.68 137.61,186.12 137.67,185.97 C137.906573,185.534749 138.206516,185.137072 138.56,184.79 Z" id="Shape"></path>
                    <path d="M193.28,197.16 C193.02,196.57 192.7,196.16 192.8,195.99 C192.98435,195.653321 193.30517,195.412706 193.68,195.33 C193.92,195.33 194.21,195.7 194.48,195.91 L193.28,197.16 Z" id="Shape"></path>
                    <path d="M214.24,197.79 C213.82,198.1 213.53,198.5 213.24,198.48 C212.95,198.46 212.75,198.03 212.5,197.78 C212.75,197.54 213,197.12 213.27,197.1 C213.54,197.08 213.83,197.48 214.24,197.79 Z" id="Shape"></path>
                    <polygon id="Shape" points="38.41 54.5 36.88 52.82 37.42 52.22 39.15 53.7"></polygon>
                    <polygon id="Shape" points="193.47 52.07 191.47 51.64 191.57 50.95 193.57 51.04"></polygon>
                    <path d="M205,194.51 C204.757361,193.997345 204.579332,193.456539 204.47,192.9 C204.47,192.76 205.13,192.4 205.32,192.49 C205.635829,192.68566 205.839959,193.019691 205.87,193.39 C205.88,193.66 205.49,193.92 205,194.51 Z" id="Shape"></path>
                    <path d="M210.21,201.76 C209.67,202.2 209.34,202.65 209.15,202.59 C208.734759,202.399359 208.353148,202.1427 208.02,201.83 C208.26,201.58 208.52,201.12 208.75,201.13 C209.266774,201.2619 209.759499,201.474514 210.21,201.76 Z" id="Shape"></path>
                    <path d="M156.5,34.47 C156.214301,33.9101136 155.992892,33.3196889 155.84,32.71 C155.84,32.49 156.35,31.98 156.44,32.02 C156.869945,32.2156597 157.254695,32.4982642 157.57,32.85 C157.260384,33.4196456 156.902401,33.9616384 156.5,34.47 Z" id="Shape"></path>
                    <path d="M210.2,23.11 C209.751332,23.4035452 209.25837,23.6230147 208.74,23.76 C208.51,23.76 208.26,23.29 208.02,23.02 C208.360535,22.7018988 208.748513,22.4387482 209.17,22.24 C209.35,22.19 209.68,22.65 210.2,23.11 Z" id="Shape"></path>
                    <path d="M177.37,158.15 C177.02,157.61 176.61,157.15 176.68,157.05 C176.967499,156.683383 177.34223,156.394599 177.77,156.21 C177.86,156.21 178.45,156.81 178.38,156.96 C178.101837,157.402826 177.761722,157.803556 177.37,158.15 Z" id="Shape"></path>
                    <path d="M206.17,75.86 C205.17,76.22 204.68,76.56 204.31,76.48 C203.94,76.4 203.75,75.85 203.47,75.48 C203.79,75.3 204.13,74.94 204.47,74.97 C205.074835,75.1872229 205.646875,75.4867027 206.17,75.86 Z" id="Shape"></path>
                    <polygon id="Shape" points="49.19 155.4 50.45 153.62 51.13 154.13 49.8 155.85"></polygon>
                    <polygon id="Shape" points="101.47 153.38 99.62 154.76 99.09 154.17 100.81 152.58"></polygon>
                    <polygon id="Shape" points="140 89.34 142.09 88.81 142.32 89.47 140.14 90.26"></polygon>
                    <polygon id="Shape" points="60.81 149.9 62.81 150.29 62.76 150.96 60.62 150.96"></polygon>
                    <polygon id="Shape" points="220.64 90.16 218.26 90.7 218.08 89.94 220.45 89.37"></polygon>
                    <polygon id="Shape" points="107.73 215.19 105.9 216.19 105.48 215.52 107.25 214.36"></polygon>
                    <polygon id="Shape" points="85.33 247.59 83.4 247.47 83.4 246.78 85.34 246.57"></polygon>
                    <path d="M79.43,247.27 C79.76,247.68 80.16,247.97 80.15,248.27 C80.051782,248.609239 79.781906,248.871513 79.44,248.96 C79.0917498,248.872821 78.8169527,248.605657 78.72,248.26 C78.69,248 79.11,247.67 79.43,247.27 Z" id="Shape"></path>
                    <path d="M76.93,87.43 C76.71,86.93 76.4,86.52 76.5,86.35 C76.7375887,86.1017986 77.0576293,85.9488903 77.4,85.92 C77.49,85.92 77.81,86.37 77.75,86.49 C77.5169766,86.8363341 77.2415001,87.1521243 76.93,87.43 Z" id="Shape"></path>
                    <path d="M166,248.72 C165.476432,248.866823 164.945749,248.986978 164.41,249.08 C164.34,249.08 164.21,248.7 164.1,248.5 L165.88,248.05 L166,248.72 Z" id="Shape"></path>
                    <polygon id="Shape" points="209.07 248.64 207 249 206.81 248.36 208.81 247.79"></polygon>
                    <path d="M177.15,118.42 C176.68275,118.664137 176.189693,118.855322 175.68,118.99 C175.444925,118.778045 175.310511,118.47652 175.31,118.16 C175.484097,117.847846 175.795611,117.636461 176.15,117.59 C176.38,117.57 176.63,118 177.15,118.42 Z" id="Shape"></path>
                    <path d="M178.52,136.84 C177.93,136.84 177.52,136.96 177.25,136.84 C176.98,136.72 176.83,136.25 176.62,135.94 C177.010014,135.781149 177.429103,135.70619 177.85,135.72 C178.09,135.76 178.21,136.28 178.52,136.84 Z" id="Shape"></path>
                    <path d="M81.62,138 L80.71,137.25 C80.9456203,137.0225 81.215593,136.833519 81.51,136.69 C81.7401061,136.709123 81.9511134,136.825541 82.09,137.01 C81.9717238,137.356894 81.8140253,137.689068 81.62,138 Z" id="Shape"></path>
                    <polygon id="Shape" points="212.69 78 211.13 78.5 210.91 77.58 212.57 77.32"></polygon>
                    <polygon id="Shape" points="170.94 78.88 169.21 79.43 168.99 78.78 170.72 78.22"></polygon>
                    <path d="M191.1,79.13 L192.1,79.98 C191.771087,80.2865108 191.41645,80.5641984 191.04,80.81 C190.94,80.87 190.46,80.51 190.48,80.46 C190.659501,80.0045026 190.86655,79.5603486 191.1,79.13 Z" id="Shape"></path>
                    <path d="M74.47,82.55 C74.1729634,82.8506421 73.8365719,83.1096635 73.47,83.32 C73.3,83.38 73.02,83.15 72.79,83.05 C72.92,82.75 73,82.26 73.2,82.21 C73.4,82.16 73.85,82.36 74.47,82.55 Z" id="Shape"></path>
                    <polygon id="Shape" points="199 108.06 196.76 108.33 196.67 107.69 198.91 107.34"></polygon>
                    <path d="M27.32,92.64 C26.93,92.96 26.66,93.34 26.4,93.34 C26.0828062,93.2434214 25.8421196,92.9836327 25.77,92.66 C25.8656467,92.3320686 26.1220686,92.0756467 26.45,91.98 C26.66,91.94 26.94,92.33 27.32,92.64 Z" id="Shape"></path>
                    <polygon id="Shape" points="199.25 99.25 200.9 98.85 201.12 99.4 199.57 100.17"></polygon>
                    <polygon id="Shape" points="219.9 100.47 218.35 100.98 218.13 100.06 219.74 99.79"></polygon>
                    <polygon id="Shape" points="103.88 102.83 101.8 102 102.06 101.32 104.15 102.14"></polygon>
                    <polygon id="Shape" points="50.35 102.33 52.19 102.74 52.13 103.27 50.28 103.27"></polygon>
                    <path d="M126.25,33.42 C125.9,33.48 125.51,33.68 125.25,33.57 C124.99,33.46 125.04,33 124.94,32.69 C125.162219,32.5798893 125.40298,32.5120694 125.65,32.49 C126.016174,32.5664058 126.3744,32.6768868 126.72,32.82 L126.25,33.42 Z" id="Shape"></path>
                    <path d="M39.15,16 C38.7,16.2 38.15,16.53 38.15,16.44 C37.8638002,16.091455 37.6281496,15.7043147 37.45,15.29 C37.79,15.2 38.18,14.97 38.45,15.07 C38.72,15.17 38.85,15.56 39.15,16 Z" id="Shape"></path>
                    <path d="M185.34,15 C185.02,14.59 184.64,14.32 184.65,14.06 C184.66,13.8 185.11,13.4 185.32,13.43 C185.654225,13.5245578 185.915442,13.7857753 186.01,14.12 C186,14.36 185.65,14.65 185.34,15 Z" id="Shape"></path>
                    <path d="M96.39,60.26 C95.72,60.52 95.26,60.82 95.14,60.72 C94.8202021,60.3890413 94.5476286,60.0155147 94.33,59.61 C94.54,59.5 94.82,59.25 94.95,59.31 C95.4532659,59.5899068 95.9346391,59.9074793 96.39,60.26 Z" id="Shape"></path>
                    <path d="M41.45,57 L39.84,57.21 C39.84,56.99 39.76,56.61 39.84,56.57 C40.3327392,56.3530387 40.836802,56.1627633 41.35,56 L41.45,57 Z" id="Shape"></path>
                    <path d="M110.28,60.29 L111.09,61.6 C110.77,61.74 110.42,62.05 110.15,61.98 C109.808073,61.8563047 109.544788,61.5781872 109.44,61.23 C109.39,61 109.84,60.75 110.28,60.29 Z" id="Shape"></path>
                    <polygon id="Shape" points="106.14 46.22 104.48 45.5 104.75 44.87 106.42 45.58"></polygon>
                    <polygon id="Shape" points="145 41.75 143.17 41.46 143.17 40.87 145 40.87"></polygon>
                    <path d="M32.44,53.67 L31.27,54.26 C31.0864513,53.9787276 30.9449586,53.6721601 30.85,53.35 C30.85,53.24 31.28,52.91 31.43,52.96 C31.7992834,53.1464899 32.1395053,53.3856558 32.44,53.67 Z" id="Shape"></path>
                    <path d="M195.08,48.82 C194.67,49.14 194.4,49.52 194.08,49.52 C193.76,49.52 193.4,49.06 193.43,48.86 C193.521545,48.5219336 193.783286,48.2563995 194.12,48.16 C194.4,48.13 194.7,48.52 195.08,48.82 Z" id="Shape"></path>
                    <polygon id="Shape" points="119 184.73 121.14 184.47 121.23 185.18 119.1 185.53"></polygon>
                    <path d="M5.1,231.21 L5.63,232.31 C5.35333827,232.470018 5.05288364,232.584798 4.74,232.65 C4.62,232.65 4.32,232.23 4.36,232.1 C4.56126822,231.768351 4.81065275,231.468415 5.1,231.21 Z" id="Shape"></path>
                    <path d="M5.22,151.71 C4.79,152.02 4.36,152.33 3.91,152.61 C3.91,152.61 3.65,152.25 3.51,152.06 L4.84,151.12 L5.22,151.71 Z" id="Shape"></path>
                    <path d="M107.14,155.31 L107.96,155.65 C107.824145,155.971245 107.653101,156.276442 107.45,156.56 C107.222849,156.541105 107.006723,156.453957 106.83,156.31 C106.898054,155.966737 107.001957,155.631567 107.14,155.31 Z" id="Shape"></path>
                    <polygon id="Shape" points="9.64 239.28 7 239.66 6.89 239 9.52 238.41"></polygon>
                    <path d="M224.83,234.54 C225.3,234.94 225.73,235.13 225.83,235.4 C225.93,235.67 225.51,235.97 225.26,236.18 C225.21,236.18 224.71,235.95 224.68,235.78 C224.671455,235.36167 224.721952,234.944226 224.83,234.54 Z" id="Shape"></path>
                    <path d="M101.81,202.81 C101.6,202.31 101.29,201.91 101.39,201.73 C101.49,201.55 101.96,201.36 102.29,201.3 C102.38,201.3 102.7,201.75 102.64,201.86 C102.404551,202.210438 102.125665,202.529645 101.81,202.81 Z" id="Shape"></path>
                    <path d="M173.58,205.7 C173.22,205.78 172.83,205.97 172.58,205.88 C172.33,205.79 172.38,205.31 172.29,205 C172.645703,204.93172 173.008119,204.904874 173.37,204.92 C173.43,204.94 173.48,205.35 173.58,205.7 Z" id="Shape"></path>
                    <path d="M215.84,205.79 C216.13,206.17 216.51,206.47 216.48,206.69 C216.371925,207.011311 216.108425,207.255989 215.78,207.34 C215.56,207.34 215.13,206.92 215.13,206.68 C215.13,206.44 215.52,206.17 215.84,205.79 Z" id="Shape"></path>
                    <path d="M221.26,214.26 C220.869619,214.6843 220.42982,215.060312 219.95,215.38 C219.82,215.44 219.46,215.03 219.2,214.83 C219.43,214.55 219.61,214.17 219.91,214.04 C220.21,213.91 220.52,214.13 221.26,214.26 Z" id="Shape"></path>
                    <path d="M16.52,228.14 C15.91,228.41 15.52,228.72 15.34,228.63 C15.0136166,228.455319 14.7771845,228.149776 14.69,227.79 C14.69,227.58 15.05,227.3 15.25,227.05 L16.52,228.14 Z" id="Shape"></path>
                    <path d="M134.14,223.19 L133.32,224.19 C133.048896,223.998711 132.806456,223.76974 132.6,223.51 C132.55,223.42 132.83,222.96 132.99,222.94 C133.38388,222.963906 133.771744,223.048225 134.14,223.19 Z" id="Shape"></path>
                    <polygon id="Shape" points="135.1 138.83 133.03 138.33 133.14 137.71 135.31 138.07"></polygon>
                    <path d="M163.42,145.15 C162.89,145.55 162.56,145.97 162.42,145.91 C162.009381,145.716513 161.631495,145.460091 161.3,145.15 C161.54,144.9 161.8,144.42 162.01,144.45 C162.511507,144.613605 162.986497,144.849415 163.42,145.15 Z" id="Shape"></path>
                    <path d="M165.3,50.61 C164.93,51.02 164.72,51.45 164.49,51.46 C164.26,51.47 163.95,51.11 163.76,50.85 C163.76,50.79 164,50.32 164.15,50.31 C164.545566,50.3552496 164.932738,50.456251 165.3,50.61 Z" id="Shape"></path>
                    <path d="M47.45,51 C46.97,51.21 46.61,51.5 46.45,51.42 C46.29,51.34 46.11,50.9 46.06,50.59 C46.06,50.5 46.48,50.2 46.6,50.25 C46.9149751,50.4616718 47.2007568,50.7138321 47.45,51 Z" id="Shape"></path>
                    <path d="M222.2,230.94 L221.5,231.54 C221.38,231.36 221.11,231.11 221.15,231 C221.311659,230.733328 221.510302,230.490917 221.74,230.28 L222.2,230.94 Z" id="Shape"></path>
                    <path d="M56.13,83.46 L55.22,82.66 C55.4458631,82.4423001 55.7060037,82.2632423 55.99,82.13 C56.14,82.13 56.56,82.37 56.54,82.48 C56.450273,82.8243807 56.3122363,83.1543221 56.13,83.46 Z" id="Shape"></path>
                    <polygon id="Shape" points="243.43 68.2 245.15 67.58 245.38 68.19 243.67 68.83"></polygon>
                    <path d="M34.18,66.08 L33.82,66.86 C33.5185627,66.7441975 33.2302788,66.5967034 32.96,66.42 C32.96,66.42 33.13,65.83 33.22,65.83 C33.5495062,65.871252 33.8722267,65.9552938 34.18,66.08 Z" id="Shape"></path>
                    <path d="M40.31,185.66 C40.06,185.98 39.82,186.35 39.78,186.33 C39.4824057,186.159656 39.2012076,185.962148 38.94,185.74 C39.09,185.55 39.28,185.18 39.39,185.2 C39.7169464,185.308887 40.0267222,185.463775 40.31,185.66 Z" id="Shape"></path>
                    <path d="M248.54,27.74 L247.97,27.22 C248.176413,26.9741537 248.40033,26.7435526 248.64,26.53 C248.64,26.53 249.1,26.86 249.07,26.93 C248.921559,27.21745 248.743959,27.488877 248.54,27.74 Z" id="Shape"></path>
                    <path d="M95.63,137.35 C95.41,136.85 95.12,136.49 95.17,136.19 C95.2825478,135.854586 95.563949,135.603607 95.91,135.53 C96.15,135.53 96.44,135.89 96.7,136.1 L95.63,137.35 Z" id="Shape"></path>
                    <path d="M245.21,208.4 C244.762045,208.233241 244.32458,208.039555 243.9,207.82 C243.83,207.82 243.9,207.41 243.97,207.2 L245.56,207.6 L245.21,208.4 Z" id="Shape"></path>
                    <polygon id="Shape" points="240 133.41 241.73 133.62 241.65 134.25 239.93 133.99"></polygon>
                    <path d="M233.62,37.24 L232.84,37.88 C232.7,37.68 232.4,37.4 232.45,37.3 C232.640534,37.0105844 232.869266,36.7482151 233.13,36.52 L233.62,37.24 Z" id="Shape"></path>
                    <path d="M46.79,29.92 L47.56,30.85 C47.2872528,31.0359087 46.9868981,31.1776491 46.67,31.27 C46.52,31.27 46.15,30.92 46.18,30.82 C46.340653,30.4931868 46.5459504,30.1902889 46.79,29.92 Z" id="Shape"></path>
                    <path d="M48.68,34.62 L50.68,35.45 C50.2840774,35.5830762 49.8751022,35.6735871 49.46,35.72 C49.31,35.72 49.17,35.33 48.68,34.62 Z" id="Shape"></path>
                    <polygon id="Shape" points="141.6 104 143.04 103.31 143.36 103.84 141.99 104.84"></polygon>
                    <path d="M59.78,104.78 C59.6471921,104.481558 59.5466223,104.169792 59.48,103.85 C59.48,103.78 60,103.55 60.03,103.59 C60.2103374,103.866574 60.3675378,104.157562 60.5,104.46 L59.78,104.78 Z" id="Shape"></path>
                    <path d="M86.44,157.66 C86.74,158.26 87.05,158.58 87.01,158.87 C86.97,159.16 86.53,159.31 86.24,159.39 C85.95,159.47 85.67,159.09 85.7,158.99 C85.8960427,158.520335 86.1442684,158.074199 86.44,157.66 Z" id="Shape"></path>
                    <path d="M167.09,88 C166.76,88.47 166.61,88.87 166.33,89 C166.05,89.13 165.79,88.74 165.52,88.59 C165.7,88.28 165.82,87.88 166.09,87.7 C166.36,87.52 166.65,87.91 167.09,88 Z" id="Shape"></path>
                    <polygon id="Shape" points="19.41 103.73 20.81 104.61 20.55 105.17 18.96 104.57"></polygon>
                    <path d="M223.47,109.41 C223.65,109.72 223.89,109.99 223.84,110.08 C223.70743,110.28768 223.493018,110.429409 223.25,110.47 C223.08,110.47 222.89,110.24 222.71,110.11 L223.47,109.41 Z" id="Shape"></path>
                    <path d="M29.69,146.4 L30.26,146.81 C30.12,146.99 29.99,147.3 29.84,147.32 C29.69,147.34 29.46,147.09 29.27,146.95 L29.69,146.4 Z" id="Shape"></path>
                    <path d="M231.2,112.45 C230.96,112.73 230.79,113.05 230.69,113.03 C230.396579,112.930254 230.117527,112.792409 229.86,112.62 C230,112.45 230.15,112.13 230.28,112.14 C230.599779,112.199323 230.90953,112.303695 231.2,112.45 Z" id="Shape"></path>
                    <path d="M135.93,35 L136.56,35.52 C136.352381,35.7435907 136.113184,35.9356219 135.85,36.09 C135.75,36.09 135.51,35.84 135.33,35.7 L135.93,35 Z" id="Shape"></path>
                    <path d="M26,2.28 C25.6702657,2.33992021 25.3345333,2.36006415 25,2.34 C24.9,2.34 24.86,1.96 24.79,1.75 C25.1155471,1.65095572 25.450813,1.58725519 25.79,1.56 C25.79,1.57 25.86,2 26,2.28 Z" id="Shape"></path>
                    <path d="M139.37,0.38 L139.86,0.95 L139.05,1.35 C138.95,1.12 138.78,0.89 138.79,0.66 C138.8,0.43 139.17,0.47 139.37,0.38 Z" id="Shape"></path>
                    <polygon id="Shape" points="85.4 151.3 85.11 151.85 84.51 151.51 84.93 150.77"></polygon>
                    <path d="M226.54,114.12 C226.34,114.21 226.11,114.4 225.95,114.35 C225.79,114.3 225.74,114 225.63,113.81 C225.83,113.72 226.06,113.53 226.23,113.58 C226.4,113.63 226.44,113.93 226.54,114.12 Z" id="Shape"></path>
                    <path d="M123.55,124.08 L124.38,123.48 C124.48,123.68 124.68,123.9 124.64,124.07 C124.56527,124.300445 124.393588,124.486738 124.17,124.58 C124.05,124.61 123.83,124.32 123.55,124.08 Z" id="Shape"></path>
                    <path d="M157.87,221 L158.41,221.37 C158.28,221.54 158.16,221.83 158.01,221.85 C157.86,221.87 157.65,221.64 157.47,221.51 L157.87,221 Z" id="Shape"></path>
                    <path d="M188.9,135.68 C189.190418,135.53357 189.500187,135.429192 189.82,135.37 C189.95,135.37 190.09,135.68 190.23,135.86 C189.968512,136.031721 189.686248,136.169493 189.39,136.27 C189.31,136.29 189.13,136 188.9,135.68 Z" id="Shape"></path>
                    <path d="M171.9,73.17 C171.66,73.46 171.48,73.79 171.38,73.76 C171.079568,73.6576562 170.793811,73.5164587 170.53,73.34 C170.67,73.17 170.82,72.84 170.95,72.85 C171.280486,72.9101224 171.600491,73.0179136 171.9,73.17 Z" id="Shape"></path>
                    <path d="M175.27,163.39 C175.03,163.66 174.89,163.94 174.74,163.95 C174.493451,163.943349 174.25964,163.839033 174.09,163.66 C174.02,163.58 174.21,163.11 174.23,163.12 C174.581492,163.190266 174.928717,163.280411 175.27,163.39 Z" id="Shape"></path>
                    <path d="M72.09,234.34 L71.8,235.01 L70.97,234.52 C71.14,234.34 71.29,234.06 71.49,234.01 C71.69,233.96 71.89,234.23 72.09,234.34 Z" id="Shape"></path>
                    <path d="M209.39,96.73 L208.85,96.42 C208.99389,96.2693435 209.151207,96.1321097 209.32,96.01 C209.32,96.01 209.6,96.13 209.6,96.17 C209.546439,96.3624251 209.476172,96.5498039 209.39,96.73 Z" id="Shape"></path>
                    <polygon id="Shape" points="26.14 142.85 24.05 142.06 24.48 141.34 26.12 142.88"></polygon>
                    <path d="M42.19,176.39 L41.84,176.94 C41.6677335,176.803645 41.5071738,176.65312 41.36,176.49 C41.36,176.49 41.48,176.19 41.53,176.2 C41.7546047,176.24608 41.9752737,176.309606 42.19,176.39 Z" id="Shape"></path>
                    <path d="M235.93,76.62 C235.60489,76.7288297 235.269988,76.8058573 234.93,76.85 C234.85,76.85 234.76,76.47 234.67,76.27 C234.994761,76.132864 235.328954,76.0192382 235.67,75.93 C235.776823,76.1518919 235.863828,76.3827901 235.93,76.62 Z" id="Shape"></path>
                    <path d="M143.89,192.09 L143.36,191.65 C143.626836,191.479467 143.907876,191.332256 144.2,191.21 C144.325863,191.381471 144.433133,191.565841 144.52,191.76 L143.89,192.09 Z" id="Shape"></path>
                    <path d="M123,46.22 C122.682334,46.3642182 122.345537,46.4618893 122,46.51 C121.86,46.51 121.72,46.2 121.59,46.03 C121.856932,45.8527588 122.146097,45.7115384 122.45,45.61 C122.64,45.59 122.81,45.93 123,46.22 Z" id="Shape"></path>
                    <path d="M228.54,44.84 L227.97,45.14 C227.88,44.94 227.69,44.71 227.74,44.55 C227.79,44.39 228.09,44.34 228.28,44.23 L228.54,44.84 Z" id="Shape"></path>
                    <path d="M45.62,40.69 L44.71,39.64 C45.0739456,39.6083857 45.4404771,39.6251991 45.8,39.69 C45.94,39.69 45.98,40.11 46.07,40.34 L45.62,40.69 Z" id="Shape"></path>
                    <path d="M55.84,187.75 C55.71,187.92 55.59,188.2 55.44,188.22 C55.29,188.24 55.09,188.01 54.91,187.9 C55.04,187.73 55.16,187.45 55.31,187.42 C55.46,187.39 55.66,187.63 55.84,187.75 Z" id="Shape"></path>
                    <path d="M67.88,50.78 C67.7,50.89 67.5,51.12 67.34,51.09 C67.18,51.06 67.08,50.78 66.96,50.61 C67.14,50.5 67.34,50.28 67.5,50.3 C67.66,50.32 67.76,50.61 67.88,50.78 Z" id="Shape"></path>
                    <path d="M139.67,103.25 C139.3,103.34 138.93,103.49 138.88,103.42 C138.717831,103.13626 138.590254,102.834105 138.5,102.52 C138.72,102.47 139.05,102.3 139.15,102.39 C139.362908,102.65079 139.537966,102.940309 139.67,103.25 Z" id="Shape"></path>
                    <path d="M202.48,102.8 L201.97,103.21 C201.85061,103.027428 201.7437,102.836994 201.65,102.64 C201.65,102.64 201.87,102.42 201.93,102.44 C202.124436,102.542115 202.308615,102.662669 202.48,102.8 Z" id="Shape"></path>
                </g>
            </g>
        </g>
    </g>
</svg>