<?xml version="1.0" encoding="UTF-8"?>
<svg width="30px" height="30px" viewBox="0 0 30 30" version="1.1" xmlns="http://www.w3.org/2000/svg" xmlns:xlink="http://www.w3.org/1999/xlink">
    <!-- Generator: Sketch 47.1 (45422) - http://www.bohemiancoding.com/sketch -->
    <title>Artboard</title>
    <desc>Created with Sketch.</desc>
    <defs>
        <polygon id="path-1" points="0 26 26 26 26 0 0 0"></polygon>
        <path d="M23.8334101,18.3034545 L23.0508717,17.2543636 C23.0197177,17.2125455 22.8613666,17.0036364 22.5951745,16.6914545 L22.5951745,2.13690909 L23.8334101,2.13690909 L23.8334101,18.3034545 Z M23.8334101,23.8630909 L18.5868081,23.8630909 C21.2291887,22.1950909 22.9393439,19.9365455 23.0508717,19.7867273 L23.8334101,18.7376364 L23.8334101,23.8630909 Z M4.69449309,18.5205455 C4.69449309,18.5205455 8.41307138,13.5341818 13.0000922,13.5341818 C17.5869286,13.5341818 21.3055069,18.5205455 21.3055069,18.5205455 C21.3055069,18.5205455 17.5869286,23.5069091 13.0000922,23.5069091 C8.41307138,23.5069091 4.69449309,18.5205455 4.69449309,18.5205455 L4.69449309,18.5205455 Z M2.1667742,23.8630909 L2.1667742,18.7376364 L2.94912827,19.7867273 C3.06084046,19.9365455 4.77099567,22.1950909 7.41319191,23.8630909 L2.1667742,23.8630909 Z M2.1667742,2.13690909 L3.40482555,2.13690909 L3.40482555,16.6914545 C3.13863345,17.0036364 2.98028233,17.2125455 2.94912827,17.2543636 L2.1667742,18.3034545 L2.1667742,2.13690909 Z M5.57159975,2.13690909 L6.80928241,2.13690909 L6.80928241,13.5814545 C6.3644614,13.8929091 5.94987273,14.2156364 5.57159975,14.536 L5.57159975,2.13690909 Z M8.97605661,2.13690909 L10.2142923,2.13690909 L10.2142923,11.8498182 C9.78808999,11.9861818 9.37460738,12.1474545 8.97605661,12.3296364 L8.97605661,2.13690909 Z M12.3808822,2.13690909 L13.6191178,2.13690909 L13.6191178,11.4221818 C13.4144965,11.4072727 13.2084004,11.3972727 13.0000922,11.3972727 C12.7915996,11.3972727 12.5855035,11.4072727 12.3808822,11.4221818 L12.3808822,2.13690909 Z M15.7857077,11.7534545 L15.7857077,2.13690909 L17.0239434,2.13690909 L17.0239434,12.3296364 C16.5280592,12.1029091 16.0106068,11.9063636 15.4726923,11.7534545 L15.7857077,11.7534545 Z M19.1907176,2.13690909 L20.4284003,2.13690909 L20.4284003,14.536 C20.0501273,14.2156364 19.6355386,13.8929091 19.1907176,13.5814545 L19.1907176,2.13690909 Z M13.5651965,0 L12.4348035,0 L11.7887685,0 L10.6582794,0 L4.68315275,0 L3.55266361,0 L2.90691713,0 L1.77642798,0 L0,0 L0,26 L12.4348035,26 L13.5651965,26 L26,26 L26,0 L13.5651965,0 Z" id="path-3"></path>
    </defs>
    <g id="Symbols" stroke="none" stroke-width="1" fill="none" fill-rule="evenodd">
        <g id="Artboard">
            <g id="z" transform="translate(2.000000, 2.000000)">
                <path d="M13,14.5 C15.2090217,14.5 17,16.2907926 17,18.5 C17,20.7092074 15.2090217,22.5 13,22.5 C10.7909783,22.5 9,20.7092074 9,18.5 C9,16.2907926 10.7909783,14.5 13,14.5 Z" id="Fill-1" fill="#333333"></path>
                <mask id="mask-2" fill="white">
                    <use xlink:href="#path-1"></use>
                </mask>
                <g id="Clip-4"></g>
                <mask id="mask-4" fill="white">
                    <use xlink:href="#path-3"></use>
                </mask>
                <use id="Fill-3" fill="#333333" xlink:href="#path-3"></use>
            </g>
        </g>
    </g>
</svg>