<?xml version="1.0" encoding="UTF-8"?>
<svg width="64px" height="64px" viewBox="0 0 64 64" version="1.1" xmlns="http://www.w3.org/2000/svg" xmlns:xlink="http://www.w3.org/1999/xlink">
    <!-- Generator: Sketch 47.1 (45422) - http://www.bohemiancoding.com/sketch -->
    <title>favicon-64</title>
    <desc>Created with Sketch.</desc>
    <defs>
        <polygon id="path-1" points="0 56 56 56 56 0 0 0"></polygon>
        <path d="M51.3334988,39.4228252 L49.6480314,37.1632448 C49.5809304,37.0731748 49.2398664,36.6232168 48.6665296,35.9508252 L48.6665296,4.60257343 L51.3334988,4.60257343 L51.3334988,39.4228252 Z M51.3334988,51.3974266 L40.0331251,51.3974266 C45.7244064,47.8048112 49.4078176,42.9402517 49.6480314,42.6175664 L51.3334988,40.357986 L51.3334988,51.3974266 Z M10.1112159,39.8904056 C10.1112159,39.8904056 18.1204614,29.1505455 28.0001985,29.1505455 C37.8795386,29.1505455 45.8887841,39.8904056 45.8887841,39.8904056 C45.8887841,39.8904056 37.8795386,50.6302657 28.0001985,50.6302657 C18.1204614,50.6302657 10.1112159,39.8904056 10.1112159,39.8904056 L10.1112159,39.8904056 Z M4.66689828,51.3974266 L4.66689828,40.357986 L6.35196858,42.6175664 C6.59257946,42.9402517 10.2759907,47.8048112 15.9668749,51.3974266 L4.66689828,51.3974266 Z M4.66689828,4.60257343 L7.33347041,4.60257343 L7.33347041,35.9508252 C6.76013358,36.6232168 6.41906963,37.0731748 6.35196858,37.1632448 L4.66689828,39.4228252 L4.66689828,4.60257343 Z M12.0003687,4.60257343 L14.6661467,4.60257343 L14.6661467,29.2523636 C13.7080707,29.9231888 12.8151105,30.6182937 12.0003687,31.3083077 L12.0003687,4.60257343 Z M19.333045,4.60257343 L22.0000142,4.60257343 L22.0000142,25.5226853 C21.08204,25.8163916 20.1914621,26.1637483 19.333045,26.5561399 L19.333045,4.60257343 Z M26.6665154,4.60257343 L29.3334846,4.60257343 L29.3334846,24.6016224 C28.8927617,24.5695105 28.4488624,24.547972 28.0001985,24.547972 C27.5511376,24.547972 27.1072383,24.5695105 26.6665154,24.6016224 L26.6665154,4.60257343 Z M33.9999858,25.3151329 L33.9999858,4.60257343 L36.666955,4.60257343 L36.666955,26.5561399 C35.5988968,26.0678042 34.484384,25.6444755 33.3257989,25.3151329 L33.9999858,25.3151329 Z M41.3338533,4.60257343 L43.9996313,4.60257343 L43.9996313,31.3083077 C43.1848895,30.6182937 42.2919293,29.9231888 41.3338533,29.2523636 L41.3338533,4.60257343 Z M29.2173463,0 L26.7826537,0 L25.3911937,0 L22.956294,0 L10.0867905,0 L7.65189084,0 L6.26105227,0 L3.82615258,0 L0,0 L0,56 L26.7826537,56 L29.2173463,56 L56,56 L56,0 L29.2173463,0 Z" id="path-3"></path>
    </defs>
    <g id="Symbols" stroke="none" stroke-width="1" fill="none" fill-rule="evenodd">
        <g id="favicon-64">
            <g id="z" transform="translate(4.000000, 4.000000)">
                <path d="M28,31.2307692 C32.7578929,31.2307692 36.6153846,35.0878611 36.6153846,39.8461538 C36.6153846,44.6044466 32.7578929,48.4615385 28,48.4615385 C23.2421071,48.4615385 19.3846154,44.6044466 19.3846154,39.8461538 C19.3846154,35.0878611 23.2421071,31.2307692 28,31.2307692 Z" id="Fill-1" fill="#333333"></path>
                <mask id="mask-2" fill="white">
                    <use xlink:href="#path-1"></use>
                </mask>
                <g id="Clip-4"></g>
                <mask id="mask-4" fill="white">
                    <use xlink:href="#path-3"></use>
                </mask>
                <use id="Fill-3" fill="#333333" xlink:href="#path-3"></use>
            </g>
        </g>
    </g>
</svg>