<?xml version="1.0" encoding="UTF-8"?>
<svg width="16px" height="16px" viewBox="0 0 16 16" version="1.1" xmlns="http://www.w3.org/2000/svg" xmlns:xlink="http://www.w3.org/1999/xlink">
    <!-- Generator: Sketch 47.1 (45422) - http://www.bohemiancoding.com/sketch -->
    <title>favicon-16</title>
    <desc>Created with Sketch.</desc>
    <defs>
        <polygon id="path-1" points="0 14 14 14 14 0 0 0"></polygon>
        <path d="M12.8333747,9.85570629 L12.4120079,9.29081119 C12.3952326,9.26829371 12.3099666,9.1558042 12.1666324,8.98770629 L12.1666324,1.15064336 L12.8333747,1.15064336 L12.8333747,9.85570629 Z M12.8333747,12.8493566 L10.0082813,12.8493566 C11.4311016,11.9512028 12.3519544,10.7350629 12.4120079,10.6543916 L12.8333747,10.0894965 L12.8333747,12.8493566 Z M2.52780397,9.9726014 C2.52780397,9.9726014 4.53011536,7.28763636 7.00004963,7.28763636 C9.46988464,7.28763636 11.472196,9.9726014 11.472196,9.9726014 C11.472196,9.9726014 9.46988464,12.6575664 7.00004963,12.6575664 C4.53011536,12.6575664 2.52780397,9.9726014 2.52780397,9.9726014 L2.52780397,9.9726014 Z M1.16672457,12.8493566 L1.16672457,10.0894965 L1.58799214,10.6543916 C1.64814487,10.7350629 2.56899767,11.9512028 3.99171872,12.8493566 L1.16672457,12.8493566 Z M1.16672457,1.15064336 L1.8333676,1.15064336 L1.8333676,8.98770629 C1.69003339,9.1558042 1.60476741,9.26829371 1.58799214,9.29081119 L1.16672457,9.85570629 L1.16672457,1.15064336 Z M3.00009217,1.15064336 L3.66653668,1.15064336 L3.66653668,7.31309091 C3.42701768,7.4807972 3.20377762,7.65457343 3.00009217,7.82707692 L3.00009217,1.15064336 Z M4.83326125,1.15064336 L5.50000355,1.15064336 L5.50000355,6.38067133 C5.27050999,6.4540979 5.04786551,6.54093706 4.83326125,6.63903497 L4.83326125,1.15064336 Z M6.66662885,1.15064336 L7.33337115,1.15064336 L7.33337115,6.15040559 C7.22319042,6.14237762 7.1122156,6.13699301 7.00004963,6.13699301 C6.8877844,6.13699301 6.77680958,6.14237762 6.66662885,6.15040559 L6.66662885,1.15064336 Z M8.49999645,6.32878322 L8.49999645,1.15064336 L9.16673875,1.15064336 L9.16673875,6.63903497 C8.89972419,6.51695105 8.62109599,6.41111888 8.33144972,6.32878322 L8.49999645,6.32878322 Z M10.3334633,1.15064336 L10.9999078,1.15064336 L10.9999078,7.82707692 C10.7962224,7.65457343 10.5729823,7.4807972 10.3334633,7.31309091 L10.3334633,1.15064336 Z M7.30433657,0 L6.69566343,0 L6.34779842,0 L5.7390735,0 L2.52169764,0 L1.91297271,0 L1.56526307,0 L0.956538144,0 L0,0 L0,14 L6.69566343,14 L7.30433657,14 L14,14 L14,0 L7.30433657,0 Z" id="path-3"></path>
    </defs>
    <g id="Symbols" stroke="none" stroke-width="1" fill="none" fill-rule="evenodd">
        <g id="favicon-16">
            <g id="z" transform="translate(1.000000, 1.000000)">
                <path d="M7,8 C8.10451086,8 9,8.89539632 9,10 C9,11.1046037 8.10451086,12 7,12 C5.89548914,12 5,11.1046037 5,10 C5,8.89539632 5.89548914,8 7,8 Z" id="Fill-1" fill="#333333"></path>
                <mask id="mask-2" fill="white">
                    <use xlink:href="#path-1"></use>
                </mask>
                <g id="Clip-4"></g>
                <mask id="mask-4" fill="white">
                    <use xlink:href="#path-3"></use>
                </mask>
                <use id="Fill-3" fill="#333333" xlink:href="#path-3"></use>
            </g>
        </g>
    </g>
</svg>