<?xml version="1.0" encoding="UTF-8"?>
<svg width="60px" height="60px" viewBox="0 0 60 60" version="1.1" xmlns="http://www.w3.org/2000/svg" xmlns:xlink="http://www.w3.org/1999/xlink">
    <!-- Generator: Sketch 47.1 (45422) - http://www.bohemiancoding.com/sketch -->
    <title>Artboard Copy</title>
    <desc>Created with Sketch.</desc>
    <defs>
        <polygon id="path-1" points="0 52 52 52 52 0 0 0"></polygon>
        <path d="M47.6668203,36.6069091 L46.1017435,34.5087273 C46.0394353,34.4250909 45.7227331,34.0072727 45.1903489,33.3829091 L45.1903489,4.27381818 L47.6668203,4.27381818 L47.6668203,36.6069091 Z M47.6668203,47.7261818 L37.1736162,47.7261818 C42.4583774,44.3901818 45.8786878,39.8730909 46.1017435,39.5734545 L47.6668203,37.4752727 L47.6668203,47.7261818 Z M9.38898618,37.0410909 C9.38898618,37.0410909 16.8261428,27.0683636 26.0001843,27.0683636 C35.1738572,27.0683636 42.6110138,37.0410909 42.6110138,37.0410909 C42.6110138,37.0410909 35.1738572,47.0138182 26.0001843,47.0138182 C16.8261428,47.0138182 9.38898618,37.0410909 9.38898618,37.0410909 L9.38898618,37.0410909 Z M4.3335484,47.7261818 L4.3335484,37.4752727 L5.89825654,39.5734545 C6.12168093,39.8730909 9.54199134,44.3901818 14.8263838,47.7261818 L4.3335484,47.7261818 Z M4.3335484,4.27381818 L6.80965109,4.27381818 L6.80965109,33.3829091 C6.27726689,34.0072727 5.96056466,34.4250909 5.89825654,34.5087273 L4.3335484,36.6069091 L4.3335484,4.27381818 Z M11.1431995,4.27381818 L13.6185648,4.27381818 L13.6185648,27.1629091 C12.7289228,27.7858182 11.8997455,28.4312727 11.1431995,29.072 L11.1431995,4.27381818 Z M17.9521132,4.27381818 L20.4285846,4.27381818 L20.4285846,23.6996364 C19.57618,23.9723636 18.7492148,24.2949091 17.9521132,24.6592727 L17.9521132,4.27381818 Z M24.7617643,4.27381818 L27.2382357,4.27381818 L27.2382357,22.8443636 C26.828993,22.8145455 26.4168008,22.7945455 26.0001843,22.7945455 C25.5831992,22.7945455 25.171007,22.8145455 24.7617643,22.8443636 L24.7617643,4.27381818 Z M31.5714154,23.5069091 L31.5714154,4.27381818 L34.0478868,4.27381818 L34.0478868,24.6592727 C33.0561184,24.2058182 32.0212137,23.8127273 30.9453847,23.5069091 L31.5714154,23.5069091 Z M38.3814352,4.27381818 L40.8568005,4.27381818 L40.8568005,29.072 C40.1002545,28.4312727 39.2710772,27.7858182 38.3814352,27.1629091 L38.3814352,4.27381818 Z M27.130393,0 L24.869607,0 L23.577537,0 L21.3165587,0 L9.3663055,0 L7.10532721,0 L5.81383425,0 L3.55285596,0 L0,0 L0,52 L24.869607,52 L27.130393,52 L52,52 L52,0 L27.130393,0 Z" id="path-3"></path>
    </defs>
    <g id="Symbols" stroke="none" stroke-width="1" fill="none" fill-rule="evenodd">
        <g id="Artboard-Copy">
            <g id="z" transform="translate(4.000000, 4.000000)">
                <path d="M26,29 C30.4180434,29 34,32.5815853 34,37 C34,41.4184147 30.4180434,45 26,45 C21.5819566,45 18,41.4184147 18,37 C18,32.5815853 21.5819566,29 26,29 Z" id="Fill-1" fill="#333333"></path>
                <mask id="mask-2" fill="white">
                    <use xlink:href="#path-1"></use>
                </mask>
                <g id="Clip-4"></g>
                <mask id="mask-4" fill="white">
                    <use xlink:href="#path-3"></use>
                </mask>
                <use id="Fill-3" fill="#333333" xlink:href="#path-3"></use>
            </g>
        </g>
    </g>
</svg>