<?xml version="1.0" encoding="UTF-8"?>
<svg width="1326px" height="204px" viewBox="0 0 1326 204" version="1.1" xmlns="http://www.w3.org/2000/svg" xmlns:xlink="http://www.w3.org/1999/xlink">
    <!-- Generator: Sketch 47.1 (45422) - http://www.bohemiancoding.com/sketch -->
    <title>ARREOLA</title>
    <desc>Created with Sketch.</desc>
    <defs></defs>
    <g id="Website" stroke="none" stroke-width="1" fill="none" fill-rule="evenodd">
        <g id="Blog:-Last-Post-Copy-4" transform="translate(-57.000000, -125.000000)" fill="#4B50F6">
            <path d="M113.64,185.04 L113.08,185.04 L99.08,257.28 L127.64,257.28 L113.64,185.04 Z M101.6,127.64 L125.4,127.64 L169.92,327 L141.36,327 L132.96,284.16 L94.04,284.16 L85.64,327 L57.08,327 L101.6,127.64 Z M301.48,216.68 L317.72,216.68 C322.760025,216.68 326.773318,215.980007 329.76,214.58 C332.746682,213.179993 335.033325,211.173346 336.62,208.56 C338.206675,205.946654 339.279997,202.726686 339.84,198.9 C340.400003,195.073314 340.68,190.640025 340.68,185.6 C340.68,180.559975 340.400003,176.126686 339.84,172.3 C339.279997,168.473314 338.113342,165.20668 336.34,162.5 C334.566658,159.79332 332.093349,157.786673 328.92,156.48 C325.746651,155.173327 321.546693,154.52 316.32,154.52 L301.48,154.52 L301.48,216.68 Z M272.92,127.64 L318.84,127.64 C352.440168,127.64 369.24,147.146472 369.24,186.16 C369.24,197.733391 367.420018,207.673292 363.78,215.98 C360.139982,224.286708 353.746712,230.959975 344.6,236 L375.4,327 L345.16,327 L318.56,241.88 L301.48,241.88 L301.48,327 L272.92,327 L272.92,127.64 Z M509.76,216.68 L526,216.68 C531.040025,216.68 535.053318,215.980007 538.04,214.58 C541.026682,213.179993 543.313325,211.173346 544.9,208.56 C546.486675,205.946654 547.559997,202.726686 548.12,198.9 C548.680003,195.073314 548.96,190.640025 548.96,185.6 C548.96,180.559975 548.680003,176.126686 548.12,172.3 C547.559997,168.473314 546.393342,165.20668 544.62,162.5 C542.846658,159.79332 540.373349,157.786673 537.2,156.48 C534.026651,155.173327 529.826693,154.52 524.6,154.52 L509.76,154.52 L509.76,216.68 Z M481.2,127.64 L527.12,127.64 C560.720168,127.64 577.52,147.146472 577.52,186.16 C577.52,197.733391 575.700018,207.673292 572.06,215.98 C568.419982,224.286708 562.026712,230.959975 552.88,236 L583.68,327 L553.44,327 L526.84,241.88 L509.76,241.88 L509.76,327 L481.2,327 L481.2,127.64 Z M689.48,127.64 L774.6,127.64 L774.6,154.52 L718.04,154.52 L718.04,213.04 L767.32,213.04 L767.32,239.92 L718.04,239.92 L718.04,298.44 L774.6,298.44 L774.6,327 L689.48,327 L689.48,127.64 Z M880.4,174.68 C880.4,166.653293 881.799986,159.560031 884.6,153.4 C887.400014,147.239969 891.086644,142.153353 895.66,138.14 C900.233356,134.126647 905.366638,131.093344 911.06,129.04 C916.753362,126.986656 922.493304,125.96 928.28,125.96 C934.066696,125.96 939.806638,126.986656 945.5,129.04 C951.193362,131.093344 956.326644,134.126647 960.9,138.14 C965.473356,142.153353 969.159986,147.239969 971.96,153.4 C974.760014,159.560031 976.16,166.653293 976.16,174.68 L976.16,279.96 C976.16,288.173374 974.760014,295.313303 971.96,301.38 C969.159986,307.446697 965.473356,312.486647 960.9,316.5 C956.326644,320.513353 951.193362,323.546656 945.5,325.6 C939.806638,327.653344 934.066696,328.68 928.28,328.68 C922.493304,328.68 916.753362,327.653344 911.06,325.6 C905.366638,323.546656 900.233356,320.513353 895.66,316.5 C891.086644,312.486647 887.400014,307.446697 884.6,301.38 C881.799986,295.313303 880.4,288.173374 880.4,279.96 L880.4,174.68 Z M908.96,279.96 C908.96,286.866701 910.873314,291.953317 914.7,295.22 C918.526686,298.486683 923.053307,300.12 928.28,300.12 C933.506693,300.12 938.033314,298.486683 941.86,295.22 C945.686686,291.953317 947.6,286.866701 947.6,279.96 L947.6,174.68 C947.6,167.773299 945.686686,162.686683 941.86,159.42 C938.033314,156.153317 933.506693,154.52 928.28,154.52 C923.053307,154.52 918.526686,156.153317 914.7,159.42 C910.873314,162.686683 908.96,167.773299 908.96,174.68 L908.96,279.96 Z M1090.36,127.64 L1118.92,127.64 L1118.92,298.44 L1175.48,298.44 L1175.48,327 L1090.36,327 L1090.36,127.64 Z M1326.64,185.04 L1326.08,185.04 L1312.08,257.28 L1340.64,257.28 L1326.64,185.04 Z M1314.6,127.64 L1338.4,127.64 L1382.92,327 L1354.36,327 L1345.96,284.16 L1307.04,284.16 L1298.64,327 L1270.08,327 L1314.6,127.64 Z" id="ARREOLA"></path>
        </g>
    </g>
</svg>