<?xml version="1.0" encoding="utf-8"?>
<!-- Generator: Adobe Illustrator 21.1.0, SVG Export Plug-In . SVG Version: 6.00 Build 0)  -->
<svg version="1.1" id="Layer_1" xmlns="http://www.w3.org/2000/svg" xmlns:xlink="http://www.w3.org/1999/xlink" x="0px" y="0px"
	 viewBox="0 0 25 25" style="enable-background:new 0 0 25 25;" xml:space="preserve">
<style type="text/css">
	.st0{fill:none;stroke:#979797;stroke-miterlimit:10;}
	.st1{clip-path:url(#SVGID_2_);fill:none;stroke:#979797;stroke-linecap:square;stroke-miterlimit:10;}
	.st2{clip-path:url(#SVGID_2_);fill:none;stroke:#979797;stroke-miterlimit:10;}
	.st3{clip-path:url(#SVGID_4_);}
	.st4{clip-path:url(#SVGID_6_);fill:#979797;}
	.st5{fill:#979797;}
</style>
<g>
	<defs>
		<rect id="SVGID_1_" x="-586" y="-506" width="1440" height="760"/>
	</defs>
	<clipPath id="SVGID_2_">
		<use xlink:href="#SVGID_1_"  style="overflow:visible;"/>
	</clipPath>
</g>
<g>
	<defs>
		<path id="SVGID_3_" d="M62-32.9c0.6,0,1.1,0.2,1.5,0.5c0.4,0.3,0.5,0.7,0.5,1.3c0,0.6-0.2,1.1-0.6,1.4c-0.4,0.3-0.9,0.5-1.6,0.5
			c-0.7,0-1.2-0.1-1.5-0.3v-0.6c0.2,0.1,0.4,0.2,0.7,0.3c0.3,0.1,0.6,0.1,0.8,0.1c0.5,0,0.8-0.1,1.1-0.3c0.3-0.2,0.4-0.5,0.4-1
			c0-0.8-0.5-1.2-1.5-1.2c-0.3,0-0.6,0-1,0.1l-0.3-0.2l0.2-2.7h2.9v0.6h-2.3l-0.1,1.8C61.4-32.8,61.7-32.9,62-32.9z M57.5-29.8
			c0.4,0,0.7-0.1,0.9-0.4c0.2-0.2,0.3-0.6,0.3-1c0-0.4-0.1-0.7-0.3-0.9c-0.2-0.2-0.5-0.3-0.9-0.3c-0.2,0-0.5,0-0.7,0.1
			c-0.2,0.1-0.4,0.2-0.5,0.4c-0.1,0.2-0.2,0.4-0.2,0.5c0,0.3,0.1,0.5,0.2,0.8s0.3,0.4,0.5,0.6C57.1-29.8,57.3-29.8,57.5-29.8z
			 M55.6-31.8c0-1.1,0.2-2,0.7-2.6c0.4-0.6,1.1-0.9,2-0.9c0.3,0,0.5,0,0.7,0.1v0.6c-0.2-0.1-0.4-0.1-0.7-0.1c-0.6,0-1.1,0.2-1.4,0.6
			c-0.3,0.4-0.5,1-0.5,1.8h0c0.3-0.5,0.8-0.7,1.4-0.7c0.5,0,0.9,0.2,1.2,0.5c0.3,0.3,0.5,0.7,0.5,1.3c0,0.6-0.2,1.1-0.5,1.4
			c-0.3,0.3-0.8,0.5-1.3,0.5c-0.6,0-1.1-0.2-1.4-0.7C55.8-30.4,55.6-31,55.6-31.8z M54.4-33.8c0,0.4-0.1,0.7-0.3,0.9
			c-0.2,0.2-0.5,0.4-0.9,0.5v0c0.5,0.1,0.8,0.2,1,0.4c0.2,0.2,0.3,0.6,0.3,0.9c0,0.6-0.2,1-0.6,1.3s-0.9,0.4-1.6,0.4
			c-0.3,0-0.6,0-0.8-0.1c-0.3,0-0.5-0.1-0.7-0.2v-0.6c0.3,0.1,0.5,0.2,0.8,0.3c0.3,0.1,0.6,0.1,0.8,0.1c1,0,1.5-0.4,1.5-1.2
			c0-0.7-0.6-1.1-1.7-1.1h-0.6v-0.6h0.6c0.5,0,0.8-0.1,1.1-0.3c0.3-0.2,0.4-0.5,0.4-0.8c0-0.3-0.1-0.5-0.3-0.7
			c-0.2-0.2-0.5-0.2-0.8-0.2c-0.3,0-0.5,0-0.7,0.1c-0.2,0.1-0.5,0.2-0.8,0.4l-0.3-0.4c0.2-0.2,0.5-0.3,0.8-0.4
			c0.3-0.1,0.6-0.2,1-0.2c0.6,0,1,0.1,1.3,0.4S54.4-34.2,54.4-33.8z"/>
	</defs>
	<clipPath id="SVGID_4_">
		<use xlink:href="#SVGID_3_"  style="overflow:visible;"/>
	</clipPath>
	<g class="st3">
		<defs>
			<rect id="SVGID_5_" x="-513.3" y="-452.5" width="1277.3" height="674.1"/>
		</defs>
		<clipPath id="SVGID_6_">
			<use xlink:href="#SVGID_5_"  style="overflow:visible;"/>
		</clipPath>
	</g>
</g>
<g>
	<defs>
		<rect id="SVGID_7_" x="-837" y="-446" width="1440" height="760"/>
	</defs>
	<clipPath id="SVGID_8_">
		<use xlink:href="#SVGID_7_"  style="overflow:visible;"/>
	</clipPath>
</g>
<g>
	<g>
		<path class="st5" d="M16.4,14.8c0,0.5-0.2,1-0.6,1.3s-1,0.6-1.7,0.7v1.4h-0.8v-1.3c-0.4,0-0.9,0-1.3-0.1s-0.7-0.2-1-0.3v-0.9
			c0.3,0.1,0.7,0.3,1.1,0.4S13,16,13.4,16v-2.6c-0.8-0.3-1.4-0.5-1.7-0.9s-0.5-0.8-0.5-1.3c0-0.5,0.2-0.9,0.6-1.3s0.9-0.5,1.6-0.6
			V8.3h0.8v1.1c0.7,0,1.4,0.2,2.1,0.4l-0.3,0.8c-0.6-0.2-1.2-0.4-1.8-0.4v2.5c0.6,0.2,1.1,0.4,1.4,0.6s0.5,0.4,0.7,0.6
			S16.4,14.5,16.4,14.8z M12.2,11.3c0,0.3,0.1,0.5,0.3,0.7s0.5,0.3,0.9,0.5v-2.3c-0.4,0.1-0.7,0.2-0.9,0.4S12.2,11,12.2,11.3z
			 M15.4,14.9c0-0.3-0.1-0.5-0.3-0.7s-0.5-0.3-1-0.5V16C15,15.9,15.4,15.5,15.4,14.9z"/>
	</g>
	<g>
		<path class="st0" d="M8.2,19.7c1.5,1.3,3.4,2.1,5.6,2.1c4.7,0,8.5-3.8,8.5-8.5c0-3.6-2.3-6.7-5.4-7.9"/>
		<path class="st0" d="M5.2,13.2c0-4.7,3.8-8.5,8.5-8.5c1.1,0,2.1,0.2,3.1,0.6c-1.5-1.3-3.4-2.1-5.6-2.1c-4.7,0-8.5,3.8-8.5,8.5
			c0,3.6,2.3,6.7,5.4,7.9C6.4,18.1,5.2,15.8,5.2,13.2z"/>
	</g>
</g>
</svg>
