<?xml version="1.0" encoding="utf-8"?>
<!-- Generator: Adobe Illustrator 21.1.0, SVG Export Plug-In . SVG Version: 6.00 Build 0)  -->
<svg version="1.1" id="Layer_1" xmlns="http://www.w3.org/2000/svg" xmlns:xlink="http://www.w3.org/1999/xlink" x="0px" y="0px"
	 viewBox="0 0 25 25" style="enable-background:new 0 0 25 25;" xml:space="preserve">
<style type="text/css">
	.st0{fill:none;stroke:#979797;stroke-miterlimit:10;}
	.st1{clip-path:url(#SVGID_2_);fill:none;stroke:#979797;stroke-linecap:square;stroke-miterlimit:10;}
	.st2{clip-path:url(#SVGID_2_);fill:none;stroke:#979797;stroke-miterlimit:10;}
	.st3{clip-path:url(#SVGID_4_);}
	.st4{clip-path:url(#SVGID_6_);fill:#979797;}
	.st5{fill:#979797;}
</style>
<g>
	<defs>
		<rect id="SVGID_1_" x="-586" y="-551" width="1440" height="760"/>
	</defs>
	<clipPath id="SVGID_2_">
		<use xlink:href="#SVGID_1_"  style="overflow:visible;"/>
	</clipPath>
</g>
<g>
	<defs>
		<path id="SVGID_3_" d="M62-77.9c0.6,0,1.1,0.2,1.5,0.5c0.4,0.3,0.5,0.7,0.5,1.3c0,0.6-0.2,1.1-0.6,1.4c-0.4,0.3-0.9,0.5-1.6,0.5
			c-0.7,0-1.2-0.1-1.5-0.3v-0.6c0.2,0.1,0.4,0.2,0.7,0.3c0.3,0.1,0.6,0.1,0.8,0.1c0.5,0,0.8-0.1,1.1-0.3c0.3-0.2,0.4-0.5,0.4-1
			c0-0.8-0.5-1.2-1.5-1.2c-0.3,0-0.6,0-1,0.1l-0.3-0.2l0.2-2.7h2.9v0.6h-2.3l-0.1,1.8C61.4-77.8,61.7-77.9,62-77.9z M57.5-74.8
			c0.4,0,0.7-0.1,0.9-0.4s0.3-0.6,0.3-1c0-0.4-0.1-0.7-0.3-0.9s-0.5-0.3-0.9-0.3c-0.2,0-0.5,0-0.7,0.1c-0.2,0.1-0.4,0.2-0.5,0.4
			c-0.1,0.2-0.2,0.4-0.2,0.5c0,0.3,0.1,0.5,0.2,0.8s0.3,0.4,0.5,0.6C57.1-74.8,57.3-74.8,57.5-74.8z M55.6-76.8c0-1.1,0.2-2,0.7-2.6
			c0.4-0.6,1.1-0.9,2-0.9c0.3,0,0.5,0,0.7,0.1v0.6c-0.2-0.1-0.4-0.1-0.7-0.1c-0.6,0-1.1,0.2-1.4,0.6c-0.3,0.4-0.5,1-0.5,1.8h0
			c0.3-0.5,0.8-0.7,1.4-0.7c0.5,0,0.9,0.2,1.2,0.5c0.3,0.3,0.5,0.7,0.5,1.3c0,0.6-0.2,1.1-0.5,1.4c-0.3,0.3-0.8,0.5-1.3,0.5
			c-0.6,0-1.1-0.2-1.4-0.7C55.8-75.4,55.6-76,55.6-76.8z M54.4-78.8c0,0.4-0.1,0.7-0.3,0.9c-0.2,0.2-0.5,0.4-0.9,0.5v0
			c0.5,0.1,0.8,0.2,1,0.4s0.3,0.6,0.3,0.9c0,0.6-0.2,1-0.6,1.3s-0.9,0.4-1.6,0.4c-0.3,0-0.6,0-0.8-0.1c-0.3,0-0.5-0.1-0.7-0.2v-0.6
			c0.3,0.1,0.5,0.2,0.8,0.3c0.3,0.1,0.6,0.1,0.8,0.1c1,0,1.5-0.4,1.5-1.2c0-0.7-0.6-1.1-1.7-1.1h-0.6v-0.6h0.6
			c0.5,0,0.8-0.1,1.1-0.3s0.4-0.5,0.4-0.8c0-0.3-0.1-0.5-0.3-0.7c-0.2-0.2-0.5-0.2-0.8-0.2c-0.3,0-0.5,0-0.7,0.1s-0.5,0.2-0.8,0.4
			l-0.3-0.4c0.2-0.2,0.5-0.3,0.8-0.4s0.6-0.2,1-0.2c0.6,0,1,0.1,1.3,0.4S54.4-79.2,54.4-78.8z"/>
	</defs>
	<clipPath id="SVGID_4_">
		<use xlink:href="#SVGID_3_"  style="overflow:visible;"/>
	</clipPath>
	<g class="st3">
		<defs>
			<rect id="SVGID_5_" x="-513.3" y="-497.5" width="1277.3" height="674.1"/>
		</defs>
		<clipPath id="SVGID_6_">
			<use xlink:href="#SVGID_5_"  style="overflow:visible;"/>
		</clipPath>
	</g>
</g>
<g>
	<defs>
		<rect id="SVGID_7_" x="-837" y="-491" width="1440" height="760"/>
	</defs>
	<clipPath id="SVGID_8_">
		<use xlink:href="#SVGID_7_"  style="overflow:visible;"/>
	</clipPath>
</g>
<g>
	<g>
		<path class="st0" d="M20.8,20.2H4.2c-1.1,0-2-0.9-2-2v-11c0-1.1,0.9-2,2-2h16.5c1.1,0,2,0.9,2,2v11C22.8,19.4,21.9,20.2,20.8,20.2
			z"/>
	</g>
	<polyline class="st0" points="4.5,13.2 6.5,15.2 10.5,10.2 	"/>
</g>
<g>
	<line class="st0" x1="13" y1="15.4" x2="20" y2="15.4"/>
	<line class="st0" x1="13" y1="12.8" x2="20" y2="12.8"/>
	<line class="st0" x1="13" y1="10.1" x2="20" y2="10.1"/>
</g>
</svg>
