<?xml version="1.0" encoding="utf-8"?>
<!-- Generator: Adobe Illustrator 21.1.0, SVG Export Plug-In . SVG Version: 6.00 Build 0)  -->
<svg version="1.1" id="Layer_1" xmlns="http://www.w3.org/2000/svg" xmlns:xlink="http://www.w3.org/1999/xlink" x="0px" y="0px"
	 viewBox="0 0 25 25" style="enable-background:new 0 0 25 25;" xml:space="preserve">
<style type="text/css">
	.st0{fill:none;stroke:#979797;stroke-miterlimit:10;}
	.st1{clip-path:url(#SVGID_2_);fill:none;stroke:#979797;stroke-linecap:square;stroke-miterlimit:10;}
	.st2{clip-path:url(#SVGID_2_);fill:none;stroke:#979797;stroke-miterlimit:10;}
	.st3{clip-path:url(#SVGID_4_);}
	.st4{clip-path:url(#SVGID_6_);fill:#979797;}
	.st5{fill:#979797;}
</style>
<g>
	<defs>
		<rect id="SVGID_1_" x="-676" y="-461" width="1440" height="760"/>
	</defs>
	<clipPath id="SVGID_2_">
		<use xlink:href="#SVGID_1_"  style="overflow:visible;"/>
	</clipPath>
</g>
<g>
	<defs>
		<path id="SVGID_3_" d="M-28,12.1c0.6,0,1.1,0.2,1.5,0.5c0.4,0.3,0.5,0.7,0.5,1.3c0,0.6-0.2,1.1-0.6,1.4c-0.4,0.3-0.9,0.5-1.6,0.5
			c-0.7,0-1.2-0.1-1.5-0.3v-0.6c0.2,0.1,0.4,0.2,0.7,0.3c0.3,0.1,0.6,0.1,0.8,0.1c0.5,0,0.8-0.1,1.1-0.3c0.3-0.2,0.4-0.5,0.4-1
			c0-0.8-0.5-1.2-1.5-1.2c-0.3,0-0.6,0-1,0.1l-0.3-0.2l0.2-2.7h2.9v0.6h-2.3l-0.1,1.8C-28.6,12.2-28.3,12.1-28,12.1z M-32.5,15.2
			c0.4,0,0.7-0.1,0.9-0.4c0.2-0.2,0.3-0.6,0.3-1c0-0.4-0.1-0.7-0.3-0.9s-0.5-0.3-0.9-0.3c-0.2,0-0.5,0-0.7,0.1
			c-0.2,0.1-0.4,0.2-0.5,0.4c-0.1,0.2-0.2,0.4-0.2,0.5c0,0.3,0.1,0.5,0.2,0.8c0.1,0.2,0.3,0.4,0.5,0.6
			C-32.9,15.2-32.7,15.2-32.5,15.2z M-34.4,13.2c0-1.1,0.2-2,0.7-2.6c0.4-0.6,1.1-0.9,2-0.9c0.3,0,0.5,0,0.7,0.1v0.6
			c-0.2-0.1-0.4-0.1-0.7-0.1c-0.6,0-1.1,0.2-1.4,0.6c-0.3,0.4-0.5,1-0.5,1.8h0c0.3-0.5,0.8-0.7,1.4-0.7c0.5,0,0.9,0.2,1.2,0.5
			c0.3,0.3,0.5,0.7,0.5,1.3c0,0.6-0.2,1.1-0.5,1.4c-0.3,0.3-0.8,0.5-1.3,0.5c-0.6,0-1.1-0.2-1.4-0.7C-34.2,14.6-34.4,14-34.4,13.2z
			 M-35.6,11.2c0,0.4-0.1,0.7-0.3,0.9c-0.2,0.2-0.5,0.4-0.9,0.5v0c0.5,0.1,0.8,0.2,1,0.4c0.2,0.2,0.3,0.6,0.3,0.9
			c0,0.6-0.2,1-0.6,1.3c-0.4,0.3-0.9,0.4-1.6,0.4c-0.3,0-0.6,0-0.8-0.1c-0.3,0-0.5-0.1-0.7-0.2v-0.6c0.3,0.1,0.5,0.2,0.8,0.3
			c0.3,0.1,0.6,0.1,0.8,0.1c1,0,1.5-0.4,1.5-1.2c0-0.7-0.6-1.1-1.7-1.1h-0.6v-0.6h0.6c0.5,0,0.8-0.1,1.1-0.3
			c0.3-0.2,0.4-0.5,0.4-0.8c0-0.3-0.1-0.5-0.3-0.7c-0.2-0.2-0.5-0.2-0.8-0.2c-0.3,0-0.5,0-0.7,0.1c-0.2,0.1-0.5,0.2-0.8,0.4
			l-0.3-0.4c0.2-0.2,0.5-0.3,0.8-0.4c0.3-0.1,0.6-0.2,1-0.2c0.6,0,1,0.1,1.3,0.4S-35.6,10.8-35.6,11.2z"/>
	</defs>
	<clipPath id="SVGID_4_">
		<use xlink:href="#SVGID_3_"  style="overflow:visible;"/>
	</clipPath>
	<g class="st3">
		<defs>
			<rect id="SVGID_5_" x="-603.3" y="-407.5" width="1277.3" height="674.1"/>
		</defs>
		<clipPath id="SVGID_6_">
			<use xlink:href="#SVGID_5_"  style="overflow:visible;"/>
		</clipPath>
	</g>
</g>
<path class="st0" d="M5,20.8V4.2c0-1.1,0.9-2,2-2h11c1.1,0,2,0.9,2,2v16.5c0,1.1-0.9,2-2,2H7C5.9,22.8,5,21.9,5,20.8z"/>
<path class="st5" d="M13.7,6.9C13.9,6.7,14,6.4,14,6.1c0-0.8-0.7-1.5-1.5-1.5S11,5.3,11,6.1c0,0.3,0.1,0.6,0.3,0.8
	C10.5,7.4,10,8.2,10,9.1c0,0.3,0.1,0.8,1,1.1c0.4,0.2,1,0.2,1.5,0.2c1.5,0,2.5-0.5,2.5-1.3C15,8.2,14.5,7.4,13.7,6.9z M12,6.1
	c0-0.3,0.2-0.5,0.5-0.5S13,5.8,13,6.1s-0.2,0.5-0.5,0.5S12,6.4,12,6.1z M12.5,9.4c-0.9,0-1.4-0.2-1.5-0.3c0-0.8,0.7-1.5,1.5-1.5
	c0.8,0,1.5,0.7,1.5,1.5C13.9,9.2,13.4,9.4,12.5,9.4z"/>
<g>
	<defs>
		<rect id="SVGID_7_" x="-927" y="-401" width="1440" height="760"/>
	</defs>
	<clipPath id="SVGID_8_">
		<use xlink:href="#SVGID_7_"  style="overflow:visible;"/>
	</clipPath>
</g>
<g>
	<line class="st0" x1="8" y1="19.4" x2="17" y2="19.4"/>
	<line class="st0" x1="8" y1="16.8" x2="17" y2="16.8"/>
	<line class="st0" x1="8" y1="14.1" x2="17" y2="14.1"/>
</g>
</svg>
