<?xml version="1.0" encoding="utf-8"?>
<!-- Generator: Adobe Illustrator 21.1.0, SVG Export Plug-In . SVG Version: 6.00 Build 0)  -->
<svg version="1.1" id="Layer_1" xmlns="http://www.w3.org/2000/svg" xmlns:xlink="http://www.w3.org/1999/xlink" x="0px" y="0px"
	 viewBox="0 0 33 25" style="enable-background:new 0 0 33 25;" xml:space="preserve">
<style type="text/css">
	.st0{fill:none;stroke:#979797;stroke-miterlimit:10;}
	.st1{clip-path:url(#SVGID_2_);fill:none;stroke:#979797;stroke-linecap:square;stroke-miterlimit:10;}
	.st2{clip-path:url(#SVGID_2_);fill:none;stroke:#979797;stroke-miterlimit:10;}
	.st3{clip-path:url(#SVGID_4_);}
	.st4{clip-path:url(#SVGID_6_);fill:#979797;}
	.st5{fill:#979797;}
</style>
<g>
	<defs>
		<rect id="SVGID_1_" x="-676" y="-506" width="1440" height="760"/>
	</defs>
	<clipPath id="SVGID_2_">
		<use xlink:href="#SVGID_1_"  style="overflow:visible;"/>
	</clipPath>
</g>
<g>
	<defs>
		<path id="SVGID_3_" d="M-28-32.9c0.6,0,1.1,0.2,1.5,0.5c0.4,0.3,0.5,0.7,0.5,1.3c0,0.6-0.2,1.1-0.6,1.4c-0.4,0.3-0.9,0.5-1.6,0.5
			c-0.7,0-1.2-0.1-1.5-0.3v-0.6c0.2,0.1,0.4,0.2,0.7,0.3c0.3,0.1,0.6,0.1,0.8,0.1c0.5,0,0.8-0.1,1.1-0.3c0.3-0.2,0.4-0.5,0.4-1
			c0-0.8-0.5-1.2-1.5-1.2c-0.3,0-0.6,0-1,0.1l-0.3-0.2l0.2-2.7h2.9v0.6h-2.3l-0.1,1.8C-28.6-32.8-28.3-32.9-28-32.9z M-32.5-29.8
			c0.4,0,0.7-0.1,0.9-0.4c0.2-0.2,0.3-0.6,0.3-1c0-0.4-0.1-0.7-0.3-0.9c-0.2-0.2-0.5-0.3-0.9-0.3c-0.2,0-0.5,0-0.7,0.1
			c-0.2,0.1-0.4,0.2-0.5,0.4c-0.1,0.2-0.2,0.4-0.2,0.5c0,0.3,0.1,0.5,0.2,0.8s0.3,0.4,0.5,0.6C-32.9-29.8-32.7-29.8-32.5-29.8z
			 M-34.4-31.8c0-1.1,0.2-2,0.7-2.6c0.4-0.6,1.1-0.9,2-0.9c0.3,0,0.5,0,0.7,0.1v0.6c-0.2-0.1-0.4-0.1-0.7-0.1
			c-0.6,0-1.1,0.2-1.4,0.6c-0.3,0.4-0.5,1-0.5,1.8h0c0.3-0.5,0.8-0.7,1.4-0.7c0.5,0,0.9,0.2,1.2,0.5c0.3,0.3,0.5,0.7,0.5,1.3
			c0,0.6-0.2,1.1-0.5,1.4c-0.3,0.3-0.8,0.5-1.3,0.5c-0.6,0-1.1-0.2-1.4-0.7C-34.2-30.4-34.4-31-34.4-31.8z M-35.6-33.8
			c0,0.4-0.1,0.7-0.3,0.9c-0.2,0.2-0.5,0.4-0.9,0.5v0c0.5,0.1,0.8,0.2,1,0.4c0.2,0.2,0.3,0.6,0.3,0.9c0,0.6-0.2,1-0.6,1.3
			s-0.9,0.4-1.6,0.4c-0.3,0-0.6,0-0.8-0.1c-0.3,0-0.5-0.1-0.7-0.2v-0.6c0.3,0.1,0.5,0.2,0.8,0.3c0.3,0.1,0.6,0.1,0.8,0.1
			c1,0,1.5-0.4,1.5-1.2c0-0.7-0.6-1.1-1.7-1.1h-0.6v-0.6h0.6c0.5,0,0.8-0.1,1.1-0.3c0.3-0.2,0.4-0.5,0.4-0.8c0-0.3-0.1-0.5-0.3-0.7
			c-0.2-0.2-0.5-0.2-0.8-0.2c-0.3,0-0.5,0-0.7,0.1c-0.2,0.1-0.5,0.2-0.8,0.4l-0.3-0.4c0.2-0.2,0.5-0.3,0.8-0.4
			c0.3-0.1,0.6-0.2,1-0.2c0.6,0,1,0.1,1.3,0.4S-35.6-34.2-35.6-33.8z"/>
	</defs>
	<clipPath id="SVGID_4_">
		<use xlink:href="#SVGID_3_"  style="overflow:visible;"/>
	</clipPath>
	<g class="st3">
		<defs>
			<rect id="SVGID_5_" x="-603.3" y="-452.5" width="1277.3" height="674.1"/>
		</defs>
		<clipPath id="SVGID_6_">
			<use xlink:href="#SVGID_5_"  style="overflow:visible;"/>
		</clipPath>
	</g>
</g>
<g>
	<defs>
		<rect id="SVGID_7_" x="-927" y="-446" width="1440" height="760"/>
	</defs>
	<clipPath id="SVGID_8_">
		<use xlink:href="#SVGID_7_"  style="overflow:visible;"/>
	</clipPath>
</g>
<g>
	<g>
		<g>
			<g>
				<path class="st0" d="M11.2,18.9c0,1.4,1.1,2.5,2.5,2.5s2.5-1.1,2.5-2.5"/>
				<path class="st0" d="M16.2,18.9c0-1.4-1.1-2.5-2.5-2.5s-2.5,1.1-2.5,2.5"/>
			</g>
			<g>
				<g>
					<path class="st0" d="M15.8,17.5c-0.4-0.7-1.2-1.1-2.1-1.1c-1.4,0-2.5,1.1-2.5,2.5h-1.1H9.2v-3.5c0-1.1,0.9-2,2-2h1l2-4h3
						c-0.8-2.4-2.6-4.3-5-5.2c-0.9-0.4-2-0.6-3.1-0.6c-4.7,0-8.5,3.8-8.5,8.5c0,2.6,1.1,4.9,2.9,6.4c1.5,1.3,3.4,2.1,5.6,2.1
						c0.8,0,1.7-0.1,2.4-0.4"/>
					<path class="st0" d="M15.8,17.5c0.3,0.4,0.4,0.9,0.4,1.4h9.5c0-1.4,1.1-2.5,2.5-2.5s2.5,1.1,2.5,2.5h1.5v-3.5c0-1.1-0.9-2-2-2
						h-4l-2-4h-7"/>
					<path class="st0" d="M17.3,9.4h-3l-2,4h-1c-1.1,0-2,0.9-2,2v3.5h0.9h1.1c0-1.4,1.1-2.5,2.5-2.5c0.9,0,1.6,0.4,2.1,1.1"/>
				</g>
				<path class="st0" d="M25.8,18.9c0,1.4,1.1,2.5,2.5,2.5s2.5-1.1,2.5-2.5"/>
				<path class="st0" d="M30.8,18.9c0-1.4-1.1-2.5-2.5-2.5s-2.5,1.1-2.5,2.5"/>
			</g>
			<path class="st0" d="M21.5,10.9c0.8,0,1.5,0.4,1.8,1.1l0.7,1.4"/>
		</g>
		<line class="st0" x1="11.8" y1="18.9" x2="7.8" y2="18.9"/>
	</g>
	<path class="st5" d="M9.4,14.2v-1.6c0.5,0.2,0.8,0.3,1,0.5c0.1,0.1,0.2,0.2,0.2,0.3c0.1,0,0.3,0,0.4,0h0.6c0-0.2-0.1-0.4-0.2-0.6
		c-0.1-0.2-0.4-0.5-0.7-0.6s-0.8-0.4-1.4-0.6V9.1c0.6,0,1.2,0.2,1.8,0.4l0.3-0.8c-0.7-0.3-1.4-0.4-2.1-0.4V7.2H8.6v1.1
		C8,8.4,7.5,8.6,7.1,8.9s-0.6,0.7-0.6,1.3c0,0.5,0.2,1,0.5,1.3s0.9,0.6,1.7,0.9v2.6c-0.3,0-0.7,0-1.2-0.1s-0.8-0.2-1.1-0.4v0.9
		c0.3,0.1,0.6,0.2,1,0.3s0.8,0.1,1.3,0.1V17H9v-1.7C9,14.9,9.2,14.5,9.4,14.2z M8.6,11.4c-0.4-0.2-0.7-0.3-0.9-0.5s-0.3-0.4-0.3-0.7
		c0-0.3,0.1-0.5,0.3-0.7s0.5-0.3,0.9-0.4V11.4z"/>
</g>
</svg>
