<?xml version="1.0" encoding="UTF-8"?>
<svg width="8px" height="14px" viewBox="0 0 8 14" version="1.1" xmlns="http://www.w3.org/2000/svg" xmlns:xlink="http://www.w3.org/1999/xlink">
    <!-- Generator: Sketch 48.2 (47327) - http://www.bohemiancoding.com/sketch -->
    <title>Rectangle 3</title>
    <desc>Created with Sketch.</desc>
    <defs></defs>
    <g id="Video-Full" stroke="none" stroke-width="1" fill="none" fill-rule="evenodd" transform="translate(-348.000000, -703.000000)">
        <g id="Group-3" transform="translate(153.000000, 693.000000)" fill="#35393E" fill-rule="nonzero">
            <g id="Group-7" transform="translate(1.000000, 0.000000)">
                <g id="Group-6" transform="translate(195.500000, 17.500000) rotate(-180.000000) translate(-195.500000, -17.500000) translate(178.000000, 0.000000)">
                    <path d="M23.7,22 L22.7,23 L22.7,22 L23.7,22 Z M22.7,14.0126582 L23.7,13 L23.7,23 L13.825,23 L14.8125,22 L22.7,22 L22.7,14.0126582 Z M23.7,22 L22.7,23 L22.7,22 L23.7,22 Z M22.7,14.0126582 L23.7,13 L23.7,23 L13.825,23 L14.8125,22 L22.7,22 L22.7,14.0126582 Z" id="Rectangle-3" transform="translate(18.762500, 18.000000) rotate(-225.000000) translate(-18.762500, -18.000000) "></path>
                </g>
            </g>
        </g>
    </g>
</svg>