<?xml version="1.0" encoding="UTF-8"?>
<svg width="14px" height="7px" viewBox="0 0 14 7" version="1.1" xmlns="http://www.w3.org/2000/svg" xmlns:xlink="http://www.w3.org/1999/xlink">
    <!-- Generator: Sketch 48.2 (47327) - http://www.bohemiancoding.com/sketch -->
    <title>Rectangle 3</title>
    <desc>Created with Sketch.</desc>
    <defs></defs>
    <g id="Home" stroke="none" stroke-width="1" fill="none" fill-rule="evenodd" transform="translate(-47.000000, -241.000000)">
        <g id="Group-11" transform="translate(32.000000, 199.000000)" fill="#35393E" fill-rule="nonzero">
            <g id="Group-7" transform="translate(22.500000, 269.500000) rotate(-270.000000) translate(-22.500000, -269.500000) translate(-217.000000, 252.000000)">
                <g id="Group-6">
                    <path d="M24,22 L23,23 L23,22 L24,22 Z M23,14 L24,13 L24,23 L14,23 L15,22 L23,22 L23,14 Z M23,22 L24,22 L23,23 L23,22 Z M23,22 L23,14 L24,13 L24,23 L14,23 L15,22 L23,22 Z" id="Rectangle-3" transform="translate(19.000000, 18.000000) rotate(-225.000000) translate(-19.000000, -18.000000) "></path>
                </g>
            </g>
        </g>
    </g>
</svg>