<?xml version="1.0" encoding="UTF-8"?>
<svg width="90px" height="23px" viewBox="0 0 90 23" version="1.1" xmlns="http://www.w3.org/2000/svg" xmlns:xlink="http://www.w3.org/1999/xlink">
    <!-- Generator: Sketch 48.2 (47327) - http://www.bohemiancoding.com/sketch -->
    <title>EZRide</title>
    <desc>Created with Sketch.</desc>
    <defs></defs>
    <g id="Home" stroke="none" stroke-width="1" fill="none" fill-rule="evenodd" transform="translate(-34.000000, -18.000000)">
        <path d="M43.9330004,33.0122497 L40.5257503,33.0122497 L40.5257503,28.3633745 L47.0515006,28.3633745 L43.9330004,33.0122497 Z M46.7050006,40 L34.924,40 L34.924,21.3756242 L46.7050006,21.3756242 L49.8235007,26.0244994 L39.6017502,26.0244994 L39.6017502,35.3511248 L49.8235007,35.3511248 L46.7050006,40 Z M63.6546263,40.086625 L53.2885009,40.086625 C52.6532477,40.086625 52.1046281,39.8556273 51.6426258,39.393625 C51.1806235,38.9316226 50.9496258,38.3830031 50.9496258,37.7477499 L50.9496258,35.4377498 L59.5255011,26.1111244 L50.9496258,26.1111244 L54.0681259,21.4622492 L63.5391263,21.4622492 C64.1743795,21.4622492 64.7181866,21.6884344 65.1705639,22.1408117 C65.6229412,22.593189 65.8491264,23.1369961 65.8491264,23.7722493 L65.8491264,26.1111244 L57.273251,35.4377498 L66.8020015,35.4377498 L63.6546263,40.086625 Z M78.611877,40 L74.9736268,34.3982498 L72.5770017,34.3982498 L72.5770017,40 L67.9281265,40 L67.9281265,26.9484994 L72.5770017,26.9484994 L72.5770017,29.7493745 L78.178752,29.7493745 L78.178752,26.0244994 L67.9281265,26.0244994 L67.9281265,21.3756242 L80.5176271,21.3756242 C80.9796294,21.3756242 81.4801244,21.6451215 82.0191271,22.1841242 C82.5581299,22.7231269 82.8276272,23.2236219 82.8276272,23.6856243 L82.8276272,32.0882496 C82.8276272,32.6657526 82.5870046,33.1951223 82.1057521,33.6763747 C81.6244997,34.1576271 81.09513,34.3982498 80.5176271,34.3982498 L84.1270022,40 L78.611877,40 Z M85.5418773,40 L85.5418773,24.1764993 L90.2196275,24.1764993 L90.2196275,40 L85.5418773,40 Z M85.5418773,22.2996242 L85.5418773,18.574749 L90.2196275,18.574749 L90.2196275,22.2996242 L85.5418773,22.2996242 Z M92.5296276,28.8253745 L92.5296276,26.4864994 C92.5296276,25.8704963 92.7606253,25.3315017 93.2226276,24.8694993 C93.68463,24.407497 94.2332495,24.1764993 94.8685027,24.1764993 L101.856253,24.1764993 L101.856253,18.574749 L106.505128,18.574749 L106.505128,28.8253745 L92.5296276,28.8253745 Z M94.8685027,40 C94.2332495,40 93.68463,39.7690023 93.2226276,39.307 C92.7606253,38.8449976 92.5296276,38.2963781 92.5296276,37.6611249 L92.5296276,29.7493745 L97.2073778,29.7493745 L97.2073778,35.3511248 L101.856253,35.3511248 L101.856253,29.7493745 L106.505128,29.7493745 L106.505128,40 L94.8685027,40 Z M120.018629,34.3982498 L117.073379,34.3982498 L113.954879,29.7493745 L122.328629,29.7493745 L122.328629,32.0882496 C122.328629,32.7235029 122.102444,33.2673099 121.650066,33.7196872 C121.197689,34.1720645 120.653882,34.3982498 120.018629,34.3982498 Z M120.163004,40 L110.692003,40 C110.05675,40 109.508131,39.7690023 109.046128,39.307 C108.584126,38.8449976 108.353128,38.2963781 108.353128,37.6611249 L108.353128,26.4864994 C108.353128,25.8704963 108.584126,25.3315017 109.046128,24.8694993 C109.508131,24.407497 110.05675,24.1764993 110.692003,24.1764993 L120.018629,24.1764993 C120.653882,24.1764993 121.197689,24.4026845 121.650066,24.8550618 C122.102444,25.3074391 122.328629,25.8512462 122.328629,26.4864994 L122.328629,28.8253745 L113.030879,28.8253745 L113.030879,35.3511248 L123.281504,35.3511248 L120.163004,40 Z" id="EZRide" fill="#FFFFFF"></path>
    </g>
</svg>