<?xml version="1.0" encoding="UTF-8"?>
<svg width="185px" height="67px" viewBox="0 0 185 67" version="1.1" xmlns="http://www.w3.org/2000/svg" xmlns:xlink="http://www.w3.org/1999/xlink">
    <!-- Generator: Sketch 48.2 (47327) - http://www.bohemiancoding.com/sketch -->
    <title>Group</title>
    <desc>Created with Sketch.</desc>
    <defs></defs>
    <g id="Home-Copy" stroke="none" stroke-width="1" fill="none" fill-rule="evenodd" transform="translate(-627.000000, -360.000000)">
        <g id="Group" transform="translate(627.000000, 360.000000)" fill="#FFFFFF">
            <path d="M7.62880011,61.8560002 L7.65440011,61.8560002 L7.65440011,54.1376001 L8.57600013,54.1376001 L8.57600013,63.2000002 L7.42400011,63.2000002 L2.15040003,55.4048001 L2.12480003,55.4048001 L2.12480003,63.2000002 L1.20320002,63.2000002 L1.20320002,54.1376001 L2.35520004,54.1376001 L7.62880011,61.8560002 Z M16.8832003,60.2048002 C16.8832003,60.6570691 16.8042677,61.0751983 16.6464002,61.4592002 C16.4885328,61.8432021 16.2688017,62.1759988 15.9872002,62.4576002 C15.7055988,62.7392016 15.3685355,62.9589328 14.9760002,63.1168002 C14.5834649,63.2746677 14.1525359,63.3536002 13.6832002,63.3536002 C13.2223979,63.3536002 12.7957355,63.2746677 12.4032002,63.1168002 C12.0106649,62.9589328 11.6736016,62.7392016 11.3920002,62.4576002 C11.1103988,62.1759988 10.8906676,61.8432021 10.7328002,61.4592002 C10.5749327,61.0751983 10.4960002,60.6570691 10.4960002,60.2048002 C10.4960002,59.7525313 10.5749327,59.3344021 10.7328002,58.9504002 C10.8906676,58.5663982 11.1103988,58.2336016 11.3920002,57.9520002 C11.6736016,57.6703987 12.0106649,57.4506676 12.4032002,57.2928002 C12.7957355,57.1349327 13.2223979,57.0560001 13.6832002,57.0560001 C14.1525359,57.0560001 14.5834649,57.1349327 14.9760002,57.2928002 C15.3685355,57.4506676 15.7055988,57.6703987 15.9872002,57.9520002 C16.2688017,58.2336016 16.4885328,58.5663982 16.6464002,58.9504002 C16.8042677,59.3344021 16.8832003,59.7525313 16.8832003,60.2048002 Z M15.9616002,60.2048002 C15.9616002,59.8719985 15.9082674,59.5584017 15.8016002,59.2640002 C15.694933,58.9695987 15.5434679,58.7136013 15.3472002,58.4960002 C15.1509326,58.2783991 14.9120016,58.1056008 14.6304002,57.9776002 C14.3487988,57.8495995 14.0330686,57.7856002 13.6832002,57.7856002 C13.3333318,57.7856002 13.0197349,57.8495995 12.7424002,57.9776002 C12.4650655,58.1056008 12.2282678,58.2783991 12.0320002,58.4960002 C11.8357325,58.7136013 11.6842674,58.9695987 11.5776002,59.2640002 C11.470933,59.5584017 11.4176002,59.8719985 11.4176002,60.2048002 C11.4176002,60.5376019 11.470933,60.8511987 11.5776002,61.1456002 C11.6842674,61.4400017 11.8357325,61.6959991 12.0320002,61.9136002 C12.2282678,62.1312013 12.4650655,62.3018663 12.7424002,62.4256002 C13.0197349,62.5493342 13.3333318,62.6112002 13.6832002,62.6112002 C14.0330686,62.6112002 14.3487988,62.5493342 14.6304002,62.4256002 C14.9120016,62.3018663 15.1509326,62.1312013 15.3472002,61.9136002 C15.5434679,61.6959991 15.694933,61.4400017 15.8016002,61.1456002 C15.9082674,60.8511987 15.9616002,60.5376019 15.9616002,60.2048002 Z M22.8224003,66.2720003 L21.9520003,66.2720003 L21.9520003,57.2096001 L22.8224003,57.2096001 L22.8224003,58.2464002 L22.8608003,58.2464002 C23.1082682,57.8538649 23.4389316,57.5573345 23.8528004,57.3568002 C24.2666691,57.1562658 24.6869316,57.0560001 25.1136004,57.0560001 C25.5829361,57.0560001 26.0074652,57.137066 26.3872004,57.2992002 C26.7669356,57.4613343 27.0911991,57.6831987 27.3600004,57.9648002 C27.6288018,58.2464016 27.8378663,58.5791982 27.9872004,58.9632002 C28.1365345,59.3472021 28.2112004,59.7610646 28.2112004,60.2048002 C28.2112004,60.6485358 28.1365345,61.0623983 27.9872004,61.4464002 C27.8378663,61.8304021 27.6288018,62.1631988 27.3600004,62.4448002 C27.0911991,62.7264016 26.7669356,62.9482661 26.3872004,63.1104002 C26.0074652,63.2725344 25.5829361,63.3536002 25.1136004,63.3536002 C24.6869316,63.3536002 24.2666691,63.2533346 23.8528004,63.0528002 C23.4389316,62.8522659 23.1082682,62.5642688 22.8608003,62.1888002 L22.8224003,62.1888002 L22.8224003,66.2720003 Z M27.2896004,60.2048002 C27.2896004,59.8719985 27.2384009,59.5584017 27.1360004,59.2640002 C27.0335999,58.9695987 26.8864014,58.7136013 26.6944004,58.4960002 C26.5023994,58.2783991 26.2656018,58.1056008 25.9840004,57.9776002 C25.702399,57.8495995 25.3824022,57.7856002 25.0240004,57.7856002 C24.6911987,57.7856002 24.3840018,57.8474662 24.1024004,57.9712002 C23.8207989,58.0949341 23.5776014,58.2655991 23.3728003,58.4832002 C23.1679993,58.7008013 23.0080009,58.9567987 22.8928003,59.2512002 C22.7775998,59.5456017 22.7200003,59.8634651 22.7200003,60.2048002 C22.7200003,60.5461352 22.7775998,60.8639987 22.8928003,61.1584002 C23.0080009,61.4528017 23.1679993,61.7066658 23.3728003,61.9200002 C23.5776014,62.1333346 23.8207989,62.3018663 24.1024004,62.4256002 C24.3840018,62.5493342 24.6911987,62.6112002 25.0240004,62.6112002 C25.3824022,62.6112002 25.702399,62.5493342 25.9840004,62.4256002 C26.2656018,62.3018663 26.5023994,62.1312013 26.6944004,61.9136002 C26.8864014,61.6959991 27.0335999,61.4400017 27.1360004,61.1456002 C27.2384009,60.8511987 27.2896004,60.5376019 27.2896004,60.2048002 Z M33.8560005,59.3344002 C33.8560005,58.8138642 33.7194685,58.4256014 33.4464005,58.1696002 C33.1733325,57.9135989 32.7765364,57.7856002 32.2560005,57.7856002 C31.8975987,57.7856002 31.564802,57.8495995 31.2576005,57.9776002 C30.9503989,58.1056008 30.6901349,58.2762658 30.4768005,58.4896002 L29.9904004,57.9136002 C30.2378684,57.6661323 30.5642651,57.4613343 30.9696005,57.2992002 C31.3749358,57.137066 31.8335979,57.0560001 32.3456005,57.0560001 C32.6698688,57.0560001 32.9727991,57.1007997 33.2544005,57.1904001 C33.5360019,57.2800006 33.7834661,57.4143993 33.9968005,57.5936002 C34.2101349,57.7728011 34.3765332,57.9989321 34.4960005,58.2720002 C34.6154678,58.5450682 34.6752005,58.865065 34.6752005,59.2320002 L34.6752005,61.8560002 C34.6752005,62.0864014 34.6837338,62.3253323 34.7008005,62.5728002 C34.7178673,62.8202681 34.743467,63.0293327 34.7776005,63.2000002 L33.9968005,63.2000002 C33.9712004,63.0549328 33.9498673,62.8970678 33.9328005,62.7264002 C33.9157338,62.5557327 33.9072005,62.3893344 33.9072005,62.2272002 L33.8816005,62.2272002 C33.6085325,62.6282689 33.2992022,62.916266 32.9536005,63.0912002 C32.6079988,63.2661344 32.1920029,63.3536002 31.7056005,63.3536002 C31.4751993,63.3536002 31.2384017,63.3216006 30.9952005,63.2576002 C30.7519992,63.1935999 30.5301348,63.0890676 30.3296005,62.9440002 C30.1290661,62.7989328 29.9626678,62.6112014 29.8304004,62.3808002 C29.6981331,62.1503991 29.6320004,61.8688019 29.6320004,61.5360002 C29.6320004,61.0751979 29.7493326,60.7104015 29.9840004,60.4416002 C30.2186683,60.1727988 30.5322652,59.9722675 30.9248005,59.8400002 C31.3173358,59.7077329 31.7674646,59.6224004 32.2752005,59.5840002 C32.7829364,59.5456 33.3098644,59.5264002 33.8560005,59.5264002 L33.8560005,59.3344002 Z M33.6000005,60.2048002 C33.2415987,60.2048002 32.881069,60.2197334 32.5184005,60.2496002 C32.155732,60.279467 31.8272019,60.3391997 31.5328005,60.4288002 C31.238399,60.5184006 30.9973347,60.6485327 30.8096005,60.8192002 C30.6218662,60.9898677 30.5280005,61.2159988 30.5280005,61.4976002 C30.5280005,61.7109346 30.5685334,61.8901328 30.6496005,62.0352002 C30.7306675,62.1802676 30.8394664,62.2975998 30.9760005,62.3872002 C31.1125345,62.4768007 31.2639996,62.5408 31.4304005,62.5792002 C31.5968013,62.6176004 31.765333,62.6368002 31.9360005,62.6368002 C32.243202,62.6368002 32.516266,62.5834674 32.7552005,62.4768002 C32.994135,62.370133 33.1946664,62.2250678 33.3568005,62.0416002 C33.5189346,61.8581326 33.6426667,61.6469347 33.7280005,61.4080002 C33.8133343,61.1690657 33.8560005,60.9173349 33.8560005,60.6528002 L33.8560005,60.2048002 L33.6000005,60.2048002 Z M37.2352006,64.4032003 C37.4741351,64.7104018 37.8005318,64.9706659 38.2144006,65.1840003 C38.6282693,65.3973347 39.0655983,65.5040003 39.5264006,65.5040003 C39.9530694,65.5040003 40.3157324,65.4421342 40.6144006,65.3184003 C40.9130688,65.1946663 41.154133,65.0261347 41.3376006,64.8128003 C41.5210682,64.5994659 41.6554669,64.3498684 41.7408006,64.0640003 C41.8261344,63.7781322 41.8688006,63.4730685 41.8688006,63.1488002 L41.8688006,62.0224002 L41.8432006,62.0224002 C41.6127995,62.3978688 41.2864027,62.6879992 40.8640006,62.8928002 C40.4415985,63.0976013 40.0128028,63.2000002 39.5776006,63.2000002 C39.1082649,63.2000002 38.6837358,63.123201 38.3040006,62.9696002 C37.9242653,62.8159995 37.6000019,62.6048016 37.3312006,62.3360002 C37.0623992,62.0671989 36.8533346,61.7450688 36.7040005,61.3696002 C36.5546665,60.9941317 36.4800005,60.5888024 36.4800005,60.1536002 C36.4800005,59.7269314 36.5546665,59.3258687 36.7040005,58.9504002 C36.8533346,58.5749316 37.0623992,58.2464016 37.3312006,57.9648002 C37.6000019,57.6831987 37.9242653,57.4613343 38.3040006,57.2992002 C38.6837358,57.137066 39.1082649,57.0560001 39.5776006,57.0560001 C40.0128028,57.0560001 40.4394652,57.1583991 40.8576006,57.3632002 C41.275736,57.5680012 41.6042661,57.8623982 41.8432006,58.2464002 L41.8688006,58.2464002 L41.8688006,57.2096001 L42.7392006,57.2096001 L42.7392006,63.1488002 C42.7392006,63.4730685 42.6944011,63.8186651 42.6048006,64.1856003 C42.5152002,64.5525354 42.3488018,64.8895987 42.1056006,65.1968003 C41.8623994,65.5040018 41.531736,65.7599993 41.1136006,65.9648003 C40.6954652,66.1696013 40.1536039,66.2720003 39.4880006,66.2720003 C38.9333311,66.2720003 38.4042698,66.1653347 37.9008006,65.9520003 C37.3973314,65.7386659 36.9664023,65.4442688 36.6080005,65.0688003 L37.2352006,64.4032003 Z M37.4016006,60.1280002 C37.4016006,60.4437351 37.4528,60.7423988 37.5552006,61.0240002 C37.6576011,61.3056016 37.8047996,61.5530658 37.9968006,61.7664002 C38.1888015,61.9797346 38.4255992,62.1482663 38.7072006,62.2720002 C38.988802,62.3957342 39.3087988,62.4576002 39.6672006,62.4576002 C40.0000023,62.4576002 40.3071992,62.4021341 40.5888006,62.2912002 C40.870402,62.1802663 41.1135996,62.0224012 41.3184006,61.8176002 C41.5232016,61.6127992 41.6832,61.3674683 41.7984006,61.0816002 C41.9136012,60.7957321 41.9712006,60.4778686 41.9712006,60.1280002 C41.9712006,59.8122653 41.9136012,59.5136016 41.7984006,59.2320002 C41.6832,58.9503988 41.5232016,58.7029346 41.3184006,58.4896002 C41.1135996,58.2762658 40.870402,58.1056008 40.5888006,57.9776002 C40.3071992,57.8495995 40.0000023,57.7856002 39.6672006,57.7856002 C39.3087988,57.7856002 38.988802,57.8495995 38.7072006,57.9776002 C38.4255992,58.1056008 38.1888015,58.2762658 37.9968006,58.4896002 C37.8047996,58.7029346 37.6576011,58.9503988 37.5552006,59.2320002 C37.4528,59.5136016 37.4016006,59.8122653 37.4016006,60.1280002 Z M49.3568007,63.2000002 C49.339734,63.0378661 49.3269341,62.8586679 49.3184007,62.6624002 C49.3098674,62.4661326 49.3056007,62.3040009 49.3056007,62.1760002 L49.2800007,62.1760002 C49.1093332,62.5258686 48.8320026,62.8095991 48.4480007,63.0272002 C48.0639988,63.2448013 47.6586695,63.3536002 47.2320007,63.3536002 C46.4725302,63.3536002 45.9029359,63.1274692 45.5232007,62.6752002 C45.1434654,62.2229313 44.9536007,61.6256039 44.9536007,60.8832002 L44.9536007,57.2096001 L45.8240007,57.2096001 L45.8240007,60.5248002 C45.8240007,60.8405351 45.8496004,61.1263989 45.9008007,61.3824002 C45.9520009,61.6384015 46.0394667,61.8581326 46.1632007,62.0416002 C46.2869346,62.2250678 46.453333,62.3679997 46.6624007,62.4704002 C46.8714684,62.5728007 47.1338658,62.6240002 47.4496007,62.6240002 C47.6800019,62.6240002 47.9039996,62.5770674 48.1216007,62.4832002 C48.3392018,62.3893331 48.5333332,62.2464012 48.7040007,62.0544002 C48.8746682,61.8623993 49.0112002,61.6192017 49.1136007,61.3248002 C49.2160012,61.0303987 49.2672007,60.6826689 49.2672007,60.2816002 L49.2672007,57.2096001 L50.1376007,57.2096001 L50.1376007,61.8816002 C50.1376007,62.0437344 50.1418674,62.2527989 50.1504007,62.5088002 C50.1589341,62.7648015 50.171734,62.9951992 50.1888007,63.2000002 L49.3568007,63.2000002 Z M57.0112008,59.7440002 C56.9856007,59.1807974 56.8042692,58.713602 56.4672008,58.3424002 C56.1301325,57.9711983 55.6501373,57.7856002 55.0272008,57.7856002 C54.737066,57.7856002 54.4682687,57.838933 54.2208008,57.9456002 C53.9733329,58.0522674 53.7557351,58.1973326 53.5680008,58.3808002 C53.3802665,58.5642678 53.2309347,58.7733323 53.1200008,59.0080002 C53.0090669,59.242668 52.9450675,59.4879989 52.9280008,59.7440002 L57.0112008,59.7440002 Z M57.8944009,60.0256002 L57.8944009,60.2176002 C57.8944009,60.2858672 57.8901342,60.3583998 57.8816009,60.4352002 L52.9152008,60.4352002 C52.9237342,60.7338684 52.9834669,61.0154655 53.0944008,61.2800002 C53.2053347,61.5445349 53.3589331,61.7749326 53.5552008,61.9712002 C53.7514684,62.1674679 53.9818661,62.3231996 54.2464008,62.4384002 C54.5109355,62.5536008 54.7967993,62.6112002 55.1040008,62.6112002 C55.5562698,62.6112002 55.9466659,62.5066679 56.2752008,62.2976002 C56.6037358,62.0885325 56.8533333,61.8474683 57.0240008,61.5744002 L57.6768009,62.0864002 C57.3183991,62.5386692 56.9237363,62.8629326 56.4928008,63.0592002 C56.0618653,63.2554679 55.5989366,63.3536002 55.1040008,63.3536002 C54.6602653,63.3536002 54.248536,63.2746677 53.8688008,63.1168002 C53.4890656,62.9589328 53.1626688,62.7392016 52.8896008,62.4576002 C52.6165328,62.1759988 52.4010682,61.8432021 52.2432008,61.4592002 C52.0853333,61.0751983 52.0064008,60.6570691 52.0064008,60.2048002 C52.0064008,59.7525313 52.0832,59.3344021 52.2368008,58.9504002 C52.3904015,58.5663982 52.6037328,58.2336016 52.8768008,57.9520002 C53.1498688,57.6703987 53.4698656,57.4506676 53.8368008,57.2928002 C54.203736,57.1349327 54.600532,57.0560001 55.0272008,57.0560001 C55.4965365,57.0560001 55.910399,57.1349327 56.2688008,57.2928002 C56.6272026,57.4506676 56.9258663,57.6639988 57.1648009,57.9328002 C57.4037354,58.2016015 57.5850669,58.5151984 57.7088009,58.8736002 C57.8325348,59.232002 57.8944009,59.6159981 57.8944009,60.0256002 Z M62.9504009,58.6304002 C62.8224003,58.3829323 62.6282689,58.1802676 62.3680009,58.0224002 C62.107733,57.8645327 61.8112026,57.7856002 61.4784009,57.7856002 C61.3248001,57.7856002 61.1712017,57.8026667 61.0176009,57.8368002 C60.8640001,57.8709337 60.7274682,57.9263998 60.6080009,58.0032002 C60.4885336,58.0800005 60.3925346,58.1781329 60.3200009,58.2976002 C60.2474672,58.4170674 60.2112009,58.557866 60.2112009,58.7200002 C60.2112009,59.0016016 60.3263997,59.2170661 60.5568009,59.3664002 C60.7872021,59.5157343 61.1498651,59.6415997 61.6448009,59.7440002 C62.3530711,59.8890676 62.8757326,60.1002655 63.2128009,60.3776002 C63.5498693,60.6549349 63.7184009,61.0282645 63.7184009,61.4976002 C63.7184009,61.8389353 63.6522683,62.1269324 63.5200009,62.3616002 C63.3877336,62.5962681 63.2149353,62.7882662 63.0016009,62.9376002 C62.7882665,63.0869343 62.5472023,63.1935999 62.2784009,63.2576002 C62.0095996,63.3216006 61.738669,63.3536002 61.4656009,63.3536002 C61.013332,63.3536002 60.5738697,63.2597345 60.1472009,63.0720002 C59.7205321,62.884266 59.3706689,62.5898689 59.0976009,62.1888002 L59.7888009,61.6768002 C59.9424017,61.9413349 60.1685327,62.1631993 60.4672009,62.3424002 C60.7658691,62.5216011 61.0943991,62.6112002 61.4528009,62.6112002 C61.6405352,62.6112002 61.8197334,62.5941337 61.9904009,62.5600002 C62.1610684,62.5258667 62.3104003,62.466134 62.4384009,62.3808002 C62.5664016,62.2954665 62.6688005,62.1866676 62.7456009,62.0544002 C62.8224013,61.9221329 62.8608009,61.7578679 62.8608009,61.5616002 C62.8608009,61.2458653 62.7093358,61.0090677 62.4064009,60.8512002 C62.1034661,60.6933327 61.6661371,60.5461342 61.0944009,60.4096002 C60.9152,60.3669333 60.7253352,60.3136005 60.5248009,60.2496002 C60.3242666,60.1855999 60.1386684,60.0917341 59.9680009,59.9680002 C59.7973334,59.8442662 59.6565348,59.6885345 59.5456009,59.5008002 C59.434667,59.3130659 59.3792009,59.0784016 59.3792009,58.7968002 C59.3792009,58.4895986 59.4389336,58.2272013 59.5584009,58.0096002 C59.6778682,57.7919991 59.8378666,57.6128009 60.0384009,57.4720002 C60.2389352,57.3311994 60.4671996,57.2266672 60.7232009,57.1584001 C60.9792022,57.0901331 61.2437329,57.0560001 61.5168009,57.0560001 C61.9349363,57.0560001 62.3402656,57.1498659 62.7328009,57.3376002 C63.1253362,57.5253344 63.4197333,57.7898651 63.6160009,58.1312002 L62.9504009,58.6304002 Z M68.646401,58.5280002 C68.646401,58.365866 68.6421344,58.1568014 68.633601,57.9008002 C68.6250676,57.6447989 68.6122678,57.4144012 68.595201,57.2096001 L69.427201,57.2096001 C69.4442678,57.3717343 69.4570677,57.5509325 69.465601,57.7472002 C69.4741344,57.9434678 69.478401,58.1055995 69.478401,58.2336002 L69.504001,58.2336002 C69.6746686,57.8837317 69.930666,57.6000012 70.272001,57.3824002 C70.6133361,57.1647991 70.9973323,57.0560001 71.4240011,57.0560001 C71.534935,57.0560001 71.6352006,57.0602668 71.7248011,57.0688001 C71.8144015,57.0773335 71.9061339,57.0944 72.0000011,57.1200001 L71.8848011,57.9392002 C71.8336008,57.9221334 71.7482683,57.9050669 71.6288011,57.8880002 C71.5093338,57.8709334 71.3898683,57.8624002 71.2704011,57.8624002 C71.0399999,57.8624002 70.8181355,57.9050664 70.6048011,57.9904002 C70.3914666,58.0757339 70.2058685,58.2101326 70.048001,58.3936002 C69.8901336,58.5770678 69.7621349,58.8117321 69.664001,59.0976002 C69.5658672,59.3834683 69.516801,59.7269315 69.516801,60.1280002 L69.516801,63.2000002 L68.646401,63.2000002 L68.646401,58.5280002 Z M77.5936012,59.7440002 C77.568001,59.1807974 77.3866695,58.713602 77.0496011,58.3424002 C76.7125328,57.9711983 76.2325376,57.7856002 75.6096011,57.7856002 C75.3194663,57.7856002 75.050669,57.838933 74.8032011,57.9456002 C74.5557332,58.0522674 74.3381354,58.1973326 74.1504011,58.3808002 C73.9626668,58.5642678 73.813335,58.7733323 73.7024011,59.0080002 C73.5914672,59.242668 73.5274678,59.4879989 73.5104011,59.7440002 L77.5936012,59.7440002 Z M78.4768012,60.0256002 L78.4768012,60.2176002 C78.4768012,60.2858672 78.4725345,60.3583998 78.4640012,60.4352002 L73.4976011,60.4352002 C73.5061345,60.7338684 73.5658672,61.0154655 73.6768011,61.2800002 C73.787735,61.5445349 73.9413335,61.7749326 74.1376011,61.9712002 C74.3338688,62.1674679 74.5642665,62.3231996 74.8288011,62.4384002 C75.0933358,62.5536008 75.3791996,62.6112002 75.6864011,62.6112002 C76.1386701,62.6112002 76.5290662,62.5066679 76.8576011,62.2976002 C77.1861361,62.0885325 77.4357336,61.8474683 77.6064012,61.5744002 L78.2592012,62.0864002 C77.9007994,62.5386692 77.5061366,62.8629326 77.0752011,63.0592002 C76.6442657,63.2554679 76.1813369,63.3536002 75.6864011,63.3536002 C75.2426656,63.3536002 74.8309363,63.2746677 74.4512011,63.1168002 C74.0714659,62.9589328 73.7450691,62.7392016 73.4720011,62.4576002 C73.1989331,62.1759988 72.9834685,61.8432021 72.8256011,61.4592002 C72.6677336,61.0751983 72.5888011,60.6570691 72.5888011,60.2048002 C72.5888011,59.7525313 72.6656003,59.3344021 72.8192011,58.9504002 C72.9728019,58.5663982 73.1861331,58.2336016 73.4592011,57.9520002 C73.7322691,57.6703987 74.0522659,57.4506676 74.4192011,57.2928002 C74.7861363,57.1349327 75.1829323,57.0560001 75.6096011,57.0560001 C76.0789368,57.0560001 76.4927993,57.1349327 76.8512011,57.2928002 C77.2096029,57.4506676 77.5082666,57.6639988 77.7472012,57.9328002 C77.9861357,58.2016015 78.1674672,58.5151984 78.2912012,58.8736002 C78.4149351,59.232002 78.4768012,59.6159981 78.4768012,60.0256002 Z M81.1264012,57.2096001 C81.143468,57.3717343 81.1562678,57.5509325 81.1648012,57.7472002 C81.1733346,57.9434678 81.1776012,58.1055995 81.1776012,58.2336002 L81.2032012,58.2336002 C81.3738687,57.8837317 81.6511993,57.6000012 82.0352012,57.3824002 C82.4192031,57.1647991 82.8245324,57.0560001 83.2512012,57.0560001 C84.0106717,57.0560001 84.580266,57.2821312 84.9600013,57.7344002 C85.3397365,58.1866691 85.5296013,58.7839965 85.5296013,59.5264002 L85.5296013,63.2000002 L84.6592013,63.2000002 L84.6592013,59.8848002 C84.6592013,59.5690653 84.6336015,59.2832015 84.5824013,59.0272002 C84.531201,58.7711989 84.4437352,58.5514678 84.3200013,58.3680002 C84.1962673,58.1845326 84.029869,58.0416007 83.8208012,57.9392002 C83.6117335,57.8367996 83.3493362,57.7856002 83.0336012,57.7856002 C82.8032001,57.7856002 82.5792023,57.832533 82.3616012,57.9264002 C82.1440001,58.0202673 81.9498687,58.1631992 81.7792012,58.3552002 C81.6085337,58.5472011 81.4720017,58.7903987 81.3696012,59.0848002 C81.2672007,59.3792017 81.2160012,59.7269315 81.2160012,60.1280002 L81.2160012,63.2000002 L80.3456012,63.2000002 L80.3456012,58.5280002 C80.3456012,58.365866 80.3413346,58.1568014 80.3328012,57.9008002 C80.3242678,57.6447989 80.3114679,57.4144012 80.2944012,57.2096001 L81.1264012,57.2096001 Z M90.4832013,57.9392002 L88.7936013,57.9392002 L88.7936013,61.4336002 C88.7936013,61.655468 88.8149344,61.8389328 88.8576013,61.9840002 C88.9002682,62.1290676 88.9621343,62.2421332 89.0432013,62.3232002 C89.1242684,62.4042673 89.2202674,62.4597334 89.3312013,62.4896002 C89.4421352,62.519467 89.5616007,62.5344002 89.6896013,62.5344002 C89.8090686,62.5344002 89.934934,62.5173337 90.0672013,62.4832002 C90.1994687,62.4490667 90.3253341,62.4021339 90.4448013,62.3424002 L90.4832013,63.0976002 C90.3296006,63.1573339 90.1696022,63.2021334 90.0032013,63.2320002 C89.8368005,63.2618671 89.655469,63.2768002 89.4592013,63.2768002 C89.2970672,63.2768002 89.1264022,63.2554671 88.9472013,63.2128002 C88.7680004,63.1701334 88.6016021,63.0890675 88.4480013,62.9696002 C88.2944005,62.850133 88.1685351,62.6880013 88.0704013,62.4832002 C87.9722675,62.2783992 87.9232013,62.0096019 87.9232013,61.6768002 L87.9232013,57.9392002 L86.6816013,57.9392002 L86.6816013,57.2096001 L87.9232013,57.2096001 L87.9232013,55.5200001 L88.7936013,55.5200001 L88.7936013,57.2096001 L90.4832013,57.2096001 L90.4832013,57.9392002 Z M95.6160014,59.3344002 C95.6160014,58.8138642 95.4794695,58.4256014 95.2064014,58.1696002 C94.9333334,57.9135989 94.5365373,57.7856002 94.0160014,57.7856002 C93.6575996,57.7856002 93.3248029,57.8495995 93.0176014,57.9776002 C92.7103998,58.1056008 92.4501358,58.2762658 92.2368014,58.4896002 L91.7504014,57.9136002 C91.9978693,57.6661323 92.324266,57.4613343 92.7296014,57.2992002 C93.1349367,57.137066 93.5935988,57.0560001 94.1056014,57.0560001 C94.4298697,57.0560001 94.7328,57.1007997 95.0144014,57.1904001 C95.2960028,57.2800006 95.543467,57.4143993 95.7568014,57.5936002 C95.9701358,57.7728011 96.1365342,57.9989321 96.2560014,58.2720002 C96.3754687,58.5450682 96.4352014,58.865065 96.4352014,59.2320002 L96.4352014,61.8560002 C96.4352014,62.0864014 96.4437347,62.3253323 96.4608014,62.5728002 C96.4778682,62.8202681 96.5034679,63.0293327 96.5376014,63.2000002 L95.7568014,63.2000002 C95.7312013,63.0549328 95.7098682,62.8970678 95.6928014,62.7264002 C95.6757347,62.5557327 95.6672014,62.3893344 95.6672014,62.2272002 L95.6416014,62.2272002 C95.3685334,62.6282689 95.0592031,62.916266 94.7136014,63.0912002 C94.3679997,63.2661344 93.9520038,63.3536002 93.4656014,63.3536002 C93.2352002,63.3536002 92.9984026,63.3216006 92.7552014,63.2576002 C92.5120002,63.1935999 92.2901357,63.0890676 92.0896014,62.9440002 C91.889067,62.7989328 91.7226687,62.6112014 91.5904014,62.3808002 C91.458134,62.1503991 91.3920014,61.8688019 91.3920014,61.5360002 C91.3920014,61.0751979 91.5093335,60.7104015 91.7440014,60.4416002 C91.9786692,60.1727988 92.2922661,59.9722675 92.6848014,59.8400002 C93.0773367,59.7077329 93.5274655,59.6224004 94.0352014,59.5840002 C94.5429373,59.5456 95.0698654,59.5264002 95.6160014,59.5264002 L95.6160014,59.3344002 Z M95.3600014,60.2048002 C95.0015996,60.2048002 94.6410699,60.2197334 94.2784014,60.2496002 C93.9157329,60.279467 93.5872029,60.3391997 93.2928014,60.4288002 C92.9983999,60.5184006 92.7573357,60.6485327 92.5696014,60.8192002 C92.3818671,60.9898677 92.2880014,61.2159988 92.2880014,61.4976002 C92.2880014,61.7109346 92.3285343,61.8901328 92.4096014,62.0352002 C92.4906685,62.1802676 92.5994674,62.2975998 92.7360014,62.3872002 C92.8725354,62.4768007 93.0240006,62.5408 93.1904014,62.5792002 C93.3568022,62.6176004 93.5253339,62.6368002 93.6960014,62.6368002 C94.0032029,62.6368002 94.2762669,62.5834674 94.5152014,62.4768002 C94.7541359,62.370133 94.9546673,62.2250678 95.1168014,62.0416002 C95.2789356,61.8581326 95.4026677,61.6469347 95.4880014,61.4080002 C95.5733352,61.1690657 95.6160014,60.9173349 95.6160014,60.6528002 L95.6160014,60.2048002 L95.3600014,60.2048002 Z M102.745602,66.2720003 L101.875202,66.2720003 L101.875202,57.2096001 L102.745602,57.2096001 L102.745602,58.2464002 L102.784002,58.2464002 C103.031469,57.8538649 103.362133,57.5573345 103.776002,57.3568002 C104.18987,57.1562658 104.610133,57.0560001 105.036802,57.0560001 C105.506137,57.0560001 105.930666,57.137066 106.310402,57.2992002 C106.690137,57.4613343 107.0144,57.6831987 107.283202,57.9648002 C107.552003,58.2464016 107.761068,58.5791982 107.910402,58.9632002 C108.059736,59.3472021 108.134402,59.7610646 108.134402,60.2048002 C108.134402,60.6485358 108.059736,61.0623983 107.910402,61.4464002 C107.761068,61.8304021 107.552003,62.1631988 107.283202,62.4448002 C107.0144,62.7264016 106.690137,62.9482661 106.310402,63.1104002 C105.930666,63.2725344 105.506137,63.3536002 105.036802,63.3536002 C104.610133,63.3536002 104.18987,63.2533346 103.776002,63.0528002 C103.362133,62.8522659 103.031469,62.5642688 102.784002,62.1888002 L102.745602,62.1888002 L102.745602,66.2720003 Z M107.212802,60.2048002 C107.212802,59.8719985 107.161602,59.5584017 107.059202,59.2640002 C106.956801,58.9695987 106.809603,58.7136013 106.617602,58.4960002 C106.425601,58.2783991 106.188803,58.1056008 105.907202,57.9776002 C105.6256,57.8495995 105.305603,57.7856002 104.947202,57.7856002 C104.6144,57.7856002 104.307203,57.8474662 104.025602,57.9712002 C103.744,58.0949341 103.500803,58.2655991 103.296002,58.4832002 C103.091201,58.7008013 102.931202,58.9567987 102.816002,59.2512002 C102.700801,59.5456017 102.643202,59.8634651 102.643202,60.2048002 C102.643202,60.5461352 102.700801,60.8639987 102.816002,61.1584002 C102.931202,61.4528017 103.091201,61.7066658 103.296002,61.9200002 C103.500803,62.1333346 103.744,62.3018663 104.025602,62.4256002 C104.307203,62.5493342 104.6144,62.6112002 104.947202,62.6112002 C105.305603,62.6112002 105.6256,62.5493342 105.907202,62.4256002 C106.188803,62.3018663 106.425601,62.1312013 106.617602,61.9136002 C106.809603,61.6959991 106.956801,61.4400017 107.059202,61.1456002 C107.161602,60.8511987 107.212802,60.5376019 107.212802,60.2048002 Z M113.779202,59.3344002 C113.779202,58.8138642 113.64267,58.4256014 113.369602,58.1696002 C113.096534,57.9135989 112.699738,57.7856002 112.179202,57.7856002 C111.8208,57.7856002 111.488003,57.8495995 111.180802,57.9776002 C110.8736,58.1056008 110.613336,58.2762658 110.400002,58.4896002 L109.913602,57.9136002 C110.16107,57.6661323 110.487466,57.4613343 110.892802,57.2992002 C111.298137,57.137066 111.756799,57.0560001 112.268802,57.0560001 C112.59307,57.0560001 112.896,57.1007997 113.177602,57.1904001 C113.459203,57.2800006 113.706667,57.4143993 113.920002,57.5936002 C114.133336,57.7728011 114.299734,57.9989321 114.419202,58.2720002 C114.538669,58.5450682 114.598402,58.865065 114.598402,59.2320002 L114.598402,61.8560002 C114.598402,62.0864014 114.606935,62.3253323 114.624002,62.5728002 C114.641068,62.8202681 114.666668,63.0293327 114.700802,63.2000002 L113.920002,63.2000002 C113.894402,63.0549328 113.873068,62.8970678 113.856002,62.7264002 C113.838935,62.5557327 113.830402,62.3893344 113.830402,62.2272002 L113.804802,62.2272002 C113.531734,62.6282689 113.222403,62.916266 112.876802,63.0912002 C112.5312,63.2661344 112.115204,63.3536002 111.628802,63.3536002 C111.398401,63.3536002 111.161603,63.3216006 110.918402,63.2576002 C110.6752,63.1935999 110.453336,63.0890676 110.252802,62.9440002 C110.052267,62.7989328 109.885869,62.6112014 109.753602,62.3808002 C109.621334,62.1503991 109.555202,61.8688019 109.555202,61.5360002 C109.555202,61.0751979 109.672534,60.7104015 109.907202,60.4416002 C110.141869,60.1727988 110.455466,59.9722675 110.848002,59.8400002 C111.240537,59.7077329 111.690666,59.6224004 112.198402,59.5840002 C112.706138,59.5456 113.233066,59.5264002 113.779202,59.5264002 L113.779202,59.3344002 Z M113.523202,60.2048002 C113.1648,60.2048002 112.80427,60.2197334 112.441602,60.2496002 C112.078933,60.279467 111.750403,60.3391997 111.456002,60.4288002 C111.1616,60.5184006 110.920536,60.6485327 110.732802,60.8192002 C110.545067,60.9898677 110.451202,61.2159988 110.451202,61.4976002 C110.451202,61.7109346 110.491735,61.8901328 110.572802,62.0352002 C110.653869,62.1802676 110.762668,62.2975998 110.899202,62.3872002 C111.035736,62.4768007 111.187201,62.5408 111.353602,62.5792002 C111.520002,62.6176004 111.688534,62.6368002 111.859202,62.6368002 C112.166403,62.6368002 112.439467,62.5834674 112.678402,62.4768002 C112.917336,62.370133 113.117868,62.2250678 113.280002,62.0416002 C113.442136,61.8581326 113.565868,61.6469347 113.651202,61.4080002 C113.736535,61.1690657 113.779202,60.9173349 113.779202,60.6528002 L113.779202,60.2048002 L113.523202,60.2048002 Z M117.158402,64.4032003 C117.397336,64.7104018 117.723733,64.9706659 118.137602,65.1840003 C118.551471,65.3973347 118.988799,65.5040003 119.449602,65.5040003 C119.876271,65.5040003 120.238934,65.4421342 120.537602,65.3184003 C120.83627,65.1946663 121.077334,65.0261347 121.260802,64.8128003 C121.444269,64.5994659 121.578668,64.3498684 121.664002,64.0640003 C121.749336,63.7781322 121.792002,63.4730685 121.792002,63.1488002 L121.792002,62.0224002 L121.766402,62.0224002 C121.536001,62.3978688 121.209604,62.6879992 120.787202,62.8928002 C120.3648,63.0976013 119.936004,63.2000002 119.500802,63.2000002 C119.031466,63.2000002 118.606937,63.123201 118.227202,62.9696002 C117.847467,62.8159995 117.523203,62.6048016 117.254402,62.3360002 C116.9856,62.0671989 116.776536,61.7450688 116.627202,61.3696002 C116.477868,60.9941317 116.403202,60.5888024 116.403202,60.1536002 C116.403202,59.7269314 116.477868,59.3258687 116.627202,58.9504002 C116.776536,58.5749316 116.9856,58.2464016 117.254402,57.9648002 C117.523203,57.6831987 117.847467,57.4613343 118.227202,57.2992002 C118.606937,57.137066 119.031466,57.0560001 119.500802,57.0560001 C119.936004,57.0560001 120.362666,57.1583991 120.780802,57.3632002 C121.198937,57.5680012 121.527467,57.8623982 121.766402,58.2464002 L121.792002,58.2464002 L121.792002,57.2096001 L122.662402,57.2096001 L122.662402,63.1488002 C122.662402,63.4730685 122.617602,63.8186651 122.528002,64.1856003 C122.438401,64.5525354 122.272003,64.8895987 122.028802,65.1968003 C121.785601,65.5040018 121.454937,65.7599993 121.036802,65.9648003 C120.618666,66.1696013 120.076805,66.2720003 119.411202,66.2720003 C118.856532,66.2720003 118.327471,66.1653347 117.824002,65.9520003 C117.320533,65.7386659 116.889604,65.4442688 116.531202,65.0688003 L117.158402,64.4032003 Z M117.324802,60.1280002 C117.324802,60.4437351 117.376001,60.7423988 117.478402,61.0240002 C117.580802,61.3056016 117.728001,61.5530658 117.920002,61.7664002 C118.112003,61.9797346 118.3488,62.1482663 118.630402,62.2720002 C118.912003,62.3957342 119.232,62.4576002 119.590402,62.4576002 C119.923203,62.4576002 120.2304,62.4021341 120.512002,62.2912002 C120.793603,62.1802663 121.036801,62.0224012 121.241602,61.8176002 C121.446403,61.6127992 121.606401,61.3674683 121.721602,61.0816002 C121.836802,60.7957321 121.894402,60.4778686 121.894402,60.1280002 C121.894402,59.8122653 121.836802,59.5136016 121.721602,59.2320002 C121.606401,58.9503988 121.446403,58.7029346 121.241602,58.4896002 C121.036801,58.2762658 120.793603,58.1056008 120.512002,57.9776002 C120.2304,57.8495995 119.923203,57.7856002 119.590402,57.7856002 C119.232,57.7856002 118.912003,57.8495995 118.630402,57.9776002 C118.3488,58.1056008 118.112003,58.2762658 117.920002,58.4896002 C117.728001,58.7029346 117.580802,58.9503988 117.478402,59.2320002 C117.376001,59.5136016 117.324802,59.8122653 117.324802,60.1280002 Z M128.704002,59.3344002 C128.704002,58.8138642 128.56747,58.4256014 128.294402,58.1696002 C128.021334,57.9135989 127.624538,57.7856002 127.104002,57.7856002 C126.7456,57.7856002 126.412803,57.8495995 126.105602,57.9776002 C125.7984,58.1056008 125.538136,58.2762658 125.324802,58.4896002 L124.838402,57.9136002 C125.08587,57.6661323 125.412267,57.4613343 125.817602,57.2992002 C126.222937,57.137066 126.681599,57.0560001 127.193602,57.0560001 C127.51787,57.0560001 127.8208,57.1007997 128.102402,57.1904001 C128.384003,57.2800006 128.631468,57.4143993 128.844802,57.5936002 C129.058136,57.7728011 129.224535,57.9989321 129.344002,58.2720002 C129.463469,58.5450682 129.523202,58.865065 129.523202,59.2320002 L129.523202,61.8560002 C129.523202,62.0864014 129.531735,62.3253323 129.548802,62.5728002 C129.565869,62.8202681 129.591468,63.0293327 129.625602,63.2000002 L128.844802,63.2000002 C128.819202,63.0549328 128.797869,62.8970678 128.780802,62.7264002 C128.763735,62.5557327 128.755202,62.3893344 128.755202,62.2272002 L128.729602,62.2272002 C128.456534,62.6282689 128.147204,62.916266 127.801602,63.0912002 C127.456,63.2661344 127.040004,63.3536002 126.553602,63.3536002 C126.323201,63.3536002 126.086403,63.3216006 125.843202,63.2576002 C125.600001,63.1935999 125.378136,63.0890676 125.177602,62.9440002 C124.977068,62.7989328 124.810669,62.6112014 124.678402,62.3808002 C124.546135,62.1503991 124.480002,61.8688019 124.480002,61.5360002 C124.480002,61.0751979 124.597334,60.7104015 124.832002,60.4416002 C125.06667,60.1727988 125.380267,59.9722675 125.772802,59.8400002 C126.165337,59.7077329 126.615466,59.6224004 127.123202,59.5840002 C127.630938,59.5456 128.157866,59.5264002 128.704002,59.5264002 L128.704002,59.3344002 Z M128.448002,60.2048002 C128.0896,60.2048002 127.72907,60.2197334 127.366402,60.2496002 C127.003733,60.279467 126.675203,60.3391997 126.380802,60.4288002 C126.0864,60.5184006 125.845336,60.6485327 125.657602,60.8192002 C125.469868,60.9898677 125.376002,61.2159988 125.376002,61.4976002 C125.376002,61.7109346 125.416535,61.8901328 125.497602,62.0352002 C125.578669,62.1802676 125.687468,62.2975998 125.824002,62.3872002 C125.960536,62.4768007 126.112001,62.5408 126.278402,62.5792002 C126.444803,62.6176004 126.613334,62.6368002 126.784002,62.6368002 C127.091203,62.6368002 127.364267,62.5834674 127.603202,62.4768002 C127.842136,62.370133 128.042668,62.2250678 128.204802,62.0416002 C128.366936,61.8581326 128.490668,61.6469347 128.576002,61.4080002 C128.661336,61.1690657 128.704002,60.9173349 128.704002,60.6528002 L128.704002,60.2048002 L128.448002,60.2048002 Z M137.664002,57.9392002 L135.974402,57.9392002 L135.974402,61.4336002 C135.974402,61.655468 135.995735,61.8389328 136.038402,61.9840002 C136.081069,62.1290676 136.142935,62.2421332 136.224002,62.3232002 C136.305069,62.4042673 136.401068,62.4597334 136.512002,62.4896002 C136.622936,62.519467 136.742401,62.5344002 136.870402,62.5344002 C136.989869,62.5344002 137.115735,62.5173337 137.248002,62.4832002 C137.380269,62.4490667 137.506135,62.4021339 137.625602,62.3424002 L137.664002,63.0976002 C137.510401,63.1573339 137.350403,63.2021334 137.184002,63.2320002 C137.017601,63.2618671 136.83627,63.2768002 136.640002,63.2768002 C136.477868,63.2768002 136.307203,63.2554671 136.128002,63.2128002 C135.948801,63.1701334 135.782403,63.0890675 135.628802,62.9696002 C135.475201,62.850133 135.349336,62.6880013 135.251202,62.4832002 C135.153068,62.2783992 135.104002,62.0096019 135.104002,61.6768002 L135.104002,57.9392002 L133.862402,57.9392002 L133.862402,57.2096001 L135.104002,57.2096001 L135.104002,55.5200001 L135.974402,55.5200001 L135.974402,57.2096001 L137.664002,57.2096001 L137.664002,57.9392002 Z M143.372802,63.2000002 C143.355735,63.0378661 143.342936,62.8586679 143.334402,62.6624002 C143.325869,62.4661326 143.321602,62.3040009 143.321602,62.1760002 L143.296002,62.1760002 C143.125335,62.5258686 142.848004,62.8095991 142.464002,63.0272002 C142.08,63.2448013 141.674671,63.3536002 141.248002,63.3536002 C140.488532,63.3536002 139.918937,63.1274692 139.539202,62.6752002 C139.159467,62.2229313 138.969602,61.6256039 138.969602,60.8832002 L138.969602,57.2096001 L139.840002,57.2096001 L139.840002,60.5248002 C139.840002,60.8405351 139.865602,61.1263989 139.916802,61.3824002 C139.968002,61.6384015 140.055468,61.8581326 140.179202,62.0416002 C140.302936,62.2250678 140.469334,62.3679997 140.678402,62.4704002 C140.88747,62.5728007 141.149867,62.6240002 141.465602,62.6240002 C141.696003,62.6240002 141.920001,62.5770674 142.137602,62.4832002 C142.355203,62.3893331 142.549335,62.2464012 142.720002,62.0544002 C142.89067,61.8623993 143.027202,61.6192017 143.129602,61.3248002 C143.232003,61.0303987 143.283202,60.6826689 143.283202,60.2816002 L143.283202,57.2096001 L144.153602,57.2096001 L144.153602,61.8816002 C144.153602,62.0437344 144.157869,62.2527989 144.166402,62.5088002 C144.174936,62.7648015 144.187735,62.9951992 144.204802,63.2000002 L143.372802,63.2000002 Z M153.433602,59.3344002 C153.433602,58.8138642 153.29707,58.4256014 153.024002,58.1696002 C152.750934,57.9135989 152.354138,57.7856002 151.833602,57.7856002 C151.4752,57.7856002 151.142404,57.8495995 150.835202,57.9776002 C150.528001,58.1056008 150.267737,58.2762658 150.054402,58.4896002 L149.568002,57.9136002 C149.81547,57.6661323 150.141867,57.4613343 150.547202,57.2992002 C150.952538,57.137066 151.4112,57.0560001 151.923202,57.0560001 C152.247471,57.0560001 152.550401,57.1007997 152.832002,57.1904001 C153.113604,57.2800006 153.361068,57.4143993 153.574402,57.5936002 C153.787737,57.7728011 153.954135,57.9989321 154.073602,58.2720002 C154.19307,58.5450682 154.252802,58.865065 154.252802,59.2320002 L154.252802,61.8560002 C154.252802,62.0864014 154.261336,62.3253323 154.278402,62.5728002 C154.295469,62.8202681 154.321069,63.0293327 154.355202,63.2000002 L153.574402,63.2000002 C153.548802,63.0549328 153.527469,62.8970678 153.510402,62.7264002 C153.493336,62.5557327 153.484802,62.3893344 153.484802,62.2272002 L153.459202,62.2272002 C153.186134,62.6282689 152.876804,62.916266 152.531202,63.0912002 C152.185601,63.2661344 151.769605,63.3536002 151.283202,63.3536002 C151.052801,63.3536002 150.816003,63.3216006 150.572802,63.2576002 C150.329601,63.1935999 150.107737,63.0890676 149.907202,62.9440002 C149.706668,62.7989328 149.54027,62.6112014 149.408002,62.3808002 C149.275735,62.1503991 149.209602,61.8688019 149.209602,61.5360002 C149.209602,61.0751979 149.326934,60.7104015 149.561602,60.4416002 C149.79627,60.1727988 150.109867,59.9722675 150.502402,59.8400002 C150.894938,59.7077329 151.345066,59.6224004 151.852802,59.5840002 C152.360538,59.5456 152.887466,59.5264002 153.433602,59.5264002 L153.433602,59.3344002 Z M153.177602,60.2048002 C152.8192,60.2048002 152.458671,60.2197334 152.096002,60.2496002 C151.733334,60.279467 151.404804,60.3391997 151.110402,60.4288002 C150.816001,60.5184006 150.574937,60.6485327 150.387202,60.8192002 C150.199468,60.9898677 150.105602,61.2159988 150.105602,61.4976002 C150.105602,61.7109346 150.146135,61.8901328 150.227202,62.0352002 C150.308269,62.1802676 150.417068,62.2975998 150.553602,62.3872002 C150.690136,62.4768007 150.841601,62.5408 151.008002,62.5792002 C151.174403,62.6176004 151.342935,62.6368002 151.513602,62.6368002 C151.820804,62.6368002 152.093868,62.5834674 152.332802,62.4768002 C152.571737,62.370133 152.772268,62.2250678 152.934402,62.0416002 C153.096536,61.8581326 153.220269,61.6469347 153.305602,61.4080002 C153.390936,61.1690657 153.433602,60.9173349 153.433602,60.6528002 L153.433602,60.2048002 L153.177602,60.2048002 Z M160.844802,63.2000002 C160.827736,63.0378661 160.814936,62.8586679 160.806402,62.6624002 C160.797869,62.4661326 160.793602,62.3040009 160.793602,62.1760002 L160.768002,62.1760002 C160.597335,62.5258686 160.320004,62.8095991 159.936002,63.0272002 C159.552,63.2448013 159.146671,63.3536002 158.720002,63.3536002 C157.960532,63.3536002 157.390938,63.1274692 157.011202,62.6752002 C156.631467,62.2229313 156.441602,61.6256039 156.441602,60.8832002 L156.441602,57.2096001 L157.312002,57.2096001 L157.312002,60.5248002 C157.312002,60.8405351 157.337602,61.1263989 157.388802,61.3824002 C157.440003,61.6384015 157.527468,61.8581326 157.651202,62.0416002 C157.774936,62.2250678 157.941335,62.3679997 158.150402,62.4704002 C158.35947,62.5728007 158.621867,62.6240002 158.937602,62.6240002 C159.168004,62.6240002 159.392001,62.5770674 159.609602,62.4832002 C159.827203,62.3893331 160.021335,62.2464012 160.192002,62.0544002 C160.36267,61.8623993 160.499202,61.6192017 160.601602,61.3248002 C160.704003,61.0303987 160.755202,60.6826689 160.755202,60.2816002 L160.755202,57.2096001 L161.625602,57.2096001 L161.625602,61.8816002 C161.625602,62.0437344 161.629869,62.2527989 161.638402,62.5088002 C161.646936,62.7648015 161.659736,62.9951992 161.676802,63.2000002 L160.844802,63.2000002 Z M166.630402,57.9392002 L164.940802,57.9392002 L164.940802,61.4336002 C164.940802,61.655468 164.962136,61.8389328 165.004802,61.9840002 C165.047469,62.1290676 165.109335,62.2421332 165.190402,62.3232002 C165.27147,62.4042673 165.367469,62.4597334 165.478402,62.4896002 C165.589336,62.519467 165.708802,62.5344002 165.836802,62.5344002 C165.95627,62.5344002 166.082135,62.5173337 166.214402,62.4832002 C166.34667,62.4490667 166.472535,62.4021339 166.592002,62.3424002 L166.630402,63.0976002 C166.476802,63.1573339 166.316803,63.2021334 166.150402,63.2320002 C165.984002,63.2618671 165.80267,63.2768002 165.606402,63.2768002 C165.444268,63.2768002 165.273603,63.2554671 165.094402,63.2128002 C164.915202,63.1701334 164.748803,63.0890675 164.595202,62.9696002 C164.441602,62.850133 164.315736,62.6880013 164.217602,62.4832002 C164.119469,62.2783992 164.070402,62.0096019 164.070402,61.6768002 L164.070402,57.9392002 L162.828802,57.9392002 L162.828802,57.2096001 L164.070402,57.2096001 L164.070402,55.5200001 L164.940802,55.5200001 L164.940802,57.2096001 L166.630402,57.2096001 L166.630402,57.9392002 Z M173.939203,60.2048002 C173.939203,60.6570691 173.86027,61.0751983 173.702403,61.4592002 C173.544535,61.8432021 173.324804,62.1759988 173.043203,62.4576002 C172.761601,62.7392016 172.424538,62.9589328 172.032003,63.1168002 C171.639467,63.2746677 171.208538,63.3536002 170.739203,63.3536002 C170.2784,63.3536002 169.851738,63.2746677 169.459203,63.1168002 C169.066667,62.9589328 168.729604,62.7392016 168.448003,62.4576002 C168.166401,62.1759988 167.94667,61.8432021 167.788803,61.4592002 C167.630935,61.0751983 167.552002,60.6570691 167.552002,60.2048002 C167.552002,59.7525313 167.630935,59.3344021 167.788803,58.9504002 C167.94667,58.5663982 168.166401,58.2336016 168.448003,57.9520002 C168.729604,57.6703987 169.066667,57.4506676 169.459203,57.2928002 C169.851738,57.1349327 170.2784,57.0560001 170.739203,57.0560001 C171.208538,57.0560001 171.639467,57.1349327 172.032003,57.2928002 C172.424538,57.4506676 172.761601,57.6703987 173.043203,57.9520002 C173.324804,58.2336016 173.544535,58.5663982 173.702403,58.9504002 C173.86027,59.3344021 173.939203,59.7525313 173.939203,60.2048002 Z M173.017603,60.2048002 C173.017603,59.8719985 172.96427,59.5584017 172.857603,59.2640002 C172.750935,58.9695987 172.59947,58.7136013 172.403203,58.4960002 C172.206935,58.2783991 171.968004,58.1056008 171.686403,57.9776002 C171.404801,57.8495995 171.089071,57.7856002 170.739203,57.7856002 C170.389334,57.7856002 170.075737,57.8495995 169.798403,57.9776002 C169.521068,58.1056008 169.28427,58.2783991 169.088003,58.4960002 C168.891735,58.7136013 168.74027,58.9695987 168.633603,59.2640002 C168.526935,59.5584017 168.473603,59.8719985 168.473603,60.2048002 C168.473603,60.5376019 168.526935,60.8511987 168.633603,61.1456002 C168.74027,61.4400017 168.891735,61.6959991 169.088003,61.9136002 C169.28427,62.1312013 169.521068,62.3018663 169.798403,62.4256002 C170.075737,62.5493342 170.389334,62.6112002 170.739203,62.6112002 C171.089071,62.6112002 171.404801,62.5493342 171.686403,62.4256002 C171.968004,62.3018663 172.206935,62.1312013 172.403203,61.9136002 C172.59947,61.6959991 172.750935,61.4400017 172.857603,61.1456002 C172.96427,60.8511987 173.017603,60.5376019 173.017603,60.2048002 Z" id="No-pagues-renta-paga"></path>
            <path d="M19.5133622,29.9555556 L12.4362001,29.9555556 L12.4362001,20.3098667 L25.9907648,20.3098667 L19.5133622,29.9555556 Z M25.2710534,44.4540444 L0.800865801,44.4540444 L0.800865801,5.81137778 L25.2710534,5.81137778 L31.748456,15.4570667 L10.5169697,15.4570667 L10.5169697,34.8083556 L31.748456,34.8083556 L25.2710534,44.4540444 Z M60.476936,44.6337778 L38.94557,44.6337778 C37.6260925,44.6337778 36.4865608,44.1544937 35.5269408,43.1959111 C34.5673208,42.2373285 34.087518,41.0990288 34.087518,39.7809778 L34.087518,34.9880889 L51.9003752,15.6368 L34.087518,15.6368 L40.5649206,5.99111111 L60.2370322,5.99111111 C61.5565097,5.99111111 62.6860455,6.46041012 63.6256734,7.39902222 C64.5653013,8.33763432 65.0351082,9.46594896 65.0351082,10.784 L65.0351082,15.6368 L47.2222511,34.9880889 L67.0143146,34.9880889 L60.476936,44.6337778 Z M91.5444781,44.4540444 L83.9875084,32.8312889 L79.0095046,32.8312889 L79.0095046,44.4540444 L69.3533766,44.4540444 L69.3533766,17.3742222 L79.0095046,17.3742222 L79.0095046,23.1856 L90.6448389,23.1856 L90.6448389,15.4570667 L69.3533766,15.4570667 L69.3533766,5.81137778 L95.5028908,5.81137778 C96.4625108,5.81137778 97.5020835,6.37054256 98.6216402,7.48888889 C99.7411969,8.60723522 100.300967,9.6456841 100.300967,10.6042667 L100.300967,28.0384 C100.300967,29.2366282 99.8011722,30.3349876 98.8015681,31.3335111 C97.8019639,32.3320346 96.7024158,32.8312889 95.5028908,32.8312889 L102.999885,44.4540444 L91.5444781,44.4540444 Z M105.938706,44.4540444 L105.938706,11.6227556 L115.65481,11.6227556 L115.65481,44.4540444 L105.938706,44.4540444 Z M105.938706,7.72853333 L105.938706,0 L115.65481,0 L115.65481,7.72853333 L105.938706,7.72853333 Z M120.452886,21.2684444 L120.452886,16.4156444 C120.452886,15.1375343 120.932689,14.0192048 121.892309,13.0606222 C122.851929,12.1020397 123.99146,11.6227556 125.310938,11.6227556 L139.825118,11.6227556 L139.825118,0 L149.481246,0 L149.481246,21.2684444 L120.452886,21.2684444 Z M125.310938,44.4540444 C123.99146,44.4540444 122.851929,43.9747603 121.892309,43.0161778 C120.932689,42.0575952 120.452886,40.9192955 120.452886,39.6012444 L120.452886,23.1856 L130.16899,23.1856 L130.16899,34.8083556 L139.825118,34.8083556 L139.825118,23.1856 L149.481246,23.1856 L149.481246,44.4540444 L125.310938,44.4540444 Z M177.54999,32.8312889 L171.432443,32.8312889 L164.955041,23.1856 L182.348066,23.1856 L182.348066,28.0384 C182.348066,29.356451 181.878259,30.4847657 180.938632,31.4233778 C179.999004,32.3619899 178.869468,32.8312889 177.54999,32.8312889 Z M177.84987,44.4540444 L158.177759,44.4540444 C156.858281,44.4540444 155.718749,43.9747603 154.759129,43.0161778 C153.799509,42.0575952 153.319707,40.9192955 153.319707,39.6012444 L153.319707,16.4156444 C153.319707,15.1375343 153.799509,14.0192048 154.759129,13.0606222 C155.718749,12.1020397 156.858281,11.6227556 158.177759,11.6227556 L177.54999,11.6227556 C178.869468,11.6227556 179.999004,12.0920546 180.938632,13.0306667 C181.878259,13.9692788 182.348066,15.0975934 182.348066,16.4156444 L182.348066,21.2684444 L163.03581,21.2684444 L163.03581,34.8083556 L184.327273,34.8083556 L177.84987,44.4540444 Z" id="EZRide"></path>
        </g>
    </g>
</svg>