<?xml version="1.0" encoding="UTF-8"?>
<svg width="90px" height="42px" viewBox="0 0 90 42" version="1.1" xmlns="http://www.w3.org/2000/svg" xmlns:xlink="http://www.w3.org/1999/xlink">
    <!-- Generator: Sketch 48.2 (47327) - http://www.bohemiancoding.com/sketch -->
    <title>Page 1</title>
    <desc>Created with Sketch.</desc>
    <defs></defs>
    <g id="Home---3" stroke="none" stroke-width="1" fill="none" fill-rule="evenodd" transform="translate(-49.000000, -20.000000)">
        <g id="Page-1" transform="translate(49.000000, 20.000000)">
            <path d="M77.5276719,19.1057003 L69.9974278,4.14743593 C69.9105803,3.97488 69.7333261,3.86454102 69.5425464,3.86454102 L55.4806617,3.86454102 C55.2895973,3.86454102 55.1196041,3.97516475 55.0451431,4.14829017 L53.7311837,7.19450034 C53.6745193,7.32619525 53.6797871,7.47839186 53.7457058,7.60994441 L55.9899295,12.0874292 C56.0766346,12.2605546 56.2543159,12.3711783 56.445238,12.3711783 L61.5329329,12.3711783 C61.8901464,12.3711783 62.1150956,12.0021478 61.9562075,11.6768258 L61.2827837,10.297802 C61.2190007,10.1671037 61.2145871,10.0171851 61.2705397,9.88719864 L61.5579905,9.22089356 C61.6325939,9.04776814 61.8024447,8.93714441 61.9935092,8.93714441 L65.9823702,8.93714441 C66.1747159,8.93714441 66.3532515,9.04933424 66.4392447,9.22416814 L67.6469939,11.6752597 C67.8073058,12.0007241 67.5823566,12.3711783 67.2244312,12.3711783 L64.8705803,12.3711783 C64.5110888,12.3711783 64.286282,12.74448 64.4497261,13.0703715 L65.9282685,16.0201953 C66.0151159,16.1933207 66.1926549,16.3039444 66.3837193,16.3039444 L69.641638,16.3039444 C69.8322753,16.3039444 70.0093871,16.414141 70.0965193,16.5866969 L70.9847837,18.3477071 C71.0512719,18.4796868 71.0568244,18.6321681 70.9997329,18.7642902 L70.7141329,19.4267512 C70.6393871,19.600019 70.4696786,19.7106427 70.2786142,19.7106427 L66.2871905,19.7106427 C66.0961261,19.7106427 65.9185871,19.600019 65.831882,19.4268936 L64.4082956,16.5876936 C64.3215905,16.4147105 64.1439092,16.3039444 63.9529871,16.3039444 L58.8742617,16.3039444 C58.5147702,16.3039444 58.2899634,16.6773885 58.4532651,17.0031376 L62.2120515,24.4996393 C62.2987566,24.6727647 62.4762956,24.7833885 62.66736,24.7833885 L74.9602617,24.7833885 C75.1513261,24.7833885 75.3210346,24.6727647 75.395638,24.4996393 L77.542621,19.5218563 C77.5995702,19.3898766 77.59416,19.2375376 77.5276719,19.1057003" id="Fill-1" fill="#EA7200"></path>
            <path d="M40.1353139,9.88428 L40.4209139,9.22210373 C40.495802,9.04840881 40.6665071,8.93764271 40.858141,8.93835458 L44.8579647,8.95287661 C45.0483173,8.9534461 45.2251444,9.06406983 45.3114224,9.23662576 L46.5324122,11.6720563 C46.6957139,11.9978054 46.4709071,12.3712495 46.111558,12.3712495 L41.5013817,12.3712495 C41.3104597,12.3712495 41.1327783,12.2604834 41.0460732,12.0875003 L40.1498359,10.2995817 C40.0839173,10.1680292 40.0785071,10.0159749 40.1353139,9.88428 Z M48.9973139,16.5891885 L49.9146224,18.4193919 C49.9806834,18.5510868 49.9859512,18.7029986 49.9292868,18.8348359 L49.6431173,19.4980088 C49.5685139,19.6711342 49.3986631,19.781758 49.207741,19.781758 L45.2163173,19.781758 C45.0253953,19.781758 44.8477139,19.6711342 44.7610088,19.4980088 L43.5101207,17.0027817 C43.346819,16.6767478 43.5716258,16.3034461 43.9312597,16.3035885 L48.5421478,16.3054393 C48.7332122,16.3055817 48.9106088,16.4162054 48.9973139,16.5891885 Z M41.1386156,24.4995681 C41.2254631,24.6726936 41.403002,24.7833173 41.5939241,24.7833173 L53.8868258,24.7833173 C54.0778902,24.7833173 54.2475986,24.6726936 54.322202,24.4995681 L56.4696122,19.521358 C56.5262766,19.3898054 56.5210088,19.2376088 56.4549478,19.1059139 L48.9202902,4.07703254 C48.8335851,3.90404949 48.6560461,3.79328339 48.4649817,3.79328339 L34.4369817,3.79328339 C34.2459173,3.79328339 34.0760664,3.90404949 34.0014631,4.07717492 L32.6571783,7.19457153 C32.6003715,7.32626644 32.6057817,7.47832068 32.6717003,7.61001559 L41.1386156,24.4995681 Z" id="Fill-3" fill="#EA7200"></path>
            <path d="M39.9367749,30.6070373 C40.0592156,30.8204542 40.1185851,31.0634847 40.1185851,31.3362712 C40.1185851,31.9133085 39.9367749,32.3103864 39.5731546,32.5219525 L30.8634936,32.5219525 C30.5294868,32.5219525 30.19548,32.4699864 29.8614732,32.3623525 C29.5274664,32.2565695 29.2676359,32.0209424 29.0859681,31.6554712 L19.8714529,13.6885831 C19.6600292,13.3547186 19.4336563,13.042922 19.1887749,12.753478 C18.9474529,12.4658847 18.6876224,12.291478 18.4131275,12.2302576 L14.8580766,12.2302576 C14.6130529,12.2302576 14.4164359,12.3360407 14.2642393,12.5494576 C14.1120427,12.7628746 14.0378664,13.0040542 14.0378664,13.2786915 L14.0378664,23.2184542 C14.0378664,23.4022576 14.1343953,23.5914712 14.3310122,23.789939 C14.5314732,23.9866983 14.7206868,24.0849356 14.9024969,24.0849356 L20.7399275,24.0849356 C20.8326122,24.0849356 20.929141,24.1313492 21.0367749,24.2223254 C21.1444088,24.3131593 21.2409376,24.428339 21.3336224,24.5637356 C21.4227478,24.7009831 21.5080292,24.8383729 21.5823478,24.9756203 C21.6602258,25.1110169 21.6973851,25.2112475 21.6973851,25.2707593 L21.6973851,31.154461 C21.6973851,31.3974915 21.574802,31.6869356 21.3336224,32.0209424 C21.088741,32.3549492 20.847419,32.5219525 20.6025376,32.5219525 L5.41733085,32.5219525 C5.11293763,32.5219525 4.84200203,32.3845627 4.59712068,32.1119186 C4.35594102,31.8372814 4.23350034,31.5644949 4.23350034,31.2898576 L4.23350034,5.29812203 C4.23350034,4.90289492 4.36334441,4.55408136 4.61947322,4.24983051 C4.87916136,3.94543729 5.16120203,3.79338305 5.46175119,3.79338305 L24.7996902,3.79338305 C25.2858936,3.79338305 25.6569173,3.85460339 25.9167478,3.97519322 C26.1727342,4.0976339 26.4102122,4.26463729 26.6217783,4.47805424 L39.9367749,30.6070373 Z" id="Fill-5" fill="#FEFEFE"></path>
            <path d="M43.4125383,27.1809763 L81.5274671,27.1537831 C81.7196705,27.1536407 81.897779,27.2634102 81.9843417,27.4353966 L84.205501,31.8479593 C84.368518,32.1717153 84.1407214,32.5428814 83.7789519,32.5431661 L45.6640231,32.5703593 C45.471962,32.5705017 45.2937112,32.4607322 45.2070061,32.2887458 L42.9859892,27.8761831 C42.8231146,27.5524271 43.0507688,27.1811186 43.4125383,27.1809763" id="Fill-7" fill="#FEFEFE"></path>
            <g id="Group-11" transform="translate(0.000000, 0.056237)" fill="#FEFEFE">
                <path d="M1.4005078,40.4571193 L81.0924468,40.4571193 L88.0151858,33.4046786 L71.6571112,1.48667186 L1.4005078,1.48667186 L1.4005078,40.4571193 Z M81.1048332,41.8576414 L1.3800061,41.8576414 C0.619023051,41.8576414 -1.42372881e-05,41.2327668 -1.42372881e-05,40.4648075 L-1.42372881e-05,1.47898373 C-1.42372881e-05,0.711024407 0.619023051,0.0861498305 1.3800061,0.0861498305 L71.6733417,0.0861498305 C72.1912942,0.0861498305 72.6609824,0.374739661 72.8990298,0.83916 L89.2599519,32.7657092 C89.5357281,33.3043058 89.4372061,33.9552346 89.014501,34.3857702 L82.0850705,41.4450447 C81.8278027,41.7072956 81.4704468,41.8576414 81.1048332,41.8576414 Z" id="Fill-9"></path>
            </g>
        </g>
    </g>
</svg>