<?xml version="1.0" encoding="UTF-8"?>
<svg width="123px" height="30px" viewBox="0 0 123 30" version="1.1" xmlns="http://www.w3.org/2000/svg" xmlns:xlink="http://www.w3.org/1999/xlink">
    <!-- Generator: Sketch 48.2 (47327) - http://www.bohemiancoding.com/sketch -->
    <title>Logo</title>
    <desc>Created with Sketch.</desc>
    <defs></defs>
    <g id="Directors" stroke="none" stroke-width="1" fill="none" fill-rule="evenodd" transform="translate(-29.000000, -25.000000)">
        <g id="Logo" transform="translate(29.000000, 25.000000)">
            <g>
                <path d="M29.3539631,25.3687368 C29.3313606,25.3461053 29.3134888,25.3241316 29.3000849,25.3028158 L28.9249087,24.6432105 L28.9249087,25.9663684 C28.9249087,25.9958421 28.914133,26.0211053 28.8928446,26.0424211 C28.8714247,26.0637368 28.8461939,26.0743947 28.8170208,26.0743947 L28.2938766,26.0743947 C28.2645721,26.0743947 28.2394728,26.0637368 28.2181843,26.0424211 C28.1967644,26.0211053 28.1861202,25.9958421 28.1861202,25.9663684 L28.1861202,23.3837368 C28.1861202,23.3545263 28.1967644,23.3291316 28.2181843,23.3078158 C28.2394728,23.2865 28.2645721,23.2758421 28.2938766,23.2758421 L28.7570978,23.2758421 C28.8104503,23.2758421 28.8502676,23.2905789 28.8769439,23.3197895 C28.9034888,23.3491316 28.9209663,23.3705789 28.9287196,23.3837368 L29.5756522,24.4912368 L30.2224535,23.3837368 C30.2304696,23.3705789 30.2476843,23.3491316 30.2742292,23.3197895 C30.3009054,23.2905789 30.3409856,23.2758421 30.3943381,23.2758421 L30.8572965,23.2758421 C30.886601,23.2758421 30.9119631,23.2865 30.9332516,23.3078158 C30.9544087,23.3291316 30.9653157,23.3545263 30.9653157,23.3837368 L30.9653157,25.9663684 C30.9653157,25.9958421 30.9544087,26.0211053 30.9332516,26.0424211 C30.9119631,26.0637368 30.886601,26.0743947 30.8572965,26.0743947 L30.3344151,26.0743947 C30.3049792,26.0743947 30.2797484,26.0637368 30.2585913,26.0424211 C30.2370401,26.0211053 30.2265272,25.9958421 30.2265272,25.9663684 L30.2265272,24.6432105 L29.8510881,25.3028158 C29.8379471,25.3241316 29.8198125,25.3461053 29.7972099,25.3687368 C29.7746074,25.3913684 29.7433317,25.4026842 29.7032516,25.4026842 L29.4477901,25.4026842 C29.4081042,25.4026842 29.3765657,25.3913684 29.3539631,25.3687368" id="Fill-1" fill="#EA7200"></path>
                <path d="M35.201667,25.4347237 C35.2308401,25.4347237 35.2560708,25.4455132 35.2776221,25.4666974 C35.2987792,25.4880132 35.309292,25.5134079 35.309292,25.5426184 L35.309292,25.9664342 C35.309292,25.9959079 35.2987792,26.0210395 35.2776221,26.0424868 C35.2560708,26.0638026 35.2308401,26.0743289 35.201667,26.0743289 L33.3088337,26.0743289 C33.2796606,26.0743289 33.2544298,26.0638026 33.2332728,26.0424868 C33.2117215,26.0210395 33.2012087,25.9959079 33.2012087,25.9664342 L33.2012087,23.3838026 C33.2012087,23.3544605 33.2117215,23.3291974 33.2332728,23.30775 C33.2544298,23.2865658 33.2796606,23.2757763 33.3088337,23.2757763 L35.1696029,23.2757763 C35.198776,23.2757763 35.2240067,23.2865658 35.2454266,23.30775 C35.2667151,23.3291974 35.2776221,23.3544605 35.2776221,23.3838026 L35.2776221,23.8074868 C35.2776221,23.8369605 35.2667151,23.8623553 35.2454266,23.8835395 C35.2240067,23.9048553 35.198776,23.9155132 35.1696029,23.9155132 L33.9399971,23.9155132 L33.9399971,24.3473553 L35.0816894,24.3473553 C35.1112567,24.3473553 35.1363561,24.3580132 35.1576446,24.3793289 C35.1790644,24.4006447 35.1897087,24.4260395 35.1897087,24.45525 L35.1897087,24.8790658 C35.1897087,24.9084079 35.1790644,24.9336711 35.1576446,24.9549868 C35.1363561,24.9764342 35.1112567,24.9869605 35.0816894,24.9869605 L33.9399971,24.9869605 L33.9399971,25.4347237 L35.201667,25.4347237 Z" id="Fill-5" fill="#EA7200"></path>
                <path d="M39.1342109,24.3752763 C39.1181788,24.0688289 38.9372269,23.9155395 38.5913551,23.9155395 L38.1841147,23.9155395 L38.1841147,25.43475 L38.6110667,25.43475 C38.9466885,25.43475 39.1206756,25.2814605 39.1342109,24.9750132 C39.1368391,24.9189605 39.1382846,24.8663289 39.1382846,24.8171184 L39.1382846,24.6731711 L39.1382846,24.5311974 C39.1382846,24.4831711 39.1368391,24.4313289 39.1342109,24.3752763 Z M38.6110667,23.2758026 C38.7949096,23.2758026 38.9623263,23.3031711 39.1142365,23.3577763 C39.265884,23.4123816 39.3970314,23.4890921 39.5076788,23.5877763 C39.6179321,23.6864605 39.7046628,23.8042237 39.7670827,23.9415921 C39.8295026,24.0788289 39.8649833,24.2286974 39.8729994,24.3913289 C39.8756276,24.44725 39.8766788,24.4985658 39.8766788,24.5451447 L39.8766788,24.6792237 L39.8766788,24.8110658 C39.8766788,24.8563289 39.8756276,24.9056711 39.8729994,24.9590921 C39.8649833,25.1243553 39.830291,25.2748816 39.7690538,25.4108026 C39.7078167,25.5467237 39.6233199,25.6639605 39.5156949,25.7625132 C39.4076756,25.8611974 39.2794192,25.9377763 39.1302686,25.9923816 C38.9809865,26.0471184 38.814884,26.0743553 38.631041,26.0743553 L37.5529513,26.0743553 C37.5237782,26.0743553 37.4985474,26.0638289 37.4773904,26.0423816 C37.4559705,26.0210658 37.4451949,25.9958026 37.4451949,25.9664605 L37.4451949,23.3836974 C37.4451949,23.3544868 37.4559705,23.3290921 37.4773904,23.3077763 C37.4985474,23.2865921 37.5237782,23.2758026 37.5529513,23.2758026 L38.6110667,23.2758026 Z" id="Fill-9" fill="#EA7200"></path>
                <path d="M42.1166849,26.0743684 C42.0873804,26.0743684 42.0622811,26.0637105 42.0409926,26.0423947 C42.0195728,26.0210789 42.0090599,25.9958158 42.0090599,25.9664737 L42.0090599,23.3837105 C42.0090599,23.3545 42.0195728,23.3291053 42.0409926,23.3077895 C42.0622811,23.2866053 42.0873804,23.2758158 42.1166849,23.2758158 L42.6398292,23.2758158 C42.6690022,23.2758158 42.694233,23.2866053 42.7157843,23.3077895 C42.7369413,23.3291053 42.7478484,23.3545 42.7478484,23.3837105 L42.7478484,25.9664737 C42.7478484,25.9958158 42.7369413,26.0210789 42.7157843,26.0423947 C42.694233,26.0637105 42.6690022,26.0743684 42.6398292,26.0743684 L42.1166849,26.0743684 Z" id="Fill-13" fill="#EA7200"></path>
                <path d="M45.8141359,25.0229605 L46.4609372,25.0229605 L46.1376679,24.0634868 L45.8141359,25.0229605 Z M46.4609372,23.2758553 C46.5142897,23.2758553 46.5548955,23.2905921 46.5827545,23.3198026 C46.6107449,23.3491447 46.6299308,23.3784868 46.640575,23.4078289 L47.5110365,25.9265132 C47.5216808,25.9530921 47.5270686,25.9732237 47.5270686,25.9863816 C47.5270686,26.0104605 47.5185269,26.0311184 47.5010494,26.0484868 C47.4838346,26.0658553 47.4632032,26.0744079 47.4391551,26.0744079 L46.9361167,26.0744079 C46.8827641,26.0744079 46.8450494,26.0630921 46.8223154,26.0404605 C46.7997128,26.0178289 46.7857833,25.9958553 46.7805269,25.9744079 L46.6685654,25.6425658 L45.6065077,25.6425658 L45.494809,25.9744079 C45.4894212,25.9958553 45.4753603,26.0178289 45.4527577,26.0404605 C45.4301551,26.0630921 45.392309,26.0744079 45.3390878,26.0744079 L44.8359179,26.0744079 C44.8118699,26.0744079 44.7912385,26.0658553 44.7740237,26.0484868 C44.7565462,26.0311184 44.7480045,26.0104605 44.7480045,25.9863816 C44.7480045,25.9732237 44.7533923,25.9530921 44.7640365,25.9265132 L45.6344981,23.4078289 C45.6451423,23.3784868 45.6643282,23.3491447 45.69245,23.3198026 C45.7204404,23.2905921 45.7609147,23.2758553 45.8141359,23.2758553 L46.4609372,23.2758553 Z" id="Fill-17" fill="#EA7200"></path>
                <path d="M115.360057,11.7101579 L110.87358,2.78686842 C110.821804,2.68371053 110.716282,2.61792105 110.602612,2.61792105 L102.224551,2.61792105 C102.11075,2.61792105 102.009564,2.68397368 101.965147,2.78726316 L101.182336,4.60463158 C101.148564,4.68305263 101.151586,4.77384211 101.191009,4.85239474 L102.528109,7.52344737 C102.579753,7.62660526 102.685538,7.69265789 102.799339,7.69265789 L105.830448,7.69265789 C106.043333,7.69265789 106.177371,7.47252632 106.082756,7.27844737 L105.681561,6.45581579 C105.643452,6.37792105 105.640823,6.28831579 105.674202,6.21081579 L105.845429,5.81344737 C105.889977,5.71015789 105.991163,5.64410526 106.104833,5.64410526 L108.481519,5.64410526 C108.595977,5.64410526 108.702288,5.71094737 108.75367,5.81528947 L109.473141,7.27752632 C109.568676,7.47173684 109.434637,7.69265789 109.221359,7.69265789 L107.81908,7.69265789 C107.604881,7.69265789 107.470843,7.91542105 107.568218,8.10976316 L108.449192,9.8695 C108.500968,9.97278947 108.606753,10.0388421 108.720554,10.0388421 L110.661615,10.0388421 C110.775154,10.0388421 110.880807,10.1045 110.932583,10.2075263 L111.461772,11.2580526 C111.501458,11.3367368 111.504743,11.4277895 111.470839,11.5064737 L111.300532,11.9017368 C111.256115,12.0050263 111.154929,12.0710789 111.041128,12.0710789 L108.663128,12.0710789 C108.549195,12.0710789 108.44341,12.0050263 108.391766,11.9018684 L107.543644,10.2080526 C107.491868,10.1048947 107.386083,10.0388421 107.272413,10.0388421 L104.246561,10.0388421 C104.032362,10.0388421 103.898323,10.2616053 103.99583,10.4559474 L106.235061,14.9280526 C106.286836,15.0312105 106.392621,15.0972632 106.506291,15.0972632 L113.830311,15.0972632 C113.944112,15.0972632 114.045298,15.0312105 114.089714,14.9279211 L115.368993,11.9584474 C115.402897,11.8797632 115.399612,11.7888421 115.360057,11.7101579" id="Fill-21" fill="#EA7200"></path>
                <path d="M93.0819715,6.20909211 L93.2521478,5.81409211 C93.2968272,5.71040789 93.3985388,5.64435526 93.5126029,5.64475 L95.8957279,5.65343421 C96.0091349,5.65382895 96.1143946,5.71975 96.1659074,5.82264474 L96.8932631,7.27553947 C96.9906381,7.47001316 96.8567311,7.69264474 96.6425324,7.69264474 L93.8959266,7.69264474 C93.7821253,7.69264474 93.6763401,7.62659211 93.6245644,7.52343421 L93.0906446,6.45685526 C93.0513529,6.37843421 93.048199,6.28764474 93.0819715,6.20909211 Z M98.3619042,10.2089605 L98.9084394,11.3008026 C98.9478625,11.3792237 98.9510163,11.4700132 98.9171125,11.5485658 L98.7466734,11.9442237 C98.7022567,12.0475132 98.6010708,12.1135658 98.4872696,12.1135658 L96.1092696,12.1135658 C95.9954683,12.1135658 95.889683,12.0475132 95.8379074,11.9442237 L95.0926798,10.4556711 C94.9953048,10.2611974 95.1293433,10.0385658 95.343542,10.0385658 L98.0906734,10.03975 C98.2044747,10.03975 98.3102599,10.1058026 98.3619042,10.2089605 Z M93.6797567,14.9280395 C93.731401,15.0311974 93.8373176,15.09725 93.9511189,15.09725 L101.275007,15.09725 C101.388808,15.09725 101.489994,15.0311974 101.534542,14.9280395 L102.813821,11.9581711 C102.847593,11.8796184 102.844439,11.7889605 102.805148,11.7104079 L98.316042,2.74475 C98.2643978,2.64159211 98.1584811,2.57553947 98.0448112,2.57553947 L89.6869875,2.57553947 C89.5731862,2.57553947 89.4720003,2.64159211 89.4274522,2.74475 L88.6266381,4.60461842 C88.5927343,4.68303947 88.5958881,4.77382895 88.6353112,4.85238158 L93.6797567,14.9280395 Z" id="Fill-25" fill="#D16703"></path>
                <g id="Group-31" transform="translate(0.000000, 0.061842)" fill="#FEFEFE">
                    <path d="M121.957522,21.3337632 L118.550974,28.6485 C118.454651,28.8553421 118.247285,28.9875789 118.01942,28.9875789 L68.5782821,28.9875789 L54.3142244,28.9875789 L4.87308654,28.9875789 C4.64522115,28.9875789 4.43785577,28.8553421 4.34153205,28.6485 L0.934983974,21.3337632 C0.861788462,21.1763947 0.861788462,20.9946842 0.934983974,20.8374474 L11.0880032,1.28968421 C11.1843269,1.08271053 11.3915609,0.950605263 11.6194263,0.950605263 L56.1485801,0.950605263 L66.7439263,0.950605263 L111.272949,0.950605263 C111.500946,0.950605263 111.708179,1.08271053 111.804503,1.28968421 L121.957522,20.8374474 C122.030718,20.9946842 122.030718,21.1763947 121.957522,21.3337632 M122.754788,20.4652105 L112.601769,0.917184211 C112.361946,0.402447368 111.840378,0.0698157895 111.272949,0.0698157895 L66.7439263,0.0698157895 L56.1485801,0.0698157895 L11.6194263,0.0698157895 C11.0521282,0.0698157895 10.5305609,0.402447368 10.2907372,0.917184211 L0.137586538,20.4652105 C-0.0458621795,20.8595526 -0.0458621795,21.3116579 0.137586538,21.7058684 L3.54426603,29.0208684 C3.78395833,29.5356053 4.30552564,29.8683684 4.87308654,29.8683684 L54.3142244,29.8683684 L68.5782821,29.8683684 L118.01942,29.8683684 C118.586981,29.8683684 119.108548,29.5356053 119.34824,29.0208684 L122.754788,21.7058684 C122.938369,21.3116579 122.938369,20.8595526 122.754788,20.4652105" id="Fill-29"></path>
                </g>
                <path d="M92.9637154,18.5714079 C93.0366481,18.6986447 93.0721288,18.8436447 93.0721288,19.0064079 C93.0721288,19.3506184 92.9637154,19.5875921 92.7470199,19.7137763 L87.5578917,19.7137763 C87.3589365,19.7137763 87.15985,19.6827237 86.9608949,19.6185132 C86.7619397,19.5554868 86.6071385,19.4148289 86.4988564,19.1968026 L81.0090615,8.47864474 C80.8830391,8.27943421 80.7480808,8.09351316 80.6022154,7.92075 C80.4584526,7.74917105 80.3037827,7.64509211 80.1401769,7.60864474 L78.021975,7.60864474 C77.8761096,7.60864474 77.7588917,7.67167105 77.6682186,7.79903947 C77.5776769,7.92627632 77.5333917,8.07022368 77.5333917,8.23403947 L77.5333917,14.1636447 C77.5333917,14.27325 77.5909494,14.3861447 77.7080359,14.5045658 C77.8273564,14.6219342 77.9402378,14.6806184 78.0485199,14.6806184 L81.5264237,14.6806184 C81.581616,14.6806184 81.6391737,14.7083816 81.7033019,14.7625921 C81.7674301,14.8168026 81.8248564,14.8853553 81.8801801,14.9662763 C81.9332699,15.0481184 81.9841256,15.1300921 82.0282795,15.2119342 C82.0746673,15.2927237 82.0968756,15.3525921 82.0968756,15.3879868 L82.0968756,18.8978553 C82.0968756,19.0428553 82.0238115,19.2156184 81.8801801,19.4148289 C81.7341833,19.6140395 81.5905519,19.7137763 81.4445551,19.7137763 L72.3973532,19.7137763 C72.2160071,19.7137763 72.0546353,19.6318026 71.9086385,19.4690395 C71.7650071,19.3052237 71.6919429,19.1425921 71.6919429,18.9787763 L71.6919429,3.47325 C71.6919429,3.23746053 71.7693436,3.02930263 71.9219109,2.84785526 C72.0767122,2.66627632 72.2446545,2.57548684 72.4237667,2.57548684 L83.9451609,2.57548684 C84.2347891,2.57548684 84.4559526,2.61206579 84.6107538,2.68403947 C84.7633212,2.75706579 84.9047186,2.85667105 85.030741,2.98403947 L92.9637154,18.5714079 Z" id="Fill-32" fill="#FEFEFE"></path>
                <path d="M12.2471468,2.984 C12.3731692,2.85663158 12.5135154,2.75702632 12.6683167,2.684 C12.8220667,2.61202632 13.04415,2.57557895 13.3339096,2.57557895 L24.8541212,2.57557895 C25.0331019,2.57557895 25.2011756,2.66623684 25.3559769,2.84781579 C25.5085442,3.02939474 25.5859449,3.23742105 25.5859449,3.47321053 L25.5859449,18.9787368 C25.5859449,19.1425526 25.5130122,19.3053158 25.3692494,19.4691316 C25.223384,19.6317632 25.0618808,19.7137368 24.880666,19.7137368 L15.8333327,19.7137368 C15.6874673,19.7137368 15.5437045,19.6141316 15.3988904,19.4149211 C15.253025,19.2155789 15.1811436,19.0429474 15.1811436,18.8979474 L15.1811436,15.3879474 C15.1811436,15.3525526 15.2032205,15.2926842 15.2485571,15.2120263 C15.2938936,15.1300526 15.3435667,15.0482105 15.3988904,14.9662368 C15.4530314,14.8854474 15.5116404,14.8167632 15.5745859,14.7625526 C15.6388455,14.7083421 15.6973231,14.6807105 15.7514641,14.6807105 L19.2293679,14.6807105 C19.3377814,14.6807105 19.4504,14.6220263 19.5698519,14.5046579 C19.6870699,14.3862368 19.7444962,14.2733421 19.7444962,14.1637368 L19.7444962,8.234 C19.7444962,8.07018421 19.7003423,7.92636842 19.6096692,7.799 C19.5189962,7.67163158 19.4017782,7.60860526 19.2559128,7.60860526 L17.1378423,7.60860526 C16.9742365,7.64518421 16.8204865,7.74913158 16.6756724,7.92084211 C16.5298071,8.09347368 16.3937974,8.27939474 16.267775,8.47860526 L10.7800827,19.1967632 C10.6707494,19.4149211 10.5169994,19.5554474 10.3180442,19.6184737 C10.1179064,19.6826842 9.91895128,19.7137368 9.71999615,19.7137368 L4.53086795,19.7137368 C4.31417244,19.5875526 4.20470769,19.3507105 4.20470769,19.0065 C4.20470769,18.8437368 4.24123974,18.6987368 4.31417244,18.5713684 L12.2471468,2.984 Z" id="Fill-34" fill="#FEFEFE"></path>
                <path d="M42.619224,8.12553947 C42.619224,8.01593421 42.5617978,7.90303947 42.4445798,7.78461842 C42.3251279,7.66738158 42.2123779,7.60856579 42.1040958,7.60856579 L34.6066151,7.60856579 C34.496099,7.60856579 34.383349,7.66290789 34.2662625,7.77132895 C34.1490446,7.87975 34.0892529,7.98935526 34.0892529,8.09790789 L34.0892529,19.0064605 C34.0892529,19.1514605 34.0252561,19.3052763 33.8992337,19.4690921 C33.7732112,19.6318553 33.6449548,19.7136974 33.5189324,19.7136974 L28.9554484,19.7136974 C28.7741022,19.7136974 28.6104965,19.6318553 28.4646311,19.4690921 C28.3208683,19.3052763 28.2479356,19.1425132 28.2479356,18.9786974 L28.2479356,3.31053947 C28.2479356,3.14672368 28.3208683,2.98396053 28.4646311,2.82014474 C28.6104965,2.65738158 28.7741022,2.57553947 28.9554484,2.57553947 L47.7552625,2.57553947 C47.9366087,2.57553947 48.0979804,2.65738158 48.2439772,2.82014474 C48.3898426,2.98396053 48.4606728,3.14672368 48.4606728,3.31053947 L48.4606728,14.3634342 C48.4606728,14.5260658 48.3898426,14.6898816 48.2439772,14.8526447 C48.0979804,15.0164605 47.9366087,15.09725 47.7552625,15.09725 L44.0288619,15.09725 L48.3522593,18.5714605 C48.4253234,18.6986974 48.4606728,18.8436974 48.4606728,19.0064605 C48.4606728,19.3506711 48.3522593,19.5875132 48.1356952,19.7136974 L42.9464356,19.7136974 C42.7474804,19.7136974 42.5485253,19.6826447 42.3494388,19.6185658 C42.1483811,19.5554079 37.1261439,15.09725 37.1261439,15.09725 L36.2626471,15.09725 C36.2074548,15.09725 36.1500285,15.0706711 36.0857689,15.0164605 C36.0216407,14.9610658 35.9642144,14.8935658 35.9090221,14.8115921 C35.8559324,14.7309342 35.8050766,14.6489605 35.7607913,14.5671184 C35.7144035,14.4851447 35.6923266,14.4264605 35.6923266,14.3898816 L35.6923266,10.8810658 C35.6923266,10.7360658 35.7652593,10.5644868 35.9090221,10.3640921 C36.0548875,10.1648816 36.1986503,10.0652763 36.3445157,10.0652763 L42.1040958,10.0652763 C42.1947689,10.0652763 42.2942465,10.0154079 42.4025285,9.91580263 C42.510942,9.81619737 42.5838747,9.71106579 42.619224,9.60264474 L42.619224,8.12553947 Z" id="Fill-36" fill="#FEFEFE"></path>
                <path d="M67.4417673,9.07703947 C67.5855301,9.27730263 67.6584628,9.44901316 67.6584628,9.59401316 L67.6584628,12.8851974 C67.6584628,12.9217763 67.6362545,12.7903289 67.5898667,12.8723026 C67.5457128,12.9541447 67.4948571,13.0361184 67.4417673,13.1169079 C67.386575,13.1988816 67.3290173,13.2674342 67.2648891,13.3216447 C67.2007609,13.3758553 67.1433346,13.4025658 67.0880109,13.4025658 L57.3619436,13.4025658 C57.3067513,13.4213816 57.2536615,13.4578289 57.1983378,13.5120395 C57.1453795,13.5663816 57.1166006,13.6294079 57.1166006,13.7024342 C57.1166006,13.9194079 57.1374949,14.2909868 57.3719308,14.4359868 C57.6084692,14.5820395 57.8074244,14.6629605 57.9687962,14.6805921 L68.6644083,14.6805921 C68.8259115,14.6805921 68.9805814,14.7670395 69.1265782,14.9396711 C69.270341,15.1123026 69.3432737,15.2705921 69.3432737,15.4155921 L69.3432737,18.97875 C69.3432737,19.1425658 69.270341,19.3051974 69.1265782,19.4690132 C68.9805814,19.6317763 68.8169756,19.71375 68.6356295,19.71375 L55.5688506,19.71375 C55.2238987,19.71375 54.7906391,19.5820395 54.2644724,19.3196711 C53.7404083,19.05625 53.2407865,18.6932237 52.7698122,18.2316447 C52.2988378,17.7688816 51.8919917,17.2298026 51.5470397,16.6121711 C51.2044532,15.9967763 51.0320429,15.3248026 51.0320429,14.5998026 L51.0320429,3.31046053 C51.0320429,3.14664474 51.1049756,2.98401316 51.2486071,2.82019737 C51.3946038,2.65743421 51.5559756,2.57546053 51.7373218,2.57546053 L68.6356295,2.57546053 C68.8169756,2.57546053 68.9805814,2.65743421 69.1265782,2.82019737 C69.270341,2.98401316 69.3432737,3.14664474 69.3432737,3.31046053 L69.3432737,6.87361842 C69.3432737,7.01861842 69.270341,7.17796053 69.1265782,7.34967105 C68.9805814,7.52230263 68.8259115,7.60861842 68.6644083,7.60861842 L57.3884885,7.60861842 C57.2978154,7.60861842 57.1983378,7.66282895 57.0900558,7.77138158 C56.9816423,7.87980263 56.9087096,7.98940789 56.8733603,8.09796053 L56.8733603,8.31546053 C56.9087096,8.40743421 56.9773058,8.50585526 57.0767833,8.61546053 C57.1762609,8.72388158 57.2712705,8.77822368 57.3619436,8.77822368 L67.0062737,8.77822368 C67.1521391,8.77822368 67.2959019,8.87782895 67.4417673,9.07703947" id="Fill-38" fill="#FEFEFE"></path>
                <path d="M95.0345176,16.5275658 L117.74313,16.51125 C117.857588,16.5111184 117.963636,16.5767763 118.01528,16.6792763 L119.338582,19.3116447 C119.435694,19.5048026 119.300079,19.72625 119.084566,19.7263816 L96.3759535,19.7426974 C96.2614952,19.7428289 96.1553157,19.6771711 96.1038029,19.5746711 L94.7803702,16.9423026 C94.6833894,16.7491447 94.8190048,16.5276974 95.0345176,16.5275658" id="Fill-40" fill="#FEFEFE"></path>
                <path d="M52.9836955,25.4347237 C53.0128686,25.4347237 53.0383622,25.4455132 53.0595192,25.4666974 C53.0808077,25.4880132 53.0915833,25.5134079 53.0915833,25.5426184 L53.0915833,25.9664342 C53.0915833,25.9959079 53.0808077,26.0210395 53.0595192,26.0424868 C53.0383622,26.0638026 53.0128686,26.0743289 52.9836955,26.0743289 L51.135016,26.0743289 C51.1057115,26.0743289 51.0806122,26.0638026 51.0593237,26.0424868 C51.0379038,26.0210395 51.0272596,25.9959079 51.0272596,25.9664342 L51.0272596,23.3838026 C51.0272596,23.3544605 51.0379038,23.3291974 51.0593237,23.30775 C51.0806122,23.2865658 51.1057115,23.2757763 51.135016,23.2757763 L51.6581603,23.2757763 C51.6873333,23.2757763 51.7125641,23.2865658 51.733984,23.30775 C51.755141,23.3291974 51.7660481,23.3544605 51.7660481,23.3838026 L51.7660481,25.4347237 L52.9836955,25.4347237 Z" id="Fill-42" fill="#FEFEFE"></path>
                <path d="M55.9423449,25.0229605 L56.5891462,25.0229605 L56.2658769,24.0634868 L55.9423449,25.0229605 Z M56.5891462,23.2758553 C56.6424987,23.2758553 56.6831045,23.2905921 56.7109635,23.3198026 C56.7389538,23.3491447 56.7581397,23.3784868 56.768784,23.4078289 L57.6392455,25.9265132 C57.6498897,25.9530921 57.6552776,25.9732237 57.6552776,25.9863816 C57.6552776,26.0104605 57.6467359,26.0311184 57.6292583,26.0484868 C57.6120436,26.0658553 57.5914122,26.0744079 57.5673641,26.0744079 L57.0643256,26.0744079 C57.0109731,26.0744079 56.9732583,26.0630921 56.9505244,26.0404605 C56.9279218,26.0178289 56.9139923,25.9958553 56.9087359,25.9744079 L56.7967744,25.6425658 L55.7347167,25.6425658 L55.6230179,25.9744079 C55.6176301,25.9958553 55.6035692,26.0178289 55.5809667,26.0404605 C55.5583641,26.0630921 55.5205179,26.0744079 55.4672968,26.0744079 L54.9641269,26.0744079 C54.9400788,26.0744079 54.9194474,26.0658553 54.9022327,26.0484868 C54.8847551,26.0311184 54.8762135,26.0104605 54.8762135,25.9863816 C54.8762135,25.9732237 54.8816013,25.9530921 54.8922455,25.9265132 L55.7627071,23.4078289 C55.7733513,23.3784868 55.7925372,23.3491447 55.820659,23.3198026 C55.8486494,23.2905921 55.8891237,23.2758553 55.9423449,23.2758553 L56.5891462,23.2758553 Z" id="Fill-44" fill="#FEFEFE"></path>
                <path d="M60.3943141,25.4547632 L61.0529423,25.4547632 C61.1328397,25.4547632 61.1967051,25.4313421 61.2445385,25.3847632 C61.2926346,25.3381842 61.3164199,25.2801579 61.3164199,25.2108158 C61.3164199,25.1416053 61.2926346,25.0835789 61.2445385,25.0368684 C61.1967051,24.9902895 61.1328397,24.9668684 61.0529423,24.9668684 L60.3943141,24.9668684 L60.3943141,25.4547632 Z M61.2566282,24.1233158 C61.2566282,24.0541053 61.2359968,23.9989737 61.194734,23.9575263 C61.1534712,23.9162105 61.0930224,23.8955526 61.013125,23.8955526 L60.3943141,23.8955526 L60.3943141,24.3513421 L61.013125,24.3513421 C61.0930224,24.3513421 61.1534712,24.3306842 61.194734,24.2893684 C61.2359968,24.2480526 61.2566282,24.1927895 61.2566282,24.1233158 Z M59.7631506,26.0743684 C59.7339776,26.0743684 59.7087468,26.0637105 59.6875897,26.0423947 C59.6660385,26.0210789 59.6555256,25.9958158 59.6555256,25.9664737 L59.6555256,23.3837105 C59.6555256,23.3545 59.6660385,23.3291053 59.6875897,23.3077895 C59.7087468,23.2864737 59.7339776,23.2758158 59.7631506,23.2758158 L61.0488686,23.2758158 C61.2273237,23.2758158 61.3776571,23.3004211 61.5002628,23.3497632 C61.6224744,23.3992368 61.7205064,23.4631842 61.7937019,23.5417368 C61.866766,23.6202895 61.9194615,23.7096316 61.9512628,23.8095 C61.9833269,23.9095 61.999359,24.0088421 61.999359,24.1073947 C61.999359,24.1847632 61.9904231,24.2521316 61.9733397,24.3092368 C61.956125,24.3666053 61.9354936,24.4159474 61.9114455,24.4572632 C61.8873974,24.4985789 61.8628237,24.532 61.8375929,24.5571316 C61.8123622,24.5825263 61.7917308,24.602 61.7756987,24.6151579 C61.8793814,24.6871316 61.9520513,24.7705526 61.9933141,24.8650263 C62.0345769,24.9596316 62.0552083,25.0735789 62.0552083,25.2068684 C62.0552083,25.3160789 62.0391763,25.4226579 62.007375,25.5267368 C61.9753109,25.6306842 61.9226154,25.7233158 61.8495513,25.8046316 C61.7763558,25.8858158 61.6812147,25.9510789 61.5641282,26.0004211 C61.4470417,26.0497632 61.3032788,26.0743684 61.1328397,26.0743684 L59.7631506,26.0743684 Z" id="Fill-46" fill="#FEFEFE"></path>
                <path d="M65.8362888,25.0109474 C65.8391798,24.9630526 65.841808,24.9096316 65.8443048,24.8510789 C65.846933,24.7923947 65.8482471,24.7325263 65.8482471,24.6710789 C65.8482471,24.6097632 65.846933,24.5505526 65.8443048,24.4931842 C65.841808,24.4359474 65.8391798,24.3847632 65.8362888,24.3393684 C65.8311638,24.2727895 65.8171029,24.2113421 65.7945003,24.1554211 C65.7718978,24.0993684 65.7398337,24.0508158 65.6985708,24.0095 C65.657308,23.9683158 65.606058,23.9355526 65.5450837,23.9114737 C65.4837151,23.8875263 65.4119651,23.8755526 65.3294394,23.8755526 C65.246651,23.8755526 65.1747696,23.8875263 65.1137952,23.9114737 C65.052558,23.9355526 65.001308,23.9683158 64.9600452,24.0095 C64.9187824,24.0508158 64.8867183,24.0993684 64.8641157,24.1554211 C64.8415131,24.2113421 64.8274522,24.2727895 64.8223272,24.3393684 C64.816808,24.3847632 64.8136542,24.4359474 64.8123401,24.4931842 C64.8108946,24.5505526 64.8102375,24.6097632 64.8102375,24.6710789 C64.8102375,24.7325263 64.8108946,24.7923947 64.8123401,24.8510789 C64.8136542,24.9096316 64.816808,24.9630526 64.8223272,25.0109474 C64.8328401,25.1442368 64.8787022,25.2547632 64.9600452,25.3427895 C65.0411253,25.4306842 65.1642567,25.4746316 65.3294394,25.4746316 C65.4943593,25.4746316 65.6169651,25.4306842 65.6965997,25.3427895 C65.7763657,25.2547632 65.8231478,25.1442368 65.8362888,25.0109474 M64.0835388,24.3193684 C64.0915548,24.1700263 64.1241446,24.0295 64.1814394,23.8976579 C64.2387343,23.7655526 64.319683,23.6510789 64.4248112,23.5538421 C64.5302022,23.4564737 64.657933,23.3792368 64.8082663,23.3218684 C64.9585997,23.2646316 65.1324554,23.2359474 65.3294394,23.2359474 C65.5236638,23.2359474 65.6965997,23.2646316 65.8482471,23.3218684 C66.0001574,23.3792368 66.1284138,23.4564737 66.2336734,23.5538421 C66.3388016,23.6510789 66.4198817,23.7655526 66.4771766,23.8976579 C66.5343401,24.0295 66.5670612,24.1700263 66.5750772,24.3193684 C66.5802022,24.4338421 66.5830933,24.5538421 66.5830933,24.6792368 C66.5830933,24.8045 66.5802022,24.9217368 66.5750772,25.0309474 C66.5670612,25.1802895 66.5343401,25.3206842 66.4771766,25.4527895 C66.4198817,25.5846316 66.3388016,25.6998947 66.2336734,25.7985789 C66.1284138,25.8971316 66.0001574,25.9745 65.8482471,26.0304211 C65.6965997,26.0864737 65.5236638,26.1143684 65.3294394,26.1143684 C65.1324554,26.1143684 64.9585997,26.0864737 64.8082663,26.0304211 C64.657933,25.9745 64.5302022,25.8971316 64.4248112,25.7985789 C64.319683,25.6998947 64.2387343,25.5846316 64.1814394,25.4527895 C64.1241446,25.3206842 64.0915548,25.1802895 64.0835388,25.0309474 C64.0784138,24.9217368 64.0755228,24.8045 64.0755228,24.6792368 C64.0755228,24.5538421 64.0784138,24.4338421 64.0835388,24.3193684" id="Fill-48" fill="#FEFEFE"></path>
                <path d="M69.4578372,24.4871974 L69.9088372,24.4871974 C70.0207987,24.4871974 70.1130487,24.4658816 70.1863756,24.42325 C70.2597026,24.3806184 70.296366,24.30325 70.296366,24.1912763 C70.296366,24.0794342 70.2597026,24.0021974 70.1863756,23.9595658 C70.1130487,23.9169342 70.0207987,23.8954868 69.9088372,23.8954868 L69.4578372,23.8954868 L69.4578372,24.4871974 Z M69.9088372,23.27575 C70.0846641,23.27575 70.2415679,23.2945658 70.3799429,23.3318026 C70.5185808,23.3691711 70.6361929,23.4252237 70.7333051,23.4996974 C70.8306801,23.5744342 70.9051897,23.6696974 70.9569654,23.7856184 C71.0091353,23.9015395 71.0347603,24.0368026 71.0347603,24.1912763 C71.0347603,24.3912763 70.9936288,24.5571974 70.9111032,24.6890395 C70.828709,24.8211447 70.7116224,24.9218026 70.5597122,24.9910132 L71.054866,25.9424605 C71.0628821,25.9583816 71.0669558,25.9731184 71.0669558,25.9864079 C71.0669558,26.0104868 71.0580199,26.0311447 71.0408051,26.0485132 C71.023459,26.0658816 71.0030904,26.0744342 70.9790423,26.0744342 L70.4360551,26.0744342 C70.382834,26.0744342 70.344725,26.0623289 70.3221224,26.0383816 C70.2995199,26.0144342 70.2813853,25.9903553 70.2682442,25.9664079 L69.8249974,25.1108816 L69.4578372,25.1108816 L69.4578372,25.9664079 C69.4578372,25.9958816 69.4469301,26.0210132 69.4257731,26.0424605 C69.4043532,26.0637763 69.3791224,26.0744342 69.3499494,26.0744342 L68.8266737,26.0744342 C68.7975006,26.0744342 68.7722699,26.0637763 68.7511128,26.0424605 C68.7295615,26.0210132 68.7190487,25.9958816 68.7190487,25.9664079 L68.7190487,23.3837763 C68.7190487,23.3545658 68.7295615,23.3291711 68.7511128,23.3078553 C68.7722699,23.2865395 68.7975006,23.27575 68.8266737,23.27575 L69.9088372,23.27575 Z" id="Fill-50" fill="#FEFEFE"></path>
                <path d="M73.9814776,25.0229605 L74.6282788,25.0229605 L74.3050096,24.0634868 L73.9814776,25.0229605 Z M74.6282788,23.2758553 C74.6816314,23.2758553 74.7222372,23.2905921 74.7500962,23.3198026 C74.7780865,23.3491447 74.7972724,23.3784868 74.8079167,23.4078289 L75.6783782,25.9265132 C75.6890224,25.9530921 75.6944103,25.9732237 75.6944103,25.9863816 C75.6944103,26.0104605 75.6858686,26.0311184 75.668391,26.0484868 C75.6511763,26.0658553 75.6305449,26.0744079 75.6064968,26.0744079 L75.1034583,26.0744079 C75.0501058,26.0744079 75.012391,26.0630921 74.9896571,26.0404605 C74.9670545,26.0178289 74.953125,25.9958553 74.9478686,25.9744079 L74.8359071,25.6425658 L73.7738494,25.6425658 L73.6621506,25.9744079 C73.6567628,25.9958553 73.6427019,26.0178289 73.6200994,26.0404605 C73.5974968,26.0630921 73.5596506,26.0744079 73.5064295,26.0744079 L73.0032596,26.0744079 C72.9792115,26.0744079 72.9585801,26.0658553 72.9413654,26.0484868 C72.9238878,26.0311184 72.9153462,26.0104605 72.9153462,25.9863816 C72.9153462,25.9732237 72.920734,25.9530921 72.9313782,25.9265132 L73.8019712,23.4078289 C73.812484,23.3784868 73.8316699,23.3491447 73.8597917,23.3198026 C73.8877821,23.2905921 73.9282564,23.2758553 73.9814776,23.2758553 L74.6282788,23.2758553 Z" id="Fill-52" fill="#FEFEFE"></path>
                <path d="M79.4677901,23.2758158 C79.4969631,23.2758158 79.5221939,23.2866053 79.5437452,23.3077895 C79.5649022,23.3291053 79.5754151,23.3545 79.5754151,23.3837105 L79.5754151,23.8075263 C79.5754151,23.837 79.5649022,23.8623947 79.5437452,23.8835789 C79.5221939,23.9048947 79.4969631,23.9155526 79.4677901,23.9155526 L78.765008,23.9155526 L78.765008,25.9664737 C78.765008,25.9958158 78.7544952,26.0210789 78.7329439,26.0423947 C78.7117869,26.0637105 78.6866875,26.0743684 78.6571202,26.0743684 L78.1342388,26.0743684 C78.1046715,26.0743684 78.0795721,26.0637105 78.0582837,26.0423947 C78.0368638,26.0210789 78.0262196,25.9958158 78.0262196,25.9664737 L78.0262196,23.9155526 L77.3235689,23.9155526 C77.2942644,23.9155526 77.2691651,23.9048947 77.2476138,23.8835789 C77.2264567,23.8623947 77.2158125,23.837 77.2158125,23.8075263 L77.2158125,23.3837105 C77.2158125,23.3545 77.2264567,23.3291053 77.2476138,23.3077895 C77.2691651,23.2866053 77.2942644,23.2758158 77.3235689,23.2758158 L79.4677901,23.2758158 Z" id="Fill-54" fill="#FEFEFE"></path>
                <path d="M83.2247962,25.0109474 C83.2276872,24.9630526 83.2303154,24.9096316 83.2328122,24.8510789 C83.2354404,24.7923947 83.2368859,24.7325263 83.2368859,24.6710789 C83.2368859,24.6097632 83.2354404,24.5505526 83.2328122,24.4931842 C83.2303154,24.4359474 83.2276872,24.3847632 83.2247962,24.3393684 C83.2196712,24.2727895 83.2056103,24.2113421 83.1830077,24.1554211 C83.1604051,24.0993684 83.128341,24.0508158 83.0870782,24.0095 C83.0458154,23.9683158 82.9945654,23.9355526 82.933591,23.9114737 C82.8723538,23.8875263 82.8004724,23.8755526 82.7179468,23.8755526 C82.6352897,23.8755526 82.5632769,23.8875263 82.5023026,23.9114737 C82.4410654,23.9355526 82.3898154,23.9683158 82.3485526,24.0095 C82.3074212,24.0508158 82.2752256,24.0993684 82.2526231,24.1554211 C82.2300205,24.2113421 82.2159596,24.2727895 82.2108346,24.3393684 C82.2054468,24.3847632 82.2022929,24.4359474 82.2008474,24.4931842 C82.1994019,24.5505526 82.1987449,24.6097632 82.1987449,24.6710789 C82.1987449,24.7325263 82.1994019,24.7923947 82.2008474,24.8510789 C82.2022929,24.9096316 82.2054468,24.9630526 82.2108346,25.0109474 C82.2214788,25.1442368 82.2672096,25.2547632 82.3485526,25.3427895 C82.4296327,25.4306842 82.5527641,25.4746316 82.7179468,25.4746316 C82.8828667,25.4746316 83.0054724,25.4306842 83.0851071,25.3427895 C83.1650045,25.2547632 83.2116551,25.1442368 83.2247962,25.0109474 M81.4720462,24.3193684 C81.4800622,24.1700263 81.5126519,24.0295 81.5699468,23.8976579 C81.6272417,23.7655526 81.7081904,23.6510789 81.8133186,23.5538421 C81.9187096,23.4564737 82.0464404,23.3792368 82.1967737,23.3218684 C82.3471071,23.2646316 82.5209628,23.2359474 82.7179468,23.2359474 C82.9121712,23.2359474 83.0851071,23.2646316 83.2368859,23.3218684 C83.3886647,23.3792368 83.5169212,23.4564737 83.6223122,23.5538421 C83.7274404,23.6510789 83.8083891,23.7655526 83.865684,23.8976579 C83.9229788,24.0295 83.9557,24.1700263 83.963716,24.3193684 C83.968841,24.4338421 83.9717321,24.5538421 83.9717321,24.6792368 C83.9717321,24.8045 83.968841,24.9217368 83.963716,25.0309474 C83.9557,25.1802895 83.9229788,25.3206842 83.865684,25.4527895 C83.8083891,25.5846316 83.7274404,25.6998947 83.6223122,25.7985789 C83.5169212,25.8971316 83.3886647,25.9745 83.2368859,26.0304211 C83.0851071,26.0864737 82.9121712,26.1143684 82.7179468,26.1143684 C82.5209628,26.1143684 82.3471071,26.0864737 82.1967737,26.0304211 C82.0464404,25.9745 81.9187096,25.8971316 81.8133186,25.7985789 C81.7081904,25.6998947 81.6272417,25.5846316 81.5699468,25.4527895 C81.5126519,25.3206842 81.4800622,25.1802895 81.4720462,25.0309474 C81.4669212,24.9217368 81.4640301,24.8045 81.4640301,24.6792368 C81.4640301,24.5538421 81.4669212,24.4338421 81.4720462,24.3193684" id="Fill-56" fill="#FEFEFE"></path>
                <path d="M86.8463971,24.4871974 L87.2973971,24.4871974 C87.4093587,24.4871974 87.5016087,24.4658816 87.5748042,24.42325 C87.6482625,24.3806184 87.6847946,24.30325 87.6847946,24.1912763 C87.6847946,24.0794342 87.6482625,24.0021974 87.5748042,23.9595658 C87.5016087,23.9169342 87.4093587,23.8954868 87.2973971,23.8954868 L86.8463971,23.8954868 L86.8463971,24.4871974 Z M87.2973971,23.27575 C87.473224,23.27575 87.6301279,23.2945658 87.7685029,23.3318026 C87.9070093,23.3691711 88.0247529,23.4252237 88.1218651,23.4996974 C88.2192401,23.5744342 88.2936183,23.6696974 88.3455253,23.7856184 C88.3975638,23.9015395 88.4233202,24.0368026 88.4233202,24.1912763 C88.4233202,24.3912763 88.3821888,24.5571974 88.2996631,24.6890395 C88.2171375,24.8211447 88.100051,24.9218026 87.9482721,24.9910132 L88.443426,25.9424605 C88.451442,25.9583816 88.4555157,25.9731184 88.4555157,25.9864079 C88.4555157,26.0104868 88.4465798,26.0311447 88.4293651,26.0485132 C88.4118875,26.0658816 88.3915189,26.0744342 88.3674708,26.0744342 L87.8246151,26.0744342 C87.7713939,26.0744342 87.7332849,26.0623289 87.7106824,26.0383816 C87.6879484,26.0144342 87.6699452,25.9903553 87.6568042,25.9664079 L87.213426,25.1108816 L86.8463971,25.1108816 L86.8463971,25.9664079 C86.8463971,25.9958816 86.8354901,26.0210132 86.814333,26.0424605 C86.7927817,26.0637763 86.7676824,26.0744342 86.7383779,26.0744342 L86.2152337,26.0744342 C86.1860606,26.0744342 86.1608298,26.0637763 86.1396728,26.0424605 C86.1181215,26.0210132 86.1076087,25.9958816 86.1076087,25.9664079 L86.1076087,23.3837763 C86.1076087,23.3545658 86.1181215,23.3291711 86.1396728,23.3078553 C86.1608298,23.2865395 86.1860606,23.27575 86.2152337,23.27575 L87.2973971,23.27575 Z" id="Fill-58" fill="#FEFEFE"></path>
                <path d="M91.9129458,25.9664342 C91.9129458,25.9959079 91.9023016,26.0210395 91.8811446,26.0424868 C91.8597247,26.0638026 91.8344939,26.0743289 91.8053208,26.0743289 L91.2820452,26.0743289 C91.2528721,26.0743289 91.2276413,26.0638026 91.2062215,26.0424868 C91.184933,26.0210395 91.1744202,25.9959079 91.1744202,25.9664342 L91.1744202,25.1148553 L90.2520516,23.4157763 C90.2414074,23.3972237 90.2360196,23.3797237 90.2360196,23.3638026 C90.2360196,23.3398553 90.2445612,23.3191974 90.2620388,23.3019605 C90.2792535,23.2845921 90.2998849,23.2757763 90.323933,23.2757763 L90.8708625,23.2757763 C90.9242151,23.2757763 90.963901,23.2893289 90.9905772,23.3157763 C91.0172535,23.3424868 91.0332856,23.3624868 91.0386734,23.3759079 L91.5418433,24.3593289 L92.0486926,23.3759079 C92.0540804,23.3624868 92.0701125,23.3424868 92.0967888,23.3157763 C92.1232022,23.2893289 92.163151,23.2757763 92.2165035,23.2757763 L92.763433,23.2757763 C92.7874811,23.2757763 92.8081125,23.2845921 92.8251958,23.3019605 C92.8428048,23.3191974 92.8513465,23.3398553 92.8513465,23.3638026 C92.8513465,23.3797237 92.8459587,23.3972237 92.8353144,23.4157763 L91.9129458,25.1148553 L91.9129458,25.9664342 Z" id="Fill-60" fill="#FEFEFE"></path>
            </g>
        </g>
    </g>
</svg>