<?xml version="1.0" encoding="UTF-8"?>
<svg width="13px" height="14px" viewBox="0 0 13 14" version="1.1" xmlns="http://www.w3.org/2000/svg" xmlns:xlink="http://www.w3.org/1999/xlink">
    <!-- Generator: Sketch 48.2 (47327) - http://www.bohemiancoding.com/sketch -->
    <title></title>
    <desc>Created with Sketch.</desc>
    <defs></defs>
    <g id="Home---2" stroke="none" stroke-width="1" fill="none" fill-rule="evenodd" transform="translate(-413.000000, -459.000000)">
        <g id="VIDEO" transform="translate(0.000000, 180.000000)" fill="#222222">
            <g id="Group-7" transform="translate(-452.000000, 6.000000)">
                <g id="Group-13" transform="translate(602.500000, 254.500000)">
                    <g id="Group-9" transform="translate(179.000000, 0.000000)">
                        <path d="M95.9419641,25.4023438 L84.8258927,31.5797991 C84.6975438,31.6523441 84.5873329,31.6607146 84.4952565,31.6049107 C84.4031802,31.5491069 84.3571427,31.4486614 84.3571427,31.3035714 L84.3571427,18.9821429 C84.3571427,18.8370528 84.4031802,18.7366074 84.4952565,18.6808036 C84.5873329,18.6249997 84.6975438,18.6333702 84.8258927,18.7059152 L95.9419641,24.8833705 C96.070313,24.9559155 96.1344864,25.0424102 96.1344864,25.1428571 C96.1344864,25.2433041 96.070313,25.3297987 95.9419641,25.4023438 Z" id="" transform="translate(90.245815, 25.142857) rotate(-360.000000) translate(-90.245815, -25.142857) "></path>
                    </g>
                </g>
            </g>
        </g>
    </g>
</svg>