<?xml version="1.0" encoding="UTF-8"?>
<svg width="276px" height="68px" viewBox="0 0 276 68" version="1.1" xmlns="http://www.w3.org/2000/svg" xmlns:xlink="http://www.w3.org/1999/xlink">
    <!-- Generator: Sketch 48.2 (47327) - http://www.bohemiancoding.com/sketch -->
    <title>logo-lines</title>
    <desc>Created with Sketch.</desc>
    <defs></defs>
    <g id="Home" stroke="none" stroke-width="1" fill="none" fill-rule="evenodd" transform="translate(-576.000000, -326.000000)">
        <g id="Logo-Copy" transform="translate(577.000000, 326.000000)">
            <g id="Logo">
                <path d="M65.6287794,56.6568456 C65.5782452,56.6063018 65.5382879,56.5572272 65.50832,56.5096219 L64.6695112,55.0365035 L64.6695112,57.9915561 C64.6695112,58.0573807 64.6454193,58.1138018 64.5978232,58.161407 C64.5499332,58.2090123 64.493523,58.2328149 64.4282986,58.2328149 L63.2586672,58.2328149 C63.193149,58.2328149 63.1370326,58.2090123 63.0894364,58.161407 C63.0415465,58.1138018 63.0177484,58.0573807 63.0177484,57.9915561 L63.0177484,52.2236789 C63.0177484,52.1584421 63.0415465,52.1017272 63.0894364,52.0541219 C63.1370326,52.0065167 63.193149,51.982714 63.2586672,51.982714 L64.2943243,51.982714 C64.4136084,51.982714 64.5026309,52.0156263 64.562273,52.0808632 C64.6216213,52.1463939 64.6606971,52.194293 64.6780315,52.2236789 L66.1244257,54.6970956 L67.5705262,52.2236789 C67.5884482,52.194293 67.6269364,52.1463939 67.6862847,52.0808632 C67.7459268,52.0156263 67.8355369,51.982714 67.954821,51.982714 L68.9898905,51.982714 C69.0554087,51.982714 69.1121127,52.0065167 69.1597089,52.0541219 C69.2070112,52.1017272 69.2313969,52.1584421 69.2313969,52.2236789 L69.2313969,57.9915561 C69.2313969,58.0573807 69.2070112,58.1138018 69.1597089,58.161407 C69.1121127,58.2090123 69.0554087,58.2328149 68.9898905,58.2328149 L67.8208467,58.2328149 C67.7550347,58.2328149 67.6986245,58.2090123 67.6513221,58.161407 C67.6031384,58.1138018 67.5796341,58.0573807 67.5796341,57.9915561 L67.5796341,55.0365035 L66.7402377,56.5096219 C66.7108574,56.5572272 66.6703125,56.6063018 66.6197783,56.6568456 C66.5692441,56.7073895 66.4993189,56.7326614 66.4097089,56.7326614 L65.838555,56.7326614 C65.7498264,56.7326614 65.6793136,56.7073895 65.6287794,56.6568456" id="Fill-1" fill="#979797"></path>
                <path d="M78.702914,56.8042162 C78.7681384,56.8042162 78.8245486,56.8283127 78.8727324,56.8756241 C78.9200347,56.9232294 78.943539,56.9799443 78.943539,57.0451811 L78.943539,57.9917031 C78.943539,58.0575276 78.9200347,58.1136548 78.8727324,58.1615539 C78.8245486,58.2091592 78.7681384,58.232668 78.702914,58.232668 L74.4709696,58.232668 C74.4057452,58.232668 74.3493349,58.2091592 74.3020326,58.1615539 C74.2538488,58.1136548 74.2303446,58.0575276 74.2303446,57.9917031 L74.2303446,52.2238259 C74.2303446,52.1582952 74.2538488,52.1018741 74.3020326,52.053975 C74.3493349,52.0066636 74.4057452,51.9825671 74.4709696,51.9825671 L78.631226,51.9825671 C78.6964503,51.9825671 78.7528606,52.0066636 78.8007505,52.053975 C78.8483467,52.1018741 78.8727324,52.1582952 78.8727324,52.2238259 L78.8727324,53.1700539 C78.8727324,53.2358785 78.8483467,53.2925934 78.8007505,53.3399048 C78.7528606,53.3875101 78.6964503,53.4113127 78.631226,53.4113127 L75.8821074,53.4113127 L75.8821074,54.3757601 L78.4346715,54.3757601 C78.5007772,54.3757601 78.5568937,54.3995627 78.6044899,54.447168 C78.6523798,54.4947732 78.6761779,54.5514882 78.6761779,54.616725 L78.6761779,55.5632469 C78.6761779,55.6287776 78.6523798,55.6851987 78.6044899,55.7328039 C78.5568937,55.7807031 78.5007772,55.8042118 78.4346715,55.8042118 L75.8821074,55.8042118 L75.8821074,56.8042162 L78.702914,56.8042162 Z" id="Fill-5" fill="#979797"></path>
                <path d="M87.495187,54.4381171 C87.4593429,53.753718 87.0547756,53.4113715 86.281485,53.4113715 L85.3709882,53.4113715 L85.3709882,56.804275 L86.3255556,56.804275 C87.0759295,56.804275 87.4649252,56.4619285 87.495187,55.7775294 C87.501063,55.6523452 87.5042949,55.5348013 87.5042949,55.4248978 L87.5042949,55.1034154 L87.5042949,54.7863408 C87.5042949,54.679082 87.501063,54.5633013 87.495187,54.4381171 Z M86.3255556,51.9826259 C86.7365865,51.9826259 87.1108921,52.0437487 87.4505288,52.1657004 C87.789578,52.2876522 88.0827938,52.4589724 88.3301763,52.6793671 C88.5766774,52.8997618 88.7705876,53.1627662 88.9101442,53.4695557 C89.0497009,53.7760513 89.1290278,54.1107575 89.1469498,54.473968 C89.1528259,54.5988583 89.1551763,54.7134636 89.1551763,54.8174899 L89.1551763,55.1169329 L89.1551763,55.4113803 C89.1551763,55.512468 89.1528259,55.6226654 89.1469498,55.7419724 C89.1290278,56.1110601 89.0514637,56.4472355 88.9145513,56.7507925 C88.7776389,57.0543496 88.5887233,57.3161785 88.3480983,57.5362794 C88.1065919,57.7566741 87.8198397,57.9277004 87.4863729,58.0496522 C87.1526122,58.1718978 86.7812447,58.2327268 86.3702137,58.2327268 L83.9598504,58.2327268 C83.8946261,58.2327268 83.8382158,58.209218 83.7909135,58.1613189 C83.7430235,58.1137136 83.7189316,58.0572925 83.7189316,57.9917618 L83.7189316,52.2235908 C83.7189316,52.1583539 83.7430235,52.101639 83.7909135,52.0540338 C83.8382158,52.0067224 83.8946261,51.9826259 83.9598504,51.9826259 L86.3255556,51.9826259 Z" id="Fill-9" fill="#979797"></path>
                <path d="M94.16332,58.2327561 C94.0978018,58.2327561 94.0416854,58.2089535 93.9940892,58.1613482 C93.9461993,58.113743 93.922695,58.0573219 93.922695,57.9917912 L93.922695,52.2236202 C93.922695,52.1583833 93.9461993,52.1016684 93.9940892,52.0540632 C94.0416854,52.0067518 94.0978018,51.9826553 94.16332,51.9826553 L95.3329514,51.9826553 C95.3981757,51.9826553 95.454586,52.0067518 95.5027698,52.0540632 C95.5500721,52.1016684 95.5744578,52.1583833 95.5744578,52.2236202 L95.5744578,57.9917912 C95.5744578,58.0573219 95.5500721,58.113743 95.5027698,58.1613482 C95.454586,58.2089535 95.3981757,58.2327561 95.3329514,58.2327561 L94.16332,58.2327561 Z" id="Fill-13" fill="#979797"></path>
                <path d="M102.429979,55.8846118 L103.876079,55.8846118 L103.153323,53.7417873 L102.429979,55.8846118 Z M103.876079,51.9827434 C103.995363,51.9827434 104.086149,52.0156557 104.148435,52.0808925 C104.211015,52.1464232 104.25391,52.2119539 104.277708,52.2774846 L106.223862,57.9025461 C106.24766,57.9619057 106.259706,58.0068662 106.259706,58.0362522 C106.259706,58.0900285 106.240609,58.1361645 106.201533,58.1749539 C106.163045,58.2137434 106.116918,58.2328443 106.063152,58.2328443 L104.938472,58.2328443 C104.819188,58.2328443 104.734866,58.2075724 104.684038,58.1570285 C104.633504,58.1064846 104.602361,58.0574101 104.590609,58.009511 L104.340288,57.2683969 L101.965769,57.2683969 L101.716036,58.009511 C101.70399,58.0574101 101.672553,58.1064846 101.622019,58.1570285 C101.571485,58.2075724 101.48687,58.2328443 101.367879,58.2328443 L100.242906,58.2328443 C100.18914,58.2328443 100.143013,58.2137434 100.104525,58.1749539 C100.065449,58.1361645 100.046351,58.0900285 100.046351,58.0362522 C100.046351,58.0068662 100.058397,57.9619057 100.082196,57.9025461 L102.028349,52.2774846 C102.052147,52.2119539 102.095043,52.1464232 102.157917,52.0808925 C102.220497,52.0156557 102.310988,51.9827434 102.429979,51.9827434 L103.876079,51.9827434 Z" id="Fill-17" fill="#979797"></path>
                <path d="M257.918827,26.152686 L247.888085,6.22400614 C247.772326,5.99362018 247.536402,5.84669035 247.282262,5.84669035 L228.550825,5.84669035 C228.296392,5.84669035 228.070163,5.99420789 227.970857,6.22488772 L226.22067,10.2836772 C226.145163,10.4588175 226.15192,10.6615807 226.240061,10.8370149 L229.229511,16.8023658 C229.344976,17.0327518 229.581488,17.1802693 229.835921,17.1802693 L236.612791,17.1802693 C237.088753,17.1802693 237.388432,16.6886421 237.176894,16.2551991 L236.279912,14.4179886 C236.194709,14.2440237 236.188833,14.0439053 236.263459,13.8708219 L236.646285,12.9833658 C236.745884,12.752686 236.972113,12.6051684 237.226253,12.6051684 L242.539981,12.6051684 C242.795884,12.6051684 243.033571,12.7544491 243.148448,12.9874798 L244.757022,16.2531421 C244.970617,16.6868789 244.670938,17.1802693 244.194095,17.1802693 L241.058918,17.1802693 C240.580019,17.1802693 240.280339,17.6777737 240.498048,18.1118044 L242.467706,22.0418833 C242.583464,22.2725632 242.819976,22.4200807 243.07441,22.4200807 L247.41418,22.4200807 C247.668026,22.4200807 247.904244,22.5667167 248.020003,22.7968088 L249.203149,25.1429842 C249.291878,25.3187123 249.299223,25.5220632 249.223421,25.6977912 L248.842652,26.5805456 C248.743347,26.8112254 248.517118,26.958743 248.262684,26.958743 L242.946018,26.958743 C242.69129,26.958743 242.454778,26.8112254 242.339314,26.5808395 L240.443106,22.7979842 C240.327348,22.5675982 240.090836,22.4200807 239.836696,22.4200807 L233.071579,22.4200807 C232.592679,22.4200807 232.292999,22.9175851 232.511002,23.3516158 L237.517412,33.3393175 C237.63317,33.5697035 237.869682,33.7172211 238.123822,33.7172211 L254.498662,33.7172211 C254.753096,33.7172211 254.979324,33.5697035 255.07863,33.3390237 L257.938806,26.7071991 C258.014607,26.5314711 258.007262,26.328414 257.918827,26.152686" id="Fill-21" stroke="#979797"></path>
                <path d="M208.110099,13.8669724 L208.490574,12.9848057 C208.590467,12.7532443 208.817871,12.6057268 209.072893,12.6066083 L214.401018,12.6260031 C214.65457,12.6268846 214.889907,12.7741083 215.005077,13.0039066 L216.631279,16.2487048 C216.848988,16.6830294 216.549602,17.1802399 216.070702,17.1802399 L209.929917,17.1802399 C209.675483,17.1802399 209.438972,17.0327224 209.323213,16.8023364 L208.12949,14.4203101 C208.041643,14.2451697 208.034591,14.0424066 208.110099,13.8669724 Z M219.914826,22.8000118 L221.136755,25.2384592 C221.224896,25.4135996 221.231947,25.6163627 221.156146,25.7917969 L220.775083,26.6754329 C220.675777,26.9061127 220.449549,27.0536303 220.195115,27.0536303 L214.878448,27.0536303 C214.624014,27.0536303 214.387503,26.9061127 214.271744,26.6754329 L212.605585,23.3509987 C212.387877,22.9166741 212.687556,22.4194636 213.166456,22.4194636 L219.308416,22.4221083 C219.56285,22.4221083 219.799362,22.5696259 219.914826,22.8000118 Z M209.446611,33.3392882 C209.562075,33.5696741 209.798881,33.7171917 210.053315,33.7171917 L226.427861,33.7171917 C226.682294,33.7171917 226.908523,33.5696741 227.008122,33.3392882 L229.868299,26.706582 C229.943806,26.5311478 229.936755,26.3286785 229.848908,26.1532443 L219.812289,6.12994167 C219.696824,5.8995557 219.460019,5.75203816 219.205879,5.75203816 L200.519687,5.75203816 C200.265254,5.75203816 200.039025,5.8995557 199.939426,6.12994167 L198.148988,10.2836478 C198.073186,10.4587882 198.080238,10.6615513 198.168379,10.8369855 L209.446611,33.3392882 Z" id="Fill-25" stroke="#979797"></path>
                <g id="Group-31" transform="translate(0.000000, 0.138114)" stroke="#979797">
                    <path d="M272.669257,47.6454044 L265.052991,63.98165 C264.837634,64.4435974 264.374012,64.7389263 263.864557,64.7389263 L153.325427,64.7389263 L121.434241,64.7389263 L10.8951122,64.7389263 C10.3856571,64.7389263 9.92203526,64.4435974 9.70667735,63.98165 L2.09041132,47.6454044 C1.92676282,47.2939482 1.92676282,46.8881281 2.09041132,46.5369658 L24.7902511,2.88029474 C25.005609,2.41805351 25.468937,2.12301842 25.9783921,2.12301842 L125.535443,2.12301842 L149.224225,2.12301842 L248.780983,2.12301842 C249.290732,2.12301842 249.75406,2.41805351 249.969418,2.88029474 L272.669257,46.5369658 C272.832906,46.8881281 272.832906,47.2939482 272.669257,47.6454044 M274.451763,45.7056368 L251.751923,2.04837807 C251.215732,0.898799123 250.049626,0.15592193 248.780983,0.15592193 L149.224225,0.15592193 L125.535443,0.15592193 L25.9783921,0.15592193 C24.7100427,0.15592193 23.543937,0.898799123 23.0077457,2.04837807 L0.307612179,45.7056368 C-0.102537393,46.5863342 -0.102537393,47.596036 0.307612179,48.4764395 L7.92417201,64.8132728 C8.46006944,65.9628518 9.62617521,66.7060228 10.8951122,66.7060228 L121.434241,66.7060228 L153.325427,66.7060228 L263.864557,66.7060228 C265.133494,66.7060228 266.299599,65.9628518 266.835497,64.8132728 L274.451763,48.4764395 C274.862206,47.596036 274.862206,46.5863342 274.451763,45.7056368" id="Fill-29"></path>
                </g>
                <path d="M207.845705,41.4761443 C208.008766,41.7603066 208.088093,42.0841399 208.088093,42.4476443 C208.088093,43.2163811 207.845705,43.7456224 207.361223,44.0274338 L195.759514,44.0274338 C195.314696,44.0274338 194.869583,43.9580829 194.424765,43.8146794 C193.979947,43.6739206 193.633846,43.3597846 193.391752,42.8728592 L181.117821,18.9356399 C180.836063,18.4907364 180.534327,18.0755127 180.208205,17.689675 C179.886784,17.306482 179.540978,17.074039 179.175192,16.9926399 L174.439375,16.9926399 C174.113253,16.9926399 173.851181,17.1333987 173.648456,17.4178548 C173.446026,17.7020171 173.347014,18.0234996 173.347014,18.3893548 L173.347014,31.6321399 C173.347014,31.876925 173.4757,32.1290566 173.737479,32.3935303 C174.004252,32.6556531 174.256629,32.7867145 174.498723,32.7867145 L182.274525,32.7867145 C182.397922,32.7867145 182.526608,32.8487189 182.669984,32.969789 C182.81336,33.0908592 182.941752,33.2439601 183.065443,33.4246838 C183.18414,33.6074645 183.297842,33.790539 183.39656,33.9733197 C183.500272,34.1537496 183.549925,34.2874557 183.549925,34.3665039 L183.549925,42.2052101 C183.549925,42.5290434 183.386571,42.9148811 183.065443,43.3597846 C182.739028,43.8046882 182.417901,44.0274338 182.091485,44.0274338 L161.864001,44.0274338 C161.458552,44.0274338 161.097762,43.8443592 160.771346,43.4808548 C160.450219,43.1149996 160.286864,42.751789 160.286864,42.3859338 L160.286864,7.756925 C160.286864,7.23032851 160.459915,6.76544254 160.80102,6.36021009 C161.147121,5.95468377 161.522601,5.75192061 161.923056,5.75192061 L187.68227,5.75192061 C188.329813,5.75192061 188.824284,5.8336136 189.170385,5.99435482 C189.51149,6.15744693 189.827623,6.37989868 190.10938,6.66435482 L207.845705,41.4761443 Z" id="Fill-32" stroke="#979797"></path>
                <path d="M27.3818323,6.66426667 C27.6635897,6.37981053 27.9773718,6.15735877 28.3234722,5.99426667 C28.6672222,5.83352544 29.16375,5.75212632 29.8115865,5.75212632 L55.5681571,5.75212632 C55.9683173,5.75212632 56.3440919,5.95459561 56.6901923,6.36012193 C57.0312981,6.76564825 57.2043483,7.23024035 57.2043483,7.75683684 L57.2043483,42.3858456 C57.2043483,42.7517009 57.0412874,43.1152053 56.7198665,43.4810605 C56.3937447,43.8442711 56.0326603,44.0273456 55.6275053,44.0273456 L35.3997276,44.0273456 C35.0736058,44.0273456 34.7521848,43.8048939 34.4284135,43.3599904 C34.1022917,42.914793 33.9415812,42.5292491 33.9415812,42.2054158 L33.9415812,34.3664158 C33.9415812,34.2873675 33.9909402,34.1536614 34.0923024,33.9735254 C34.1936645,33.7904509 34.3047222,33.6076702 34.4284135,33.4245956 C34.5494605,33.2441658 34.6804968,33.0907711 34.8212286,32.9697009 C34.9648985,32.8486307 35.095641,32.7869202 35.216688,32.7869202 L42.9924893,32.7869202 C43.2348771,32.7869202 43.4866667,32.6558588 43.753734,32.393736 C44.0158066,32.1292623 44.1441987,31.8771307 44.1441987,31.6323456 L44.1441987,18.3892667 C44.1441987,18.0234114 44.0454808,17.7022228 43.8427564,17.4177667 C43.6400321,17.1333105 43.3779594,16.9925518 43.0518376,16.9925518 L38.3163141,16.9925518 C37.9505288,17.0742447 37.6067788,17.3063939 37.2830075,17.6898807 C36.9568857,18.0754246 36.6527991,18.4906482 36.3710417,18.9355518 L24.1018109,42.8727711 C23.8573665,43.3599904 23.5136165,43.6738325 23.0687981,43.8145912 C22.6213355,43.9579947 22.1765171,44.0273456 21.7316987,44.0273456 L10.1299893,44.0273456 C9.64550748,43.7455342 9.40076923,43.2165868 9.40076923,42.44785 C9.40076923,42.0843456 9.48244658,41.7605123 9.64550748,41.4760561 L27.3818323,6.66426667 Z" id="Fill-34" stroke="#979797"></path>
                <path d="M95.286883,18.1470382 C95.286883,17.9022531 95.1584909,17.6501215 94.8964183,17.3856478 C94.629351,17.1238189 94.3772676,16.9924636 94.1351736,16.9924636 L77.3725134,16.9924636 C77.1254247,16.9924636 76.8733413,17.1138276 76.6115625,17.355968 C76.3494899,17.5981083 76.2158093,17.8428934 76.2158093,18.0853276 L76.2158093,42.4477618 C76.2158093,42.7715952 76.072727,43.1151171 75.7909696,43.4809724 C75.5092121,43.8444768 75.2224599,44.0272575 74.9407025,44.0272575 L64.7377911,44.0272575 C64.3323424,44.0272575 63.9665572,43.8444768 63.6404354,43.4809724 C63.3190144,43.1151171 63.1559535,42.7516127 63.1559535,42.3857575 L63.1559535,7.39353816 C63.1559535,7.02768289 63.3190144,6.66417851 63.6404354,6.29832325 C63.9665572,5.93481886 64.3323424,5.75203816 64.7377911,5.75203816 L106.769896,5.75203816 C107.175345,5.75203816 107.536135,5.93481886 107.862551,6.29832325 C108.188673,6.66417851 108.347033,7.02768289 108.347033,7.39353816 L108.347033,32.0783364 C108.347033,32.4415469 108.188673,32.8074022 107.862551,33.1709066 C107.536135,33.5367618 107.175345,33.7171917 106.769896,33.7171917 L98.4385123,33.7171917 L108.104645,41.4762618 C108.267999,41.7604241 108.347033,42.0842575 108.347033,42.4477618 C108.347033,43.2164987 108.104645,43.7454461 107.620457,44.0272575 L96.0184535,44.0272575 C95.5736351,44.0272575 95.1288168,43.9579066 94.6837046,43.8147969 C94.2341854,43.6737443 83.0056063,33.7171917 83.0056063,33.7171917 L81.075024,33.7171917 C80.9516266,33.7171917 80.8232345,33.657832 80.6795646,33.5367618 C80.5361886,33.4130469 80.4077965,33.2622969 80.284399,33.0792224 C80.1657025,32.8990864 80.0520005,32.7160118 79.9529888,32.5332311 C79.8492762,32.3501566 79.7999172,32.2190952 79.7999172,32.1374022 L79.7999172,24.3010469 C79.7999172,23.9772136 79.9629781,23.5940206 80.284399,23.1464724 C80.6105208,22.7015689 80.9319418,22.4791171 81.2580636,22.4791171 L94.1351736,22.4791171 C94.337898,22.4791171 94.5603072,22.3677443 94.8024012,22.1452925 C95.044789,21.9228408 95.2078499,21.6880469 95.286883,21.4459066 L95.286883,18.1470382 Z" id="Fill-36" stroke="#979797"></path>
                <path d="M150.784439,20.2720548 C151.10586,20.7193092 151.268921,21.1027961 151.268921,21.4266294 L151.268921,28.7769408 C151.268921,28.8586338 151.219268,28.565068 151.115556,28.7481425 C151.016838,28.9309232 150.903136,29.1139978 150.784439,29.2944276 C150.661042,29.4775022 150.532356,29.6306031 150.38898,29.7516732 C150.245604,29.8727434 150.117212,29.9323969 149.99352,29.9323969 L128.248248,29.9323969 C128.12485,29.9744189 128.006154,30.055818 127.882463,30.1768882 C127.76406,30.2982522 127.699717,30.439011 127.699717,30.6021031 C127.699717,31.0866776 127.746432,31.9165373 128.270577,32.2403706 C128.799423,32.5665548 129.244241,32.7472785 129.605032,32.7866557 L153.517986,32.7866557 C153.879071,32.7866557 154.224877,32.9797215 154.551293,33.3652654 C154.872714,33.7508092 155.035775,34.1043224 155.035775,34.4281557 L155.035775,42.385875 C155.035775,42.7517303 154.872714,43.1149408 154.551293,43.4807961 C154.224877,43.8443004 153.859092,44.027375 153.453643,44.027375 L124.2393,44.027375 C123.468066,44.027375 122.499396,43.7332215 121.323007,43.1472654 C120.151319,42.5589583 119.034279,41.7481996 117.981287,40.7173399 C116.928296,39.6838355 116.018681,38.4798925 115.247447,37.1005154 C114.481501,35.7261338 114.096031,34.2253925 114.096031,32.6062259 L114.096031,7.39336184 C114.096031,7.02750658 114.259092,6.66429605 114.580219,6.29844079 C114.906635,5.9349364 115.267425,5.75186184 115.672874,5.75186184 L153.453643,5.75186184 C153.859092,5.75186184 154.224877,5.9349364 154.551293,6.29844079 C154.872714,6.66429605 155.035775,7.02750658 155.035775,7.39336184 L155.035775,15.3510811 C155.035775,15.6749145 154.872714,16.0307785 154.551293,16.4142654 C154.224877,16.7998092 153.879071,16.9925811 153.517986,16.9925811 L128.307596,16.9925811 C128.104872,16.9925811 127.882463,17.1136513 127.640369,17.3560855 C127.397981,17.5982259 127.23492,17.843011 127.155887,18.0854452 L127.155887,18.5711952 C127.23492,18.7766031 127.388285,18.9964101 127.610694,19.2411952 C127.833104,19.4833355 128.045524,19.6046996 128.248248,19.6046996 L149.810775,19.6046996 C150.136896,19.6046996 150.458317,19.8271513 150.784439,20.2720548" id="Fill-38" stroke="#979797"></path>
                <path d="M212.475548,36.9115636 L263.246835,36.875125 C263.502738,36.8748311 263.739837,37.0214671 263.855302,37.2503838 L266.813902,43.1293399 C267.031023,43.5607259 266.727818,44.0552917 266.24598,44.0555855 L215.474693,44.0920241 C215.21879,44.092318 214.981397,43.945682 214.866226,43.7167654 L211.907332,37.8378092 C211.690505,37.4064232 211.99371,36.9118575 212.475548,36.9115636" id="Fill-40" stroke="#979797"></path>
                <path d="M118.459482,56.8042162 C118.524706,56.8042162 118.581704,56.8283127 118.629006,56.8756241 C118.676603,56.9232294 118.700694,56.9799443 118.700694,57.0451811 L118.700694,57.9917031 C118.700694,58.0575276 118.676603,58.1136548 118.629006,58.1615539 C118.581704,58.2091592 118.524706,58.232668 118.459482,58.232668 L114.326255,58.232668 C114.260737,58.232668 114.204621,58.2091592 114.157025,58.1615539 C114.109135,58.1136548 114.085337,58.0575276 114.085337,57.9917031 L114.085337,52.2238259 C114.085337,52.1582952 114.109135,52.1018741 114.157025,52.053975 C114.204621,52.0066636 114.260737,51.9825671 114.326255,51.9825671 L115.495887,51.9825671 C115.561111,51.9825671 115.617521,52.0066636 115.665411,52.053975 C115.712714,52.1018741 115.737099,52.1582952 115.737099,52.2238259 L115.737099,56.8042162 L118.459482,56.8042162 Z" id="Fill-42" fill="#979797"></path>
                <path d="M125.074348,55.8846118 L126.520449,55.8846118 L125.797692,53.7417873 L125.074348,55.8846118 Z M126.520449,51.9827434 C126.639733,51.9827434 126.730518,52.0156557 126.792804,52.0808925 C126.855385,52.1464232 126.89828,52.2119539 126.922078,52.2774846 L128.868232,57.9025461 C128.89203,57.9619057 128.904076,58.0068662 128.904076,58.0362522 C128.904076,58.0900285 128.884979,58.1361645 128.845903,58.1749539 C128.807415,58.2137434 128.761287,58.2328443 128.707521,58.2328443 L127.582842,58.2328443 C127.463558,58.2328443 127.379236,58.2075724 127.328408,58.1570285 C127.277874,58.1064846 127.246731,58.0574101 127.234979,58.009511 L126.984658,57.2683969 L124.610139,57.2683969 L124.360406,58.009511 C124.34836,58.0574101 124.316923,58.1064846 124.266389,58.1570285 C124.215855,58.2075724 124.131239,58.2328443 124.012249,58.2328443 L122.887276,58.2328443 C122.83351,58.2328443 122.787382,58.2137434 122.748894,58.1749539 C122.709818,58.1361645 122.690721,58.0900285 122.690721,58.0362522 C122.690721,58.0068662 122.702767,57.9619057 122.726565,57.9025461 L124.672719,52.2774846 C124.696517,52.2119539 124.739412,52.1464232 124.802286,52.0808925 C124.864866,52.0156557 124.955358,51.9827434 125.074348,51.9827434 L126.520449,51.9827434 Z" id="Fill-44" fill="#979797"></path>
                <path d="M135.027938,56.8489711 L136.500481,56.8489711 C136.679113,56.8489711 136.821902,56.796664 136.928846,56.6926377 C137.036378,56.5886114 137.089557,56.4590193 137.089557,56.3041553 C137.089557,56.1495851 137.036378,56.019993 136.928846,55.9156728 C136.821902,55.8116465 136.679113,55.7593395 136.500481,55.7593395 L135.027938,55.7593395 L135.027938,56.8489711 Z M136.955876,53.8754053 C136.955876,53.7208351 136.909749,53.5977079 136.817495,53.5051421 C136.72524,53.4128702 136.590091,53.3667342 136.411458,53.3667342 L135.027938,53.3667342 L135.027938,54.384664 L136.411458,54.384664 C136.590091,54.384664 136.72524,54.3385281 136.817495,54.2462561 C136.909749,54.1539842 136.955876,54.0305632 136.955876,53.8754053 Z M133.6168,58.2327561 C133.551576,58.2327561 133.495166,58.2089535 133.447863,58.1613482 C133.399679,58.113743 133.376175,58.0573219 133.376175,57.9917912 L133.376175,52.2236202 C133.376175,52.1583833 133.399679,52.1016684 133.447863,52.0540632 C133.495166,52.0064579 133.551576,51.9826553 133.6168,51.9826553 L136.491373,51.9826553 C136.890358,51.9826553 137.226469,52.037607 137.500588,52.1478044 C137.773825,52.2582956 137.993002,52.4011114 138.156651,52.5765456 C138.320005,52.7519798 138.437821,52.9515105 138.508921,53.17455 C138.580609,53.3978833 138.616453,53.6197474 138.616453,53.8398482 C138.616453,54.0126377 138.596474,54.1630939 138.55828,54.2906289 C138.519792,54.4187518 138.473665,54.5289491 138.419899,54.6212211 C138.366132,54.713493 138.311191,54.7881333 138.254781,54.8442605 C138.198371,54.9009754 138.152244,54.9444667 138.1164,54.9738526 C138.34821,55.1345939 138.510684,55.3209009 138.602938,55.5318921 C138.695192,55.7431772 138.741319,55.9976596 138.741319,56.2953395 C138.741319,56.539243 138.705475,56.7772693 138.634375,57.0097123 C138.562687,57.2418614 138.444872,57.4487386 138.281517,57.6303439 C138.117869,57.8116553 137.905155,57.9574096 137.643376,58.067607 C137.381597,58.1778044 137.060176,58.2327561 136.679113,58.2327561 L133.6168,58.2327561 Z" id="Fill-46" fill="#979797"></path>
                <path d="M147.194955,55.8577825 C147.201418,55.7508175 147.207294,55.6315105 147.212877,55.500743 C147.218753,55.3696816 147.221691,55.2359754 147.221691,55.098743 C147.221691,54.9618044 147.218753,54.8295675 147.212877,54.7014447 C147.207294,54.5736158 147.201418,54.4593044 147.194955,54.3579228 C147.183496,54.2092298 147.152059,54.0719974 147.101525,53.947107 C147.050991,53.8219228 146.979303,53.7134886 146.887049,53.6212167 C146.794794,53.5292386 146.680211,53.4560675 146.543886,53.4022912 C146.40668,53.3488088 146.246263,53.3220675 146.061755,53.3220675 C145.876659,53.3220675 145.715948,53.3488088 145.579623,53.4022912 C145.442711,53.4560675 145.328128,53.5292386 145.235873,53.6212167 C145.143619,53.7134886 145.071931,53.8219228 145.021397,53.947107 C144.970863,54.0719974 144.939426,54.2092298 144.927967,54.3579228 C144.915628,54.4593044 144.908576,54.5736158 144.905638,54.7014447 C144.902407,54.8295675 144.900937,54.9618044 144.900937,55.098743 C144.900937,55.2359754 144.902407,55.3696816 144.905638,55.500743 C144.908576,55.6315105 144.915628,55.7508175 144.927967,55.8577825 C144.951472,56.1554623 145.054009,56.4023044 145.235873,56.5988965 C145.41715,56.7951947 145.692444,56.8933439 146.061755,56.8933439 C146.430478,56.8933439 146.704597,56.7951947 146.882642,56.5988965 C147.06098,56.4023044 147.165574,56.1554623 147.194955,55.8577825 M143.276205,54.3132561 C143.294127,53.9797254 143.36699,53.6658833 143.495088,53.371436 C143.623186,53.0764009 143.804169,52.820743 144.039212,52.6035807 C144.274842,52.3861246 144.560419,52.2136289 144.89653,52.0855061 C145.232642,51.9576772 145.621343,51.8936158 146.061755,51.8936158 C146.495996,51.8936158 146.882642,51.9576772 147.221691,52.0855061 C147.561327,52.2136289 147.84808,52.3861246 148.083416,52.6035807 C148.318459,52.820743 148.499736,53.0764009 148.627834,53.371436 C148.755638,53.6658833 148.828795,53.9797254 148.846717,54.3132561 C148.858176,54.568914 148.864639,54.836914 148.864639,55.1169623 C148.864639,55.3967167 148.858176,55.6585456 148.846717,55.9024491 C148.828795,56.2359798 148.755638,56.5495281 148.627834,56.8445632 C148.499736,57.1390105 148.318459,57.3964316 148.083416,57.6168263 C147.84808,57.8369272 147.561327,58.0097167 147.221691,58.134607 C146.882642,58.2597912 146.495996,58.3220895 146.061755,58.3220895 C145.621343,58.3220895 145.232642,58.2597912 144.89653,58.134607 C144.560419,58.0097167 144.274842,57.8369272 144.039212,57.6168263 C143.804169,57.3964316 143.623186,57.1390105 143.495088,56.8445632 C143.36699,56.5495281 143.294127,56.2359798 143.276205,55.9024491 C143.264746,55.6585456 143.258283,55.3967167 143.258283,55.1169623 C143.258283,54.836914 143.264746,54.568914 143.276205,54.3132561" id="Fill-48" fill="#979797"></path>
                <path d="M155.291912,54.6880741 L156.300246,54.6880741 C156.550566,54.6880741 156.756816,54.6404689 156.920759,54.5452583 C157.084701,54.4500478 157.166672,54.2772583 157.166672,54.0271838 C157.166672,53.7774031 157.084701,53.6049075 156.920759,53.5096969 C156.756816,53.4144864 156.550566,53.3665873 156.300246,53.3665873 L155.291912,53.3665873 L155.291912,54.6880741 Z M156.300246,51.9825083 C156.693355,51.9825083 157.044156,52.0245303 157.353531,52.1076925 C157.663494,52.1911487 157.926448,52.3163329 158.143568,52.4826575 C158.361277,52.6495697 158.527863,52.8623241 158.643622,53.1212145 C158.760262,53.3801048 158.817553,53.6821925 158.817553,54.0271838 C158.817553,54.4738504 158.725593,54.8444075 158.541084,55.1388548 C158.35687,55.4338899 158.095091,55.6586925 157.755454,55.8132627 L158.862505,57.9381618 C158.880427,57.9737189 158.889535,58.0066311 158.889535,58.036311 C158.889535,58.0900873 158.869557,58.1362232 158.831068,58.1750127 C158.792286,58.2138022 158.746747,58.2329031 158.692981,58.2329031 L157.478985,58.2329031 C157.359995,58.2329031 157.274792,58.205868 157.224257,58.1523855 C157.173723,58.0989031 157.133178,58.0451268 157.103798,57.9916443 L156.112799,56.0809689 L155.291912,56.0809689 L155.291912,57.9916443 C155.291912,58.0574689 155.267527,58.1135961 155.220224,58.1614952 C155.172334,58.2091004 155.115924,58.2329031 155.0507,58.2329031 L153.880775,58.2329031 C153.81555,58.2329031 153.75914,58.2091004 153.711838,58.1614952 C153.663654,58.1135961 153.64015,58.0574689 153.64015,57.9916443 L153.64015,52.2237671 C153.64015,52.1585303 153.663654,52.1018154 153.711838,52.0542101 C153.75914,52.0066048 153.81555,51.9825083 153.880775,51.9825083 L156.300246,51.9825083 Z" id="Fill-50" fill="#979797"></path>
                <path d="M165.405743,55.8846118 L166.851843,55.8846118 L166.129087,53.7417873 L165.405743,55.8846118 Z M166.851843,51.9827434 C166.971127,51.9827434 167.061912,52.0156557 167.124199,52.0808925 C167.186779,52.1464232 167.229674,52.2119539 167.253472,52.2774846 L169.199626,57.9025461 C169.223424,57.9619057 169.23547,58.0068662 169.23547,58.0362522 C169.23547,58.0900285 169.216373,58.1361645 169.177297,58.1749539 C169.138809,58.2137434 169.092682,58.2328443 169.038916,58.2328443 L167.914236,58.2328443 C167.794952,58.2328443 167.71063,58.2075724 167.659802,58.1570285 C167.609268,58.1064846 167.578125,58.0574101 167.566373,58.009511 L167.316052,57.2683969 L164.941533,57.2683969 L164.6918,58.009511 C164.679754,58.0574101 164.648317,58.1064846 164.597783,58.1570285 C164.547249,58.2075724 164.462634,58.2328443 164.343643,58.2328443 L163.21867,58.2328443 C163.164904,58.2328443 163.118777,58.2137434 163.080288,58.1749539 C163.041213,58.1361645 163.022115,58.0900285 163.022115,58.0362522 C163.022115,58.0068662 163.034161,57.9619057 163.057959,57.9025461 L165.004407,52.2774846 C165.027911,52.2119539 165.070807,52.1464232 165.133681,52.0808925 C165.196261,52.0156557 165.286752,51.9827434 165.405743,51.9827434 L166.851843,51.9827434 Z" id="Fill-52" fill="#979797"></path>
                <path d="M177.671888,51.9826553 C177.737113,51.9826553 177.793523,52.0067518 177.841707,52.0540632 C177.889009,52.1016684 177.912513,52.1583833 177.912513,52.2236202 L177.912513,53.1701421 C177.912513,53.2359667 177.889009,53.2926816 177.841707,53.339993 C177.793523,53.3875982 177.737113,53.4114009 177.671888,53.4114009 L176.100628,53.4114009 L176.100628,57.9917912 C176.100628,58.0573219 176.077123,58.113743 176.02894,58.1613482 C175.981637,58.2089535 175.925521,58.2327561 175.859415,58.2327561 L174.690371,58.2327561 C174.624265,58.2327561 174.568149,58.2089535 174.520553,58.1613482 C174.472663,58.113743 174.448865,58.0573219 174.448865,57.9917912 L174.448865,53.4114009 L172.877898,53.4114009 C172.81238,53.4114009 172.756263,53.3875982 172.70808,53.339993 C172.660777,53.2926816 172.636979,53.2359667 172.636979,53.1701421 L172.636979,52.2236202 C172.636979,52.1583833 172.660777,52.1016684 172.70808,52.0540632 C172.756263,52.0067518 172.81238,51.9826553 172.877898,51.9826553 L177.671888,51.9826553 Z" id="Fill-54" fill="#979797"></path>
                <path d="M186.071699,55.8577825 C186.078162,55.7508175 186.084038,55.6315105 186.089621,55.500743 C186.095497,55.3696816 186.098729,55.2359754 186.098729,55.098743 C186.098729,54.9618044 186.095497,54.8295675 186.089621,54.7014447 C186.084038,54.5736158 186.078162,54.4593044 186.071699,54.3579228 C186.06024,54.2092298 186.028803,54.0719974 185.978269,53.947107 C185.927735,53.8219228 185.856047,53.7134886 185.763793,53.6212167 C185.671538,53.5292386 185.556955,53.4560675 185.42063,53.4022912 C185.283718,53.3488088 185.123007,53.3220675 184.938499,53.3220675 C184.753697,53.3220675 184.592692,53.3488088 184.456368,53.4022912 C184.319455,53.4560675 184.204872,53.5292386 184.112618,53.6212167 C184.020657,53.7134886 183.948675,53.8219228 183.898141,53.947107 C183.847607,54.0719974 183.81617,54.2092298 183.804712,54.3579228 C183.792666,54.4593044 183.785614,54.5736158 183.782382,54.7014447 C183.779151,54.8295675 183.777682,54.9618044 183.777682,55.098743 C183.777682,55.2359754 183.779151,55.3696816 183.782382,55.500743 C183.785614,55.6315105 183.792666,55.7508175 183.804712,55.8577825 C183.82851,56.1554623 183.930753,56.4023044 184.112618,56.5988965 C184.293894,56.7951947 184.569188,56.8933439 184.938499,56.8933439 C185.307222,56.8933439 185.581341,56.7951947 185.759386,56.5988965 C185.938018,56.4023044 186.042318,56.1554623 186.071699,55.8577825 M182.152949,54.3132561 C182.170871,53.9797254 182.243734,53.6658833 182.371832,53.371436 C182.499931,53.0764009 182.680913,52.820743 182.915956,52.6035807 C183.151587,52.3861246 183.437163,52.2136289 183.773275,52.0855061 C184.109386,51.9576772 184.498088,51.8936158 184.938499,51.8936158 C185.37274,51.8936158 185.759386,51.9576772 186.098729,52.0855061 C186.438072,52.2136289 186.724824,52.3861246 186.960454,52.6035807 C187.195497,52.820743 187.37648,53.0764009 187.504578,53.371436 C187.632676,53.6658833 187.705833,53.9797254 187.723755,54.3132561 C187.735214,54.568914 187.741677,54.836914 187.741677,55.1169623 C187.741677,55.3967167 187.735214,55.6585456 187.723755,55.9024491 C187.705833,56.2359798 187.632676,56.5495281 187.504578,56.8445632 C187.37648,57.1390105 187.195497,57.3964316 186.960454,57.6168263 C186.724824,57.8369272 186.438072,58.0097167 186.098729,58.134607 C185.759386,58.2597912 185.37274,58.3220895 184.938499,58.3220895 C184.498088,58.3220895 184.109386,58.2597912 183.773275,58.134607 C183.437163,58.0097167 183.151587,57.8369272 182.915956,57.6168263 C182.680913,57.3964316 182.499931,57.1390105 182.371832,56.8445632 C182.243734,56.5495281 182.170871,56.2359798 182.152949,55.9024491 C182.14149,55.6585456 182.135027,55.3967167 182.135027,55.1169623 C182.135027,54.836914 182.14149,54.568914 182.152949,54.3132561" id="Fill-56" fill="#979797"></path>
                <path d="M194.168774,54.6880741 L195.177107,54.6880741 C195.427428,54.6880741 195.633678,54.6404689 195.797326,54.5452583 C195.961563,54.4500478 196.04324,54.2772583 196.04324,54.0271838 C196.04324,53.7774031 195.961563,53.6049075 195.797326,53.5096969 C195.633678,53.4144864 195.427428,53.3665873 195.177107,53.3665873 L194.168774,53.3665873 L194.168774,54.6880741 Z M195.177107,51.9825083 C195.570216,51.9825083 195.921018,52.0245303 196.230393,52.1076925 C196.540061,52.1911487 196.803309,52.3163329 197.02043,52.4826575 C197.238138,52.6495697 197.404431,52.8623241 197.520483,53.1212145 C197.63683,53.3801048 197.694415,53.6821925 197.694415,54.0271838 C197.694415,54.4738504 197.602455,54.8444075 197.417946,55.1388548 C197.233438,55.4338899 196.971659,55.6586925 196.632316,55.8132627 L197.739367,57.9381618 C197.757289,57.9737189 197.766397,58.0066311 197.766397,58.036311 C197.766397,58.0900873 197.746418,58.1362232 197.70793,58.1750127 C197.668854,58.2138022 197.623315,58.2329031 197.569549,58.2329031 L196.355847,58.2329031 C196.236856,58.2329031 196.151653,58.205868 196.101119,58.1523855 C196.050291,58.0989031 196.01004,58.0451268 195.98066,57.9916443 L194.989367,56.0809689 L194.168774,56.0809689 L194.168774,57.9916443 C194.168774,58.0574689 194.144388,58.1135961 194.097086,58.1614952 C194.048902,58.2091004 193.992786,58.2329031 193.927268,58.2329031 L192.757636,58.2329031 C192.692412,58.2329031 192.636002,58.2091004 192.588699,58.1614952 C192.540515,58.1135961 192.517011,58.0574689 192.517011,57.9916443 L192.517011,52.2237671 C192.517011,52.1585303 192.540515,52.1018154 192.588699,52.0542101 C192.636002,52.0066048 192.692412,51.9825083 192.757636,51.9825083 L195.177107,51.9825083 Z" id="Fill-58" fill="#979797"></path>
                <path d="M205.496424,57.9917031 C205.496424,58.0575276 205.472626,58.1136548 205.425323,58.1615539 C205.377433,58.2091592 205.321023,58.232668 205.255799,58.232668 L204.085873,58.232668 C204.020649,58.232668 203.964239,58.2091592 203.916349,58.1615539 C203.868753,58.1136548 203.845248,58.0575276 203.845248,57.9917031 L203.845248,56.0898434 L201.783042,52.2952338 C201.759244,52.2537996 201.747198,52.2147162 201.747198,52.1791592 C201.747198,52.1256768 201.766295,52.0795408 201.805371,52.0410452 C201.84386,52.0022557 201.889987,51.9825671 201.943753,51.9825671 L203.166563,51.9825671 C203.285847,51.9825671 203.374575,52.0128346 203.434217,52.0719004 C203.49386,52.1315539 203.529704,52.1762206 203.541749,52.2061943 L204.666723,54.4025013 L205.799923,52.2061943 C205.811968,52.1762206 205.847813,52.1315539 205.907455,52.0719004 C205.966509,52.0128346 206.055825,51.9825671 206.17511,51.9825671 L207.397919,51.9825671 C207.451685,51.9825671 207.497813,52.0022557 207.536007,52.0410452 C207.575377,52.0795408 207.594474,52.1256768 207.594474,52.1791592 C207.594474,52.2147162 207.582428,52.2537996 207.55863,52.2952338 L205.496424,56.0898434 L205.496424,57.9917031 Z" id="Fill-60" fill="#979797"></path>
            </g>
        </g>
    </g>
</svg>