<?xml version="1.0" encoding="utf-8"?>
<!-- Generator: Adobe Illustrator 16.0.0, SVG Export Plug-In . SVG Version: 6.00 Build 0)  -->
<!DOCTYPE svg PUBLIC "-//W3C//DTD SVG 1.1//EN" "http://www.w3.org/Graphics/SVG/1.1/DTD/svg11.dtd">
<svg version="1.1" id="Layer_1" xmlns="http://www.w3.org/2000/svg" xmlns:xlink="http://www.w3.org/1999/xlink" x="0px" y="0px"
	 width="75.378px" height="46.124px" viewBox="0 0 75.378 46.124" enable-background="new 0 0 75.378 46.124" xml:space="preserve">
<path fill="#29ABE2" d="M22.434,0c5.75,0,9.799,1.433,12.248,4.733c1.387,1.918,2.13,4.229,2.13,6.893
	c0,2.875-0.743,5.154-2.343,6.858c-0.744,1.171-1.916,1.883-3.409,2.628c2.241,0.959,4.155,2.326,5.328,4.244
	c1.172,1.918,1.917,4.252,1.917,6.918c0,2.662-0.745,5.105-2.13,7.451c-0.96,1.49-2.023,2.66-3.409,3.619
	c-1.386,1.172-3.304,1.604-5.221,2.244c-2.023,0.316-4.154,0.217-6.709,0.217H0V0H22.434z M27.439,12.663
	c0-2.24-0.849-3.582-2.557-4.328c-1.492-0.422-3.199-0.701-5.54-0.701h-9.164v10.182h10.335c2.132,0,3.622-0.395,5.008-1.141
	C26.799,15.929,27.439,14.579,27.439,12.663z M25.308,26.354c-0.956-0.644-2.662-0.906-4.581-0.906H10.179v12.725h10.335
	c2.132,0,3.622-0.184,4.794-0.826c2.132-0.957,3.092-3.044,3.092-5.921C28.399,29.081,27.439,27.313,25.308,26.354z M58.652,10.423
	c2.876,0,5.536,0.533,7.884,1.491c2.235,1.174,4.156,2.665,5.75,5.008c1.28,2.13,2.241,4.358,2.666,7.021
	c0.214,1.601,0.426,4.052,0.426,6.595H50.771c0,2.546,1.383,5.765,3.514,7.041c1.278,0.96,2.983,1.394,4.795,1.394
	c2.025,0,3.622-0.393,4.9-1.357c0.853-0.53,1.383-1.987,1.812-1.987h8.947c-0.211,2.546-1.277,3.804-3.196,5.832
	c-2.875,3.299-7.354,4.665-12.674,4.665c-4.479,0-8.419-1.336-11.933-3.998c-3.409-2.877-5.007-7.382-5.007-13.67
	c0-5.75,1.598-10.239,4.688-13.436C49.595,11.929,53.644,10.423,58.652,10.423z M68.71,2.545v2.544H48.354V2.545H68.71z
	 M58.652,17.667c-2.346,0-4.047,0.858-5.33,2.24c-1.169,1.387-1.914,2.997-2.34,5.541h15.126c-0.213-2.544-0.958-4.368-2.235-5.756
	C62.275,18.525,60.572,17.667,58.652,17.667z"/>
</svg>
