<?xml version="1.0" encoding="utf-8"?>
<!-- Generator: Adobe Illustrator 16.0.0, SVG Export Plug-In . SVG Version: 6.00 Build 0)  -->
<!DOCTYPE svg PUBLIC "-//W3C//DTD SVG 1.1//EN" "http://www.w3.org/Graphics/SVG/1.1/DTD/svg11.dtd">
<svg version="1.1" id="Layer_1" xmlns="http://www.w3.org/2000/svg" xmlns:xlink="http://www.w3.org/1999/xlink" x="0px" y="0px"
	 width="50.896px" height="76.345px" viewBox="0 0 50.896 76.345" enable-background="new 0 0 50.896 76.345" xml:space="preserve">
<g>
	<path fill="#29ABE2" d="M50.896,5.359c0-2.962-2.43-5.359-5.433-5.359H5.43C2.427,0,0,2.397,0,5.359v65.627
		c0,2.96,2.427,5.358,5.43,5.358h40.034c3.003,0,5.433-2.398,5.433-5.358V5.359z M25.446,73.684c-1.403,0-2.533-1.135-2.533-2.532
		c0-1.399,1.13-2.532,2.533-2.532c1.4,0,2.534,1.133,2.534,2.532C27.98,72.549,26.847,73.684,25.446,73.684z M45.807,61.672
		c0,2.481-1.976,4.492-4.414,4.492H9.502c-2.437,0-4.412-2.011-4.412-4.492V9.373c0-2.482,1.976-4.494,4.412-4.494h31.891
		c2.438,0,4.414,2.012,4.414,4.494V61.672z"/>
</g>
</svg>
