<?xml version="1.0" encoding="utf-8"?>
<!-- Generator: Adobe Illustrator 16.0.0, SVG Export Plug-In . SVG Version: 6.00 Build 0)  -->
<!DOCTYPE svg PUBLIC "-//W3C//DTD SVG 1.1//EN" "http://www.w3.org/Graphics/SVG/1.1/DTD/svg11.dtd">
<svg version="1.1" id="Layer_1" xmlns="http://www.w3.org/2000/svg" xmlns:xlink="http://www.w3.org/1999/xlink" x="0px" y="0px"
	 width="62.319px" height="62.32px" viewBox="0 0 62.319 62.32" enable-background="new 0 0 62.319 62.32" xml:space="preserve">
<path fill="#29ABE2" d="M62.319,31.105c0,17.262-13.955,31.215-31.216,31.215C13.849,62.32,0,48.367,0,31.105
	C0,13.955,13.849,0,31.104,0C48.364,0,62.319,13.955,62.319,31.105z M32.17,28.337C24.5,31.105,16.724,32.6,8.841,32.6
	c-1.173,0-2.343-0.214-3.624-0.214c0.107,6.179,2.663,11.929,6.818,16.298c5.221-7.883,12.892-13.636,21.734-16.616
	C33.128,30.894,32.599,29.508,32.17,28.337z M19.174,8.461c-7.247,3.838-12.465,9.363-13.85,19.545c1.174,0,2.13,0,3.517,0
	c7.028,0,14.168-1.358,21.09-3.914C27.058,18.768,23.434,13.362,19.174,8.461z M31.104,57.102c2.877,0,5.541-0.322,8.203-1.281
	c-0.532-6.495-1.917-12.889-3.832-18.855c-8.1,2.771-14.812,8.098-19.605,15.342C20.559,55.396,25.671,57.102,31.104,57.102z
	 M31.104,5.221c-2.342,0-4.476,0.32-6.711,0.956c3.943,4.903,7.459,10.124,10.333,15.448c5.116-2.238,9.909-5.324,14.38-9.16
	C44.313,7.881,37.922,5.221,31.104,5.221z M47.189,29.721c3.198,0,6.502,0.533,9.909,1.385c0-5.219-1.705-10.226-4.584-14.592
	c-4.792,4.046-10.117,7.455-15.551,9.904c0.639,1.386,1.172,2.877,1.811,4.262C41.65,30.148,44.526,29.721,47.189,29.721z
	 M44.313,53.477c6.289-3.619,10.762-9.907,12.248-17.257c-3.299-0.745-6.28-1.172-9.372-1.172c-2.129,0-4.476,0.214-6.712,0.64
	C42.397,41.441,43.568,47.406,44.313,53.477z"/>
</svg>
