<?xml version="1.0" encoding="utf-8"?>
<!-- Generator: Adobe Illustrator 16.0.0, SVG Export Plug-In . SVG Version: 6.00 Build 0)  -->
<!DOCTYPE svg PUBLIC "-//W3C//DTD SVG 1.1//EN" "http://www.w3.org/Graphics/SVG/1.1/DTD/svg11.dtd">
<svg version="1.1" id="Layer_1" xmlns="http://www.w3.org/2000/svg" xmlns:xlink="http://www.w3.org/1999/xlink" x="0px" y="0px"
	 width="76.345px" height="50.895px" viewBox="0 0 76.345 50.895" enable-background="new 0 0 76.345 50.895" xml:space="preserve">
<g>
	<path fill="#29ABE2" d="M38.235,32.839c-0.44,0-1.678-0.135-2.074-0.405L0,8.4v36.502c0,3.309,3.811,5.992,6.526,5.992H71.69
		c2.717,0,4.654-2.684,4.654-5.992V7.217L39.376,32.434C38.979,32.704,38.675,32.839,38.235,32.839z"/>
	<path fill="#29ABE2" d="M74.464,1.379c0.089-0.063,0.182-0.053,0.271-0.096C73.896,0.467,72.849,0,71.69,0H6.526
		C5.058,0,3.753,0.755,2.854,1.998l35.382,24.026L74.464,1.379z"/>
</g>
</svg>
