<?xml version="1.0" encoding="utf-8"?>
<!-- Generator: Adobe Illustrator 16.0.0, SVG Export Plug-In . SVG Version: 6.00 Build 0)  -->
<!DOCTYPE svg PUBLIC "-//W3C//DTD SVG 1.1//EN" "http://www.w3.org/Graphics/SVG/1.1/DTD/svg11.dtd">
<svg version="1.1" id="Layer_1" xmlns="http://www.w3.org/2000/svg" xmlns:xlink="http://www.w3.org/1999/xlink" x="0px" y="0px"
	 width="62.597px" height="50.922px" viewBox="0 0 62.597 50.922" enable-background="new 0 0 62.597 50.922" xml:space="preserve">
<path fill="#29ABE2" d="M56.324,12.784c0,0.424,0,0.959,0,1.49c0,17.152-13.013,36.648-36.555,36.648
	c-7.244,0-14.017-2.133-19.77-5.861c0.963,0.107,1.996,0.107,3.063,0.107c5.963,0,11.488-1.92,15.856-5.434
	c-5.647-0.105-10.338-3.834-11.938-8.949c0.853,0.213,1.488,0.322,2.338,0.322c1.276,0,2.589-0.215,3.657-0.43
	C7.117,29.401,2.883,24.287,2.883,18.11c0,0,0,0,0-0.108c0,0.854,3.379,1.493,5.722,1.493c-3.627-2.238-5.878-6.18-5.878-10.652
	c0-2.451,0.582-4.58,1.646-6.5c6.392,7.883,15.732,12.999,26.39,13.423c-0.213-0.853-0.335-1.917-0.335-2.771
	C30.427,5.858,36.169,0,43.2,0c3.835,0,7.03,1.598,9.371,4.049c2.875-0.429,5.75-1.706,8.204-2.981
	c-1.068,2.873-2.987,5.324-5.647,7.029c2.66-0.32,5.229-1.066,7.469-2.025C60.893,8.524,58.868,10.864,56.324,12.784z"/>
</svg>
