<?xml version="1.0" encoding="UTF-8"?>
<svg width="47px" height="108px" viewBox="0 0 47 108" version="1.1" xmlns="http://www.w3.org/2000/svg" xmlns:xlink="http://www.w3.org/1999/xlink">
    <!-- Generator: Sketch 47.1 (45422) - http://www.bohemiancoding.com/sketch -->
    <title>Combined Shape</title>
    <desc>Created with Sketch.</desc>
    <defs></defs>
    <g id="Bootstrap-4-Grid-System" stroke="none" stroke-width="1" fill="none" fill-rule="evenodd">
        <g id="Home-Copy" transform="translate(-45.000000, -3466.000000)" fill="#272727">
            <g id="Controls" transform="translate(45.000000, 3394.000000)">
                <g id="Left">
                    <path d="M5.16482914,116.646339 L0.152633643,125.001315 L0.0582884818,125.265411 C-0.0404528947,125.541814 -0.0127783466,125.84764 0.133976678,126.101827 L0.133976678,126.101827 L30.9026336,179.394704 C31.178776,179.872997 31.7903664,180.036872 32.268659,179.760729 L32.268659,179.760729 L46.1225227,171.762197 C46.1233691,171.761709 46.1242147,171.761219 46.1250596,171.760728 C46.6025406,171.483184 46.7646219,170.871116 46.4870784,170.393635 L20.6156065,125.884808 L46.2410909,81.500167 C46.5172333,81.0218744 46.3533581,80.4102839 45.8750655,80.1341416 L32.018659,72.1341416 L32.018659,72.1341416 C31.5403664,71.8579992 30.928776,72.0218744 30.6526336,72.500167 L30.6526336,72.500167 L5.16482914,116.646339 Z" id="Combined-Shape"></path>
                </g>
            </g>
        </g>
    </g>
</svg>