<?xml version="1.0" encoding="UTF-8"?>
<svg width="202px" height="58px" viewBox="0 0 202 58" version="1.1" xmlns="http://www.w3.org/2000/svg" xmlns:xlink="http://www.w3.org/1999/xlink">
    <!-- Generator: Sketch 49.3 (51167) - http://www.bohemiancoding.com/sketch -->
    <title>signature</title>
    <desc>Created with Sketch.</desc>
    <defs>
        <polygon id="path-1" points="0 0 202 0 202 58 0 58"></polygon>
    </defs>
    <g id="Bootstrap-4-Grid-System" stroke="none" stroke-width="1" fill="none" fill-rule="evenodd">
        <g id="Home-Copy-7" transform="translate(-241.000000, -663.000000)">
            <g id="signature" transform="translate(241.000000, 663.000000)">
                <mask id="mask-2" fill="white">
                    <use xlink:href="#path-1"></use>
                </mask>
                <g id="path-1"></g>
                <path d="M119.659536,28.6763999 C119.695715,28.7339332 119.725121,28.8085133 119.740405,28.8003773 C119.96115,28.6831799 120.201629,28.619254 120.393934,28.4137227 C120.670011,28.1190826 120.914745,27.7279726 121.162575,27.3558468 C121.204558,27.292502 121.193724,27.1171902 121.207267,26.9936002 C121.149807,26.9949563 121.086156,26.9676425 121.036049,27.0023173 C120.54329,27.3415118 120.15984,27.9914246 119.721445,28.4859783 C119.698229,28.5119361 119.68991,28.5795425 119.659536,28.6763999 Z M138.254161,31.4581431 C138.218177,31.5313672 138.230945,31.6204759 138.287824,31.6789778 C138.406032,31.8000495 138.500444,31.9153097 138.555582,31.898844 C139.555415,31.6003296 140.644824,31.4374155 141.516776,30.9143859 C142.76773,30.1637413 143.877839,29.1682415 144.99975,28.2202018 C145.152588,28.0911877 145.151428,27.7798882 145.176385,27.4991956 C145.185864,27.3916839 145.104415,27.2975386 144.996655,27.2901774 C144.797577,27.27623 144.595405,27.2549214 144.426703,27.3202032 C142.194295,28.1839771 140.456001,29.8388819 138.469295,31.0978337 C138.383203,31.1524612 138.342188,31.2785695 138.254161,31.4581431 Z M162.31266,29.6534968 C162.341681,29.6579523 162.371861,29.6550465 162.400301,29.6469106 C162.585062,29.594995 162.956517,29.5552835 163.145146,29.3485899 C163.964476,28.4516908 164.798895,27.5485929 165.467709,26.5412764 C165.998193,25.742397 165.726566,25.4454323 164.730215,25.5326039 C164.57254,25.5465513 164.389521,25.5523628 164.26667,25.6343041 C162.712362,26.6735835 161.137934,27.6869051 159.654627,28.8236231 C159.531002,28.9185432 159.56602,29.1165197 159.714795,29.1639798 C160.54612,29.4282066 161.248596,29.4898079 162.31266,29.6534968 Z M189.598565,27.2303196 C189.555615,27.2142412 189.502799,27.215791 189.45656,27.2357436 C189.269672,27.3165227 189.067887,27.3872285 188.894541,27.5013265 C187.288964,28.5586213 185.675842,29.6048744 184.095223,30.6985876 C183.15459,31.3494691 182.244331,32.0511038 181.376828,32.7957431 C181.216057,32.9336679 181.199613,33.2401246 181.159952,33.5196549 C181.144476,33.6296849 181.222442,33.7302229 181.332718,33.740296 C181.572809,33.7621858 181.818319,33.7986041 182.016041,33.7176313 C182.756049,33.4148552 183.46994,33.0452476 184.182282,32.6787394 C186.430361,31.5222626 187.894901,29.4442849 189.789516,27.8711278 C189.870191,27.8042963 189.927845,27.7095698 189.982596,27.6113564 C190.040635,27.5079127 189.992655,27.377349 189.881799,27.3360878 L189.598565,27.2303196 Z M153.683097,35.2555324 C154.390603,35.0685977 155.48601,34.9566307 156.404006,34.4926839 C157.619362,33.8784145 158.698323,32.9921698 159.831262,32.2157612 C160.363294,31.8511902 160.409919,31.4449704 159.839968,31.0858234 C159.405636,30.8122982 158.926227,30.6116098 158.481641,30.3530006 C156.896379,29.430725 155.978381,29.4965879 154.666099,30.6437664 C154.520613,30.7710369 154.342431,30.8709938 154.226737,31.0203478 C153.564502,31.874436 152.816561,32.6835823 152.292848,33.6176746 C151.807055,34.483773 152.368881,35.232093 153.683097,35.2555324 Z M45.7163359,55.9690585 L45.7933354,55.8557353 C45.8250639,55.8088564 45.8755586,55.7778621 45.9316638,55.7714695 C46.6041526,55.6945648 47.2926991,55.679455 47.9408112,55.5097609 C51.1295225,54.6748505 54.1001972,53.3176853 56.8775992,51.5535255 C58.0055076,50.8369748 59.0289442,49.9569289 60.1456317,49.2204256 C61.8349792,48.1061786 63.6330549,47.1459347 65.2579782,45.9478093 C67.0338051,44.6384917 68.6631782,43.1304227 70.3602645,41.7135933 C72.4876197,39.9374231 74.6410929,38.1916662 76.7374935,36.3798526 C77.5552755,35.6729876 78.2562039,34.8283915 78.9911823,34.0289309 C79.0631517,33.9506701 79.0904304,33.8311482 79.1155811,33.7096891 C79.1368624,33.6068265 79.0724381,33.5057075 78.9704813,33.4816869 C78.8447282,33.4518548 78.7195556,33.4239598 78.6121818,33.4559228 C76.3567519,34.127338 74.1040305,34.8082451 71.8582739,35.5114296 C71.4668916,35.634051 71.1267779,35.920555 70.7353956,36.042789 C69.6303161,36.3877949 68.509179,36.6808852 67.3979087,37.0059385 C66.7832664,37.1857057 66.1330262,37.3060026 65.5719739,37.5954124 C62.4689682,39.1953021 59.3961432,40.8542748 56.2975873,42.4630755 C53.9500674,43.6817346 51.5909395,44.7830028 49.4885414,46.5173306 C47.3377768,48.2915636 45.0858292,49.9526671 43.1890858,51.9975196 C42.7245733,52.4982721 42.4247005,53.9141329 42.7334727,54.2229142 C43.5218478,55.0115267 44.6963816,55.4129036 45.7163359,55.9690585 Z M137.200544,34.2553834 C137.192225,34.2555771 137.184486,34.2555771 137.176167,34.2548023 C136.962193,34.2358182 136.479881,34.1271443 136.021367,34.1906827 C135.654748,34.2416296 135.177467,34.4312763 135.0136,34.7131312 C134.883204,34.9376466 135.056744,35.4674563 135.260851,35.7357512 C136.124678,36.8734376 137.572773,37.2436265 138.881959,36.5801536 C141.561854,35.2226009 144.225304,33.8290173 146.85277,32.3730576 C148.783176,31.3035587 150.599438,30.0223296 152.553447,29.0026154 C153.994771,28.2504213 155.585064,27.7891865 157.090812,27.1547709 C157.672372,26.9095281 158.297655,26.6418143 158.740112,26.2150608 C160.036917,24.9636638 161.513838,24.0607595 163.210344,23.4759349 C164.525528,23.0228362 165.818463,23.1332536 167.059162,23.6427232 C168.087049,24.0650213 168.399497,24.7654936 168.253043,25.8793532 C168.211061,26.1984013 168.120712,26.5112506 168.077182,26.8302987 C168.042938,27.0811593 168.024366,27.3339569 168.005213,27.5867547 C167.995152,27.7180932 168.115489,27.8203746 168.24337,27.7899614 C168.555237,27.7159623 168.873102,27.6531988 169.148211,27.5088813 C170.476938,26.8109273 171.849968,26.1672133 173.081381,25.3210675 C175.427353,23.7093611 177.58102,21.8171558 179.906098,20.1754237 C179.910161,20.1727117 179.913643,20.1696123 179.917512,20.1667065 C182.542656,17.9682384 185.18676,15.789529 187.758893,13.5292659 C189.489449,12.0084117 191.111858,10.3649361 192.828098,8.82684134 C193.46228,8.25886987 194.197645,7.7863997 194.939395,7.36216449 C195.637421,6.96291849 196.2747,7.22598306 196.665694,7.88616277 C197.065009,8.56048366 196.76204,9.02752978 196.176612,9.51859662 C194.894511,10.593907 193.719783,11.7962941 192.464961,12.9060857 C191.367621,13.8767901 190.186896,14.7539302 189.106386,15.7422626 C188.068826,16.691271 187.138448,17.7574768 186.110949,18.7184954 C185.555119,19.2380383 184.853804,19.6000911 184.288496,20.1111104 C182.06344,22.121288 179.938213,24.2174748 178.100283,26.6139194 C176.808896,28.2973002 175.262133,29.7827045 173.875753,31.396348 C173.585167,31.7345739 173.42459,32.1847669 173.232865,32.6080335 C173.182177,32.7200007 173.246021,32.8492083 173.36597,32.8761347 C173.842864,32.9832589 174.34607,33.167869 174.742482,33.0342059 C175.715231,32.7064406 176.618332,32.1632645 177.535362,31.6807212 C177.868511,31.5056032 178.130657,31.1553669 178.475414,31.049405 C179.866824,30.6218767 180.489205,29.3162395 181.519026,28.4842349 C182.474169,27.7126692 183.4119,26.8700102 184.487766,26.308625 C186.368065,25.3276537 188.440283,24.9251146 190.564155,24.9564963 C191.115921,24.9648261 191.674071,25.2069695 192.210747,25.3952602 C192.804301,25.6036972 193.382959,25.8588195 193.955813,26.120528 C194.759278,26.4876174 194.843823,27.2179219 194.151407,27.771171 C192.611609,29.0012594 191.021703,30.1734271 189.541686,31.4713157 C188.85043,32.077449 188.351481,32.9096473 187.802811,33.6666844 C187.710334,33.7943424 187.767987,34.2214833 187.826994,34.2369805 C188.147375,34.3196966 188.562166,34.453941 188.813092,34.3214401 C190.4059,33.4803308 191.940474,32.5284168 193.539473,31.7000927 C195.585185,30.6404732 197.618903,29.5151846 199.953074,29.1938118 C200.391275,29.1335665 200.867976,29.1196191 201.287024,29.2325548 C201.574708,29.3100407 201.946551,29.6143665 201.996272,29.8723944 C202.037866,30.0881927 201.723096,30.4920878 201.468495,30.6245887 C200.508322,31.1243726 199.548342,31.7159773 198.514458,31.9604453 C196.850262,32.3540736 195.552296,33.404201 194.064734,34.1025425 C191.794988,35.1681671 189.580379,36.3537011 187.231505,37.2420767 C187.149669,37.273071 187.055838,37.2438202 187.004375,37.1729206 C185.112081,34.5765624 185.097378,34.8026274 183.554485,35.272773 C182.346094,35.640831 180.971903,36.2000853 179.685352,35.2991182 C179.447776,35.1331047 179.22084,34.9514003 178.980362,34.7900359 C178.316192,34.3446858 177.730956,34.1060294 176.872739,34.5949653 C174.735904,35.8120748 172.839161,35.3998499 171.335541,33.5789316 C170.896566,33.0471848 171.121568,30.7303569 171.636188,30.0922607 C171.90201,29.7621708 172.138039,29.4080603 172.374648,29.054531 C172.473704,28.9063392 172.337503,28.7141742 172.165318,28.7589223 C171.765616,28.8627534 171.365528,28.9652285 170.985947,29.1188443 C168.93772,29.9469746 166.856216,30.7135038 164.877637,31.6873075 C163.27709,32.4749515 161.739613,33.4348079 160.296162,34.4860976 C158.66911,35.6712442 157.004913,36.7721249 155.010276,37.0801312 C154.119364,37.217475 153.092638,37.0034202 152.231713,36.6748801 C151.062983,36.2287551 149.772369,35.7721695 149.559557,34.1881644 C149.537308,34.0237006 148.9927,33.7767143 148.746417,33.8294047 C148.326209,33.9190947 147.894973,34.1521335 147.564726,34.4367004 C145.470647,36.2415403 143.085594,37.586114 140.533581,38.5492636 C139.029187,39.1170413 137.477974,39.435702 135.7006,38.8132967 C134.382127,38.3514809 133.551189,37.6442284 132.759138,36.6706184 C132.283404,36.0856 131.762593,35.9339214 131.088944,36.3986429 C129.919634,37.2054647 128.631535,37.6856834 127.218457,37.9526222 C126.409575,38.1052695 125.679433,38.6577438 124.902085,39.0037183 C124.432737,39.212349 123.947136,39.390954 123.456312,39.541664 C123.217188,39.6150819 122.899903,39.5124131 122.70276,39.6307728 C122.093923,39.9974747 121.502496,39.8430841 120.961564,39.5807944 C120.579661,39.3954094 120.167772,39.086047 119.977788,38.7226382 C119.241262,37.3139449 119.494316,36.2372786 120.597848,35.276841 C121.939536,34.1091288 123.247561,32.9020924 124.560811,31.7020298 C124.590411,31.6749098 124.616529,31.643528 124.639939,31.6098217 C124.737446,31.4699596 124.625622,31.2826375 124.456726,31.3045273 C124.434477,31.307433 124.411842,31.310145 124.3894,31.3126633 C123.665836,31.3938298 122.935694,31.5757279 122.219095,31.5323358 C120.217106,31.4108767 118.729157,32.5367465 117.097268,33.409625 C115.145387,34.4533598 113.127728,35.3921013 111.077566,36.2262368 C109.788693,36.7506225 108.395929,37.034802 107.03412,37.3606301 C105.86539,37.6401604 104.68099,37.9597897 103.491172,38.021391 C101.730629,38.1124369 101.310807,37.3406775 102.01309,35.7340077 C102.643597,34.291608 103.725847,33.2662761 104.943717,32.3465187 C105.148791,32.1915469 105.384627,32.0640826 105.551781,31.8754045 C105.654705,31.758982 105.72474,31.6135022 105.793614,31.4668602 C105.84585,31.355668 105.783167,31.2243293 105.663799,31.1956596 C105.532628,31.1640841 105.401458,31.1327024 105.270288,31.1009331 C103.918539,30.7747176 102.568532,30.4403659 101.213494,30.1280979 C100.876088,30.0502245 100.52011,29.9975342 100.176127,30.0128377 C98.9636739,30.0663028 97.7512207,30.138171 96.5412829,30.2342535 C95.6151594,30.3076714 94.6950336,30.4680672 93.7683305,30.5195953 C91.2555901,30.6594573 88.8057271,31.1387075 86.3595391,31.7091973 C84.839668,32.0636952 83.686609,32.9321183 82.61616,33.958225 C80.6302286,35.8618594 78.7365806,37.8660318 76.694544,39.705934 C74.9800458,41.2506152 73.1065183,42.6182409 71.3082492,44.0701327 C70.5131028,44.7122969 69.7405919,45.383131 68.9390611,46.0169654 C67.1303449,47.4469674 65.3390405,48.9017649 63.4819577,50.2662912 C62.5674426,50.9382876 61.5082147,51.409208 60.5403029,52.0126293 C59.4822357,52.6722279 58.502716,53.4732382 57.4024732,54.0458589 C55.412479,55.0818451 53.4956151,56.2915935 51.2510192,56.7811105 C49.7307612,57.1127501 48.2526788,57.6751039 46.7213932,57.9112422 C44.6574948,58.2293216 42.7895779,57.718496 41.4422788,55.9560796 C41.062311,55.4590077 40.6618358,54.9733649 40.3277194,54.4462671 C39.6169244,53.3248528 39.9930228,52.2718196 40.6527428,51.2954975 C42.1743551,49.0431766 44.2504418,47.3659947 46.4182315,45.7821832 C47.689305,44.8533212 48.8750599,43.8004818 50.1863743,42.9361268 C52.1469616,41.6434686 54.3969745,40.7826004 56.3229313,39.4666964 C56.3341524,39.4589478 56.3463407,39.4525552 56.359303,39.4477123 C58.7735687,38.5345413 60.9893381,37.1043455 63.385418,36.1229869 C65.5220596,35.2477838 67.6983619,34.4626581 69.8825962,33.7118199 C72.9720593,32.6498759 76.0383063,31.5056032 79.2966655,31.0106621 C80.3690491,30.847748 81.4360157,30.5651182 82.4611935,30.2092643 C83.0102508,30.0186491 83.5593081,29.6393557 83.9464342,29.2015605 C85.8830316,27.0108408 87.8343328,24.8267075 89.6457573,22.5335129 C91.0526443,20.7524998 92.2233089,18.7861018 93.5711882,16.9554978 C94.5777937,15.5886469 94.6348657,13.9449776 95.0653286,12.4132755 C95.4445221,11.0642463 95.7178905,9.68209185 95.9630122,8.30109967 C96.017763,7.99251215 95.7765109,7.62116106 95.6414712,7.29087749 C95.3406309,6.5547616 95.1434885,5.72953695 94.6679489,5.12766536 C94.3235784,4.69200099 93.6110428,4.52986178 93.0430249,4.2929487 C91.5873848,3.68584681 90.1623126,2.93655832 88.6465037,2.56288265 C87.2355544,2.21477733 85.7164572,2.12353771 84.2573345,2.19133785 C81.1862507,2.33410559 78.1190362,2.61034276 75.0587866,2.91757428 C72.7449299,3.15003193 70.4246887,3.4130965 68.1435278,3.85166659 C65.9799943,4.26776578 63.8576692,4.90838032 61.7281858,5.49010558 C59.8531106,6.00248098 57.9639124,6.4875426 56.1346887,7.13668057 C54.3213292,7.78020083 52.5654292,8.59128431 50.8021775,9.36943626 C48.4099669,10.4255689 45.991058,11.434435 43.6634651,12.6205502 C40.9203067,14.0185892 38.261693,15.582448 35.5686424,17.078313 C34.1377657,17.8731245 32.6921857,18.6443026 31.2905224,19.4881239 C30.5021473,19.9629187 29.8155355,20.6048892 29.0370272,21.0982805 C27.5543016,22.0377969 26.0042497,22.8734821 24.5476421,23.8501917 C23.4586204,24.5806898 22.4632363,25.4539557 21.4423148,26.2832484 C19.028436,28.2440286 16.566771,30.1511499 14.2364696,32.2072378 C12.6926087,33.5692459 11.347631,35.1567379 9.90263141,36.6322628 C9.31933059,37.2281293 8.65903013,37.753871 8.11577682,38.3826689 C6.67425953,40.0511337 5.23390306,41.7244413 3.888732,43.4698108 C3.46562123,44.018992 3.32864711,44.7965628 3.09300517,45.4809569 C2.92739803,45.9619505 2.80977053,46.4119498 2.11928937,46.2641455 C1.50851632,46.133388 -0.010967872,45.5255112 5.97061198e-05,44.8002434 C0.025210323,43.1496004 0.913607496,41.9164126 1.86391388,40.7134442 C4.34802095,37.5690671 7.02191845,34.5866356 9.9954952,31.9062051 C12.4503889,29.693402 15.0312291,27.6181365 17.6022025,25.5388028 C19.8893609,23.689021 22.233205,21.9095577 24.5677626,20.1194402 C24.9397982,19.8342921 25.4099213,19.6814512 25.807688,19.4255541 C27.7377076,18.1842302 29.5967251,16.8169918 31.59736,15.7050694 C34.425837,14.1328809 37.3622683,12.7563442 40.2412401,11.2744267 C41.4560148,10.6491157 42.6121693,9.90370142 43.8480319,9.32662532 C45.9610707,8.34023004 48.1004209,7.40633145 50.2575699,6.5204741 C51.9976056,5.80586055 53.7550534,5.11429905 55.5496466,4.55775669 C57.963332,3.80904936 60.413389,3.17385884 62.860544,2.5384746 C65.043424,1.97185909 67.2419749,1.46393913 69.4376237,0.947883156 C69.8719555,0.845795505 70.3246666,0.821581167 70.7694457,0.765016473 C71.9281152,0.617793297 76.7607094,0.117234497 77.5461826,0.0862401436 C80.3504764,-0.0251458123 84.3027991,-0.134207192 87.1335977,0.484323864 C88.7935386,0.847151508 90.4838535,1.01471473 92.0724052,1.69775278 C94.4191508,2.7070064 96.5995159,4.03375842 97.761088,6.32617825 C98.3358763,7.46057157 98.3486445,9.04515782 98.1648517,10.362999 C97.8655597,12.5093579 97.4434157,14.7074387 96.6126714,16.6903024 C95.8204274,18.5807643 94.4920877,20.2608519 93.3005292,21.9641853 C92.3469338,23.3275494 91.272422,24.6099407 90.1988772,25.8838087 C89.5793985,26.6187623 88.8345534,27.2465916 88.189924,27.9621737 C88.0272182,28.1429096 87.9413191,28.3928015 87.8480688,28.6361072 C87.802991,28.7529172 87.8794104,28.8811563 88.0036159,28.8972346 C88.2516394,28.929585 88.5006307,28.968328 88.7391743,28.9340405 C91.0803095,28.5960083 93.4144809,28.206448 95.7583247,27.8897245 C96.5323834,27.7853122 97.3391372,27.9187817 98.1122289,27.8097203 C98.6740551,27.730491 99.2921795,27.5449123 99.7319282,27.2068801 C100.69481,26.4665025 101.521685,25.5500382 102.476054,24.7972629 C103.437582,24.0390635 105.223856,24.2213491 106.012812,25.1602843 C106.280569,25.478945 106.443274,26.0767485 106.344026,26.468246 C106.201441,27.0294374 105.780845,27.5220539 105.46685,28.0363665 C105.388883,28.1640245 105.302017,28.2860647 105.213409,28.4071364 C105.121899,28.5318887 105.205864,28.7095251 105.360057,28.7155302 C105.485229,28.7203731 105.609628,28.7207605 105.731318,28.7031325 C107.245772,28.4855909 108.760226,28.2672744 110.270037,28.0199007 C111.484812,27.820762 112.457753,28.107266 112.759367,28.8015396 C113.046858,29.4638502 112.544814,30.3105771 111.434317,31.0213163 C111.246461,31.1418069 111.052801,31.2671404 110.844245,31.3393959 C108.871662,32.022434 107.538293,33.6385958 105.867131,34.7609787 C105.744474,34.8433075 105.685273,35.0205565 105.622977,35.1935437 C105.585057,35.2987308 105.642904,35.4137973 105.750084,35.4455665 C105.920141,35.4961261 106.091552,35.5501725 106.239167,35.5123981 C108.720953,34.8762391 111.17662,34.1759603 113.39355,32.8162769 C114.177862,32.3352832 115.054651,32.0080991 115.864888,31.5660421 C116.477983,31.2313031 116.926051,30.7973822 116.858725,29.9640215 C116.672223,27.6562982 118.685627,25.4801072 121.076097,25.4423328 C121.900263,25.429354 122.748999,25.5831634 123.549756,25.7974119 C124.939811,26.1693442 125.192672,26.8899628 124.490389,28.1618936 C124.44241,28.2484841 124.397138,28.3366243 124.352834,28.4253456 C124.284154,28.5624956 124.395397,28.7228914 124.547655,28.7046822 C124.672054,28.6897662 124.794518,28.6694261 124.90905,28.6273901 C126.402029,28.0784026 127.889011,27.7686528 129.466149,28.3482471 C130.27271,28.644437 130.749024,29.8661955 130.123934,30.4901507 C129.242114,31.3700029 128.275557,32.1696571 127.305517,32.9542017 C126.463552,33.6353026 125.556195,34.235237 124.701268,34.9010345 C124.512444,35.048064 124.397332,35.3103537 124.293247,35.5400993 C124.229403,35.6807362 124.189162,35.8318337 124.150856,35.9840935 C124.118547,36.1119451 124.220697,36.2337917 124.352255,36.2246871 C124.537014,36.2119019 124.721582,36.1983419 124.89841,36.1541749 C125.480549,36.0090826 126.054371,35.8298965 126.631094,35.6640767 C128.702344,35.0682103 130.648228,34.1751855 132.381685,32.908485 C133.252477,32.2721322 133.897494,31.3347468 134.720692,30.6216829 C135.802943,29.6841038 136.902219,28.742844 138.100743,27.9687601 C139.462938,27.0891016 140.884916,26.2404374 142.389889,25.6639425 C143.579514,25.2083255 144.9272,25.1035258 146.217427,24.9973702 C147.095957,24.9251146 148.082828,26.3628651 147.84293,27.2295447 C147.569369,28.2176834 147.306836,29.193037 146.40741,29.8906036 C145.656374,30.4729101 145.089905,31.2921295 144.346801,31.8874148 C142.003537,33.7641229 140.487729,34.1728609 137.200544,34.2553834 Z" id="Fill-1" fill="#474847" fill-rule="nonzero" mask="url(#mask-2)"></path>
            </g>
        </g>
    </g>
</svg>