<?xml version="1.0" encoding="UTF-8"?>
<svg width="587px" height="85px" viewBox="0 0 587 85" version="1.1" xmlns="http://www.w3.org/2000/svg" xmlns:xlink="http://www.w3.org/1999/xlink">
    <!-- Generator: Sketch 47.1 (45422) - http://www.bohemiancoding.com/sketch -->
    <title>ARREOLA</title>
    <desc>Created with Sketch.</desc>
    <defs></defs>
    <g id="Website" stroke="none" stroke-width="1" fill="none" fill-rule="evenodd">
        <path d="M0.675006446,83.9753372 C0.40805354,83.9753372 0.217375753,83.8799983 0.102967364,83.6893177 C-0.0114410242,83.498637 -0.0305088029,83.2888915 0.045763456,83.0600747 L30.0206113,1.02967035 C30.0968836,0.724581312 30.2875614,0.572039082 30.5926504,0.572039082 L40.83215,0.572039082 C40.9465584,0.572039082 41.0704989,0.619708529 41.2039754,0.715048852 C41.3374518,0.810389176 41.4232569,0.915261959 41.461393,1.02967035 L71.379037,83.0600747 C71.4553092,83.2888915 71.4362414,83.498637 71.3218331,83.6893177 C71.2074247,83.8799983 71.0358147,83.9753372 70.8069979,83.9753372 L57.7073029,83.9753372 C57.4022139,83.9753372 57.2115361,83.822795 57.1352638,83.517706 L50.9572417,65.441271 L20.7535782,65.441271 C19.6857666,68.5302975 18.6275049,71.5525404 17.5787613,74.5080904 C16.5300178,77.4636404 15.471756,80.4668156 14.4039444,83.517706 C14.3658083,83.6321143 14.2800033,83.7369871 14.1465268,83.8323274 C14.0130504,83.9276678 13.8891098,83.9753372 13.7747014,83.9753372 L0.675006446,83.9753372 Z M46.8385604,53.1424307 C46.7622881,52.8754778 46.6574153,52.5894611 46.5239389,52.2843721 C46.3904624,51.979283 46.2855896,51.7123341 46.2093174,51.4835174 C45.5610032,49.614847 44.969902,47.889213 44.4359962,46.3065637 C43.9020904,44.7239143 43.4253959,43.3415003 43.0058985,42.1592803 C42.7389456,41.3965577 42.4815306,40.6529144 42.2336457,39.9283279 C41.9857609,39.2037415 41.7474137,38.5173014 41.5185969,37.8689872 C41.3279162,37.2588091 41.1372385,36.6772419 40.9465578,36.124268 C40.7558772,35.5712941 40.5651994,35.0278624 40.3745187,34.4939566 C40.0312936,33.3880089 39.6785397,32.2820777 39.3162464,31.17613 C38.9539532,30.0701822 38.5821315,28.9261155 38.2007702,27.7438955 C38.0100896,27.2099897 37.8098779,26.6188885 37.6001292,25.9705743 C37.3903805,25.3222601 37.171101,24.6358201 36.9422842,23.9112336 C36.8278758,23.5298723 36.7420708,23.2343218 36.6848666,23.024573 C36.6276625,22.8148243 36.5609252,22.6050788 36.484653,22.3953301 C36.4083807,22.1855813 36.3225757,21.9472341 36.2272354,21.6802812 C36.1318951,21.4133283 36.0079545,21.0319727 35.85541,20.536203 C35.4359126,21.7946953 35.0450231,22.9578298 34.6827299,24.0256414 C34.3204366,25.0934531 33.9867505,26.0849776 33.6816615,27.0002447 C33.6053892,27.2290614 33.5481859,27.438807 33.5100497,27.6294877 C33.4719136,27.8201683 33.4147103,28.0108461 33.338438,28.2015267 C33.1477574,28.8498409 32.9475457,29.4600099 32.737797,30.0320518 C32.5280483,30.6040937 32.3278366,31.1761271 32.1371559,31.748169 C31.9464753,32.3583471 31.7557975,32.9494483 31.5651169,33.5214902 C31.3744362,34.0935321 31.1837584,34.6464977 30.9930778,35.1804035 C30.6117165,36.3244874 30.220827,37.5257575 29.8203977,38.7842498 C29.4199683,40.042742 28.9718755,41.3584188 28.4761058,42.7313194 C27.9803361,44.1042201 27.4655061,45.5819729 26.9316003,47.1646223 C26.3976945,48.7472717 25.7112545,50.7398545 24.8722596,53.1424307 L46.8385604,53.1424307 Z M111.745324,13.099695 L111.745324,36.6105012 L129.878963,36.6105012 C134.302754,36.6105012 137.620547,35.3901634 139.832443,32.9494511 C142.044338,30.5087388 143.15027,27.6104365 143.15027,24.2544571 C143.15027,22.3476506 142.816583,20.6506183 142.149201,19.1633092 C141.481819,17.6760002 140.518896,16.4556624 139.260404,15.5022591 C138.154456,14.7395365 136.867381,14.1484354 135.39914,13.728938 C133.930899,13.3094405 132.33874,13.099695 130.622614,13.099695 L111.745324,13.099695 Z M98.645629,84.0325411 C98.1879955,84.0325411 97.9591822,83.8037278 97.9591822,83.3460942 L97.9591822,1.3728938 C97.9591822,0.915260243 98.1879955,0.686446898 98.645629,0.686446898 L130.737022,0.686446898 C134.283682,0.686446898 137.487068,1.17267526 140.347278,2.14514656 C143.207488,3.11761786 145.705367,4.50003182 147.84099,6.2924299 C148.946938,7.3221054 150.0052,8.49477379 151.015807,9.81047025 C152.026414,11.1261667 152.9226,12.5467162 153.704391,14.0721614 C154.486181,15.5976066 155.105884,17.2183678 155.563518,18.9344936 C156.021151,20.6506194 156.249965,22.4239229 156.249965,24.2544571 C156.249965,26.9621223 155.868609,29.5267385 155.105886,31.9483827 C154.343164,34.3700269 153.275368,36.6295587 151.902468,38.7270458 C150.491431,40.6719884 148.851602,42.3785546 146.982931,43.8467956 C145.114261,45.3150366 142.997738,46.487705 140.633298,47.364836 C143.722324,53.275936 146.830372,59.2155491 149.957535,65.1838534 C153.084697,71.1521576 156.192745,77.0917707 159.281772,83.0028708 C159.39618,83.2698237 159.39618,83.5081709 159.281772,83.7179196 C159.167363,83.9276683 158.976686,84.0325411 158.709733,84.0325411 L143.951124,84.0325411 C143.836716,84.0325411 143.722309,83.9848717 143.607901,83.8895314 C143.493492,83.794191 143.398154,83.708386 143.321881,83.6321138 L126.561136,49.0237493 L111.745324,49.0237493 L111.745324,83.3460942 C111.745324,83.8037278 111.516511,84.0325411 111.058877,84.0325411 L98.645629,84.0325411 Z M199.533651,13.099695 L199.533651,36.6105012 L217.66729,36.6105012 C222.091081,36.6105012 225.408874,35.3901634 227.62077,32.9494511 C229.832665,30.5087388 230.938597,27.6104365 230.938597,24.2544571 C230.938597,22.3476506 230.60491,20.6506183 229.937528,19.1633092 C229.270146,17.6760002 228.307223,16.4556624 227.048731,15.5022591 C225.942783,14.7395365 224.655708,14.1484354 223.187467,13.728938 C221.719226,13.3094405 220.127066,13.099695 218.410941,13.099695 L199.533651,13.099695 Z M186.433956,84.0325411 C185.976322,84.0325411 185.747509,83.8037278 185.747509,83.3460942 L185.747509,1.3728938 C185.747509,0.915260243 185.976322,0.686446898 186.433956,0.686446898 L218.525348,0.686446898 C222.072009,0.686446898 225.275395,1.17267526 228.135605,2.14514656 C230.995815,3.11761786 233.493694,4.50003182 235.629317,6.2924299 C236.735265,7.3221054 237.793527,8.49477379 238.804134,9.81047025 C239.814741,11.1261667 240.710927,12.5467162 241.492718,14.0721614 C242.274508,15.5976066 242.894211,17.2183678 243.351845,18.9344936 C243.809478,20.6506194 244.038292,22.4239229 244.038292,24.2544571 C244.038292,26.9621223 243.656936,29.5267385 242.894213,31.9483827 C242.131491,34.3700269 241.063695,36.6295587 239.690795,38.7270458 C238.279758,40.6719884 236.639929,42.3785546 234.771258,43.8467956 C232.902588,45.3150366 230.786065,46.487705 228.421625,47.364836 C231.510651,53.275936 234.618699,59.2155491 237.745862,65.1838534 C240.873024,71.1521576 243.981072,77.0917707 247.070099,83.0028708 C247.184507,83.2698237 247.184507,83.5081709 247.070099,83.7179196 C246.95569,83.9276683 246.765012,84.0325411 246.49806,84.0325411 L231.739451,84.0325411 C231.625043,84.0325411 231.510636,83.9848717 231.396228,83.8895314 C231.281819,83.794191 231.186481,83.708386 231.110208,83.6321138 L214.349463,49.0237493 L199.533651,49.0237493 L199.533651,83.3460942 C199.533651,83.8037278 199.304838,84.0325411 198.847204,84.0325411 L186.433956,84.0325411 Z M274.222283,84.0325411 C273.764649,84.0325411 273.535836,83.8037278 273.535836,83.3460942 L273.535836,1.3728938 C273.535836,0.915260243 273.764649,0.686446898 274.222283,0.686446898 L326.621063,0.686446898 C327.078696,0.686446898 327.30751,0.915260243 327.30751,1.3728938 L327.30751,13.1568989 C327.30751,13.6145324 327.078696,13.8433458 326.621063,13.8433458 L287.321978,13.8433458 L287.321978,35.8096465 L320.72906,35.8096465 C321.186694,35.8096465 321.415507,36.0384599 321.415507,36.4960934 L321.415507,47.5936516 C321.415507,48.013149 321.186694,48.2228946 320.72906,48.2228946 L287.321978,48.2228946 L287.321978,70.9900501 L326.621063,70.9900501 C327.078696,70.9900501 327.30751,71.2188634 327.30751,71.676497 L327.30751,83.3460942 C327.30751,83.8037278 327.078696,84.0325411 326.621063,84.0325411 L274.222283,84.0325411 Z M352.228742,42.388096 C352.228742,37.392263 352.295479,33.3117584 352.428955,30.1464596 C352.562432,26.9811609 352.743576,24.6739596 352.972392,23.2247867 C353.239345,21.7756138 353.620701,20.383666 354.116471,19.0489014 C354.61224,17.7141369 355.222409,16.3984602 355.946996,15.1018318 L355.889792,15.1018318 C357.87287,11.4026272 361.076257,7.97042703 365.500048,4.80512829 C369.961975,1.60169341 375.510699,1.13686838e-13 382.146386,1.13686838e-13 C388.7058,1.13686838e-13 394.216388,1.60169341 398.678315,4.80512829 C403.178378,8.04669929 406.419901,11.4788995 408.402979,15.1018318 C409.814016,17.6950886 410.767405,20.4027131 411.263175,23.2247867 C411.530128,24.6739596 411.730339,26.9811609 411.863816,30.1464596 C411.997292,33.3117584 412.06403,37.392263 412.06403,42.388096 C412.06403,52.1890812 411.797081,58.5958549 411.263175,61.6086091 C410.996222,63.0959182 410.6244,64.5069338 410.147699,65.8416983 C409.670997,67.1764629 409.108498,68.454004 408.460183,69.6743602 C406.438968,73.3354286 403.178378,76.7676288 398.678315,79.9710636 C394.178252,83.1363624 388.667664,84.718988 382.146386,84.718988 C375.548835,84.718988 370.000112,83.1363624 365.500048,79.9710636 C361.076257,76.843901 357.87287,73.4117009 355.889792,69.6743602 L355.946996,69.6743602 C355.222409,68.3777318 354.61224,67.0715889 354.116471,65.7558925 C353.620701,64.440196 353.239345,63.057782 352.972392,61.6086091 C352.743576,60.1594362 352.562432,57.8427011 352.428955,54.6583343 C352.295479,51.4739675 352.228742,47.3839289 352.228742,42.388096 Z M366.014883,42.388096 C366.014883,46.5449341 366.072087,49.9676004 366.186495,52.6561975 C366.300904,55.3447946 366.510649,57.3373775 366.815738,58.6340059 C367.120827,59.8162259 367.549852,60.9888943 368.102826,62.1520462 C368.6558,63.3151982 369.275503,64.3353244 369.961953,65.2124553 C371.182309,66.8141728 372.80307,68.1775189 374.824285,69.3025348 C376.8455,70.4275506 379.286176,70.9900501 382.146386,70.9900501 C384.968459,70.9900501 387.390067,70.4275506 389.411282,69.3025348 C391.432497,68.1775189 393.03419,66.8141728 394.21641,65.2124553 C395.818128,63.2675127 396.866855,61.0747182 397.362625,58.6340059 C397.972803,56.1932936 398.277888,50.7780444 398.277888,42.388096 C398.277888,38.2312579 398.201617,34.8085916 398.049072,32.1199944 C397.896528,29.4313973 397.667714,27.4578822 397.362625,26.1993899 C397.095672,24.9790338 396.695249,23.7872976 396.161343,22.6241457 C395.627437,21.4609937 394.998201,20.4217998 394.273614,19.5065327 C393.701572,18.7819462 393.005598,18.0764384 392.185671,17.3899881 C391.365745,16.7035378 390.440957,16.1029027 389.411282,15.588065 C388.381606,15.0732272 387.256607,14.6537361 386.036251,14.329579 C384.815895,14.0054219 383.519286,13.8433458 382.146386,13.8433458 C379.286176,13.8433458 376.8455,14.4153791 374.824285,15.559463 C372.80307,16.7035469 371.182309,18.0192236 369.961953,19.5065327 C369.237367,20.4217998 368.60813,21.4609937 368.074224,22.6241457 C367.540318,23.7872976 367.120827,24.9790338 366.815738,26.1993899 C366.510649,27.4960184 366.300904,29.4981351 366.186495,32.2058003 C366.072087,34.9134655 366.014883,38.3075301 366.014883,42.388096 Z M443.449303,84.0325411 C442.991669,84.0325411 442.762856,83.8037278 442.762856,83.3460942 L442.762856,1.3728938 C442.762856,0.915260243 442.991669,0.686446898 443.449303,0.686446898 L455.862551,0.686446898 C456.320185,0.686446898 456.548998,0.915260243 456.548998,1.3728938 L456.548998,70.9900501 L495.848083,70.9900501 C496.305716,70.9900501 496.53453,71.2188634 496.53453,71.676497 L496.53453,83.3460942 C496.53453,83.8037278 496.305716,84.0325411 495.848083,84.0325411 L443.449303,84.0325411 Z M516.250206,83.9753372 C515.983253,83.9753372 515.792575,83.8799983 515.678167,83.6893177 C515.563759,83.498637 515.544691,83.2888915 515.620963,83.0600747 L545.595811,1.02967035 C545.672083,0.724581312 545.862761,0.572039082 546.16785,0.572039082 L556.40735,0.572039082 C556.521758,0.572039082 556.645699,0.619708529 556.779175,0.715048852 C556.912651,0.810389176 556.998456,0.915261959 557.036593,1.02967035 L586.954237,83.0600747 C587.030509,83.2888915 587.011441,83.498637 586.897033,83.6893177 C586.782624,83.8799983 586.611014,83.9753372 586.382197,83.9753372 L573.282502,83.9753372 C572.977413,83.9753372 572.786736,83.822795 572.710463,83.517706 L566.532441,65.441271 L536.328778,65.441271 C535.260966,68.5302975 534.202704,71.5525404 533.153961,74.5080904 C532.105217,77.4636404 531.046956,80.4668156 529.979144,83.517706 C529.941008,83.6321143 529.855203,83.7369871 529.721726,83.8323274 C529.58825,83.9276678 529.464309,83.9753372 529.349901,83.9753372 L516.250206,83.9753372 Z M562.41376,53.1424307 C562.337488,52.8754778 562.232615,52.5894611 562.099138,52.2843721 C561.965662,51.979283 561.860789,51.7123341 561.784517,51.4835174 C561.136203,49.614847 560.545102,47.889213 560.011196,46.3065637 C559.47729,44.7239143 559.000596,43.3415003 558.581098,42.1592803 C558.314145,41.3965577 558.05673,40.6529144 557.808845,39.9283279 C557.56096,39.2037415 557.322613,38.5173014 557.093796,37.8689872 C556.903116,37.2588091 556.712438,36.6772419 556.521757,36.124268 C556.331077,35.5712941 556.140399,35.0278624 555.949718,34.4939566 C555.606493,33.3880089 555.253739,32.2820777 554.891446,31.17613 C554.529153,30.0701822 554.157331,28.9261155 553.77597,27.7438955 C553.585289,27.2099897 553.385077,26.6188885 553.175329,25.9705743 C552.96558,25.3222601 552.746301,24.6358201 552.517484,23.9112336 C552.403075,23.5298723 552.31727,23.2343218 552.260066,23.024573 C552.202862,22.8148243 552.136125,22.6050788 552.059853,22.3953301 C551.98358,22.1855813 551.897775,21.9472341 551.802435,21.6802812 C551.707095,21.4133283 551.583154,21.0319727 551.43061,20.536203 C551.011112,21.7946953 550.620223,22.9578298 550.257929,24.0256414 C549.895636,25.0934531 549.56195,26.0849776 549.256861,27.0002447 C549.180589,27.2290614 549.123385,27.438807 549.085249,27.6294877 C549.047113,27.8201683 548.98991,28.0108461 548.913638,28.2015267 C548.722957,28.8498409 548.522745,29.4600099 548.312997,30.0320518 C548.103248,30.6040937 547.903036,31.1761271 547.712356,31.748169 C547.521675,32.3583471 547.330997,32.9494483 547.140316,33.5214902 C546.949636,34.0935321 546.758958,34.6464977 546.568277,35.1804035 C546.186916,36.3244874 545.796027,37.5257575 545.395597,38.7842498 C544.995168,40.042742 544.547075,41.3584188 544.051305,42.7313194 C543.555536,44.1042201 543.040706,45.5819729 542.5068,47.1646223 C541.972894,48.7472717 541.286454,50.7398545 540.447459,53.1424307 L562.41376,53.1424307 Z" id="ARREOLA" fill="#E0E1E2" transform="translate(293.500000, 42.359494) rotate(-360.000000) translate(-293.500000, -42.359494) "></path>
    </g>
</svg>