<?xml version="1.0" encoding="UTF-8"?>
<svg width="163px" height="25px" viewBox="0 0 163 25" version="1.1" xmlns="http://www.w3.org/2000/svg" xmlns:xlink="http://www.w3.org/1999/xlink">
    <!-- Generator: Sketch 47.1 (45422) - http://www.bohemiancoding.com/sketch -->
    <title>ARREOLA</title>
    <desc>Created with Sketch.</desc>
    <defs></defs>
    <g id="Bootstrap-4-Grid-System" stroke="none" stroke-width="1" fill="none" fill-rule="evenodd">
        <g id="Home-Copy-7" transform="translate(-1135.000000, -818.000000)" fill="#272727">
            <g id="Footer" transform="translate(0.000000, 780.000000)">
                <path d="M1135.46405,62 C1135.39023,62 1135.33749,61.9736331 1135.30585,61.9208984 C1135.27421,61.8681638 1135.26894,61.8101565 1135.29003,61.746875 L1143.57987,39.0605448 C1143.60097,38.9761694 1143.6537,38.9339823 1143.73808,38.9339823 L1146.56991,38.9339823 C1146.60156,38.9339823 1146.63583,38.9471658 1146.67275,38.9735331 C1146.70966,38.9999004 1146.73339,39.028904 1146.74394,39.0605448 L1155.01796,61.746875 C1155.03906,61.8101565 1155.03378,61.8681638 1155.00214,61.9208984 C1154.9705,61.9736331 1154.92304,62 1154.85976,62 L1151.23691,62 C1151.15253,62 1151.0998,61.9578129 1151.0787,61.8734375 L1149.37011,56.8742183 L1141.01698,56.8742183 C1140.72167,57.7285195 1140.429,58.5643511 1140.13896,59.381738 C1139.84892,60.199125 1139.55624,61.0296832 1139.26093,61.8734375 C1139.25038,61.9050783 1139.22665,61.9340819 1139.18974,61.9604492 C1139.15282,61.9868165 1139.11855,62 1139.08691,62 L1135.46405,62 Z M1148.23105,53.4728508 C1148.20995,53.3990223 1148.18095,53.3199215 1148.14404,53.2355461 C1148.10712,53.1511707 1148.07812,53.0773433 1148.05702,53.0140617 C1147.87773,52.4972622 1147.71425,52.0200208 1147.56659,51.5823233 C1147.41894,51.1446257 1147.2871,50.7623053 1147.17109,50.4353505 C1147.09726,50.224412 1147.02607,50.0187499 1146.95751,49.8183583 C1146.88896,49.6179666 1146.82304,49.4281248 1146.75976,49.248827 C1146.70702,49.0800761 1146.65429,48.9192379 1146.60155,48.7663074 C1146.54882,48.6133769 1146.49609,48.4630855 1146.44335,48.3154285 C1146.34843,48.0095675 1146.25087,47.7037112 1146.15068,47.3978503 C1146.05048,47.0919893 1145.94765,46.7755862 1145.84218,46.4486314 C1145.78945,46.3009744 1145.73407,46.1374995 1145.67607,45.9582017 C1145.61806,45.7789039 1145.55741,45.589062 1145.49413,45.3886704 C1145.46249,45.2832011 1145.43876,45.2014636 1145.42294,45.1434555 C1145.40712,45.0854474 1145.38866,45.0274402 1145.36757,44.9694321 C1145.34648,44.911424 1145.32275,44.8455066 1145.29638,44.7716781 C1145.27001,44.6978496 1145.23573,44.5923819 1145.19355,44.4552719 C1145.07753,44.8033205 1144.96943,45.124997 1144.86923,45.420311 C1144.76903,45.715625 1144.67675,45.9898411 1144.59238,46.2429673 C1144.57128,46.3062489 1144.55546,46.3642562 1144.54491,46.4169908 C1144.53437,46.4697254 1144.51855,46.5224593 1144.49745,46.5751939 C1144.44472,46.7544917 1144.38935,46.92324 1144.33134,47.081444 C1144.27333,47.2396479 1144.21796,47.3978495 1144.16523,47.5560534 C1144.11249,47.7248043 1144.05976,47.8882792 1144.00702,48.0464831 C1143.95429,48.2046871 1143.90155,48.3576152 1143.84882,48.5052722 C1143.74335,48.8216801 1143.63525,49.1539034 1143.5245,49.501952 C1143.41376,49.8500007 1143.28984,50.2138642 1143.15273,50.5935537 C1143.01562,50.9732431 1142.87323,51.3819305 1142.72558,51.819628 C1142.57792,52.2573255 1142.38808,52.8083943 1142.15605,53.4728508 L1148.23105,53.4728508 Z M1166.18166,42.3986311 L1166.18166,48.9007801 L1171.1967,48.9007801 C1172.42015,48.9007801 1173.33772,48.5632834 1173.94944,47.88828 C1174.56116,47.2132766 1174.86702,46.411722 1174.86702,45.4835923 C1174.86702,44.9562458 1174.77473,44.4869146 1174.59016,44.0755843 C1174.40559,43.6642541 1174.13928,43.3267575 1173.79123,43.0630842 C1173.48537,42.8521457 1173.12942,42.6886707 1172.72336,42.5726545 C1172.31731,42.4566383 1171.87698,42.3986311 1171.40237,42.3986311 L1166.18166,42.3986311 Z M1162.55881,62.0158203 C1162.43225,62.0158203 1162.36897,61.9525397 1162.36897,61.8259765 L1162.36897,39.1554667 C1162.36897,39.0289036 1162.43225,38.9656229 1162.55881,38.9656229 L1171.43401,38.9656229 C1172.41487,38.9656229 1173.3008,39.1000943 1174.09182,39.3690409 C1174.88284,39.6379876 1175.57365,40.0203081 1176.16428,40.5160137 C1176.47014,40.8007808 1176.76281,41.125094 1177.04231,41.488963 C1177.3218,41.852832 1177.56965,42.2456992 1177.78586,42.6675764 C1178.00208,43.0894535 1178.17346,43.5376913 1178.30002,44.0123031 C1178.42659,44.4869149 1178.48987,44.9773397 1178.48987,45.4835923 C1178.48987,46.2324242 1178.3844,46.9416945 1178.17346,47.6114245 C1177.96252,48.2811545 1177.66721,48.9060506 1177.28752,49.4861317 C1176.89729,50.0240251 1176.44378,50.495993 1175.92698,50.9020498 C1175.41018,51.3081065 1174.82483,51.6324197 1174.17092,51.8749991 C1175.02522,53.509773 1175.88478,55.1524325 1176.74963,56.8030269 C1177.61448,58.4536212 1178.47404,60.0962807 1179.32834,61.7310547 C1179.35998,61.8048832 1179.35998,61.8708005 1179.32834,61.9288086 C1179.2967,61.9868167 1179.24397,62.0158203 1179.17014,62.0158203 L1175.0885,62.0158203 C1175.05686,62.0158203 1175.02522,62.0026369 1174.99358,61.9762695 C1174.96194,61.9499022 1174.93557,61.926172 1174.91448,61.9050781 L1170.27912,52.3337882 L1166.18166,52.3337882 L1166.18166,61.8259765 C1166.18166,61.9525397 1166.11838,62.0158203 1165.99182,62.0158203 L1162.55881,62.0158203 Z M1190.4604,42.3986311 L1190.4604,48.9007801 L1195.47544,48.9007801 C1196.69889,48.9007801 1197.61646,48.5632834 1198.22818,47.88828 C1198.8399,47.2132766 1199.14576,46.411722 1199.14576,45.4835923 C1199.14576,44.9562458 1199.05347,44.4869146 1198.8689,44.0755843 C1198.68433,43.6642541 1198.41802,43.3267575 1198.06998,43.0630842 C1197.76411,42.8521457 1197.40816,42.6886707 1197.0021,42.5726545 C1196.59605,42.4566383 1196.15572,42.3986311 1195.68111,42.3986311 L1190.4604,42.3986311 Z M1186.83755,62.0158203 C1186.71099,62.0158203 1186.64771,61.9525397 1186.64771,61.8259765 L1186.64771,39.1554667 C1186.64771,39.0289036 1186.71099,38.9656229 1186.83755,38.9656229 L1195.71275,38.9656229 C1196.69361,38.9656229 1197.57954,39.1000943 1198.37056,39.3690409 C1199.16158,39.6379876 1199.85239,40.0203081 1200.44302,40.5160137 C1200.74888,40.8007808 1201.04156,41.125094 1201.32105,41.488963 C1201.60054,41.852832 1201.84839,42.2456992 1202.0646,42.6675764 C1202.28082,43.0894535 1202.4522,43.5376913 1202.57876,44.0123031 C1202.70533,44.4869149 1202.76861,44.9773397 1202.76861,45.4835923 C1202.76861,46.2324242 1202.66314,46.9416945 1202.4522,47.6114245 C1202.24126,48.2811545 1201.94595,48.9060506 1201.56626,49.4861317 C1201.17603,50.0240251 1200.72252,50.495993 1200.20572,50.9020498 C1199.68892,51.3081065 1199.10357,51.6324197 1198.44966,51.8749991 C1199.30396,53.509773 1200.16353,55.1524325 1201.02837,56.8030269 C1201.89322,58.4536212 1202.75278,60.0962807 1203.60709,61.7310547 C1203.63873,61.8048832 1203.63873,61.8708005 1203.60709,61.9288086 C1203.57544,61.9868167 1203.52271,62.0158203 1203.44888,62.0158203 L1199.36724,62.0158203 C1199.3356,62.0158203 1199.30396,62.0026369 1199.27232,61.9762695 C1199.24068,61.9499022 1199.21431,61.926172 1199.19322,61.9050781 L1194.55787,52.3337882 L1190.4604,52.3337882 L1190.4604,61.8259765 C1190.4604,61.9525397 1190.39712,62.0158203 1190.27056,62.0158203 L1186.83755,62.0158203 Z M1211.11629,62.0158203 C1210.98973,62.0158203 1210.92645,61.9525397 1210.92645,61.8259765 L1210.92645,39.1554667 C1210.92645,39.0289036 1210.98973,38.9656229 1211.11629,38.9656229 L1225.6077,38.9656229 C1225.73426,38.9656229 1225.79755,39.0289036 1225.79755,39.1554667 L1225.79755,42.4144514 C1225.79755,42.5410145 1225.73426,42.6042951 1225.6077,42.6042951 L1214.73915,42.6042951 L1214.73915,48.6792957 L1223.97821,48.6792957 C1224.10477,48.6792957 1224.16805,48.7425763 1224.16805,48.8691395 L1224.16805,51.9382804 C1224.16805,52.0542966 1224.10477,52.1123038 1223.97821,52.1123038 L1214.73915,52.1123038 L1214.73915,58.4087887 L1225.6077,58.4087887 C1225.73426,58.4087887 1225.79755,58.4720694 1225.79755,58.5986325 L1225.79755,61.8259765 C1225.79755,61.9525397 1225.73426,62.0158203 1225.6077,62.0158203 L1211.11629,62.0158203 Z M1232.68976,50.4986318 C1232.68976,49.1169841 1232.70822,47.9884797 1232.74513,47.1130846 C1232.78205,46.2376895 1232.83214,45.5996099 1232.89543,45.1988266 C1232.96925,44.7980433 1233.07472,44.4130862 1233.21183,44.0439437 C1233.34894,43.6748012 1233.51769,43.3109376 1233.71808,42.952342 L1233.70226,42.952342 C1234.2507,41.92929 1235.13663,40.9800806 1236.36007,40.1046855 C1237.59406,39.2187435 1239.12862,38.7757792 1240.96379,38.7757792 C1242.77786,38.7757792 1244.30187,39.2187435 1245.53586,40.1046855 C1246.78039,41.0011745 1247.67687,41.9503838 1248.22531,42.952342 C1248.61555,43.6695332 1248.87922,44.4183539 1249.01633,45.1988266 C1249.09015,45.5996099 1249.14552,46.2376895 1249.18244,47.1130846 C1249.21935,47.9884797 1249.23781,49.1169841 1249.23781,50.4986318 C1249.23781,53.2091925 1249.16398,54.9810499 1249.01633,55.8142573 C1248.9425,56.2255875 1248.83967,56.615818 1248.70783,56.9849605 C1248.57599,57.354103 1248.42043,57.7074198 1248.24113,58.0449215 C1247.68214,59.0574267 1246.78039,60.006636 1245.53586,60.892578 C1244.29132,61.7679731 1242.76731,62.2056641 1240.96379,62.2056641 C1239.13917,62.2056641 1237.60461,61.7679731 1236.36007,60.892578 C1235.13663,60.0277299 1234.2507,59.0785205 1233.70226,58.0449215 L1233.71808,58.0449215 C1233.51769,57.6863259 1233.34894,57.3250991 1233.21183,56.96123 C1233.07472,56.597361 1232.96925,56.2150405 1232.89543,55.8142573 C1232.83214,55.413474 1232.78205,54.7727577 1232.74513,53.8920891 C1232.70822,53.0114206 1232.68976,51.8802794 1232.68976,50.4986318 Z M1236.50246,50.4986318 C1236.50246,51.648247 1236.51828,52.5948197 1236.54992,53.3383781 C1236.58156,54.0819366 1236.63957,54.6330054 1236.72394,54.9916009 C1236.80832,55.3185557 1236.92697,55.6428689 1237.0799,55.9645502 C1237.23283,56.2862316 1237.40421,56.5683577 1237.59406,56.810937 C1237.93156,57.253908 1238.3798,57.6309551 1238.93879,57.9420895 C1239.49777,58.2532239 1240.17277,58.4087887 1240.96379,58.4087887 C1241.74426,58.4087887 1242.41398,58.2532239 1242.97297,57.9420895 C1243.53195,57.6309551 1243.97492,57.253908 1244.30187,56.810937 C1244.74484,56.2730437 1245.03488,55.6666044 1245.17199,54.9916009 C1245.34074,54.3165975 1245.42511,52.8189561 1245.42511,50.4986318 C1245.42511,49.3490166 1245.40402,48.4024439 1245.36183,47.6588854 C1245.31965,46.915327 1245.25636,46.3695316 1245.17199,46.0214829 C1245.09816,45.6839812 1244.98742,45.3543947 1244.83976,45.0327133 C1244.69211,44.711032 1244.51808,44.4236325 1244.31769,44.1705062 C1244.15949,43.9701146 1243.96701,43.7749993 1243.74025,43.5851546 C1243.51349,43.3953099 1243.25773,43.2291983 1242.97297,43.0868147 C1242.6882,42.9444312 1242.37707,42.8284167 1242.03957,42.7387678 C1241.70207,42.6491189 1241.34348,42.6042951 1240.96379,42.6042951 C1240.17277,42.6042951 1239.49777,42.7624967 1238.93879,43.0789046 C1238.3798,43.3953124 1237.93156,43.759176 1237.59406,44.1705062 C1237.39367,44.4236325 1237.21965,44.711032 1237.07199,45.0327133 C1236.92433,45.3543947 1236.80832,45.6839812 1236.72394,46.0214829 C1236.63957,46.3800785 1236.58156,46.933784 1236.54992,47.6826159 C1236.51828,48.4314478 1236.50246,49.3701104 1236.50246,50.4986318 Z M1257.91772,62.0158203 C1257.79116,62.0158203 1257.72788,61.9525397 1257.72788,61.8259765 L1257.72788,39.1554667 C1257.72788,39.0289036 1257.79116,38.9656229 1257.91772,38.9656229 L1261.35073,38.9656229 C1261.47729,38.9656229 1261.54057,39.0289036 1261.54057,39.1554667 L1261.54057,58.4087887 L1272.40913,58.4087887 C1272.53569,58.4087887 1272.59897,58.4720694 1272.59897,58.5986325 L1272.59897,61.8259765 C1272.59897,61.9525397 1272.53569,62.0158203 1272.40913,62.0158203 L1257.91772,62.0158203 Z M1278.05154,62 C1277.97771,62 1277.92498,61.9736331 1277.89334,61.9208984 C1277.8617,61.8681638 1277.85642,61.8101565 1277.87752,61.746875 L1286.16736,39.0605448 C1286.18846,38.9761694 1286.24119,38.9339823 1286.32556,38.9339823 L1289.1574,38.9339823 C1289.18904,38.9339823 1289.22332,38.9471658 1289.26023,38.9735331 C1289.29715,38.9999004 1289.32088,39.028904 1289.33142,39.0605448 L1297.60545,61.746875 C1297.62654,61.8101565 1297.62127,61.8681638 1297.58963,61.9208984 C1297.55799,61.9736331 1297.51053,62 1297.44725,62 L1293.82439,62 C1293.74002,62 1293.68728,61.9578129 1293.66619,61.8734375 L1291.9576,56.8742183 L1283.60447,56.8742183 C1283.30916,57.7285195 1283.01648,58.5643511 1282.72644,59.381738 C1282.4364,60.199125 1282.14373,61.0296832 1281.84842,61.8734375 C1281.83787,61.9050783 1281.81414,61.9340819 1281.77722,61.9604492 C1281.74031,61.9868165 1281.70603,62 1281.67439,62 L1278.05154,62 Z M1290.81853,53.4728508 C1290.79744,53.3990223 1290.76844,53.3199215 1290.73152,53.2355461 C1290.69461,53.1511707 1290.6656,53.0773433 1290.64451,53.0140617 C1290.46521,52.4972622 1290.30174,52.0200208 1290.15408,51.5823233 C1290.00642,51.1446257 1289.87459,50.7623053 1289.75857,50.4353505 C1289.68474,50.224412 1289.61355,50.0187499 1289.545,49.8183583 C1289.47644,49.6179666 1289.41053,49.4281248 1289.34724,49.248827 C1289.29451,49.0800761 1289.24178,48.9192379 1289.18904,48.7663074 C1289.13631,48.6133769 1289.08357,48.4630855 1289.03084,48.3154285 C1288.93592,48.0095675 1288.83836,47.7037112 1288.73816,47.3978503 C1288.63797,47.0919893 1288.53514,46.7755862 1288.42967,46.4486314 C1288.37693,46.3009744 1288.32156,46.1374995 1288.26355,45.9582017 C1288.20555,45.7789039 1288.1449,45.589062 1288.08162,45.3886704 C1288.04998,45.2832011 1288.02625,45.2014636 1288.01043,45.1434555 C1287.99461,45.0854474 1287.97615,45.0274402 1287.95506,44.9694321 C1287.93396,44.911424 1287.91023,44.8455066 1287.88387,44.7716781 C1287.8575,44.6978496 1287.82322,44.5923819 1287.78103,44.4552719 C1287.66502,44.8033205 1287.55691,45.124997 1287.45672,45.420311 C1287.35652,45.715625 1287.26424,45.9898411 1287.17986,46.2429673 C1287.15877,46.3062489 1287.14295,46.3642562 1287.1324,46.4169908 C1287.12185,46.4697254 1287.10603,46.5224593 1287.08494,46.5751939 C1287.03221,46.7544917 1286.97683,46.92324 1286.91883,47.081444 C1286.86082,47.2396479 1286.80545,47.3978495 1286.75271,47.5560534 C1286.69998,47.7248043 1286.64724,47.8882792 1286.59451,48.0464831 C1286.54178,48.2046871 1286.48904,48.3576152 1286.43631,48.5052722 C1286.33084,48.8216801 1286.22273,49.1539034 1286.11199,49.501952 C1286.00125,49.8500007 1285.87732,50.2138642 1285.74021,50.5935537 C1285.6031,50.9732431 1285.46072,51.3819305 1285.31306,51.819628 C1285.16541,52.2573255 1284.97557,52.8083943 1284.74353,53.4728508 L1290.81853,53.4728508 Z" id="ARREOLA" transform="translate(1216.447740, 50.490722) rotate(-360.000000) translate(-1216.447740, -50.490722) "></path>
            </g>
        </g>
    </g>
</svg>