<?xml version="1.0" encoding="UTF-8"?>
<svg width="589px" height="87px" viewBox="0 0 589 87" version="1.1" xmlns="http://www.w3.org/2000/svg" xmlns:xlink="http://www.w3.org/1999/xlink">
    <!-- Generator: Sketch 47.1 (45422) - http://www.bohemiancoding.com/sketch -->
    <title>ARREOLA Copy</title>
    <desc>Created with Sketch.</desc>
    <defs></defs>
    <g id="Website" stroke="none" stroke-width="1" fill="none" fill-rule="evenodd">
        <path d="M1.67500645,84.9753372 C1.40805354,84.9753372 1.21737575,84.8799983 1.10296736,84.6893177 C0.988558976,84.498637 0.969491197,84.2888915 1.04576346,84.0600747 L31.0206113,2.02967035 C31.0968836,1.72458131 31.2875614,1.57203908 31.5926504,1.57203908 L41.83215,1.57203908 C41.9465584,1.57203908 42.0704989,1.61970853 42.2039754,1.71504885 C42.3374518,1.81038918 42.4232569,1.91526196 42.461393,2.02967035 L72.379037,84.0600747 C72.4553092,84.2888915 72.4362414,84.498637 72.3218331,84.6893177 C72.2074247,84.8799983 72.0358147,84.9753372 71.8069979,84.9753372 L58.7073029,84.9753372 C58.4022139,84.9753372 58.2115361,84.822795 58.1352638,84.517706 L51.9572417,66.441271 L21.7535782,66.441271 C20.6857666,69.5302975 19.6275049,72.5525404 18.5787613,75.5080904 C17.5300178,78.4636404 16.471756,81.4668156 15.4039444,84.517706 C15.3658083,84.6321143 15.2800033,84.7369871 15.1465268,84.8323274 C15.0130504,84.9276678 14.8891098,84.9753372 14.7747014,84.9753372 L1.67500645,84.9753372 Z M47.8385604,54.1424307 C47.7622881,53.8754778 47.6574153,53.5894611 47.5239389,53.2843721 C47.3904624,52.979283 47.2855896,52.7123341 47.2093174,52.4835174 C46.5610032,50.614847 45.969902,48.889213 45.4359962,47.3065637 C44.9020904,45.7239143 44.4253959,44.3415003 44.0058985,43.1592803 C43.7389456,42.3965577 43.4815306,41.6529144 43.2336457,40.9283279 C42.9857609,40.2037415 42.7474137,39.5173014 42.5185969,38.8689872 C42.3279162,38.2588091 42.1372385,37.6772419 41.9465578,37.124268 C41.7558772,36.5712941 41.5651994,36.0278624 41.3745187,35.4939566 C41.0312936,34.3880089 40.6785397,33.2820777 40.3162464,32.17613 C39.9539532,31.0701822 39.5821315,29.9261155 39.2007702,28.7438955 C39.0100896,28.2099897 38.8098779,27.6188885 38.6001292,26.9705743 C38.3903805,26.3222601 38.171101,25.6358201 37.9422842,24.9112336 C37.8278758,24.5298723 37.7420708,24.2343218 37.6848666,24.024573 C37.6276625,23.8148243 37.5609252,23.6050788 37.484653,23.3953301 C37.4083807,23.1855813 37.3225757,22.9472341 37.2272354,22.6802812 C37.1318951,22.4133283 37.0079545,22.0319727 36.85541,21.536203 C36.4359126,22.7946953 36.0450231,23.9578298 35.6827299,25.0256414 C35.3204366,26.0934531 34.9867505,27.0849776 34.6816615,28.0002447 C34.6053892,28.2290614 34.5481859,28.438807 34.5100497,28.6294877 C34.4719136,28.8201683 34.4147103,29.0108461 34.338438,29.2015267 C34.1477574,29.8498409 33.9475457,30.4600099 33.737797,31.0320518 C33.5280483,31.6040937 33.3278366,32.1761271 33.1371559,32.748169 C32.9464753,33.3583471 32.7557975,33.9494483 32.5651169,34.5214902 C32.3744362,35.0935321 32.1837584,35.6464977 31.9930778,36.1804035 C31.6117165,37.3244874 31.220827,38.5257575 30.8203977,39.7842498 C30.4199683,41.042742 29.9718755,42.3584188 29.4761058,43.7313194 C28.9803361,45.1042201 28.4655061,46.5819729 27.9316003,48.1646223 C27.3976945,49.7472717 26.7112545,51.7398545 25.8722596,54.1424307 L47.8385604,54.1424307 Z M112.745324,14.099695 L112.745324,37.6105012 L130.878963,37.6105012 C135.302754,37.6105012 138.620547,36.3901634 140.832443,33.9494511 C143.044338,31.5087388 144.15027,28.6104365 144.15027,25.2544571 C144.15027,23.3476506 143.816583,21.6506183 143.149201,20.1633092 C142.481819,18.6760002 141.518896,17.4556624 140.260404,16.5022591 C139.154456,15.7395365 137.867381,15.1484354 136.39914,14.728938 C134.930899,14.3094405 133.33874,14.099695 131.622614,14.099695 L112.745324,14.099695 Z M99.645629,85.0325411 C99.1879955,85.0325411 98.9591822,84.8037278 98.9591822,84.3460942 L98.9591822,2.3728938 C98.9591822,1.91526024 99.1879955,1.6864469 99.645629,1.6864469 L131.737022,1.6864469 C135.283682,1.6864469 138.487068,2.17267526 141.347278,3.14514656 C144.207488,4.11761786 146.705367,5.50003182 148.84099,7.2924299 C149.946938,8.3221054 151.0052,9.49477379 152.015807,10.8104703 C153.026414,12.1261667 153.9226,13.5467162 154.704391,15.0721614 C155.486181,16.5976066 156.105884,18.2183678 156.563518,19.9344936 C157.021151,21.6506194 157.249965,23.4239229 157.249965,25.2544571 C157.249965,27.9621223 156.868609,30.5267385 156.105886,32.9483827 C155.343164,35.3700269 154.275368,37.6295587 152.902468,39.7270458 C151.491431,41.6719884 149.851602,43.3785546 147.982931,44.8467956 C146.114261,46.3150366 143.997738,47.487705 141.633298,48.364836 C144.722324,54.275936 147.830372,60.2155491 150.957535,66.1838534 C154.084697,72.1521576 157.192745,78.0917707 160.281772,84.0028708 C160.39618,84.2698237 160.39618,84.5081709 160.281772,84.7179196 C160.167363,84.9276683 159.976686,85.0325411 159.709733,85.0325411 L144.951124,85.0325411 C144.836716,85.0325411 144.722309,84.9848717 144.607901,84.8895314 C144.493492,84.794191 144.398154,84.708386 144.321881,84.6321138 L127.561136,50.0237493 L112.745324,50.0237493 L112.745324,84.3460942 C112.745324,84.8037278 112.516511,85.0325411 112.058877,85.0325411 L99.645629,85.0325411 Z M200.533651,14.099695 L200.533651,37.6105012 L218.66729,37.6105012 C223.091081,37.6105012 226.408874,36.3901634 228.62077,33.9494511 C230.832665,31.5087388 231.938597,28.6104365 231.938597,25.2544571 C231.938597,23.3476506 231.60491,21.6506183 230.937528,20.1633092 C230.270146,18.6760002 229.307223,17.4556624 228.048731,16.5022591 C226.942783,15.7395365 225.655708,15.1484354 224.187467,14.728938 C222.719226,14.3094405 221.127066,14.099695 219.410941,14.099695 L200.533651,14.099695 Z M187.433956,85.0325411 C186.976322,85.0325411 186.747509,84.8037278 186.747509,84.3460942 L186.747509,2.3728938 C186.747509,1.91526024 186.976322,1.6864469 187.433956,1.6864469 L219.525348,1.6864469 C223.072009,1.6864469 226.275395,2.17267526 229.135605,3.14514656 C231.995815,4.11761786 234.493694,5.50003182 236.629317,7.2924299 C237.735265,8.3221054 238.793527,9.49477379 239.804134,10.8104703 C240.814741,12.1261667 241.710927,13.5467162 242.492718,15.0721614 C243.274508,16.5976066 243.894211,18.2183678 244.351845,19.9344936 C244.809478,21.6506194 245.038292,23.4239229 245.038292,25.2544571 C245.038292,27.9621223 244.656936,30.5267385 243.894213,32.9483827 C243.131491,35.3700269 242.063695,37.6295587 240.690795,39.7270458 C239.279758,41.6719884 237.639929,43.3785546 235.771258,44.8467956 C233.902588,46.3150366 231.786065,47.487705 229.421625,48.364836 C232.510651,54.275936 235.618699,60.2155491 238.745862,66.1838534 C241.873024,72.1521576 244.981072,78.0917707 248.070099,84.0028708 C248.184507,84.2698237 248.184507,84.5081709 248.070099,84.7179196 C247.95569,84.9276683 247.765012,85.0325411 247.49806,85.0325411 L232.739451,85.0325411 C232.625043,85.0325411 232.510636,84.9848717 232.396228,84.8895314 C232.281819,84.794191 232.186481,84.708386 232.110208,84.6321138 L215.349463,50.0237493 L200.533651,50.0237493 L200.533651,84.3460942 C200.533651,84.8037278 200.304838,85.0325411 199.847204,85.0325411 L187.433956,85.0325411 Z M275.222283,85.0325411 C274.764649,85.0325411 274.535836,84.8037278 274.535836,84.3460942 L274.535836,2.3728938 C274.535836,1.91526024 274.764649,1.6864469 275.222283,1.6864469 L327.621063,1.6864469 C328.078696,1.6864469 328.30751,1.91526024 328.30751,2.3728938 L328.30751,14.1568989 C328.30751,14.6145324 328.078696,14.8433458 327.621063,14.8433458 L288.321978,14.8433458 L288.321978,36.8096465 L321.72906,36.8096465 C322.186694,36.8096465 322.415507,37.0384599 322.415507,37.4960934 L322.415507,48.5936516 C322.415507,49.013149 322.186694,49.2228946 321.72906,49.2228946 L288.321978,49.2228946 L288.321978,71.9900501 L327.621063,71.9900501 C328.078696,71.9900501 328.30751,72.2188634 328.30751,72.676497 L328.30751,84.3460942 C328.30751,84.8037278 328.078696,85.0325411 327.621063,85.0325411 L275.222283,85.0325411 Z M353.228742,43.388096 C353.228742,38.392263 353.295479,34.3117584 353.428955,31.1464596 C353.562432,27.9811609 353.743576,25.6739596 353.972392,24.2247867 C354.239345,22.7756138 354.620701,21.383666 355.116471,20.0489014 C355.61224,18.7141369 356.222409,17.3984602 356.946996,16.1018318 C358.87287,12.4026272 362.076257,8.97042703 366.500048,5.80512829 C370.961975,2.60169341 376.510699,1 383.146386,1 C389.7058,1 395.216388,2.60169341 399.678315,5.80512829 C404.178378,9.04669929 407.419901,12.4788995 409.402979,16.1018318 C410.814016,18.6950886 411.767405,21.4027131 412.263175,24.2247867 C412.530128,25.6739596 412.730339,27.9811609 412.863816,31.1464596 C412.997292,34.3117584 413.06403,38.392263 413.06403,43.388096 C413.06403,53.1890812 412.797081,59.5958549 412.263175,62.6086091 C411.996222,64.0959182 411.6244,65.5069338 411.147699,66.8416983 C410.670997,68.1764629 410.108498,69.454004 409.460183,70.6743602 C407.438968,74.3354286 404.178378,77.7676288 399.678315,80.9710636 C395.178252,84.1363624 389.667664,85.718988 383.146386,85.718988 C376.548835,85.718988 371.000112,84.1363624 366.500048,80.9710636 C362.076257,77.843901 358.87287,74.4117009 356.889792,70.6743602 C356.222409,69.3777318 355.61224,68.0715889 355.116471,66.7558925 C354.620701,65.440196 354.239345,64.057782 353.972392,62.6086091 C353.743576,61.1594362 353.562432,58.8427011 353.428955,55.6583343 C353.295479,52.4739675 353.228742,48.3839289 353.228742,43.388096 Z M367.014883,43.388096 C367.014883,47.5449341 367.072087,50.9676004 367.186495,53.6561975 C367.300904,56.3447946 367.510649,58.3373775 367.815738,59.6340059 C368.120827,60.8162259 368.549852,61.9888943 369.102826,63.1520462 C369.6558,64.3151982 370.275503,65.3353244 370.961953,66.2124553 C372.182309,67.8141728 373.80307,69.1775189 375.824285,70.3025348 C377.8455,71.4275506 380.286176,71.9900501 383.146386,71.9900501 C385.968459,71.9900501 388.390067,71.4275506 390.411282,70.3025348 C392.432497,69.1775189 394.03419,67.8141728 395.21641,66.2124553 C396.818128,64.2675127 397.866855,62.0747182 398.362625,59.6340059 C398.972803,57.1932936 399.277888,51.7780444 399.277888,43.388096 C399.277888,39.2312579 399.201617,35.8085916 399.049072,33.1199944 C398.896528,30.4313973 398.667714,28.4578822 398.362625,27.1993899 C398.095672,25.9790338 397.695249,24.7872976 397.161343,23.6241457 C396.627437,22.4609937 395.998201,21.4217998 395.273614,20.5065327 C394.701572,19.7819462 394.005598,19.0764384 393.185671,18.3899881 C392.365745,17.7035378 391.440957,17.1029027 390.411282,16.588065 C389.381606,16.0732272 388.256607,15.6537361 387.036251,15.329579 C385.815895,15.0054219 384.519286,14.8433458 383.146386,14.8433458 C380.286176,14.8433458 377.8455,15.4153791 375.824285,16.559463 C373.80307,17.7035469 372.182309,19.0192236 370.961953,20.5065327 C370.237367,21.4217998 369.60813,22.4609937 369.074224,23.6241457 C368.540318,24.7872976 368.120827,25.9790338 367.815738,27.1993899 C367.510649,28.4960184 367.300904,30.4981351 367.186495,33.2058003 C367.072087,35.9134655 367.014883,39.3075301 367.014883,43.388096 Z M444.449303,85.0325411 C443.991669,85.0325411 443.762856,84.8037278 443.762856,84.3460942 L443.762856,2.3728938 C443.762856,1.91526024 443.991669,1.6864469 444.449303,1.6864469 L456.862551,1.6864469 C457.320185,1.6864469 457.548998,1.91526024 457.548998,2.3728938 L457.548998,71.9900501 L496.848083,71.9900501 C497.305716,71.9900501 497.53453,72.2188634 497.53453,72.676497 L497.53453,84.3460942 C497.53453,84.8037278 497.305716,85.0325411 496.848083,85.0325411 L444.449303,85.0325411 Z M517.250206,84.9753372 C516.983253,84.9753372 516.792575,84.8799983 516.678167,84.6893177 C516.563759,84.498637 516.544691,84.2888915 516.620963,84.0600747 L546.595811,2.02967035 C546.672083,1.72458131 546.862761,1.57203908 547.16785,1.57203908 L557.40735,1.57203908 C557.521758,1.57203908 557.645699,1.61970853 557.779175,1.71504885 C557.912651,1.81038918 557.998456,1.91526196 558.036593,2.02967035 L587.954237,84.0600747 C588.030509,84.2888915 588.011441,84.498637 587.897033,84.6893177 C587.782624,84.8799983 587.611014,84.9753372 587.382197,84.9753372 L574.282502,84.9753372 C573.977413,84.9753372 573.786736,84.822795 573.710463,84.517706 L567.532441,66.441271 L537.328778,66.441271 C536.260966,69.5302975 535.202704,72.5525404 534.153961,75.5080904 C533.105217,78.4636404 532.046956,81.4668156 530.979144,84.517706 C530.941008,84.6321143 530.855203,84.7369871 530.721726,84.8323274 C530.58825,84.9276678 530.464309,84.9753372 530.349901,84.9753372 L517.250206,84.9753372 Z M563.41376,54.1424307 C563.337488,53.8754778 563.232615,53.5894611 563.099138,53.2843721 C562.965662,52.979283 562.860789,52.7123341 562.784517,52.4835174 C562.136203,50.614847 561.545102,48.889213 561.011196,47.3065637 C560.47729,45.7239143 560.000596,44.3415003 559.581098,43.1592803 C559.314145,42.3965577 559.05673,41.6529144 558.808845,40.9283279 C558.56096,40.2037415 558.322613,39.5173014 558.093796,38.8689872 C557.903116,38.2588091 557.712438,37.6772419 557.521757,37.124268 C557.331077,36.5712941 557.140399,36.0278624 556.949718,35.4939566 C556.606493,34.3880089 556.253739,33.2820777 555.891446,32.17613 C555.529153,31.0701822 555.157331,29.9261155 554.77597,28.7438955 C554.585289,28.2099897 554.385077,27.6188885 554.175329,26.9705743 C553.96558,26.3222601 553.746301,25.6358201 553.517484,24.9112336 C553.403075,24.5298723 553.31727,24.2343218 553.260066,24.024573 C553.202862,23.8148243 553.136125,23.6050788 553.059853,23.3953301 C552.98358,23.1855813 552.897775,22.9472341 552.802435,22.6802812 C552.707095,22.4133283 552.583154,22.0319727 552.43061,21.536203 C552.011112,22.7946953 551.620223,23.9578298 551.257929,25.0256414 C550.895636,26.0934531 550.56195,27.0849776 550.256861,28.0002447 C550.180589,28.2290614 550.123385,28.438807 550.085249,28.6294877 C550.047113,28.8201683 549.98991,29.0108461 549.913638,29.2015267 C549.722957,29.8498409 549.522745,30.4600099 549.312997,31.0320518 C549.103248,31.6040937 548.903036,32.1761271 548.712356,32.748169 C548.521675,33.3583471 548.330997,33.9494483 548.140316,34.5214902 C547.949636,35.0935321 547.758958,35.6464977 547.568277,36.1804035 C547.186916,37.3244874 546.796027,38.5257575 546.395597,39.7842498 C545.995168,41.042742 545.547075,42.3584188 545.051305,43.7313194 C544.555536,45.1042201 544.040706,46.5819729 543.5068,48.1646223 C542.972894,49.7472717 542.286454,51.7398545 541.447459,54.1424307 L563.41376,54.1424307 Z" id="ARREOLA-Copy" stroke="#272727" transform="translate(294.500000, 43.359494) rotate(-360.000000) translate(-294.500000, -43.359494) "></path>
    </g>
</svg>