<?xml version="1.0" encoding="UTF-8"?>
<svg width="587px" height="61px" viewBox="0 0 587 61" version="1.1" xmlns="http://www.w3.org/2000/svg" xmlns:xlink="http://www.w3.org/1999/xlink">
    <!-- Generator: Sketch 47.1 (45422) - http://www.bohemiancoding.com/sketch -->
    <title>ARREOLA</title>
    <desc>Created with Sketch.</desc>
    <defs></defs>
    <g id="Website" stroke="none" stroke-width="1" fill="none" fill-rule="evenodd">
        <g id="Home" transform="translate(-29.000000, 0.000000)" fill="#E0E1E2">
            <path d="M29.6750064,59.9753372 C29.4080535,59.9753372 29.2173758,59.8799983 29.1029674,59.6893177 C28.988559,59.498637 28.9694912,59.2888915 29.0457635,59.0600747 L59.0206113,-22.9703297 C59.0968836,-23.2754187 59.2875614,-23.4279609 59.5926504,-23.4279609 L69.83215,-23.4279609 C69.9465584,-23.4279609 70.0704989,-23.3802915 70.2039754,-23.2849511 C70.3374518,-23.1896108 70.4232569,-23.084738 70.461393,-22.9703297 L100.379037,59.0600747 C100.455309,59.2888915 100.436241,59.498637 100.321833,59.6893177 C100.207425,59.8799983 100.035815,59.9753372 99.8069979,59.9753372 L86.7073029,59.9753372 C86.4022139,59.9753372 86.2115361,59.822795 86.1352638,59.517706 L79.9572417,41.441271 L49.7535782,41.441271 C48.6857666,44.5302975 47.6275049,47.5525404 46.5787613,50.5080904 C45.5300178,53.4636404 44.471756,56.4668156 43.4039444,59.517706 C43.3658083,59.6321143 43.2800033,59.7369871 43.1465268,59.8323274 C43.0130504,59.9276678 42.8891098,59.9753372 42.7747014,59.9753372 L29.6750064,59.9753372 Z M75.8385604,29.1424307 C75.7622881,28.8754778 75.6574153,28.5894611 75.5239389,28.2843721 C75.3904624,27.979283 75.2855896,27.7123341 75.2093174,27.4835174 C74.5610032,25.614847 73.969902,23.889213 73.4359962,22.3065637 C72.9020904,20.7239143 72.4253959,19.3415003 72.0058985,18.1592803 C71.7389456,17.3965577 71.4815306,16.6529144 71.2336457,15.9283279 C70.9857609,15.2037415 70.7474137,14.5173014 70.5185969,13.8689872 C70.3279162,13.2588091 70.1372385,12.6772419 69.9465578,12.124268 C69.7558772,11.5712941 69.5651994,11.0278624 69.3745187,10.4939566 C69.0312936,9.38800888 68.6785397,8.28207772 68.3162464,7.17612996 C67.9539532,6.07018221 67.5821315,4.92611548 67.2007702,3.74389547 C67.0100896,3.20998966 66.8098779,2.61888852 66.6001292,1.97057432 C66.3903805,1.32226012 66.171101,0.635820082 65.9422842,-0.0887663783 C65.8278758,-0.470127673 65.7420708,-0.765678243 65.6848666,-0.975426955 C65.6276625,-1.18517567 65.5609252,-1.39492123 65.484653,-1.60466995 C65.4083807,-1.81441866 65.3225757,-2.05276589 65.2272354,-2.3197188 C65.1318951,-2.5866717 65.0079545,-2.96802728 64.85541,-3.46379696 C64.4359126,-2.20530469 64.0450231,-1.04217019 63.6827299,0.0256414381 C63.3204366,1.09345306 62.9867505,2.08497756 62.6816615,3.00024466 C62.6053892,3.22906144 62.5481859,3.43880701 62.5100497,3.62948765 C62.4719136,3.8201683 62.4147103,4.01084609 62.338438,4.20152674 C62.1477574,4.84984094 61.9475457,5.46000986 61.737797,6.0320518 C61.5280483,6.60409374 61.3278366,7.1761271 61.1371559,7.74816904 C60.9464753,8.35834711 60.7557975,8.94944825 60.5651169,9.5214902 C60.3744362,10.0935321 60.1837584,10.6464977 59.9930778,11.1804035 C59.6117165,12.3244874 59.220827,13.5257575 58.8203977,14.7842498 C58.4199683,16.042742 57.9718755,17.3584188 57.4761058,18.7313194 C56.9803361,20.1042201 56.4655061,21.5819729 55.9316003,23.1646223 C55.3976945,24.7472717 54.7112545,26.7398545 53.8722596,29.1424307 L75.8385604,29.1424307 Z M140.745324,-10.900305 L140.745324,12.6105012 L158.878963,12.6105012 C163.302754,12.6105012 166.620547,11.3901634 168.832443,8.94945112 C171.044338,6.50873883 172.15027,3.61043646 172.15027,0.254457071 C172.15027,-1.6523494 171.816583,-3.34938171 171.149201,-4.83669076 C170.481819,-6.32399981 169.518896,-7.54433764 168.260404,-8.49774088 C167.154456,-9.26046347 165.867381,-9.85156461 164.39914,-10.271062 C162.930899,-10.6905595 161.33874,-10.900305 159.622614,-10.900305 L140.745324,-10.900305 Z M127.645629,60.0325411 C127.187995,60.0325411 126.959182,59.8037278 126.959182,59.3460942 L126.959182,-22.6271062 C126.959182,-23.0847398 127.187995,-23.3135531 127.645629,-23.3135531 L159.737022,-23.3135531 C163.283682,-23.3135531 166.487068,-22.8273247 169.347278,-21.8548534 C172.207488,-20.8823821 174.705367,-19.4999682 176.84099,-17.7075701 C177.946938,-16.6778946 179.0052,-15.5052262 180.015807,-14.1895297 C181.026414,-12.8738333 181.9226,-11.4532838 182.704391,-9.92783859 C183.486181,-8.40239341 184.105884,-6.78163222 184.563518,-5.06550639 C185.021151,-3.34938056 185.249965,-1.57607714 185.249965,0.254457071 C185.249965,2.96212226 184.868609,5.5267385 184.105886,7.94838272 C183.343164,10.3700269 182.275368,12.6295587 180.902468,14.7270458 C179.491431,16.6719884 177.851602,18.3785546 175.982931,19.8467956 C174.114261,21.3150366 171.997738,22.487705 169.633298,23.364836 C172.722324,29.275936 175.830372,35.2155491 178.957535,41.1838534 C182.084697,47.1521576 185.192745,53.0917707 188.281772,59.0028708 C188.39618,59.2698237 188.39618,59.5081709 188.281772,59.7179196 C188.167363,59.9276683 187.976686,60.0325411 187.709733,60.0325411 L172.951124,60.0325411 C172.836716,60.0325411 172.722309,59.9848717 172.607901,59.8895314 C172.493492,59.794191 172.398154,59.708386 172.321881,59.6321138 L155.561136,25.0237493 L140.745324,25.0237493 L140.745324,59.3460942 C140.745324,59.8037278 140.516511,60.0325411 140.058877,60.0325411 L127.645629,60.0325411 Z M228.533651,-10.900305 L228.533651,12.6105012 L246.66729,12.6105012 C251.091081,12.6105012 254.408874,11.3901634 256.62077,8.94945112 C258.832665,6.50873883 259.938597,3.61043646 259.938597,0.254457071 C259.938597,-1.6523494 259.60491,-3.34938171 258.937528,-4.83669076 C258.270146,-6.32399981 257.307223,-7.54433764 256.048731,-8.49774088 C254.942783,-9.26046347 253.655708,-9.85156461 252.187467,-10.271062 C250.719226,-10.6905595 249.127066,-10.900305 247.410941,-10.900305 L228.533651,-10.900305 Z M215.433956,60.0325411 C214.976322,60.0325411 214.747509,59.8037278 214.747509,59.3460942 L214.747509,-22.6271062 C214.747509,-23.0847398 214.976322,-23.3135531 215.433956,-23.3135531 L247.525348,-23.3135531 C251.072009,-23.3135531 254.275395,-22.8273247 257.135605,-21.8548534 C259.995815,-20.8823821 262.493694,-19.4999682 264.629317,-17.7075701 C265.735265,-16.6778946 266.793527,-15.5052262 267.804134,-14.1895297 C268.814741,-12.8738333 269.710927,-11.4532838 270.492718,-9.92783859 C271.274508,-8.40239341 271.894211,-6.78163222 272.351845,-5.06550639 C272.809478,-3.34938056 273.038292,-1.57607714 273.038292,0.254457071 C273.038292,2.96212226 272.656936,5.5267385 271.894213,7.94838272 C271.131491,10.3700269 270.063695,12.6295587 268.690795,14.7270458 C267.279758,16.6719884 265.639929,18.3785546 263.771258,19.8467956 C261.902588,21.3150366 259.786065,22.487705 257.421625,23.364836 C260.510651,29.275936 263.618699,35.2155491 266.745862,41.1838534 C269.873024,47.1521576 272.981072,53.0917707 276.070099,59.0028708 C276.184507,59.2698237 276.184507,59.5081709 276.070099,59.7179196 C275.95569,59.9276683 275.765012,60.0325411 275.49806,60.0325411 L260.739451,60.0325411 C260.625043,60.0325411 260.510636,59.9848717 260.396228,59.8895314 C260.281819,59.794191 260.186481,59.708386 260.110208,59.6321138 L243.349463,25.0237493 L228.533651,25.0237493 L228.533651,59.3460942 C228.533651,59.8037278 228.304838,60.0325411 227.847204,60.0325411 L215.433956,60.0325411 Z M303.222283,60.0325411 C302.764649,60.0325411 302.535836,59.8037278 302.535836,59.3460942 L302.535836,-22.6271062 C302.535836,-23.0847398 302.764649,-23.3135531 303.222283,-23.3135531 L355.621063,-23.3135531 C356.078696,-23.3135531 356.30751,-23.0847398 356.30751,-22.6271062 L356.30751,-10.8431011 C356.30751,-10.3854676 356.078696,-10.1566542 355.621063,-10.1566542 L316.321978,-10.1566542 L316.321978,11.8096465 L349.72906,11.8096465 C350.186694,11.8096465 350.415507,12.0384599 350.415507,12.4960934 L350.415507,23.5936516 C350.415507,24.013149 350.186694,24.2228946 349.72906,24.2228946 L316.321978,24.2228946 L316.321978,46.9900501 L355.621063,46.9900501 C356.078696,46.9900501 356.30751,47.2188634 356.30751,47.676497 L356.30751,59.3460942 C356.30751,59.8037278 356.078696,60.0325411 355.621063,60.0325411 L303.222283,60.0325411 Z M381.228742,18.388096 C381.228742,13.392263 381.295479,9.31175836 381.428955,6.14645961 C381.562432,2.98116087 381.743576,0.673959643 381.972392,-0.775213276 C382.239345,-2.2243862 382.620701,-3.61633404 383.116471,-4.95109857 C383.61224,-6.28586311 384.222409,-7.60153984 384.946996,-8.89816824 L384.889792,-8.89816824 C386.87287,-12.5973728 390.076257,-16.029573 394.500048,-19.1948717 C398.961975,-22.3983066 404.510699,-24 411.146386,-24 C417.7058,-24 423.216388,-22.3983066 427.678315,-19.1948717 C432.178378,-15.9533007 435.419901,-12.5211005 437.402979,-8.89816824 C438.814016,-6.30491143 439.767405,-3.59728686 440.263175,-0.775213276 C440.530128,0.673959643 440.730339,2.98116087 440.863816,6.14645961 C440.997292,9.31175836 441.06403,13.392263 441.06403,18.388096 C441.06403,28.1890812 440.797081,34.5958549 440.263175,37.6086091 C439.996222,39.0959182 439.6244,40.5069338 439.147699,41.8416983 C438.670997,43.1764629 438.108498,44.454004 437.460183,45.6743602 C435.438968,49.3354286 432.178378,52.7676288 427.678315,55.9710636 C423.178252,59.1363624 417.667664,60.718988 411.146386,60.718988 C404.548835,60.718988 399.000112,59.1363624 394.500048,55.9710636 C390.076257,52.843901 386.87287,49.4117009 384.889792,45.6743602 L384.946996,45.6743602 C384.222409,44.3777318 383.61224,43.0715889 383.116471,41.7558925 C382.620701,40.440196 382.239345,39.057782 381.972392,37.6086091 C381.743576,36.1594362 381.562432,33.8427011 381.428955,30.6583343 C381.295479,27.4739675 381.228742,23.3839289 381.228742,18.388096 Z M395.014883,18.388096 C395.014883,22.5449341 395.072087,25.9676004 395.186495,28.6561975 C395.300904,31.3447946 395.510649,33.3373775 395.815738,34.6340059 C396.120827,35.8162259 396.549852,36.9888943 397.102826,38.1520462 C397.6558,39.3151982 398.275503,40.3353244 398.961953,41.2124553 C400.182309,42.8141728 401.80307,44.1775189 403.824285,45.3025348 C405.8455,46.4275506 408.286176,46.9900501 411.146386,46.9900501 C413.968459,46.9900501 416.390067,46.4275506 418.411282,45.3025348 C420.432497,44.1775189 422.03419,42.8141728 423.21641,41.2124553 C424.818128,39.2675127 425.866855,37.0747182 426.362625,34.6340059 C426.972803,32.1932936 427.277888,26.7780444 427.277888,18.388096 C427.277888,14.2312579 427.201617,10.8085916 427.049072,8.11999445 C426.896528,5.43139732 426.667714,3.45788222 426.362625,2.19938995 C426.095672,0.979033806 425.695249,-0.212702364 425.161343,-1.37585431 C424.627437,-2.53900626 423.998201,-3.5782002 423.273614,-4.49346731 C422.701572,-5.21805377 422.005598,-5.92356158 421.185671,-6.61001191 C420.365745,-7.29646224 419.440957,-7.89709727 418.411282,-8.41193502 C417.381606,-8.92677277 416.256607,-9.3462639 415.036251,-9.670421 C413.815895,-9.9945781 412.519286,-10.1566542 411.146386,-10.1566542 C408.286176,-10.1566542 405.8455,-9.58462086 403.824285,-8.44053697 C401.80307,-7.29645309 400.182309,-5.98077636 398.961953,-4.49346731 C398.237367,-3.5782002 397.60813,-2.53900626 397.074224,-1.37585431 C396.540318,-0.212702364 396.120827,0.979033806 395.815738,2.19938995 C395.510649,3.49601835 395.300904,5.49813512 395.186495,8.20580031 C395.072087,10.9134655 395.014883,14.3075301 395.014883,18.388096 Z M472.449303,60.0325411 C471.991669,60.0325411 471.762856,59.8037278 471.762856,59.3460942 L471.762856,-22.6271062 C471.762856,-23.0847398 471.991669,-23.3135531 472.449303,-23.3135531 L484.862551,-23.3135531 C485.320185,-23.3135531 485.548998,-23.0847398 485.548998,-22.6271062 L485.548998,46.9900501 L524.848083,46.9900501 C525.305716,46.9900501 525.53453,47.2188634 525.53453,47.676497 L525.53453,59.3460942 C525.53453,59.8037278 525.305716,60.0325411 524.848083,60.0325411 L472.449303,60.0325411 Z M545.250206,59.9753372 C544.983253,59.9753372 544.792575,59.8799983 544.678167,59.6893177 C544.563759,59.498637 544.544691,59.2888915 544.620963,59.0600747 L574.595811,-22.9703297 C574.672083,-23.2754187 574.862761,-23.4279609 575.16785,-23.4279609 L585.40735,-23.4279609 C585.521758,-23.4279609 585.645699,-23.3802915 585.779175,-23.2849511 C585.912651,-23.1896108 585.998456,-23.084738 586.036593,-22.9703297 L615.954237,59.0600747 C616.030509,59.2888915 616.011441,59.498637 615.897033,59.6893177 C615.782624,59.8799983 615.611014,59.9753372 615.382197,59.9753372 L602.282502,59.9753372 C601.977413,59.9753372 601.786736,59.822795 601.710463,59.517706 L595.532441,41.441271 L565.328778,41.441271 C564.260966,44.5302975 563.202704,47.5525404 562.153961,50.5080904 C561.105217,53.4636404 560.046956,56.4668156 558.979144,59.517706 C558.941008,59.6321143 558.855203,59.7369871 558.721726,59.8323274 C558.58825,59.9276678 558.464309,59.9753372 558.349901,59.9753372 L545.250206,59.9753372 Z M591.41376,29.1424307 C591.337488,28.8754778 591.232615,28.5894611 591.099138,28.2843721 C590.965662,27.979283 590.860789,27.7123341 590.784517,27.4835174 C590.136203,25.614847 589.545102,23.889213 589.011196,22.3065637 C588.47729,20.7239143 588.000596,19.3415003 587.581098,18.1592803 C587.314145,17.3965577 587.05673,16.6529144 586.808845,15.9283279 C586.56096,15.2037415 586.322613,14.5173014 586.093796,13.8689872 C585.903116,13.2588091 585.712438,12.6772419 585.521757,12.124268 C585.331077,11.5712941 585.140399,11.0278624 584.949718,10.4939566 C584.606493,9.38800888 584.253739,8.28207772 583.891446,7.17612996 C583.529153,6.07018221 583.157331,4.92611548 582.77597,3.74389547 C582.585289,3.20998966 582.385077,2.61888852 582.175329,1.97057432 C581.96558,1.32226012 581.746301,0.635820082 581.517484,-0.0887663783 C581.403075,-0.470127673 581.31727,-0.765678243 581.260066,-0.975426955 C581.202862,-1.18517567 581.136125,-1.39492123 581.059853,-1.60466995 C580.98358,-1.81441866 580.897775,-2.05276589 580.802435,-2.3197188 C580.707095,-2.5866717 580.583154,-2.96802728 580.43061,-3.46379696 C580.011112,-2.20530469 579.620223,-1.04217019 579.257929,0.0256414381 C578.895636,1.09345306 578.56195,2.08497756 578.256861,3.00024466 C578.180589,3.22906144 578.123385,3.43880701 578.085249,3.62948765 C578.047113,3.8201683 577.98991,4.01084609 577.913638,4.20152674 C577.722957,4.84984094 577.522745,5.46000986 577.312997,6.0320518 C577.103248,6.60409374 576.903036,7.1761271 576.712356,7.74816904 C576.521675,8.35834711 576.330997,8.94944825 576.140316,9.5214902 C575.949636,10.0935321 575.758958,10.6464977 575.568277,11.1804035 C575.186916,12.3244874 574.796027,13.5257575 574.395597,14.7842498 C573.995168,16.042742 573.547075,17.3584188 573.051305,18.7313194 C572.555536,20.1042201 572.040706,21.5819729 571.5068,23.1646223 C570.972894,24.7472717 570.286454,26.7398545 569.447459,29.1424307 L591.41376,29.1424307 Z" id="ARREOLA" transform="translate(322.500000, 18.359494) rotate(-360.000000) translate(-322.500000, -18.359494) "></path>
        </g>
    </g>
</svg>