<?xml version="1.0" encoding="UTF-8"?>
<svg width="112px" height="773px" viewBox="0 0 112 773" version="1.1" xmlns="http://www.w3.org/2000/svg" xmlns:xlink="http://www.w3.org/1999/xlink">
    <!-- Generator: Sketch 47.1 (45422) - http://www.bohemiancoding.com/sketch -->
    <title>ARREOLA</title>
    <desc>Created with Sketch.</desc>
    <defs></defs>
    <g id="Bootstrap-4-Grid-System" stroke="none" stroke-width="1" fill="none" fill-rule="evenodd">
        <g id="Home-Copy" transform="translate(-12.000000, -41.000000)" fill="#272727">
            <path d="M-316.813534,482 C-317.164447,482 -317.415096,481.874676 -317.565487,481.624023 C-317.715878,481.373371 -317.740943,481.097658 -317.640682,480.796875 L-278.238338,372.966797 C-278.138078,372.565753 -277.887429,372.365234 -277.486385,372.365234 L-264.026424,372.365234 C-263.876033,372.365234 -263.713111,372.427897 -263.537655,372.553223 C-263.362198,372.678549 -263.249406,372.816405 -263.199276,372.966797 L-223.872128,480.796875 C-223.771867,481.097658 -223.796931,481.373371 -223.947323,481.624023 C-224.097714,481.874676 -224.323298,482 -224.624081,482 L-241.843807,482 C-242.244851,482 -242.495499,481.799481 -242.59576,481.398438 L-250.716854,457.636719 L-290.419979,457.636719 C-291.823632,461.697286 -293.214731,465.670065 -294.593319,469.555176 C-295.971907,473.440286 -297.363006,477.388001 -298.766659,481.398438 C-298.816789,481.548829 -298.929581,481.686686 -299.105038,481.812012 C-299.280494,481.937338 -299.443416,482 -299.593807,482 L-316.813534,482 Z M-256.130917,441.469727 C-256.231178,441.118813 -256.369034,440.742841 -256.544491,440.341797 C-256.719947,439.940753 -256.857804,439.589845 -256.958065,439.289062 C-257.810283,436.83267 -258.587293,434.564301 -259.28912,432.483887 C-259.990946,430.403473 -260.617567,428.586271 -261.169003,427.032227 C-261.519916,426.029617 -261.858291,425.052088 -262.184139,424.099609 C-262.509987,423.147131 -262.823298,422.244796 -263.124081,421.392578 C-263.374733,420.590491 -263.625381,419.826013 -263.876034,419.099121 C-264.126686,418.372229 -264.377335,417.657881 -264.627987,416.956055 C-265.079161,415.502271 -265.542861,414.04851 -266.0191,412.594727 C-266.49534,411.140943 -266.984104,409.637052 -267.485409,408.083008 C-267.736061,407.381181 -267.999242,406.604171 -268.27496,405.751953 C-268.550677,404.899735 -268.838923,403.997401 -269.139706,403.044922 C-269.290097,402.543617 -269.402889,402.155112 -269.478085,401.879395 C-269.55328,401.603677 -269.641007,401.327964 -269.741268,401.052246 C-269.841529,400.776529 -269.954321,400.463218 -270.079647,400.112305 C-270.204973,399.761391 -270.367895,399.260094 -270.568417,398.608398 C-271.119852,400.262704 -271.633681,401.79166 -272.109921,403.195312 C-272.58616,404.598965 -273.024795,405.902338 -273.425838,407.105469 C-273.526099,407.406252 -273.601294,407.681965 -273.651424,407.932617 C-273.701555,408.183269 -273.776749,408.433918 -273.87701,408.68457 C-274.127663,409.536788 -274.390844,410.338863 -274.666561,411.09082 C-274.942279,411.842777 -275.20546,412.594723 -275.456112,413.34668 C-275.706764,414.148767 -275.957413,414.925777 -276.208065,415.677734 C-276.458717,416.429691 -276.709366,417.156572 -276.960018,417.858398 C-277.461323,419.362312 -277.975152,420.941398 -278.501522,422.595703 C-279.027892,424.250008 -279.616916,425.979483 -280.268612,427.78418 C-280.920308,429.588876 -281.597059,431.531402 -282.298885,433.611816 C-283.000712,435.69223 -283.903046,438.311508 -285.005917,441.469727 L-256.130917,441.469727 Z M-170.810097,388.833008 L-170.810097,419.738281 L-146.973183,419.738281 C-141.158049,419.738281 -136.796765,418.134131 -133.889198,414.925781 C-130.981632,411.717432 -129.52787,407.907574 -129.52787,403.496094 C-129.52787,400.989571 -129.966505,398.758799 -130.843788,396.803711 C-131.721071,394.848623 -132.986846,393.244472 -134.641151,391.991211 C-136.094935,390.988602 -137.786812,390.211591 -139.716835,389.660156 C-141.646858,389.108721 -143.739773,388.833008 -145.995644,388.833008 L-170.810097,388.833008 Z M-188.029823,482.075195 C-188.631389,482.075195 -188.932167,481.774417 -188.932167,481.172852 L-188.932167,373.417969 C-188.932167,372.816403 -188.631389,372.515625 -188.029823,372.515625 L-145.845253,372.515625 C-141.18312,372.515625 -136.972225,373.154779 -133.21244,374.433105 C-129.452656,375.711432 -126.16916,377.528634 -123.361855,379.884766 C-121.908071,381.238288 -120.516972,382.779777 -119.188515,384.509277 C-117.860058,386.238778 -116.682009,388.10611 -115.654335,390.111328 C-114.626661,392.116546 -113.812053,394.247059 -113.210487,396.50293 C-112.608922,398.7588 -112.308144,401.089832 -112.308144,403.496094 C-112.308144,407.055356 -112.809441,410.426579 -113.81205,413.609863 C-114.814659,416.793147 -116.218291,419.763333 -118.022987,422.520508 C-119.877814,425.077161 -122.033392,427.320466 -124.489784,429.250488 C-126.946177,431.180511 -129.728375,432.721999 -132.836464,433.875 C-128.775897,441.645221 -124.690326,449.452923 -120.579628,457.29834 C-116.46893,465.143757 -112.383359,472.951459 -108.322792,480.72168 C-108.172401,481.072593 -108.172401,481.385904 -108.322792,481.661621 C-108.473183,481.937339 -108.723832,482.075195 -109.074745,482.075195 L-128.475136,482.075195 C-128.625527,482.075195 -128.775916,482.012533 -128.926308,481.887207 C-129.076699,481.761881 -129.202023,481.649089 -129.302284,481.548828 L-151.334511,436.055664 L-170.810097,436.055664 L-170.810097,481.172852 C-170.810097,481.774417 -171.110875,482.075195 -171.71244,482.075195 L-188.029823,482.075195 Z M-55.4111519,388.833008 L-55.4111519,419.738281 L-31.5742378,419.738281 C-25.7591046,419.738281 -21.3978201,418.134131 -18.4902534,414.925781 C-15.5826868,411.717432 -14.1289253,407.907574 -14.1289253,403.496094 C-14.1289253,400.989571 -14.5675603,398.758799 -15.4448433,396.803711 C-16.3221263,394.848623 -17.5879014,393.244472 -19.2422066,391.991211 C-20.6959899,390.988602 -22.3878675,390.211591 -24.3178902,389.660156 C-26.2479128,389.108721 -28.3408281,388.833008 -30.5966988,388.833008 L-55.4111519,388.833008 Z M-72.6308784,482.075195 C-73.232444,482.075195 -73.5332222,481.774417 -73.5332222,481.172852 L-73.5332222,373.417969 C-73.5332222,372.816403 -73.232444,372.515625 -72.6308784,372.515625 L-30.4463081,372.515625 C-25.7841755,372.515625 -21.5732801,373.154779 -17.8134956,374.433105 C-14.0537112,375.711432 -10.7702154,377.528634 -7.9629097,379.884766 C-6.50912639,381.238288 -5.11802702,382.779777 -3.78956985,384.509277 C-2.46111269,386.238778 -1.28306458,388.10611 -0.255390167,390.111328 C0.772284242,392.116546 1.58689198,394.247059 2.18845749,396.50293 C2.790023,398.7588 3.09080124,401.089832 3.09080124,403.496094 C3.09080124,407.055356 2.58950417,410.426579 1.58689499,413.609863 C0.584285809,416.793147 -0.819345988,419.763333 -2.62404251,422.520508 C-4.47886949,425.077161 -6.6344469,427.320466 -9.09083939,429.250488 C-11.5472319,431.180511 -14.3294306,432.721999 -17.4375191,433.875 C-13.3769519,441.645221 -9.29138077,449.452923 -5.18068314,457.29834 C-1.0699855,465.143757 3.01558562,472.951459 7.0761528,480.72168 C7.22654418,481.072593 7.22654418,481.385904 7.0761528,481.661621 C6.92576142,481.937339 6.67511289,482.075195 6.32419968,482.075195 L-13.0761909,482.075195 C-13.2265823,482.075195 -13.3769714,482.012533 -13.5273628,481.887207 C-13.6777542,481.761881 -13.8030785,481.649089 -13.9033394,481.548828 L-35.9355659,436.055664 L-55.4111519,436.055664 L-55.4111519,481.172852 C-55.4111519,481.774417 -55.7119301,482.075195 -56.3134956,482.075195 L-72.6308784,482.075195 Z M42.7680664,482.075195 C42.1665009,482.075195 41.8657227,481.774417 41.8657227,481.172852 L41.8657227,373.417969 C41.8657227,372.816403 42.1665009,372.515625 42.7680664,372.515625 L111.646973,372.515625 C112.248538,372.515625 112.549316,372.816403 112.549316,373.417969 L112.549316,388.908203 C112.549316,389.509769 112.248538,389.810547 111.646973,389.810547 L59.987793,389.810547 L59.987793,418.685547 L103.901855,418.685547 C104.503421,418.685547 104.804199,418.986325 104.804199,419.587891 L104.804199,434.175781 C104.804199,434.727216 104.503421,435.00293 103.901855,435.00293 L59.987793,435.00293 L59.987793,464.930664 L111.646973,464.930664 C112.248538,464.930664 112.549316,465.231442 112.549316,465.833008 L112.549316,481.172852 C112.549316,481.774417 112.248538,482.075195 111.646973,482.075195 L42.7680664,482.075195 Z M145.308613,427.333008 C145.308613,420.765918 145.39634,415.402039 145.571796,411.241211 C145.747253,407.080383 145.985369,404.047536 146.286152,402.142578 C146.637065,400.237621 147.138362,398.407886 147.790058,396.65332 C148.441754,394.898754 149.243829,393.169279 150.196308,391.464844 L150.121113,391.464844 C152.727897,386.602189 156.938792,382.090516 162.753925,377.929688 C168.619189,373.718729 175.913061,371.613281 184.635761,371.613281 C193.2582,371.613281 200.501943,373.718729 206.367207,377.929688 C212.282601,382.190777 216.543626,386.70245 219.15041,391.464844 C221.005237,394.873715 222.258479,398.432924 222.910175,402.142578 C223.261089,404.047536 223.524269,407.080383 223.699726,411.241211 C223.875183,415.402039 223.96291,420.765918 223.96291,427.333008 C223.96291,440.216536 223.612002,448.638327 222.910175,452.598633 C222.559262,454.553721 222.070497,456.40852 221.443867,458.163086 C220.817236,459.917652 220.077823,461.596997 219.225605,463.201172 C216.568691,468.013696 212.282601,472.52537 206.367207,476.736328 C200.451812,480.897156 193.20807,482.977539 184.635761,482.977539 C175.963192,482.977539 168.669319,480.897156 162.753925,476.736328 C156.938792,472.62563 152.727897,468.113957 150.121113,463.201172 L150.196308,463.201172 C149.243829,461.496736 148.441754,459.779794 147.790058,458.050293 C147.138362,456.320792 146.637065,454.50359 146.286152,452.598633 C145.985369,450.693675 145.747253,447.648296 145.571796,443.462402 C145.39634,439.276509 145.308613,433.900098 145.308613,427.333008 Z M163.430683,427.333008 C163.430683,432.797228 163.505878,437.296369 163.656269,440.830566 C163.80666,444.364764 164.082374,446.984041 164.483418,448.688477 C164.884461,450.242521 165.44842,451.784009 166.175312,453.312988 C166.902204,454.841967 167.716811,456.182937 168.61916,457.335938 C170.223334,459.441417 172.353847,461.233554 175.010761,462.712402 C177.667676,464.191251 180.875977,464.930664 184.635761,464.930664 C188.345415,464.930664 191.528652,464.191251 194.185566,462.712402 C196.84248,461.233554 198.947928,459.441417 200.501972,457.335938 C202.607451,454.779284 203.986018,451.896826 204.637714,448.688477 C205.439802,445.480127 205.840839,438.361709 205.840839,427.333008 C205.840839,421.868788 205.74058,417.369647 205.540058,413.835449 C205.339536,410.301252 205.038758,407.70704 204.637714,406.052734 C204.286801,404.44856 203.760439,402.882006 203.058613,401.353027 C202.356786,399.824048 201.529646,398.458014 200.577168,397.254883 C199.825211,396.302404 198.910343,395.375005 197.832539,394.472656 C196.754734,393.570308 195.539088,392.780765 194.185566,392.104004 C192.832044,391.427243 191.353217,390.875816 189.749043,390.449707 C188.144868,390.023598 186.440458,389.810547 184.635761,389.810547 C180.875977,389.810547 177.667676,390.562492 175.010761,392.066406 C172.353847,393.57032 170.223334,395.299795 168.61916,397.254883 C167.666681,398.458014 166.839541,399.824048 166.137714,401.353027 C165.435888,402.882006 164.884461,404.44856 164.483418,406.052734 C164.082374,407.75717 163.80666,410.38898 163.656269,413.948242 C163.505878,417.507505 163.430683,421.969049 163.430683,427.333008 Z M265.219276,482.075195 C264.617711,482.075195 264.316933,481.774417 264.316933,481.172852 L264.316933,373.417969 C264.316933,372.816403 264.617711,372.515625 265.219276,372.515625 L281.536659,372.515625 C282.138225,372.515625 282.439003,372.816403 282.439003,373.417969 L282.439003,464.930664 L334.098183,464.930664 C334.699748,464.930664 335.000526,465.231442 335.000526,465.833008 L335.000526,481.172852 C335.000526,481.774417 334.699748,482.075195 334.098183,482.075195 L265.219276,482.075195 Z M360.917049,482 C360.566136,482 360.315488,481.874676 360.165096,481.624023 C360.014705,481.373371 359.98964,481.097658 360.089901,480.796875 L399.492245,372.966797 C399.592506,372.565753 399.843154,372.365234 400.244198,372.365234 L413.704159,372.365234 C413.85455,372.365234 414.017472,372.427897 414.192928,372.553223 C414.368385,372.678549 414.481177,372.816405 414.531307,372.966797 L453.858456,480.796875 C453.958717,481.097658 453.933652,481.373371 453.78326,481.624023 C453.632869,481.874676 453.407285,482 453.106503,482 L435.886776,482 C435.485732,482 435.235084,481.799481 435.134823,481.398438 L427.013729,457.636719 L387.310604,457.636719 C385.906951,461.697286 384.515852,465.670065 383.137264,469.555176 C381.758677,473.440286 380.367577,477.388001 378.963924,481.398438 C378.913794,481.548829 378.801002,481.686686 378.625546,481.812012 C378.450089,481.937338 378.287167,482 378.136776,482 L360.917049,482 Z M421.599667,441.469727 C421.499406,441.118813 421.361549,440.742841 421.186092,440.341797 C421.010636,439.940753 420.872779,439.589845 420.772518,439.289062 C419.9203,436.83267 419.14329,434.564301 418.441463,432.483887 C417.739637,430.403473 417.113016,428.586271 416.561581,427.032227 C416.210667,426.029617 415.872292,425.052088 415.546444,424.099609 C415.220596,423.147131 414.907285,422.244796 414.606503,421.392578 C414.35585,420.590491 414.105202,419.826013 413.854549,419.099121 C413.603897,418.372229 413.353249,417.657881 413.102596,416.956055 C412.651422,415.502271 412.187722,414.04851 411.711483,412.594727 C411.235244,411.140943 410.746479,409.637052 410.245174,408.083008 C409.994522,407.381181 409.731341,406.604171 409.455624,405.751953 C409.179906,404.899735 408.89166,403.997401 408.590878,403.044922 C408.440486,402.543617 408.327694,402.155112 408.252499,401.879395 C408.177303,401.603677 408.089576,401.327964 407.989315,401.052246 C407.889054,400.776529 407.776262,400.463218 407.650936,400.112305 C407.52561,399.761391 407.362688,399.260094 407.162167,398.608398 C406.610732,400.262704 406.096902,401.79166 405.620663,403.195312 C405.144423,404.598965 404.705788,405.902338 404.304745,407.105469 C404.204484,407.406252 404.129289,407.681965 404.079159,407.932617 C404.029028,408.183269 403.953834,408.433918 403.853573,408.68457 C403.602921,409.536788 403.33974,410.338863 403.064022,411.09082 C402.788305,411.842777 402.525124,412.594723 402.274471,413.34668 C402.023819,414.148767 401.77317,414.925777 401.522518,415.677734 C401.271866,416.429691 401.021217,417.156572 400.770565,417.858398 C400.26926,419.362312 399.755431,420.941398 399.229061,422.595703 C398.702691,424.250008 398.113667,425.979483 397.461971,427.78418 C396.810275,429.588876 396.133524,431.531402 395.431698,433.611816 C394.729871,435.69223 393.827537,438.311508 392.724667,441.469727 L421.599667,441.469727 Z" id="ARREOLA" transform="translate(68.108887, 427.295410) rotate(-90.000000) translate(-68.108887, -427.295410) "></path>
        </g>
    </g>
</svg>