<?xml version="1.0" encoding="UTF-8"?>
<svg width="112px" height="772px" viewBox="0 0 112 772" version="1.1" xmlns="http://www.w3.org/2000/svg" xmlns:xlink="http://www.w3.org/1999/xlink">
    <!-- Generator: Sketch 47.1 (45422) - http://www.bohemiancoding.com/sketch -->
    <title>ARREOLA</title>
    <desc>Created with Sketch.</desc>
    <defs></defs>
    <g id="Bootstrap-4-Grid-System" stroke="none" stroke-width="1" fill="none" fill-rule="evenodd">
        <path d="M-329.112695,440.514315 C-329.463608,440.514315 -329.714257,440.388991 -329.864648,440.138339 C-330.015039,439.887687 -330.040104,439.611973 -329.939843,439.31119 L-290.5375,331.481112 C-290.437239,331.080069 -290.18659,330.87955 -289.785546,330.87955 L-276.325586,330.87955 C-276.175194,330.87955 -276.012273,330.942212 -275.836816,331.067538 C-275.661359,331.192864 -275.548568,331.330721 -275.498437,331.481112 L-236.171289,439.31119 C-236.071028,439.611973 -236.096093,439.887687 -236.246484,440.138339 C-236.396875,440.388991 -236.622459,440.514315 -236.923242,440.514315 L-254.142968,440.514315 C-254.544012,440.514315 -254.794661,440.313797 -254.894921,439.912753 L-263.016015,416.151034 L-302.71914,416.151034 C-304.122793,420.211601 -305.513892,424.184381 -306.89248,428.069491 C-308.271068,431.954602 -309.662167,435.902316 -311.06582,439.912753 C-311.11595,440.063144 -311.228742,440.201001 -311.404199,440.326327 C-311.579655,440.451653 -311.742577,440.514315 -311.892968,440.514315 L-329.112695,440.514315 Z M-268.430078,399.984042 C-268.530339,399.633129 -268.668195,399.257156 -268.843652,398.856112 C-269.019109,398.455069 -269.156965,398.104161 -269.257226,397.803378 C-270.109444,395.346985 -270.886454,393.078616 -271.588281,390.998202 C-272.290107,388.917788 -272.916729,387.100586 -273.468164,385.546542 C-273.819077,384.543933 -274.157452,383.566404 -274.4833,382.613925 C-274.809148,381.661446 -275.122459,380.759111 -275.423242,379.906894 C-275.673894,379.104806 -275.924543,378.340328 -276.175195,377.613437 C-276.425847,376.886545 -276.676496,376.172197 -276.927148,375.47037 C-277.378322,374.016587 -277.842022,372.562825 -278.318261,371.109042 C-278.794501,369.655259 -279.283265,368.151368 -279.78457,366.597323 C-280.035222,365.895497 -280.298403,365.118486 -280.574121,364.266269 C-280.849838,363.414051 -281.138084,362.511716 -281.438867,361.559237 C-281.589258,361.057933 -281.70205,360.669428 -281.777246,360.39371 C-281.852441,360.117992 -281.940168,359.842279 -282.040429,359.566562 C-282.14069,359.290844 -282.253482,358.977533 -282.378808,358.62662 C-282.504134,358.275707 -282.667056,357.77441 -282.867578,357.122714 C-283.419013,358.777019 -283.932842,360.305975 -284.409082,361.709628 C-284.885321,363.113281 -285.323956,364.416653 -285.725,365.619784 C-285.82526,365.920567 -285.900455,366.19628 -285.950586,366.446933 C-286.000716,366.697585 -286.075911,366.948233 -286.176171,367.198886 C-286.426824,368.051104 -286.690005,368.853179 -286.965722,369.605136 C-287.24144,370.357093 -287.504621,371.109038 -287.755273,371.860995 C-288.005925,372.663082 -288.256574,373.440093 -288.507226,374.19205 C-288.757878,374.944007 -289.008527,375.670887 -289.259179,376.372714 C-289.760484,377.876628 -290.274313,379.455713 -290.800683,381.110019 C-291.327053,382.764324 -291.916077,384.493799 -292.567773,386.298495 C-293.219469,388.103192 -293.89622,390.045718 -294.598046,392.126132 C-295.299873,394.206546 -296.202208,396.825823 -297.305078,399.984042 L-268.430078,399.984042 Z M-183.109258,347.347323 L-183.109258,378.252597 L-159.272344,378.252597 C-153.457211,378.252597 -149.095926,376.648446 -146.188359,373.440097 C-143.280793,370.231747 -141.827031,366.42189 -141.827031,362.010409 C-141.827031,359.503886 -142.265666,357.273114 -143.142949,355.318026 C-144.020232,353.362939 -145.286007,351.758788 -146.940313,350.505526 C-148.394096,349.502917 -150.085973,348.725907 -152.015996,348.174472 C-153.946019,347.623037 -156.038934,347.347323 -158.294805,347.347323 L-183.109258,347.347323 Z M-200.328984,440.589511 C-200.93055,440.589511 -201.231328,440.288733 -201.231328,439.687167 L-201.231328,331.932284 C-201.231328,331.330719 -200.93055,331.02994 -200.328984,331.02994 L-158.144414,331.02994 C-153.482281,331.02994 -149.271386,331.669094 -145.511602,332.947421 C-141.751817,334.225748 -138.468321,336.04295 -135.661016,338.399081 C-134.207232,339.752603 -132.816133,341.294092 -131.487676,343.023593 C-130.159219,344.753094 -128.981171,346.620425 -127.953496,348.625644 C-126.925822,350.630862 -126.111214,352.761374 -125.509648,355.017245 C-124.908083,357.273116 -124.607305,359.604147 -124.607305,362.010409 C-124.607305,365.569672 -125.108602,368.940895 -126.111211,372.124179 C-127.11382,375.307463 -128.517452,378.277648 -130.322148,381.034823 C-132.176975,383.591477 -134.332553,385.834781 -136.788945,387.764804 C-139.245338,389.694826 -142.027537,391.236315 -145.135625,392.389315 C-141.075058,400.159537 -136.989487,407.967238 -132.878789,415.812655 C-128.768091,423.658072 -124.68252,431.465774 -120.621953,439.235995 C-120.471562,439.586908 -120.471562,439.900219 -120.621953,440.175937 C-120.772345,440.451654 -121.022993,440.589511 -121.373906,440.589511 L-140.774297,440.589511 C-140.924688,440.589511 -141.075077,440.526849 -141.225469,440.401522 C-141.37586,440.276196 -141.501184,440.163405 -141.601445,440.063144 L-163.633672,394.56998 L-183.109258,394.56998 L-183.109258,439.687167 C-183.109258,440.288733 -183.410036,440.589511 -184.011602,440.589511 L-200.328984,440.589511 Z M-67.710313,347.347323 L-67.710313,378.252597 L-43.8733989,378.252597 C-38.0582657,378.252597 -33.6969812,376.648446 -30.7894145,373.440097 C-27.8818479,370.231747 -26.4280864,366.42189 -26.4280864,362.010409 C-26.4280864,359.503886 -26.8667214,357.273114 -27.7440044,355.318026 C-28.6212874,353.362939 -29.8870625,351.758788 -31.5413677,350.505526 C-32.995151,349.502917 -34.6870286,348.725907 -36.6170513,348.174472 C-38.5470739,347.623037 -40.6399892,347.347323 -42.8958599,347.347323 L-67.710313,347.347323 Z M-84.9300395,440.589511 C-85.5316051,440.589511 -85.8323833,440.288733 -85.8323833,439.687167 L-85.8323833,331.932284 C-85.8323833,331.330719 -85.5316051,331.02994 -84.9300395,331.02994 L-42.7454692,331.02994 C-38.0833365,331.02994 -33.8724412,331.669094 -30.1126567,332.947421 C-26.3528723,334.225748 -23.0693765,336.04295 -20.2620708,338.399081 C-18.8082875,339.752603 -17.4171881,341.294092 -16.088731,343.023593 C-14.7602738,344.753094 -13.5822257,346.620425 -12.5545513,348.625644 C-11.5268769,350.630862 -10.7122691,352.761374 -10.1107036,355.017245 C-9.5091381,357.273116 -9.20835986,359.604147 -9.20835986,362.010409 C-9.20835986,365.569672 -9.70965693,368.940895 -10.7122661,372.124179 C-11.7148753,375.307463 -13.1185071,378.277648 -14.9232036,381.034823 C-16.7780306,383.591477 -18.933608,385.834781 -21.3900005,387.764804 C-23.846393,389.694826 -26.6285917,391.236315 -29.7366802,392.389315 C-25.676113,400.159537 -21.5905419,407.967238 -17.4798442,415.812655 C-13.3691466,423.658072 -9.28357547,431.465774 -5.22300829,439.235995 C-5.07261692,439.586908 -5.07261692,439.900219 -5.22300829,440.175937 C-5.37339967,440.451654 -5.62404821,440.589511 -5.97496142,440.589511 L-25.375352,440.589511 C-25.5257434,440.589511 -25.6761325,440.526849 -25.8265239,440.401522 C-25.9769153,440.276196 -26.1022396,440.163405 -26.2025005,440.063144 L-48.234727,394.56998 L-67.710313,394.56998 L-67.710313,439.687167 C-67.710313,440.288733 -68.0110912,440.589511 -68.6126567,440.589511 L-84.9300395,440.589511 Z M30.4689053,440.589511 C29.8673398,440.589511 29.5665616,440.288733 29.5665616,439.687167 L29.5665616,331.932284 C29.5665616,331.330719 29.8673398,331.02994 30.4689053,331.02994 L99.3478116,331.02994 C99.9493771,331.02994 100.250155,331.330719 100.250155,331.932284 L100.250155,347.422519 C100.250155,348.024084 99.9493771,348.324862 99.3478116,348.324862 L47.6886319,348.324862 L47.6886319,377.199862 L91.6026944,377.199862 C92.2042599,377.199862 92.5050381,377.500641 92.5050381,378.102206 L92.5050381,392.690097 C92.5050381,393.241532 92.2042599,393.517245 91.6026944,393.517245 L47.6886319,393.517245 L47.6886319,423.44498 L99.3478116,423.44498 C99.9493771,423.44498 100.250155,423.745758 100.250155,424.347323 L100.250155,439.687167 C100.250155,440.288733 99.9493771,440.589511 99.3478116,440.589511 L30.4689053,440.589511 Z M133.009452,385.847323 C133.009452,379.280233 133.097179,373.916354 133.272635,369.755526 C133.448092,365.594698 133.686208,362.561851 133.986991,360.656894 C134.337904,358.751936 134.839201,356.922202 135.490897,355.167636 C136.142593,353.41307 136.944668,351.683595 137.897147,349.979159 L137.821952,349.979159 C140.428736,345.116505 144.639631,340.604831 150.454764,336.444003 C156.320028,332.233044 163.6139,330.127597 172.3366,330.127597 C180.959039,330.127597 188.202782,332.233044 194.068045,336.444003 C199.98344,340.705092 204.244465,345.216766 206.851249,349.979159 C208.706076,353.38803 209.959318,356.94724 210.611014,360.656894 C210.961927,362.561851 211.225108,365.594698 211.400565,369.755526 C211.576022,373.916354 211.663749,379.280233 211.663749,385.847323 C211.663749,398.730851 211.312841,407.152642 210.611014,411.112948 C210.260101,413.068036 209.771336,414.922835 209.144706,416.677401 C208.518075,418.431967 207.778662,420.111313 206.926444,421.715487 C204.26953,426.528011 199.98344,431.039685 194.068045,435.250644 C188.152651,439.411472 180.908909,441.491855 172.3366,441.491855 C163.664031,441.491855 156.370158,439.411472 150.454764,435.250644 C144.639631,431.139946 140.428736,426.628272 137.821952,421.715487 L137.897147,421.715487 C136.944668,420.011052 136.142593,418.294109 135.490897,416.564608 C134.839201,414.835108 134.337904,413.017906 133.986991,411.112948 C133.686208,409.207991 133.448092,406.162611 133.272635,401.976718 C133.097179,397.790824 133.009452,392.414413 133.009452,385.847323 Z M151.131522,385.847323 C151.131522,391.311543 151.206717,395.810685 151.357108,399.344882 C151.507499,402.879079 151.783213,405.498356 152.184256,407.202792 C152.5853,408.756836 153.149259,410.298325 153.876151,411.827304 C154.603043,413.356283 155.41765,414.697252 156.319999,415.850253 C157.924173,417.955732 160.054686,419.747869 162.7116,421.226718 C165.368514,422.705566 168.576816,423.44498 172.3366,423.44498 C176.046254,423.44498 179.229491,422.705566 181.886405,421.226718 C184.543319,419.747869 186.648767,417.955732 188.202811,415.850253 C190.30829,413.2936 191.686857,410.411141 192.338553,407.202792 C193.140641,403.994443 193.541678,396.876024 193.541678,385.847323 C193.541678,380.383103 193.441419,375.883962 193.240897,372.349765 C193.040375,368.815567 192.739597,366.221355 192.338553,364.56705 C191.98764,362.962875 191.461278,361.396322 190.759452,359.867343 C190.057625,358.338364 189.230485,356.972329 188.278006,355.769198 C187.52605,354.81672 186.611182,353.88932 185.533378,352.986972 C184.455573,352.084623 183.239927,351.295081 181.886405,350.618319 C180.532882,349.941558 179.054056,349.390131 177.449881,348.964022 C175.845707,348.537914 174.141297,348.324862 172.3366,348.324862 C168.576816,348.324862 165.368514,349.076808 162.7116,350.580722 C160.054686,352.084635 157.924173,353.81411 156.319999,355.769198 C155.36752,356.972329 154.54038,358.338364 153.838553,359.867343 C153.136727,361.396322 152.5853,362.962875 152.184256,364.56705 C151.783213,366.271485 151.507499,368.903295 151.357108,372.462558 C151.206717,376.02182 151.131522,380.483364 151.131522,385.847323 Z M252.920115,440.589511 C252.31855,440.589511 252.017772,440.288733 252.017772,439.687167 L252.017772,331.932284 C252.017772,331.330719 252.31855,331.02994 252.920115,331.02994 L269.237498,331.02994 C269.839064,331.02994 270.139842,331.330719 270.139842,331.932284 L270.139842,423.44498 L321.799022,423.44498 C322.400587,423.44498 322.701365,423.745758 322.701365,424.347323 L322.701365,439.687167 C322.701365,440.288733 322.400587,440.589511 321.799022,440.589511 L252.920115,440.589511 Z M348.617888,440.514315 C348.266975,440.514315 348.016327,440.388991 347.865935,440.138339 C347.715544,439.887687 347.690479,439.611973 347.79074,439.31119 L387.193084,331.481112 C387.293345,331.080069 387.543993,330.87955 387.945037,330.87955 L401.404998,330.87955 C401.555389,330.87955 401.718311,330.942212 401.893767,331.067538 C402.069224,331.192864 402.182016,331.330721 402.232146,331.481112 L441.559295,439.31119 C441.659555,439.611973 441.634491,439.887687 441.484099,440.138339 C441.333708,440.388991 441.108124,440.514315 440.807341,440.514315 L423.587615,440.514315 C423.186571,440.514315 422.935923,440.313797 422.835662,439.912753 L414.714568,416.151034 L375.011443,416.151034 C373.60779,420.211601 372.216691,424.184381 370.838103,428.069491 C369.459516,431.954602 368.068416,435.902316 366.664763,439.912753 C366.614633,440.063144 366.501841,440.201001 366.326384,440.326327 C366.150928,440.451653 365.988006,440.514315 365.837615,440.514315 L348.617888,440.514315 Z M409.300505,399.984042 C409.200245,399.633129 409.062388,399.257156 408.886931,398.856112 C408.711475,398.455069 408.573618,398.104161 408.473357,397.803378 C407.621139,395.346985 406.844129,393.078616 406.142302,390.998202 C405.440476,388.917788 404.813855,387.100586 404.26242,385.546542 C403.911506,384.543933 403.573131,383.566404 403.247283,382.613925 C402.921435,381.661446 402.608124,380.759111 402.307341,379.906894 C402.056689,379.104806 401.806041,378.340328 401.555388,377.613437 C401.304736,376.886545 401.054087,376.172197 400.803435,375.47037 C400.352261,374.016587 399.888561,372.562825 399.412322,371.109042 C398.936083,369.655259 398.447318,368.151368 397.946013,366.597323 C397.695361,365.895497 397.43218,365.118486 397.156463,364.266269 C396.880745,363.414051 396.592499,362.511716 396.291716,361.559237 C396.141325,361.057933 396.028533,360.669428 395.953338,360.39371 C395.878142,360.117992 395.790415,359.842279 395.690154,359.566562 C395.589893,359.290844 395.477101,358.977533 395.351775,358.62662 C395.226449,358.275707 395.063527,357.77441 394.863005,357.122714 C394.31157,358.777019 393.797741,360.305975 393.321502,361.709628 C392.845262,363.113281 392.406627,364.416653 392.005584,365.619784 C391.905323,365.920567 391.830128,366.19628 391.779998,366.446933 C391.729867,366.697585 391.654673,366.948233 391.554412,367.198886 C391.303759,368.051104 391.040578,368.853179 390.764861,369.605136 C390.489143,370.357093 390.225962,371.109038 389.97531,371.860995 C389.724658,372.663082 389.474009,373.440093 389.223357,374.19205 C388.972705,374.944007 388.722056,375.670887 388.471404,376.372714 C387.970099,377.876628 387.45627,379.455713 386.9299,381.110019 C386.40353,382.764324 385.814506,384.493799 385.16281,386.298495 C384.511114,388.103192 383.834363,390.045718 383.132537,392.126132 C382.43071,394.206546 381.528376,396.825823 380.425505,399.984042 L409.300505,399.984042 Z" id="ARREOLA" fill="#E0E1E2" transform="translate(55.809726, 385.809726) rotate(-90.000000) translate(-55.809726, -385.809726) "></path>
    </g>
</svg>