<?xml version="1.0" encoding="UTF-8"?>
<svg width="113px" height="774px" viewBox="0 0 113 774" version="1.1" xmlns="http://www.w3.org/2000/svg" xmlns:xlink="http://www.w3.org/1999/xlink">
    <!-- Generator: Sketch 47.1 (45422) - http://www.bohemiancoding.com/sketch -->
    <title>ARREOLA</title>
    <desc>Created with Sketch.</desc>
    <defs></defs>
    <g id="Bootstrap-4-Grid-System" stroke="none" stroke-width="1" fill="none" fill-rule="evenodd">
        <path d="M-328.112695,441.014315 L-310.892968,441.014315 C-310.858283,441.014315 -310.791835,440.988758 -310.694818,440.91946 C-310.599556,440.851416 -310.553765,440.79545 -310.537749,440.747578 C-309.133861,436.736469 -307.742523,432.788078 -306.363694,428.902286 C-304.985566,425.018471 -303.594916,421.046974 -302.191703,416.987679 L-302.075331,416.651034 L-261.658506,416.651034 L-261.542885,416.989331 L-253.40985,440.791485 C-253.364653,440.972273 -253.312101,441.014315 -253.142968,441.014315 L-235.923242,441.014315 C-235.796578,441.014315 -235.734459,440.979805 -235.67523,440.881091 C-235.60176,440.758641 -235.590494,440.634713 -235.641023,440.482509 L-274.972779,332.639226 C-274.986382,332.598416 -275.032173,332.542449 -275.127435,332.474405 C-275.224452,332.405107 -275.2909,332.37955 -275.325586,332.37955 L-288.785546,332.37955 C-288.954679,332.37955 -289.007231,332.421592 -289.067871,332.65272 L-328.465502,440.469304 C-328.520638,440.634713 -328.509372,440.758641 -328.435902,440.881091 C-328.381337,440.972032 -328.29677,441.014315 -328.112695,441.014315 Z M-266.949316,400.846681 L-266.767213,401.484042 L-297.00929,401.484042 L-296.777124,400.819201 C-295.674792,397.662523 -294.773007,395.044842 -294.071814,392.966307 C-293.368895,390.882652 -292.690988,388.936808 -292.03805,387.128673 C-291.388481,385.329867 -290.80152,383.606449 -290.277146,381.958417 C-289.750099,380.301983 -289.235565,378.720731 -288.73005,377.204546 C-288.480609,376.506111 -288.231116,375.782579 -287.981568,375.033936 C-287.731925,374.285007 -287.482241,373.510986 -287.229615,372.702881 C-286.977393,371.946217 -286.712577,371.1896 -286.43516,370.433008 C-286.163297,369.691563 -285.903506,368.899819 -285.64041,368.01319 C-285.55134,367.790515 -285.484933,367.569158 -285.440876,367.348875 C-285.386439,367.076693 -285.305848,366.781191 -285.199341,366.46167 C-284.798004,365.257659 -284.359086,363.953447 -283.882571,362.54898 C-283.40663,361.146208 -282.893083,359.618091 -282.341919,357.9646 L-281.84853,356.484433 L-281.389688,357.975671 C-281.191162,358.620883 -281.030318,359.115785 -280.907937,359.458452 C-280.782917,359.80851 -280.670445,360.120932 -280.570533,360.39569 C-280.465601,360.684251 -280.373703,360.973075 -280.294864,361.262151 C-280.220973,361.533086 -280.109241,361.917937 -279.962075,362.408672 C-279.661636,363.360063 -279.373745,364.261286 -279.098398,365.112358 C-278.824163,365.959996 -278.562579,366.732292 -278.308716,367.443822 C-277.807639,368.997159 -277.319107,370.500334 -276.843107,371.953388 C-276.366056,373.409647 -275.901564,374.865893 -275.456277,376.302202 C-275.205005,377.005763 -274.953752,377.721835 -274.702508,378.450441 C-274.450234,379.182036 -274.198074,379.951126 -273.951747,380.740484 C-273.650412,381.594264 -273.336575,382.498116 -273.010218,383.452081 C-272.684756,384.403433 -272.346765,385.379852 -271.99695,386.379337 C-271.444575,387.936031 -270.817122,389.755643 -270.114513,391.838377 C-269.413165,393.917374 -268.636615,396.184399 -267.782884,398.645264 C-267.687838,398.930404 -267.555365,399.267607 -267.385573,399.655703 C-267.201521,400.076393 -267.056022,400.473209 -266.949316,400.846681 Z M-182.609258,379.752597 L-182.609258,347.847323 L-157.294805,347.847323 C-154.993765,347.847323 -152.854723,348.129113 -150.878636,348.69371 C-148.897931,349.259625 -147.156528,350.059381 -145.638384,351.10698 C-143.916645,352.411328 -142.598111,354.082341 -141.68677,356.113331 C-140.779348,358.135586 -140.327031,360.435938 -140.327031,363.010409 C-140.327031,367.545368 -141.826519,371.47506 -144.817866,374.775856 C-147.829145,378.098647 -152.325821,379.752597 -158.272344,379.752597 L-182.609258,379.752597 Z M-140.189604,440.766406 C-140.110893,440.841351 -140.016047,440.925187 -139.905377,441.017412 C-139.839368,441.072419 -139.798348,441.089511 -139.774297,441.089511 L-120.373906,441.089511 C-120.200035,441.089511 -120.120493,441.045763 -120.060901,440.93651 C-119.988475,440.80373 -119.988475,440.650073 -120.065093,440.467571 C-124.125576,432.697511 -128.211063,424.889969 -132.321677,417.044712 C-136.432458,409.199135 -140.518113,401.391273 -144.578764,393.620892 L-144.841609,393.117917 L-144.309528,392.920532 C-141.249381,391.785316 -138.512809,390.269107 -136.097856,388.371645 C-133.677952,386.470291 -131.554589,384.260512 -129.740499,381.760994 C-127.960973,379.042274 -126.577007,376.113701 -125.588116,372.973973 C-124.601072,369.840108 -124.107305,366.519525 -124.107305,363.010409 C-124.107305,360.647315 -124.402494,358.359594 -124.992766,356.146076 C-125.585256,353.924237 -126.387142,351.826997 -127.398463,349.853689 C-128.41245,347.875177 -129.574327,346.033478 -130.884201,344.32817 C-132.196162,342.620147 -133.568712,341.099213 -134.982451,339.782068 C-137.741309,337.466599 -140.970244,335.679592 -144.672553,334.420807 C-148.378232,333.160876 -152.534986,332.52994 -157.144414,332.52994 L-199.328984,332.52994 C-199.654408,332.52994 -199.731328,332.606861 -199.731328,332.932284 L-199.731328,440.687167 C-199.731328,441.01259 -199.654408,441.089511 -199.328984,441.089511 L-183.011602,441.089511 C-182.686178,441.089511 -182.609258,441.01259 -182.609258,440.687167 L-182.609258,395.06998 L-162.32027,395.06998 L-140.189604,440.766406 Z M-67.210313,379.752597 L-67.210313,347.847323 L-41.8958599,347.847323 C-39.5948203,347.847323 -37.4557786,348.129113 -35.4796907,348.69371 C-33.4989862,349.259625 -31.7575829,350.059381 -30.2394388,351.10698 C-28.5177005,352.411328 -27.1991666,354.082341 -26.287825,356.113331 C-25.3804027,358.135586 -24.9280864,360.435938 -24.9280864,363.010409 C-24.9280864,367.545368 -26.427574,371.47506 -29.4189211,374.775856 C-32.4302,378.098647 -36.9268758,379.752597 -42.8733989,379.752597 L-67.210313,379.752597 Z M-24.7906595,440.766406 C-24.7119486,440.841351 -24.6171021,440.925187 -24.5064317,441.017412 C-24.440423,441.072419 -24.399403,441.089511 -24.375352,441.089511 L-4.97496142,441.089511 C-4.80108988,441.089511 -4.72154831,441.045763 -4.66195608,440.93651 C-4.5895302,440.80373 -4.5895302,440.650073 -4.66614769,440.467571 C-8.72663096,432.697511 -12.8121183,424.889969 -16.9227323,417.044712 C-21.0335136,409.199135 -25.1191685,401.391273 -29.1798196,393.620892 L-29.4426643,393.117917 L-28.9105836,392.920532 C-25.8504365,391.785316 -23.1138639,390.269107 -20.6989113,388.371645 C-18.2790071,386.470291 -16.155644,384.260512 -14.3415544,381.760994 C-12.5620284,379.042274 -11.1780616,376.113701 -10.1891708,372.973973 C-9.20212686,369.840108 -8.70835986,366.519525 -8.70835986,363.010409 C-8.70835986,360.647315 -9.00354962,358.359594 -9.59382108,356.146076 C-10.1863116,353.924237 -10.9881973,351.826997 -11.9995179,349.853689 C-13.0135054,347.875177 -14.1753823,346.033478 -15.4852565,344.32817 C-16.7972167,342.620147 -18.1697667,341.099213 -19.5835064,339.782068 C-22.3423639,337.466599 -25.5712994,335.679592 -29.2736081,334.420807 C-32.9792875,333.160876 -37.1360413,332.52994 -41.7454692,332.52994 L-83.9300395,332.52994 C-84.2554627,332.52994 -84.3323833,332.606861 -84.3323833,332.932284 L-84.3323833,440.687167 C-84.3323833,441.01259 -84.2554627,441.089511 -83.9300395,441.089511 L-67.6126567,441.089511 C-67.2872336,441.089511 -67.210313,441.01259 -67.210313,440.687167 L-67.210313,395.06998 L-46.9213256,395.06998 L-24.7906595,440.766406 Z M31.4689053,441.089511 L100.347812,441.089511 C100.673235,441.089511 100.750155,441.01259 100.750155,440.687167 L100.750155,425.347323 C100.750155,425.0219 100.673235,424.94498 100.347812,424.94498 L48.1886319,424.94498 L48.1886319,394.017245 L92.6026944,394.017245 C92.9373617,394.017245 93.0050381,393.955208 93.0050381,393.690097 L93.0050381,379.102206 C93.0050381,378.776783 92.9281175,378.699862 92.6026944,378.699862 L48.1886319,378.699862 L48.1886319,348.824862 L100.347812,348.824862 C100.673235,348.824862 100.750155,348.747942 100.750155,348.422519 L100.750155,332.932284 C100.750155,332.606861 100.673235,332.52994 100.347812,332.52994 L31.4689053,332.52994 C31.1434822,332.52994 31.0665616,332.606861 31.0665616,332.932284 L31.0665616,440.687167 C31.0665616,441.01259 31.1434822,441.089511 31.4689053,441.089511 Z M139.671348,350.479159 L138.821952,350.479159 L138.821952,350.979159 L139.262624,351.215396 C139.394659,350.9691 139.5309,350.723688 139.671348,350.479159 Z M139.667172,423.215487 C139.528554,422.971693 139.394039,422.726907 139.263626,422.481129 L138.821952,422.715487 L138.821952,423.215487 L139.667172,423.215487 Z M139.671348,350.479159 C142.262407,345.967972 146.285305,341.75765 151.745715,337.850633 C157.521963,333.703584 164.713775,331.627597 173.3366,331.627597 C181.85891,331.627597 189.000543,333.703365 194.776442,337.850165 C200.634477,342.069937 204.844755,346.527878 207.412654,351.219232 C209.241177,354.579763 210.476308,358.087536 211.118556,361.743407 C211.464989,363.62414 211.726459,366.637273 211.901009,370.776592 C212.07613,374.929473 212.163749,380.286698 212.163749,386.847323 C212.163749,399.700825 211.8136,408.104397 211.118685,412.0257 C210.772763,413.952973 210.291033,415.781078 209.673835,417.509233 C209.055302,419.241125 208.325664,420.89827 207.484886,422.48091 C204.870938,427.215473 200.636108,431.673189 194.77808,435.843311 C188.953348,439.940358 181.810186,441.991855 173.3366,441.991855 C164.762499,441.991855 157.56916,439.940146 151.742425,435.84168 C146.280917,431.980957 142.25758,427.771364 139.667172,423.215487 L139.749334,423.215487 L139.333619,422.471577 C138.393116,420.788572 137.60158,419.09419 136.958782,417.388304 C136.317692,415.686948 135.824309,413.898435 135.478717,412.022367 C135.183774,410.153342 134.946914,407.12403 134.772197,402.955778 C134.597071,398.777772 134.509452,393.407984 134.509452,386.847323 C134.509452,380.286698 134.59707,374.929473 134.772191,370.776592 C134.946906,366.633354 135.18376,363.616587 135.480872,361.734875 C135.824434,359.870727 136.318075,358.068938 136.95961,356.341729 C137.60227,354.611489 138.393533,352.905328 139.333619,351.22307 L139.749334,350.479159 L139.671348,350.479159 Z M151.631522,386.847323 C151.631522,381.476857 151.70683,377.008573 151.857554,373.44145 C152.009165,369.853323 152.287737,367.194228 152.699185,365.445782 C153.107759,363.811485 153.669472,362.215712 154.384139,360.658759 C155.102255,359.09429 155.950109,357.694046 156.933462,356.45204 C158.578759,354.446835 160.757086,352.678545 163.465301,351.145593 C166.20182,349.59662 169.494654,348.824862 173.3366,348.824862 C175.183752,348.824862 176.931265,349.043302 178.578243,349.48078 C180.214581,349.915432 181.72531,350.478755 183.110012,351.171106 C184.497739,351.864969 185.746108,352.675766 186.854346,353.603593 C187.957539,354.527196 188.896412,355.478931 189.670029,356.458847 C190.647896,357.694046 191.49575,359.09429 192.213866,360.658759 C192.930563,362.220134 193.468379,363.820776 193.824478,365.44925 C194.234222,367.13944 194.538,369.759529 194.740094,373.321441 C194.941218,376.866256 195.041678,381.374392 195.041678,386.847323 C195.041678,397.918742 194.639271,405.061475 193.828547,408.302322 C193.160513,411.591106 191.746118,414.548478 189.605098,417.147179 C188.006865,419.312528 185.846696,421.151243 183.129576,422.663602 C180.394081,424.186189 177.127423,424.94498 173.3366,424.94498 C169.495872,424.94498 166.204229,424.186359 163.468429,422.663602 C160.75332,421.152362 158.56979,419.315628 156.926246,417.158407 C156.000366,415.975338 155.166722,414.603031 154.424584,413.041983 C153.684177,411.484574 153.109241,409.913085 152.697548,408.317312 C152.287767,406.575743 152.009177,403.92914 151.85756,400.366139 C151.706829,396.823968 151.631522,392.318079 151.631522,386.847323 Z M253.920115,441.089511 L322.799022,441.089511 C323.124445,441.089511 323.201365,441.01259 323.201365,440.687167 L323.201365,425.347323 C323.201365,425.0219 323.124445,424.94498 322.799022,424.94498 L270.639842,424.94498 L270.639842,332.932284 C270.639842,332.606861 270.562921,332.52994 270.237498,332.52994 L253.920115,332.52994 C253.594692,332.52994 253.517772,332.606861 253.517772,332.932284 L253.517772,440.687167 C253.517772,441.01259 253.594692,441.089511 253.920115,441.089511 Z M349.617888,441.014315 L366.837615,441.014315 C366.8723,441.014315 366.938748,440.988758 367.035765,440.91946 C367.131027,440.851416 367.176818,440.79545 367.192834,440.747578 C368.596722,436.736469 369.98806,432.788078 371.366889,428.902286 C372.745017,425.018471 374.135668,421.046974 375.538881,416.987679 L375.655252,416.651034 L416.072078,416.651034 L416.187698,416.989331 L424.320733,440.791485 C424.36593,440.972273 424.418483,441.014315 424.587615,441.014315 L441.807341,441.014315 C441.934006,441.014315 441.996124,440.979805 442.055353,440.881091 C442.128823,440.758641 442.140089,440.634713 442.089561,440.482509 L402.757804,332.639226 C402.744201,332.598416 402.69841,332.542449 402.603148,332.474405 C402.506131,332.405107 402.439683,332.37955 402.404998,332.37955 L388.945037,332.37955 C388.775904,332.37955 388.723352,332.421592 388.662712,332.65272 L349.265082,440.469304 C349.209945,440.634713 349.221211,440.758641 349.294682,440.881091 C349.349246,440.972032 349.433813,441.014315 349.617888,441.014315 Z M410.96337,401.484042 L380.721293,401.484042 L380.95346,400.819201 C382.055792,397.662523 382.957576,395.044842 383.658769,392.966307 C384.361688,390.882652 385.039596,388.936808 385.692533,387.128673 C386.342102,385.329867 386.929063,383.606449 387.453437,381.958417 C387.980484,380.301983 388.495019,378.720731 389.000533,377.204546 C389.249974,376.506111 389.499468,375.782579 389.749015,375.033936 C389.998658,374.285007 390.248342,373.510986 390.500969,372.702881 C390.75319,371.946217 391.018006,371.1896 391.295423,370.433008 C391.567286,369.691563 391.827077,368.899819 392.090173,368.01319 C392.179244,367.790515 392.245651,367.569158 392.289707,367.348875 C392.344144,367.076693 392.424735,366.781191 392.531242,366.46167 C392.932579,365.257659 393.371497,363.953447 393.848012,362.54898 C394.323953,361.146208 394.8375,359.618091 395.388664,357.9646 L395.882053,356.484433 L396.340895,357.975671 C396.539422,358.620883 396.700265,359.115785 396.822646,359.458452 C396.947667,359.80851 397.060139,360.120932 397.160051,360.39569 C397.264982,360.684251 397.35688,360.973075 397.435719,361.262151 C397.509611,361.533086 397.621342,361.917937 397.768508,362.408672 C398.068947,363.360063 398.356838,364.261286 398.632185,365.112358 C398.906421,365.959996 399.168004,366.732292 399.421868,367.443822 C399.922944,368.997159 400.411476,370.500334 400.887476,371.953388 C401.364527,373.409647 401.829019,374.865893 402.274306,376.302202 C402.525578,377.005763 402.776831,377.721835 403.028075,378.450441 C403.280349,379.182036 403.532509,379.951126 403.778837,380.740484 C404.080171,381.594264 404.394009,382.498116 404.720365,383.452081 C405.045827,384.403433 405.383819,385.379852 405.733633,386.379337 C406.286009,387.936031 406.913461,389.755643 407.61607,391.838377 C408.317418,393.917374 409.093969,396.184399 409.947699,398.645264 C410.042745,398.930404 410.175218,399.267607 410.34501,399.655703 C410.529062,400.076393 410.674561,400.473209 410.781267,400.846681 L410.96337,401.484042 Z" id="ARREOLA" stroke="#272727" transform="translate(56.809726, 386.809726) rotate(-90.000000) translate(-56.809726, -386.809726) "></path>
    </g>
</svg>