<?xml version="1.0" encoding="UTF-8"?>
<svg width="232px" height="33px" viewBox="0 0 232 33" version="1.1" xmlns="http://www.w3.org/2000/svg" xmlns:xlink="http://www.w3.org/1999/xlink">
    <!-- Generator: Sketch 47.1 (45422) - http://www.bohemiancoding.com/sketch -->
    <title>ARREOLA</title>
    <desc>Created with Sketch.</desc>
    <defs></defs>
    <g id="Bootstrap-4-Grid-System" stroke="none" stroke-width="1" fill="none" fill-rule="evenodd">
        <g id="Home" transform="translate(-20.000000, -7.000000)" fill="#E0E1E2">
            <path d="M20.2667828,39.7103309 C20.161275,39.7103309 20.0859134,39.6731942 20.0406958,39.5989196 C19.9954782,39.5246451 19.987942,39.4429444 20.0180871,39.353815 L31.8650457,7.40108035 C31.8951908,7.28224113 31.9705524,7.22282242 32.0911327,7.22282242 L36.1380899,7.22282242 C36.1833076,7.22282242 36.2322926,7.24139077 36.2850465,7.27852802 C36.3378004,7.31566528 36.3717131,7.35651564 36.3867856,7.40108035 L48.2111356,39.353815 C48.2412806,39.4429444 48.2337445,39.5246451 48.1885269,39.5989196 C48.1433092,39.6731942 48.0754838,39.7103309 47.9850486,39.7103309 L42.8076563,39.7103309 C42.687076,39.7103309 42.6117144,39.6509121 42.5815693,39.5320729 L40.1398298,32.4908845 L28.2024364,32.4908845 C27.7804052,33.6941316 27.3621484,34.8713649 26.9476535,36.0226199 C26.5331586,37.1738748 26.1149019,38.3436808 25.6928707,39.5320729 C25.6777982,39.5766376 25.6438855,39.617488 25.5911316,39.6546253 C25.5383777,39.6917625 25.4893926,39.7103309 25.444175,39.7103309 L20.2667828,39.7103309 Z M38.5120034,27.7002026 C38.4818583,27.5962183 38.4404095,27.4848082 38.3876556,27.3659689 C38.3349017,27.2471297 38.2934528,27.143147 38.2633077,27.0540176 C38.0070745,26.3261274 37.7734536,25.6539531 37.562438,25.0374747 C37.3514224,24.4209962 37.1630185,23.8825141 36.9972205,23.4220122 C36.8917127,23.1249141 36.7899746,22.8352479 36.6920031,22.5530047 C36.5940316,22.2707616 36.4998296,22.0033774 36.4093943,21.750844 C36.3340316,21.5131656 36.2586701,21.2866317 36.1833073,21.0712357 C36.1079446,20.8558396 36.0325831,20.6441604 35.9572203,20.4361918 C35.8215675,20.0053996 35.6821486,19.5746139 35.5389594,19.1438217 C35.3957703,18.7130296 35.2488152,18.2673892 35.0980898,17.8068872 C35.0227271,17.5989186 34.9435974,17.3686711 34.8606984,17.1161377 C34.7777994,16.8636044 34.6911336,16.5962202 34.6006984,16.313977 C34.5554807,16.165428 34.521568,16.0503043 34.4989592,15.9686023 C34.4763504,15.8869003 34.4499739,15.8051996 34.4198288,15.7234976 C34.3896837,15.6417957 34.355771,15.5489539 34.3180896,15.4449696 C34.2804083,15.3409853 34.2314232,15.1924385 34.1711331,14.9993248 C34.0053351,15.4895365 33.8508439,15.9426043 33.7076547,16.3585415 C33.5644656,16.7744788 33.4325828,17.1607004 33.3120025,17.5172181 C33.2818574,17.6063475 33.2592489,17.6880482 33.2441764,17.7623228 C33.2291038,17.8365973 33.2064954,17.9108707 33.1763503,17.9851452 C33.1009876,18.2376785 33.0218579,18.4753534 32.9389589,18.6981769 C32.85606,18.9210004 32.7769303,19.1438206 32.7015676,19.3666442 C32.6262049,19.6043226 32.5508433,19.8345701 32.4754806,20.0573937 C32.4001179,20.2802172 32.3247563,20.49561 32.2493936,20.7035787 C32.0986682,21.1492257 31.944177,21.6171481 31.7859153,22.1073599 C31.6276536,22.5975717 31.4505539,23.1100581 31.2546108,23.6448346 C31.0586678,24.179611 30.8551915,24.7552299 30.6441759,25.3717083 C30.4331603,25.9881867 30.1618587,26.7643437 29.8302627,27.7002026 L38.5120034,27.7002026 Z M64.1651025,12.1026334 L64.1651025,21.2606347 L71.3320603,21.2606347 C73.0804752,21.2606347 74.3917666,20.785285 75.265974,19.8345712 C76.1401815,18.8838575 76.5772786,17.7549019 76.5772786,16.4476705 C76.5772786,15.7049254 76.4453959,15.0438922 76.1816264,14.464551 C75.9178569,13.8852098 75.5372809,13.4098601 75.039887,13.0384875 C74.6027833,12.7413895 74.0940927,12.5111419 73.5137998,12.347738 C72.933507,12.1843341 72.3042378,12.1026334 71.6259734,12.1026334 L64.1651025,12.1026334 Z M58.9877103,39.7326131 C58.8068398,39.7326131 58.7164059,39.643485 58.7164059,39.4652262 L58.7164059,7.5347738 C58.7164059,7.35651498 58.8068398,7.2673869 58.9877103,7.2673869 L71.6711908,7.2673869 C73.0729372,7.2673869 74.3390117,7.45678406 75.4694523,7.83558406 C76.599893,8.21438407 77.5871297,8.75286619 78.431192,9.45104659 C78.8682957,9.85212895 79.2865525,10.3089103 79.6859748,10.8214045 C80.0853972,11.3338986 80.4395966,11.8872354 80.7485837,12.4814315 C81.0575708,13.0756275 81.3024959,13.7069514 81.4833664,14.375422 C81.6642369,15.0438926 81.7546708,15.7346352 81.7546708,16.4476705 C81.7546708,17.5023685 81.6039477,18.5013457 81.3024969,19.444632 C81.001046,20.3879183 80.5790212,21.268058 80.0364097,22.0850777 C79.4787256,22.8426777 78.830616,23.5074246 78.0920615,24.0793383 C77.353507,24.651252 76.5169934,25.1080334 75.5824958,25.4496962 C76.8033717,27.752206 78.0317655,30.0658223 79.2677139,32.3906144 C80.5036623,34.7154066 81.732056,37.0290229 82.9529319,39.3315327 C82.9981496,39.4355171 82.9981496,39.5283588 82.9529319,39.6100608 C82.9077143,39.6917627 82.8323527,39.7326131 82.7268449,39.7326131 L76.8938004,39.7326131 C76.8485828,39.7326131 76.8033658,39.7140448 76.7581482,39.6769075 C76.7129306,39.6397702 76.6752498,39.6063472 76.6451047,39.5766374 L70.0207557,26.0958812 L64.1651025,26.0958812 L64.1651025,39.4652262 C64.1651025,39.643485 64.0746686,39.7326131 63.8937981,39.7326131 L58.9877103,39.7326131 Z M98.8616815,12.1026334 L98.8616815,21.2606347 L106.028639,21.2606347 C107.777054,21.2606347 109.088346,20.785285 109.962553,19.8345712 C110.83676,18.8838575 111.273858,17.7549019 111.273858,16.4476705 C111.273858,15.7049254 111.141975,15.0438922 110.878205,14.464551 C110.614436,13.8852098 110.23386,13.4098601 109.736466,13.0384875 C109.299362,12.7413895 108.790672,12.5111419 108.210379,12.347738 C107.630086,12.1843341 107.000817,12.1026334 106.322552,12.1026334 L98.8616815,12.1026334 Z M93.6842893,39.7326131 C93.5034188,39.7326131 93.4129849,39.643485 93.4129849,39.4652262 L93.4129849,7.5347738 C93.4129849,7.35651498 93.5034188,7.2673869 93.6842893,7.2673869 L106.36777,7.2673869 C107.769516,7.2673869 109.035591,7.45678406 110.166031,7.83558406 C111.296472,8.21438407 112.283709,8.75286619 113.127771,9.45104659 C113.564875,9.85212895 113.983131,10.3089103 114.382554,10.8214045 C114.781976,11.3338986 115.136176,11.8872354 115.445163,12.4814315 C115.75415,13.0756275 115.999075,13.7069514 116.179945,14.375422 C116.360816,15.0438926 116.45125,15.7346352 116.45125,16.4476705 C116.45125,17.5023685 116.300527,18.5013457 115.999076,19.444632 C115.697625,20.3879183 115.2756,21.268058 114.732989,22.0850777 C114.175305,22.8426777 113.527195,23.5074246 112.78864,24.0793383 C112.050086,24.651252 111.213572,25.1080334 110.279075,25.4496962 C111.499951,27.752206 112.728344,30.0658223 113.964293,32.3906144 C115.200241,34.7154066 116.428635,37.0290229 117.649511,39.3315327 C117.694729,39.4355171 117.694729,39.5283588 117.649511,39.6100608 C117.604293,39.6917627 117.528932,39.7326131 117.423424,39.7326131 L111.590379,39.7326131 C111.545162,39.7326131 111.499945,39.7140448 111.454727,39.6769075 C111.40951,39.6397702 111.371829,39.6063472 111.341684,39.5766374 L104.717335,26.0958812 L98.8616815,26.0958812 L98.8616815,39.4652262 C98.8616815,39.643485 98.7712476,39.7326131 98.5903771,39.7326131 L93.6842893,39.7326131 Z M128.380868,39.7326131 C128.199998,39.7326131 128.109564,39.643485 128.109564,39.4652262 L128.109564,7.5347738 C128.109564,7.35651498 128.199998,7.2673869 128.380868,7.2673869 L149.090437,7.2673869 C149.271308,7.2673869 149.361741,7.35651498 149.361741,7.5347738 L149.361741,12.1249156 C149.361741,12.3031744 149.271308,12.3923025 149.090437,12.3923025 L133.55826,12.3923025 L133.55826,20.9486833 L146.761741,20.9486833 C146.942612,20.9486833 147.033045,21.0378114 147.033045,21.2160702 L147.033045,25.5388251 C147.033045,25.702229 146.942612,25.7839298 146.761741,25.7839298 L133.55826,25.7839298 L133.55826,34.652262 L149.090437,34.652262 C149.271308,34.652262 149.361741,34.7413901 149.361741,34.9196489 L149.361741,39.4652262 C149.361741,39.643485 149.271308,39.7326131 149.090437,39.7326131 L128.380868,39.7326131 Z M159.21136,23.5111411 C159.21136,21.5651489 159.237736,19.9756983 159.29049,18.7427414 C159.343244,17.5097845 159.414837,16.6110764 159.505273,16.0465901 C159.61078,15.4821039 159.761504,14.9399081 159.957447,14.4199865 C160.15339,13.9000649 160.394547,13.3875785 160.680925,12.8825118 L160.658316,12.8825118 C161.442088,11.4415863 162.708163,10.1046652 164.456578,8.87170831 C166.220065,7.62389653 168.413087,7 171.035709,7 C173.628187,7 175.806136,7.62389653 177.569624,8.87170831 C179.348184,10.134375 180.62933,11.4712961 181.413103,12.8825118 C181.970787,13.8926452 182.347595,14.9473274 182.543538,16.0465901 C182.649045,16.6110764 182.728175,17.5097845 182.780929,18.7427414 C182.833683,19.9756983 182.860059,21.5651489 182.860059,23.5111411 C182.860059,27.328851 182.754553,29.8244371 182.543538,30.9979743 C182.43803,31.5773155 182.291075,32.1269387 182.102668,32.6468602 C181.914261,33.1667818 181.691945,33.6644136 181.435711,34.1397704 C180.636867,35.565841 179.348184,36.9027622 177.569624,38.1505739 C175.791064,39.3835308 173.613114,40 171.035709,40 C168.42816,40 166.235138,39.3835308 164.456578,38.1505739 C162.708163,36.932472 161.442088,35.5955508 160.658316,34.1397704 L160.680925,34.1397704 C160.394547,33.6347038 160.15339,33.125931 159.957447,32.6134369 C159.761504,32.1009427 159.61078,31.5624606 159.505273,30.9979743 C159.414837,30.4334881 159.343244,29.5310663 159.29049,28.290682 C159.237736,27.0502976 159.21136,25.4571333 159.21136,23.5111411 Z M164.660056,23.5111411 C164.660056,25.1303254 164.682665,26.4635329 164.727882,27.5108035 C164.7731,28.5580741 164.855998,29.3342311 164.976578,29.8392978 C165.097158,30.2997997 165.266722,30.7565811 165.485274,31.2096556 C165.703826,31.6627302 165.948751,32.0600928 166.220056,32.4017556 C166.702378,33.0256615 167.342951,33.5567162 168.141796,33.9949359 C168.940641,34.4331555 169.905269,34.652262 171.035709,34.652262 C172.151078,34.652262 173.10817,34.4331555 173.907014,33.9949359 C174.705859,33.5567162 175.338896,33.0256615 175.806145,32.4017556 C176.439192,31.6441556 176.853681,30.7900115 177.049624,29.8392978 C177.290784,28.888584 177.411363,26.7792196 177.411363,23.5111411 C177.411363,21.8919568 177.381218,20.5587493 177.320928,19.5114787 C177.260638,18.4642081 177.170204,17.6954785 177.049624,17.2052667 C176.944116,16.7299098 176.785856,16.2657011 176.574841,15.8126266 C176.363825,15.3595521 176.115132,14.9547621 175.828754,14.5982444 C175.602666,14.3160013 175.327596,14.0411897 175.003536,13.7738015 C174.679477,13.5064132 174.313973,13.272452 173.907014,13.0719109 C173.500056,12.8713697 173.055422,12.7079682 172.573101,12.5817016 C172.09078,12.4554349 171.578321,12.3923025 171.035709,12.3923025 C169.905269,12.3923025 168.940641,12.6151227 168.141796,13.0607698 C167.342951,13.5064168 166.702378,14.0189032 166.220056,14.5982444 C165.933678,14.9547621 165.684985,15.3595521 165.473969,15.8126266 C165.262954,16.2657011 165.097158,16.7299098 164.976578,17.2052667 C164.855998,17.7103334 164.7731,18.490204 164.727882,19.5449021 C164.682665,20.5996001 164.660056,21.9216666 164.660056,23.5111411 Z M195.26446,39.7326131 C195.08359,39.7326131 194.993156,39.643485 194.993156,39.4652262 L194.993156,7.5347738 C194.993156,7.35651498 195.08359,7.2673869 195.26446,7.2673869 L200.170548,7.2673869 C200.351419,7.2673869 200.441853,7.35651498 200.441853,7.5347738 L200.441853,34.652262 L215.974029,34.652262 C216.1549,34.652262 216.245334,34.7413901 216.245334,34.9196489 L216.245334,39.4652262 C216.245334,39.643485 216.1549,39.7326131 215.974029,39.7326131 L195.26446,39.7326131 Z M224.03756,39.7103309 C223.932052,39.7103309 223.856691,39.6731942 223.811473,39.5989196 C223.766256,39.5246451 223.758719,39.4429444 223.788864,39.353815 L235.635823,7.40108035 C235.665968,7.28224113 235.74133,7.22282242 235.86191,7.22282242 L239.908867,7.22282242 C239.954085,7.22282242 240.00307,7.24139077 240.055824,7.27852802 C240.108578,7.31566528 240.14249,7.35651564 240.157563,7.40108035 L251.981913,39.353815 C252.012058,39.4429444 252.004522,39.5246451 251.959304,39.5989196 C251.914087,39.6731942 251.846261,39.7103309 251.755826,39.7103309 L246.578434,39.7103309 C246.457853,39.7103309 246.382492,39.6509121 246.352347,39.5320729 L243.910607,32.4908845 L231.973214,32.4908845 C231.551183,33.6941316 231.132926,34.8713649 230.718431,36.0226199 C230.303936,37.1738748 229.885679,38.3436808 229.463648,39.5320729 C229.448576,39.5766376 229.414663,39.617488 229.361909,39.6546253 C229.309155,39.6917625 229.26017,39.7103309 229.214952,39.7103309 L224.03756,39.7103309 Z M242.282781,27.7002026 C242.252636,27.5962183 242.211187,27.4848082 242.158433,27.3659689 C242.105679,27.2471297 242.06423,27.143147 242.034085,27.0540176 C241.777852,26.3261274 241.544231,25.6539531 241.333215,25.0374747 C241.1222,24.4209962 240.933796,23.8825141 240.767998,23.4220122 C240.66249,23.1249141 240.560752,22.8352479 240.46278,22.5530047 C240.364809,22.2707616 240.270607,22.0033774 240.180172,21.750844 C240.104809,21.5131656 240.029447,21.2866317 239.954085,21.0712357 C239.878722,20.8558396 239.80336,20.6441604 239.727998,20.4361918 C239.592345,20.0053996 239.452926,19.5746139 239.309737,19.1438217 C239.166548,18.7130296 239.019593,18.2673892 238.868867,17.8068872 C238.793504,17.5989186 238.714375,17.3686711 238.631476,17.1161377 C238.548577,16.8636044 238.461911,16.5962202 238.371476,16.313977 C238.326258,16.165428 238.292345,16.0503043 238.269737,15.9686023 C238.247128,15.8869003 238.220751,15.8051996 238.190606,15.7234976 C238.160461,15.6417957 238.126548,15.5489539 238.088867,15.4449696 C238.051186,15.3409853 238.002201,15.1924385 237.94191,14.9993248 C237.776112,15.4895365 237.621621,15.9426043 237.478432,16.3585415 C237.335243,16.7744788 237.20336,17.1607004 237.08278,17.5172181 C237.052635,17.6063475 237.030026,17.6880482 237.014954,17.7623228 C236.999881,17.8365973 236.977273,17.9108707 236.947128,17.9851452 C236.871765,18.2376785 236.792635,18.4753534 236.709736,18.6981769 C236.626837,18.9210004 236.547708,19.1438206 236.472345,19.3666442 C236.396982,19.6043226 236.321621,19.8345701 236.246258,20.0573937 C236.170895,20.2802172 236.095534,20.49561 236.020171,20.7035787 C235.869446,21.1492257 235.714954,21.6171481 235.556693,22.1073599 C235.398431,22.5975717 235.221331,23.1100581 235.025388,23.6448346 C234.829445,24.179611 234.625969,24.7552299 234.414953,25.3717083 C234.203938,25.9881867 233.932636,26.7643437 233.60104,27.7002026 L242.282781,27.7002026 Z" id="ARREOLA" transform="translate(136.000000, 23.500000) rotate(-360.000000) translate(-136.000000, -23.500000) "></path>
        </g>
    </g>
</svg>