<?xml version="1.0" encoding="UTF-8"?>
<svg width="380px" height="202px" viewBox="0 0 380 202" version="1.1" xmlns="http://www.w3.org/2000/svg" xmlns:xlink="http://www.w3.org/1999/xlink">
    <!-- Generator: Sketch 49.3 (51167) - http://www.bohemiancoding.com/sketch -->
    <title>Path 2</title>
    <desc>Created with Sketch.</desc>
    <defs></defs>
    <g id="Bootstrap-4-Grid-System" stroke="none" stroke-width="1" fill="none" fill-rule="evenodd">
        <g id="Home-Copy-7" transform="translate(-1008.000000, 0.000000)" fill="#FCF5F0">
            <path d="M1022.47061,-30.4785093 C1022.47061,-30.4785093 997.438694,13.4111328 1013.22061,39.994147 C1027.25827,63.6391413 1076.34968,50.4445084 1090.45108,70.9824282 C1114.40279,105.8668 1084.80826,156.773203 1113.20498,189.197272 C1115.49386,191.810764 1118.2926,194.030018 1121.31436,195.744147 C1125.14945,197.919649 1129.26214,199.761675 1133.56045,200.744147 C1175.22775,210.268101 1192.47855,155.515173 1229.88858,143.677741 C1263.01518,133.195686 1289.71213,141.383789 1318.00967,135.240241 C1332.07037,132.187588 1344.28518,126.47708 1357.0292,121.091803 C1361.33596,119.271883 1373.16302,112.629867 1376.70889,107.076178 C1392.69966,82.0307582 1392.02394,46.7237854 1366.93936,28.431647 C1348.6594,15.1015625 1340.09526,11.1181577 1333.22678,-1.50292969 C1327.90931,-11.2739805 1333.22678,-30.4785093 1333.22678,-53.8222656 C1333.22678,-77.166022 1274.99338,-92 1212.54807,-92 C1150.10276,-92 1085.26291,-83.2988281 1058.57541,-65.0429687 C1047.27304,-57.3114635 1022.47061,-30.4785093 1022.47061,-30.4785093 Z" id="Path-2"></path>
        </g>
    </g>
</svg>